<?xml version="1.0" encoding="utf-8"?>
<!-- Generator: Adobe Illustrator 18.1.1, SVG Export Plug-In . SVG Version: 6.00 Build 0)  -->
<svg version="1.1" id="Layer_1" xmlns="http://www.w3.org/2000/svg" xmlns:xlink="http://www.w3.org/1999/xlink" x="0px" y="0px"
	 width="16.1px" height="16px" viewBox="0 0 16.1 16" enable-background="new 0 0 16.1 16" xml:space="preserve">
<path d="M5.2,13.4c0.3,0,0.6-0.3,0.6-0.6V8.7c0-0.3-0.3-0.6-0.6-0.6c-0.3,0-0.6,0.3-0.6,0.6v4.1C4.6,13.2,4.9,13.4,5.2,13.4"/>
<path d="M8,13.4c0.3,0,0.6-0.3,0.6-0.6V8.7c0-0.3-0.3-0.6-0.6-0.6c-0.3,0-0.6,0.3-0.6,0.6v4.1C7.4,13.2,7.7,13.4,8,13.4"/>
<path d="M10.8,13.4c0.3,0,0.6-0.3,0.6-0.6V8.7c0-0.3-0.3-0.6-0.6-0.6c-0.3,0-0.6,0.3-0.6,0.6v4.1C10.2,13.2,10.5,13.4,10.8,13.4"/>
<path d="M15.4,2.5h-4.1V0.6C11.3,0.3,11,0,10.7,0H5.2C4.9,0,4.6,0.3,4.6,0.6v1.9h-4C0.3,2.5,0,2.7,0,3.1v3.2c0,0.3,0.3,0.6,0.6,0.6
	h0.8l0.9,8.6c0,0.3,0.3,0.5,0.6,0.5h10.3c0.3,0,0.5-0.2,0.6-0.5l0.9-8.6h0.8c0.3,0,0.6-0.3,0.6-0.6V3.1C16,2.7,15.7,2.5,15.4,2.5
	 M5.8,1.2h4.4v1.3H5.8V1.2z M12.6,14.8H3.4l-0.8-8h11L12.6,14.8z M14.8,5.7H1.2V3.6h13.7L14.8,5.7L14.8,5.7z"/>
</svg>
