<?xml version="1.0" encoding="utf-8"?>
<!-- Generator: Adobe Illustrator 18.1.1, SVG Export Plug-In . SVG Version: 6.00 Build 0)  -->
<svg version="1.1" id="Layer_1" xmlns="http://www.w3.org/2000/svg" xmlns:xlink="http://www.w3.org/1999/xlink" x="0px" y="0px"
	 width="16px" height="16.1px" viewBox="0 0 16 16.1" enable-background="new 0 0 16 16.1" xml:space="preserve">
<path d="M11.8,4.7c-0.6,0-1.1-0.2-1.6-0.7C9.8,3.6,9.6,3,9.6,2.4c0-0.6,0.2-1.2,0.7-1.7c0.4-0.4,1-0.6,1.5-0.7C13,0.1,14,1.1,14,2.4
	S13,4.7,11.8,4.7 M10.8,2.4c0,0.3,0.1,0.6,0.3,0.8c0.2,0.2,0.5,0.3,0.7,0.3c0.6,0,1-0.5,1-1.2c0-0.6-0.5-1.1-1-1.1
	c-0.3,0-0.5,0.1-0.7,0.3C10.9,1.8,10.8,2.1,10.8,2.4"/>
<path d="M12.7,16.1c-0.9,0-1.7-0.4-2.3-1c-0.6-0.6-1-1.5-1-2.4s0.4-1.8,1-2.5c0.6-0.6,1.4-1,2.3-1c1.8,0,3.3,1.5,3.3,3.4
	S14.5,16.1,12.7,16.1 M10.6,12.7c0,0.6,0.2,1.2,0.6,1.6c0.4,0.4,0.9,0.7,1.5,0.6c1.2,0,2.1-1,2.1-2.3c0-1.2-1-2.3-2.1-2.3
	c-0.5,0-1.1,0.2-1.5,0.6C10.8,11.4,10.6,12,10.6,12.7"/>
<path d="M3.3,16.1c-0.9,0-1.7-0.4-2.3-1s-1-1.5-1-2.4s0.3-1.8,1-2.5c0.6-0.6,1.4-1,2.3-1c1.8,0,3.3,1.5,3.3,3.4S5.1,16.1,3.3,16.1
	 M3.3,10.4L3.3,10.4c-0.6,0-1.1,0.2-1.5,0.6c-0.4,0.4-0.7,1-0.7,1.7c0,0.6,0.2,1.2,0.6,1.6c0.4,0.4,1,0.7,1.5,0.6
	c1.2,0,2.1-1,2.1-2.3C5.4,11.4,4.5,10.4,3.3,10.4"/>
<path d="M8,13.4c-0.3,0-0.6-0.3-0.6-0.6V9.7L5.6,7.5C5.4,7.3,5.5,6.9,5.7,6.7l2.7-2.4c0.1-0.1,0.3-0.2,0.5-0.1
	c0.2,0,0.3,0.1,0.4,0.3l1.1,2h1.8c0.3,0,0.6,0.3,0.6,0.6c0,0.3-0.3,0.6-0.6,0.6H10c-0.2,0-0.4-0.1-0.5-0.3L8.6,5.6L6.9,7.2l1.6,1.9
	c0.1,0.1,0.1,0.2,0.1,0.4v3.3C8.6,13.2,8.3,13.4,8,13.4"/>
</svg>
