<?xml version="1.0" encoding="utf-8"?>
<!-- Generator: Adobe Illustrator 18.1.1, SVG Export Plug-In . SVG Version: 6.00 Build 0)  -->
<svg version="1.1" id="Layer_1" xmlns="http://www.w3.org/2000/svg" xmlns:xlink="http://www.w3.org/1999/xlink" x="0px" y="0px"
	 width="16.1px" height="16px" viewBox="0 0 16.1 16" enable-background="new 0 0 16.1 16" xml:space="preserve">
<path d="M11.7,6.6l3.6,0.9h0.1c0.2,0,0.5-0.2,0.5-0.4c0.1-0.3-0.1-0.6-0.4-0.7L13,5.8l2-1.1c0.3-0.1,0.4-0.5,0.2-0.8
	c-0.1-0.3-0.5-0.4-0.8-0.2l-2.1,1.2L13,2.6c0.2-0.3,0-0.6-0.3-0.7C12.4,1.8,12.1,2,12,2.3l-1,3.4L8.5,7.1V4.3l2.6-2.5
	c0.2-0.2,0.2-0.6,0-0.8c-0.2-0.2-0.6-0.2-0.8,0L8.5,2.8V0.6C8.5,0.2,8.3,0,8,0C7.7,0,7.4,0.2,7.4,0.6v2.3L5.5,1.1
	C5.3,0.9,5,0.9,4.8,1.1c-0.2,0.2-0.2,0.6,0,0.8l2.6,2.5v2.7L4.8,5.7l-1-3.4c0-0.3-0.3-0.5-0.6-0.4S2.7,2.3,2.8,2.6l0.7,2.3L1.4,3.8
	C1.1,3.6,0.8,3.7,0.6,4c-0.1,0.3,0,0.6,0.2,0.8l2,1.1L0.4,6.5C0.1,6.6-0.1,6.9,0,7.2c0.1,0.3,0.3,0.4,0.5,0.4h0.1l3.6-0.9L6.8,8
	L4.1,9.5L0.8,8.6C0.5,8.5,0.2,8.7,0.1,9C0,9.3,0.2,9.6,0.5,9.7l2.1,0.5l-1.8,1c-0.3,0.1-0.4,0.5-0.2,0.8c0.1,0.2,0.3,0.3,0.5,0.3
	c0.1,0,0.2,0,0.3-0.1l1.9-1l-0.6,2c-0.1,0.3,0.1,0.6,0.4,0.7h0.2c0.2,0,0.5-0.2,0.5-0.4l0.9-3.1l2.8-1.5v2.9L5,14.1
	c-0.2,0.2-0.2,0.6,0,0.8c0.1,0.1,0.3,0.2,0.4,0.2c0.1,0,0.3,0,0.4-0.2l1.6-1.5v2.1C7.4,15.8,7.7,16,8,16c0.3,0,0.6-0.2,0.6-0.6v-2
	l1.6,1.5c0.1,0.1,0.2,0.2,0.4,0.2c0.1,0,0.3-0.1,0.4-0.2c0.2-0.2,0.2-0.6,0-0.8l-2.4-2.3V8.9l2.8,1.5l0.9,3.1
	c0.1,0.2,0.3,0.4,0.5,0.4H13c0.3-0.1,0.5-0.4,0.4-0.7l-0.6-2l1.9,1c0.1,0,0.2,0.1,0.3,0.1c0.2,0,0.4-0.1,0.5-0.3
	c0.1-0.3,0-0.6-0.2-0.8l-1.8-1l2.1-0.5C15.9,9.6,16.1,9.3,16,9c-0.1-0.3-0.4-0.5-0.7-0.4L12,9.4L9.1,8L11.7,6.6z"/>
</svg>
