<?xml version="1.0" encoding="utf-8"?>
<!-- Generator: Adobe Illustrator 18.1.1, SVG Export Plug-In . SVG Version: 6.00 Build 0)  -->
<svg version="1.1" id="Layer_1" xmlns="http://www.w3.org/2000/svg" xmlns:xlink="http://www.w3.org/1999/xlink" x="0px" y="0px"
	 width="60px" height="60px" viewBox="0 0 60 60" enable-background="new 0 0 60 60" xml:space="preserve">
<g>
	<path d="M33.2,21.1c1.7,0.5,3.2,1.7,4.1,3.3c0.9,1.7,1.1,3.6,0.5,5.3l-6.7-2L33.2,21.1z M34.1,18
		c2.5,0.7,4.7,2.4,6,4.9c1.3,2.5,1.5,5.2,0.8,7.7l4.1,1.2c1.1-3.5,0.8-7.5-1.1-11c-1.9-3.5-5-5.9-8.6-7L34.1,18z M36.3,10.9
		c4.3,1.3,8.2,4.2,10.5,8.5c2.3,4.3,2.7,9.1,1.4,13.4l4.2,1.3c1.6-5.4,1.2-11.4-1.7-16.7c-2.9-5.3-7.7-9-13.1-10.6L36.3,10.9z
		 M38.4,56.1c-3.5,1.6-11.6,6.4-24.7-19.7C0.7,10.6,9.4,6.6,12.6,4.9c0.1,0,4.7-2.4,4.7-2.4L25,17.9l-4.6,2.3
		c-4.9,2.7,5.3,22.8,10.2,20.4c0.2-0.1,4.6-2.3,4.6-2.3L43,53.8C43,53.8,38.6,56,38.4,56.1"/>
</g>
</svg>
