<?xml version="1.0" encoding="utf-8"?>
<!-- Generator: Adobe Illustrator 18.1.1, SVG Export Plug-In . SVG Version: 6.00 Build 0)  -->
<svg version="1.1" id="Layer_1" xmlns="http://www.w3.org/2000/svg" xmlns:xlink="http://www.w3.org/1999/xlink" x="0px" y="0px"
	 width="16px" height="16px" viewBox="0 0 16 16" enable-background="new 0 0 16 16" xml:space="preserve">
<path d="M15.1,0.8C14.2-0.1,11.6-0.3,9,0.4c-0.2,0-0.4,0.1-0.7,0.1c-1.9,0.6-3.7,1.6-5,2.9c-1.2,1.3-2.2,3-2.8,5
	C0.4,8.6,0.4,8.9,0.3,9.1c-0.6,2.6-0.4,5.2,0.4,6.1C1.3,15.7,2.4,16,3.8,16c0.9,0,2-0.1,3-0.4c0.2-0.1,0.5-0.1,0.7-0.2
	c1.9-0.6,3.7-1.6,5-2.9s2.3-3,2.9-5c0.1-0.2,0.1-0.5,0.2-0.7C16.2,4.3,16,1.7,15.1,0.8 M12,1.1c1.2,0,2.1,0.2,2.3,0.5
	c0.4,0.4,0.8,2.4,0.1,5L9.3,1.5C10.3,1.2,11.2,1.1,12,1.1 M6.6,14.5c-2.6,0.6-4.6,0.3-5-0.1C1.2,14,0.8,12,1.5,9.4L6.6,14.5z
	 M11.7,11.7c-1,1-2.4,1.8-3.9,2.4l-6-6c0.5-1.5,1.3-2.8,2.4-3.9c1-1,2.4-1.8,3.9-2.4l6,6C13.5,9.4,12.7,10.7,11.7,11.7"/>
<path d="M9.6,7.2l0.6-0.6c0.2-0.2,0.2-0.6,0-0.8s-0.6-0.2-0.8,0L8.8,6.3L7.9,5.5c-0.2-0.2-0.6-0.2-0.8,0c-0.2,0.2-0.2,0.6,0,0.8
	l0.8,0.8L7.1,8L6.3,7.1c-0.2-0.2-0.6-0.2-0.8,0C5.2,7.4,5.2,7.7,5.4,8l0.8,0.8L5.6,9.4c-0.2,0.2-0.2,0.6,0,0.8
	c0.1,0.1,0.3,0.2,0.4,0.2c0.1,0,0.3-0.1,0.4-0.2l0.7-0.6l0.8,0.8c0.1,0.1,0.3,0.2,0.4,0.2c0.1,0,0.3-0.1,0.4-0.2
	c0.2-0.2,0.2-0.6,0-0.8L7.9,8.8L8.8,8l0.8,0.8C9.7,8.9,9.9,9,10,9s0.3-0.1,0.4-0.2c0.2-0.2,0.2-0.6,0-0.8L9.6,7.2z"/>
</svg>
