<?xml version="1.0" encoding="utf-8"?>
<!-- Generator: Adobe Illustrator 18.1.1, SVG Export Plug-In . SVG Version: 6.00 Build 0)  -->
<svg version="1.1" id="Layer_1" xmlns="http://www.w3.org/2000/svg" xmlns:xlink="http://www.w3.org/1999/xlink" x="0px" y="0px"
	 width="12.6px" height="16px" viewBox="0 0 12.6 16" enable-background="new 0 0 12.6 16" xml:space="preserve">
<path d="M9,8.5c0.3-0.1,0.3-0.4,0.1-0.7C8.9,7.6,8.6,7.6,8.4,7.7L6.8,9V6.5C6.8,6.2,6.5,6,6.2,6C5.9,6,5.7,6.2,5.7,6.5v3.9L4.3,9.1
	C4,9,3.7,9,3.5,9.2C3.3,9.4,3.3,9.7,3.6,9.9l2.1,1.7v3.9c0,0.3,0.2,0.5,0.5,0.5c0.3,0,0.5-0.2,0.5-0.5v-5.1L9,8.5z"/>
<path d="M12,7.2c-2.3-4.6-5.3-7-5.4-7.1C6.4,0,6.2,0,6,0.1C5.8,0.2,2.9,2.6,0.6,7.2c-0.7,1.4-0.8,2.6-0.2,3.7
	c1.1,1.9,4.1,2.4,4.2,2.4h0.1c0.3,0,0.5-0.2,0.5-0.4c0-0.3-0.2-0.5-0.4-0.6c0,0-2.6-0.4-3.4-1.9C1,9.7,1,8.7,1.6,7.6
	c1.7-3.4,3.9-5.7,4.7-6.4c0.8,0.8,3,3,4.8,6.5c0.6,1.1,0.6,2,0.2,2.8c-0.8,1.5-3.4,1.9-3.4,1.9c-0.3,0-0.5,0.3-0.4,0.6
	c0,0.3,0.3,0.5,0.6,0.4c0.1,0,3.1-0.5,4.2-2.4C12.8,9.9,12.8,8.6,12,7.2"/>
</svg>
