<?xml version="1.0" encoding="utf-8"?>
<!-- Generator: Adobe Illustrator 18.1.1, SVG Export Plug-In . SVG Version: 6.00 Build 0)  -->
<svg version="1.1" id="Layer_1" xmlns="http://www.w3.org/2000/svg" xmlns:xlink="http://www.w3.org/1999/xlink" x="0px" y="0px"
	 width="60px" height="60px" viewBox="0 0 60 60" enable-background="new 0 0 60 60" xml:space="preserve">
<g>
	<path d="M31.8,47.1H10.9V19.6h5.6c-0.8-2.2-1.1-4.6-0.9-7H9.6c-1.6,0-2.9,1.3-2.9,2.9c0,0,0,36.2,0,37.7
		c0,6.2,9.2,6.7,14.7,6.7c5.5,0,14.8-0.5,14.8-6.7V32.6c-1.4,0-2.9-0.2-4.3-0.5V47.1z"/>
	<path d="M36.7,0C27.8,0,20,5.9,20,14.1c0,2.9,1,5.7,2.8,7.9c0.1,2.6-1.4,6.3-2.8,9c3.6-0.7,8.8-2.1,11.1-3.6
		c12.9,3.2,22.2-4.8,22.2-13.3C53.4,5.9,45.4,0,36.7,0"/>
</g>
</svg>
