<?xml version="1.0" encoding="utf-8"?>
<!-- Generator: Adobe Illustrator 19.1.0, SVG Export Plug-In . SVG Version: 6.00 Build 0)  -->
<svg version="1.1" id="Layer_1" xmlns="http://www.w3.org/2000/svg" xmlns:xlink="http://www.w3.org/1999/xlink" x="0px" y="0px"
	 width="221.5px" height="131.4px" viewBox="0 0 221.5 131.4" style="enable-background:new 0 0 221.5 131.4;" xml:space="preserve"
	>
<path d="M216.9,0.1L23.4,44.3c-1.1,0.2-2.2,1-2.7,2.1L0.4,87.4c-0.7,1.5-0.5,3.2,0.6,4.4c0.8,0.8,1.8,1.3,2.9,1.3
	c0.5,0,1-0.1,1.5-0.3l32.1-12.7l18.5,33.4c0.3,0.5,0.6,0.9,1,1.2c0.7,0.5,1.5,0.8,2.4,0.8c0.7,0,1.4-0.2,2-0.6l26.8-15.9l16,30.2
	c0.6,1.1,1.7,1.9,3,2.1c0.2,0,0.3,0,0.5,0c1.1,0,2.2-0.5,3-1.3L220.5,6.6c1.4-1.6,1.3-4.1-0.3-5.6C219.2,0.2,218-0.1,216.9,0.1z
	 M12.1,81.6l12.4-25.1l9.1,16.5L12.1,81.6z M57.9,100.8l-27.5-50l152.5-36.2L70.6,56.5c-1.2,0.5-2.1,1.5-2.4,2.7L57.9,100.8z
	 M65.4,103.4l7.9-32.2l11.1,20.9L65.4,103.4z M108.5,120.5L77.6,62.3l126.1-48.8L108.5,120.5z"/>
</svg>
