<?xml version="1.0" encoding="utf-8"?>
<!-- Generator: Adobe Illustrator 18.1.1, SVG Export Plug-In . SVG Version: 6.00 Build 0)  -->
<svg version="1.1" id="Layer_1" xmlns="http://www.w3.org/2000/svg" xmlns:xlink="http://www.w3.org/1999/xlink" x="0px" y="0px"
	 width="15.9px" height="15.9px" viewBox="0 0 15.9 15.9" enable-background="new 0 0 15.9 15.9" xml:space="preserve">
<path d="M8,15.9c-2,0-4.1-0.8-5.7-2.3c-3.1-3.1-3.1-8.2,0-11.3s8.2-3.1,11.3,0s3.1,8.2,0,11.3C12.1,15.1,10,15.9,8,15.9 M8,1.1
	c-1.8,0-3.5,0.7-4.8,2c-2.7,2.7-2.7,7,0,9.7s7,2.7,9.7,0s2.7-7,0-9.7C11.5,1.7,9.8,1.1,8,1.1"/>
<path d="M6.5,12.3c-0.3,0-0.6-0.3-0.6-0.6V8.9V4.4c0-0.3,0.3-0.6,0.6-0.6H8c1.6,0,2.8,1.3,2.8,2.8c0,1.6-1.3,2.8-2.8,2.8H7v2.2
	C7.1,12.1,6.8,12.3,6.5,12.3 M7.1,5v3.4H8c0.9,0,1.7-0.8,1.7-1.7C9.7,5.8,8.9,5,8,5H7.1z"/>
</svg>
