<?xml version="1.0" encoding="utf-8"?>
<!-- Generator: Adobe Illustrator 18.1.1, SVG Export Plug-In . SVG Version: 6.00 Build 0)  -->
<svg version="1.1" id="Layer_1" xmlns="http://www.w3.org/2000/svg" xmlns:xlink="http://www.w3.org/1999/xlink" x="0px" y="0px"
	 width="16px" height="16px" viewBox="0 0 16 16" enable-background="new 0 0 16 16" xml:space="preserve">
<path d="M4.8,3.7L4.8,3.7c-1,0-1.8,0.8-2.1,2c0,0.1,0,0.2,0.1,0.2C2.9,6,3,6,3.1,5.9c1.2-0.7,2.4-0.7,3.5,0h0.1h0.1
	c0.1-0.1,0.1-0.1,0.1-0.2C6.6,4.5,5.8,3.7,4.8,3.7"/>
<path d="M11.1,3.7L11.1,3.7c-1,0-1.8,0.8-2.1,2c0,0.1,0,0.2,0.1,0.2C9.2,6,9.3,6,9.4,5.9c1.2-0.7,2.4-0.7,3.5,0H13h0.1
	c0.1-0.1,0.1-0.1,0.1-0.2C12.9,4.5,12.1,3.8,11.1,3.7"/>
<path d="M8,12.8L8,12.8c-2.4,0-4.4-1.9-5-4.7c0-0.2,0-0.5,0.2-0.6c0.2-0.1,0.4-0.1,0.6,0c2.7,1.6,5.6,1.7,8.3,0.1
	c0.2-0.1,0.5-0.1,0.6,0C13,7.7,13.1,7.9,13,8.2C12.3,11,10.4,12.8,8,12.8 M4.5,9.1c0.7,1.6,2,2.5,3.4,2.5s2.7-0.9,3.4-2.5
	C9.2,10.1,6.8,10.1,4.5,9.1"/>
<path d="M7.9,16c-1.4,0-2.8-0.4-3.9-1.2c-4.1-2.9-4-6.7-4-10.4v-1c0-0.1,0-0.2,0.1-0.3c1.5-2,4.6-3.1,8-3.1s6.4,1.2,7.8,3.2
	C16,3.3,16,3.4,16,3.5v1c0,3.7,0,7.5-4.2,10.3C10.7,15.6,9.3,16,7.9,16 M1.2,3.6v0.8C1.1,8.1,1,11.3,4.7,13.8c1.9,1.3,4.6,1.3,6.5,0
	c3.7-2.5,3.7-5.7,3.7-9.4V3.6C13.6,2.2,11,1.2,8.1,1.2C5.1,1.2,2.5,2.1,1.2,3.6"/>
</svg>
