<?xml version="1.0" encoding="utf-8"?>
<!-- Generator: Adobe Illustrator 18.1.1, SVG Export Plug-In . SVG Version: 6.00 Build 0)  -->
<svg version="1.1" id="Layer_1" xmlns="http://www.w3.org/2000/svg" xmlns:xlink="http://www.w3.org/1999/xlink" x="0px" y="0px"
	 width="16.1px" height="16px" viewBox="0 0 16.1 16" enable-background="new 0 0 16.1 16" xml:space="preserve">
<path d="M12.6,1.8h-1.2V0.6c0-0.3-0.3-0.6-0.6-0.6s-0.6,0.3-0.6,0.6v1.3H5.7V0.6C5.7,0.3,5.5,0,5.2,0C4.9,0,4.6,0.3,4.6,0.6v1.3H3.4
	C1.5,1.8,0,3.4,0,5.2v7.4C0,14.5,1.5,16,3.4,16h9.3c1.9,0,3.4-1.5,3.4-3.4V5.2C16,3.4,14.5,1.8,12.6,1.8 M3.4,3h1.2v1.9
	c0,0.3,0.3,0.6,0.6,0.6c0.3,0,0.6-0.3,0.6-0.6V3h4.5v1.9c0,0.3,0.3,0.6,0.6,0.6c0.3,0,0.6-0.3,0.6-0.6V3h1.2c1.2,0,2.2,1,2.2,2.2
	v1.9H1.2V5.2C1.2,4,2.1,3,3.4,3 M12.6,14.8H3.4c-1.2,0-2.2-1-2.2-2.2V8.2h13.7v4.4C14.8,13.9,13.9,14.8,12.6,14.8"/>
</svg>
