<?xml version="1.0" encoding="utf-8"?>
<!-- Generator: Adobe Illustrator 18.1.1, SVG Export Plug-In . SVG Version: 6.00 Build 0)  -->
<svg version="1.1" id="Layer_1" xmlns="http://www.w3.org/2000/svg" xmlns:xlink="http://www.w3.org/1999/xlink" x="0px" y="0px"
	 width="16px" height="16px" viewBox="0 0 16 16" enable-background="new 0 0 16 16" xml:space="preserve">
<path d="M15.8,13.5c-0.3-0.2-0.6-0.1-0.8,0.1c-0.9,1.3-2.5,1.3-2.6,1.3h-1.6v-0.1v-2.6c0.8,0,2.3-0.1,3.2-0.8l0.1-0.1
	c0.4-0.4,0.7-1.4,0.7-2.4c0-0.3,0-0.8-0.9-1.2h-0.1c-6-1.3-6.3-3.3-6.3-3.3c-0.3-3.9-0.4-4-0.6-4.2C6.6,0,6.5-0.2,4.1,0.7L1.6,0.5
	C1.2,0.5,1,0.7,0.9,1L0,9.9C0,10-0.1,11,0.7,11.6c0.1,0,0.1,0.1,0.2,0.1c0.4,0.1,1.2,0.1,2.4-0.1v3.1v0.1H0.6
	c-0.3,0-0.6,0.3-0.6,0.6C0,15.7,0.3,16,0.6,16h11.8c0.3,0,2.2-0.1,3.5-1.7C16.1,14,16,13.7,15.8,13.5 M1.3,10.6
	C1.1,10.4,1.2,10,1.2,10L2,1.7l2.1,0.2h0.3C4.9,1.6,5.6,1.4,6,1.3C6.1,2,6.1,3.2,6.2,4.4c0,0.4,0.3,2.9,7.1,4.4
	c0.1,0.1,0.2,0.1,0.2,0.1c0,0.8-0.2,1.5-0.3,1.6C12.5,11,11,11,10.4,11c-4.3-1-6.4-0.7-6.6-0.6C2.2,10.7,1.6,10.6,1.3,10.6
	 M4.4,14.7v-3.3c0.7-0.1,2.5,0,5.2,0.6v2.7v0.1H4.4V14.7z"/>
</svg>
