<?xml version="1.0" encoding="utf-8"?>
<!-- Generator: Adobe Illustrator 18.1.1, SVG Export Plug-In . SVG Version: 6.00 Build 0)  -->
<svg version="1.1" id="Layer_1" xmlns="http://www.w3.org/2000/svg" xmlns:xlink="http://www.w3.org/1999/xlink" x="0px" y="0px"
	 width="16px" height="16px" viewBox="0 0 16 16" enable-background="new 0 0 16 16" xml:space="preserve">
<path d="M14.6,5.2l-0.2-0.6h1.1C15.7,4.6,16,4.4,16,4c0-0.3-0.3-0.6-0.6-0.6h-1.5l-0.7-2.1C13.1,0.6,12.5,0,11.8,0H4.3
	C3.5,0,2.9,0.6,2.8,1.4L2.1,3.5H0.6C0.3,3.5,0,3.7,0,4s0.3,0.6,0.6,0.6h1.1L1.4,5.2C0.6,5.2,0,5.9,0,6.7v4.4c0,0.8,0.7,1.5,1.5,1.5
	h0.4v1.9c0,0.8,0.7,1.5,1.5,1.5h1C5.3,16,6,15.3,6,14.5v-1.9h3.9v1.9c0,0.8,0.7,1.5,1.5,1.5h1c0.8,0,1.5-0.7,1.5-1.5v-1.9h0.6
	c0.8,0,1.5-0.7,1.5-1.5V6.7C16,5.9,15.4,5.2,14.6,5.2 M4,1.7V1.5c0-0.2,0.1-0.3,0.3-0.3h7.5c0.2,0,0.3,0.2,0.3,0.3v0.2L13,4.2
	c0,0.1,0,0.1,0.1,0.2l0.3,0.8H2.7L4,1.7z M4.8,14.5c0,0.2-0.2,0.3-0.3,0.3h-1c-0.2,0-0.3-0.2-0.3-0.3v-1.9h1.7v1.9H4.8z M12.7,14.5
	c0,0.2-0.2,0.3-0.3,0.3h-1c-0.2,0-0.3-0.2-0.3-0.3v-1.9h1.7v1.9H12.7z M14.8,11.1c0,0.2-0.2,0.3-0.3,0.3h-13c-0.2,0-0.3-0.2-0.3-0.3
	V6.7c0-0.2,0.2-0.3,0.3-0.3h13c0.2,0,0.3,0.2,0.3,0.3V11.1z"/>
<path d="M4.2,7.6c0.7,0,1.2,0.6,1.2,1.3s-0.5,1.3-1.2,1.3S3,9.6,3,8.9S3.5,7.6,4.2,7.6"/>
<path d="M11.8,7.6c0.7,0,1.2,0.6,1.2,1.3s-0.5,1.3-1.2,1.3c-0.7,0-1.2-0.6-1.2-1.3S11.1,7.6,11.8,7.6"/>
</svg>
