<?xml version="1.0" encoding="utf-8"?>
<!-- Generator: Adobe Illustrator 18.1.1, SVG Export Plug-In . SVG Version: 6.00 Build 0)  -->
<svg version="1.1" id="Layer_1" xmlns="http://www.w3.org/2000/svg" xmlns:xlink="http://www.w3.org/1999/xlink" x="0px" y="0px"
	 width="16px" height="16px" viewBox="0 0 16 16" enable-background="new 0 0 16 16" xml:space="preserve">
<path d="M15.4,14.8h-1.2L9.2,1C9,0.6,8.6,0,8,0S7,0.6,6.8,1l-5,13.8H0.6c-0.3,0-0.6,0.3-0.6,0.6
	C0,15.7,0.3,16,0.6,16h14.8c0.3,0,0.6-0.3,0.6-0.6C16,15.1,15.7,14.8,15.4,14.8 M11.4,10.5H4.6l1.3-3.6V7H10L11.4,10.5z M7.9,1.4
	c0,0,0-0.1,0.1-0.2c0,0.1,0.1,0.1,0.1,0.2l1.6,4.3H6.3L7.9,1.4z M4.2,11.6h7.6l1.2,3.2H3L4.2,11.6z"/>
</svg>
