<?xml version="1.0" encoding="utf-8"?>
<!-- Generator: Adobe Illustrator 18.1.1, SVG Export Plug-In . SVG Version: 6.00 Build 0)  -->
<svg version="1.1" id="Layer_1" xmlns="http://www.w3.org/2000/svg" xmlns:xlink="http://www.w3.org/1999/xlink" x="0px" y="0px"
	 width="158.3px" height="72.3px" viewBox="0 0 158.3 72.3" enable-background="new 0 0 158.3 72.3" xml:space="preserve">
<path d="M158.3,3.1V0.2h-8.6v5.5h-6.1l0.3-5.5h-3.6l-0.2,5.5h-3.6l-0.2-5.5h-3.6l0.3,5.5h-6.7V0.2h-3.4v5.5h-8.3V3.1
	h3.4V0.2h-10.3v2.9h3.4v2.6h-8.5V4.3c-0.1-1.2-0.6-2.2-1.6-3.1c-1-0.8-2.2-1.3-3.6-1.3c-1.4,0-2.7,0.5-3.7,1.3c-1,0.8-1.5,1.8-1.5,3
	v1.4h-8L84,0.2h-2.6l-0.5,5.5h-9.3l-0.5-5.5h-2.6l-0.1,5.5h-8.2V4.3c-0.1-1.2-0.6-2.2-1.6-3.1c-1-0.8-2.2-1.3-3.6-1.3
	c-1.4,0-2.7,0.5-3.7,1.3c-1,0.8-1.5,1.8-1.5,3v1.4h-6.5V4.3c-0.1-1.2-0.6-2.2-1.6-3.1c-1-0.8-2.2-1.3-3.6-1.3
	c-1.4,0-2.7,0.5-3.7,1.3c-1,0.8-1.5,1.8-1.5,3v1.4h-7.7V4.3c-0.1-1.2-0.6-2.2-1.6-3.1c-1-0.8-2.2-1.3-3.6-1.3
	c-1.4,0-2.7,0.5-3.7,1.3c-1,0.8-1.5,1.8-1.5,3v1.4H5.9V0.2H2.4v5.5H0v2.9h2.4v54.9H0v2.9h2.4v5.8H11v-2.9H5.9v-2.9h9.2V68
	c0.1,1.2,0.6,2.2,1.6,3.1c1,0.8,2.2,1.3,3.6,1.3c1.4,0,2.7-0.5,3.7-1.3c1-0.8,1.5-1.8,1.5-3v-1.7h7.7V68c0.1,1.2,0.6,2.2,1.6,3.1
	c1,0.8,2.2,1.3,3.6,1.3c1.4,0,2.6-0.5,3.7-1.3c1-0.8,1.5-1.8,1.5-3v-1.7H40V68c0,0.4-0.2,0.7-0.5,1c-0.3,0.3-0.7,0.4-1.2,0.4
	c-0.5,0-0.9-0.1-1.2-0.4c-0.3-0.3-0.5-0.6-0.5-1v-1.7h13.4V68c0.1,1.2,0.6,2.2,1.6,3.1c1,0.8,2.2,1.3,3.6,1.3c1.4,0,2.7-0.5,3.7-1.3
	c1-0.8,1.5-1.8,1.5-3v-1.7h7.5l-0.1,5.8h3.4L71,66.3h3.4l0.7,6h2.3l0.6-6h3.4l0,5.8h3.4l-0.1-5.8h7.3V68c0.1,1.2,0.6,2.2,1.6,3.1
	c1,0.8,2.2,1.3,3.6,1.3c1.4,0,2.6-0.5,3.7-1.3c1-0.8,1.5-1.8,1.5-3v-1.7h8.5v5.8h3.4v-5.8h8.3v5.8h3.4v-5.8h9.9l0.3,5.8h3.8l0.3-5.8
	h9.3v5.8h8.6v-2.9h-5.2v-2.9h3.4v-2.9h-3.4V37.6h3.4v-2.9h-3.4V8.6h3.4V5.7h-3.4V3.1H158.3z M139.9,8.6l-1.6,40.6l-1.7-40.6H139.9z
	 M95.5,4.3c0-0.4,0.2-0.7,0.5-1c0.3-0.3,0.7-0.4,1.2-0.4c0.5,0,0.9,0.1,1.2,0.4c0.3,0.3,0.5,0.6,0.5,1v1.4h-3.4V4.3z M99,63.5h-3.4
	V8.6H99V63.5z M80.7,8.6l-4.4,47.8L71.9,8.6H80.7z M53.4,4.3c0-0.4,0.2-0.7,0.5-1c0.3-0.3,0.7-0.4,1.2-0.4c0.5,0,0.9,0.1,1.2,0.4
	c0.3,0.3,0.5,0.6,0.5,1v1.4h-3.4V4.3z M56.8,63.5h-3.4V8.6h3.4V63.5z M36.5,4.3c0-0.4,0.2-0.7,0.5-1c0.3-0.3,0.7-0.4,1.2-0.4
	c0.5,0,0.9,0.1,1.2,0.4c0.3,0.3,0.5,0.6,0.5,1v1.4h-3.4V4.3z M18.5,4.3c0-0.4,0.2-0.7,0.5-1c0.3-0.3,0.7-0.4,1.2-0.4
	c0.5,0,0.9,0.1,1.2,0.4c0.3,0.3,0.5,0.6,0.5,1v1.4h-3.4V4.3z M22,63.5h-3.4V8.6H22V63.5z M5.9,8.6h9.2v54.9H5.9V8.6z M22,68
	c0,0.4-0.2,0.7-0.5,1c-0.3,0.3-0.7,0.4-1.2,0.4c-0.5,0-0.9-0.1-1.2-0.4c-0.3-0.3-0.5-0.6-0.5-1v-1.7H22V68z M25.4,8.6h7.7v54.9h-7.7
	V8.6z M36.5,8.6h13.4v54.9H36.5V8.6z M56.8,68c0,0.4-0.2,0.7-0.5,1c-0.3,0.3-0.7,0.4-1.2,0.4c-0.5,0-0.9-0.1-1.2-0.4
	c-0.3-0.3-0.5-0.6-0.5-1v-1.7h3.4V68z M60.3,63.5V8.6h8.2l-0.7,54.9H60.3z M71,63.5l-0.5-32l3.6,32H71z M78.3,63.5l3.4-32l-0.3,32
	H78.3z M84.8,63.5L84.1,8.6h8v54.9H84.8z M99,68c0,0.4-0.2,0.7-0.5,1c-0.3,0.3-0.7,0.4-1.2,0.4c-0.5,0-0.9-0.1-1.2-0.4
	c-0.3-0.3-0.5-0.6-0.5-1v-1.7H99V68z M102.4,8.6h8.5v54.9h-8.5V8.6z M114.4,8.6h8.3v54.9h-8.3V8.6z M126.2,63.5V8.6h6.9l2.9,54.9
	H126.2z M149.7,63.5h-9.1l2.8-54.9h6.3V63.5z"/>
</svg>
