<?xml version="1.0" encoding="utf-8"?>
<!-- Generator: Adobe Illustrator 19.1.0, SVG Export Plug-In . SVG Version: 6.00 Build 0)  -->
<svg version="1.1" id="Calque_1" xmlns="http://www.w3.org/2000/svg" xmlns:xlink="http://www.w3.org/1999/xlink" x="0px" y="0px"
	 width="313.4px" height="57.9px" viewBox="0 0 313.4 57.9" style="enable-background:new 0 0 313.4 57.9;" xml:space="preserve">
<style type="text/css">
	.st0{fill:#010202;}
</style>
<g>
	<path class="st0" d="M221.5,0.2c-7,0-13.6,3.2-18,8.8c-4.4-5.6-10.9-8.8-18-8.8c-5.4,0-10.4,1.9-14.3,5.1V3.1
		c0-0.5-0.4-0.9-0.9-0.9h-7.2c-0.5,0-0.9,0.4-0.9,0.9v52.1c0,0.5,0.4,0.9,0.9,0.9l0.1-0.1c0.1,0.1,0.3,0.1,0.4,0.1h7.8
		c0.5,0,0.9-0.4,0.9-0.9V23c0-7.3,5.9-13.2,13.2-13.2c7.2,0,13.1,5.9,13.2,13.1l0,32.4c0,0.5,0.4,0.9,0.9,0.9h7.8
		c0.5,0,0.9-0.4,0.9-0.9V23c0.1-7.3,6-13.2,13.2-13.2c7.3,0,13.2,5.9,13.2,13.2v32.3c0,0.5,0.4,0.9,0.9,0.9h7.8
		c0.5,0,0.9-0.4,0.9-0.9V23C244.3,10.4,234.1,0.2,221.5,0.2z"/>
	<path class="st0" d="M58.7,0.2c-7,0-13.6,3.2-18,8.8c-4.4-5.6-10.9-8.8-18-8.8C17.6,0.2,12.8,2,9,4.9V3.1c0-0.5-0.4-0.9-0.9-0.9
		H0.9C0.4,2.2,0,2.6,0,3.1V23v32.3c0,0.5,0.4,0.9,0.9,0.9h7.8c0.5,0,0.9-0.4,0.9-0.9V23c0-7.3,5.9-13.2,13.2-13.2
		c7.2,0,13.1,5.9,13.2,13c0,0,0,0.2,0,0.2v32.2c0,0.5,0.4,0.9,0.9,0.9h7.8c0.5,0,0.9-0.4,0.9-0.9V23c0.1-7.3,6-13.2,13.2-13.2
		c7.3,0,13.2,5.9,13.2,13.2v32.3c0,0.5,0.4,0.9,0.9,0.9h7.8c0.5,0,0.9-0.4,0.9-0.9V23C81.4,10.4,71.2,0.2,58.7,0.2z"/>
	<path class="st0" d="M284.7,0.4C266,0.4,256,15.1,256,29c0,13.8,10.1,28.4,28.7,28.4c18.7,0,28.7-14.7,28.7-28.4
		C313.4,15.1,303.4,0.4,284.7,0.4z M284.7,47.8c-10.3,0-18.4-8.2-18.4-18.7V29c0-10.7,7.9-18.8,18.4-18.8c10.5,0,18.4,8.1,18.4,18.8
		C303.1,39.7,295.2,47.8,284.7,47.8z"/>
	<path class="st0" d="M142.2,8c-5.3-5.2-12.5-8-20.2-8c-16.2,0-28.9,12.8-28.9,29.1c0,14.2,10.8,28.9,29,28.9
		c5.7,0,11.1-1.6,15.6-4.6c2.6-1.7,4.9-3.8,6.9-6.4l0,0c0.7-0.9,0.3-2-0.5-2.4l-5.5-3c-0.7-0.4-1.5-0.3-2.1,0.4
		c-0.1,0.1-0.1,0.2-0.1,0.2c-3.3,4.5-8.2,6.9-14.2,6.9c-8.6,0-17.9-5.8-18.4-16.7h45.9c0.5,0,0.9-0.4,0.9-0.8
		C151.2,22.3,148.3,14.3,142.2,8C142.2,8,142.2,8,142.2,8z M103.9,24.1c0.5-7.5,7.4-15.2,18.1-15.2c0.1,0,0.1,0,0.2,0
		c10.1,0,17.4,7.8,17.9,15.2H103.9z"/>
</g>
</svg>
