<svg id="Layer_1" data-name="Layer 1" xmlns="http://www.w3.org/2000/svg" viewBox="0 0 269.74 106.21"><title>logo_17</title><path d="M.07,51.36,41.25,26.93l0,22.47,5.46-3.24,0-22.55L87.52,0V32.89L63,47v5.66l24.56-14.1V71.25L60.06,87.12V85.78A5,5,0,0,0,61.54,82c-.07-2-.88-3.81-4.64-4.91,0,0-2.73-.58-2.48-2.68.2-2.38,2.29-2.29,3.94-3a7.46,7.46,0,0,0,4.5-6.83,7.23,7.23,0,0,0-7.3-7.26,21.92,21.92,0,0,0-11.27,2.74A52.82,52.82,0,0,0,34,67.79c-6.08,5.9-7.87,6.69-9.46,6.5,0,0-3.22,0-3.66-3A3.75,3.75,0,0,1,24.06,67s5.74-1.64,3.66-6c-1.58-3.34-6.45-1.92-6.45-1.92A18.9,18.9,0,0,0,9.08,67.41,4.89,4.89,0,0,1,4.9,69.63,4.58,4.58,0,0,1,0,65.07Z" fill="#005950"/><path d="M102,55.84h2.15l3.63,12.73h0l3.83-12.73h2l-4.9,15.62h-2Z" fill="#005950"/><path d="M116.84,55.34v2.24h-2V55.34Zm-2,4.7h1.88V71.46h-1.88Z" fill="#005950"/><path d="M119.84,54.67h1.88V71.46h-1.88Z" fill="#005950"/><path d="M124.81,54.67h1.88V71.46h-1.88Z" fill="#005950"/><path d="M131,66.31c0,2.64,1,3.87,3.12,3.87a4.94,4.94,0,0,0,2.62-.94l.09,1.7a7.71,7.71,0,0,1-3.21.68c-3,0-4.58-2.29-4.58-5.87s1.56-5.87,4.41-5.87c2.57,0,4,2.07,4,5.42v1Zm4.57-1.43c0-2.37-.74-3.56-2.24-3.56-1.21,0-2.28.9-2.33,3.56Z" fill="#005950"/><path d="M153.13,69.36c0,.69.06,1.41.09,2.1h-1.81l-.07-1.68h0a3.23,3.23,0,0,1-3,1.84c-2.36,0-4-1.93-4-5.87s1.59-5.87,4-5.87a3.14,3.14,0,0,1,2.9,1.73h.05V54.67h1.88Zm-4.38-8c-1.73,0-2.51,1.48-2.51,4.34s.78,4.34,2.51,4.34,2.5-1.48,2.5-4.34S150.46,61.41,148.75,61.41Z" fill="#005950"/><path d="M157.1,66.31c0,2.64,1,3.87,3.1,3.87a4.82,4.82,0,0,0,2.62-.94l.09,1.7a7.63,7.63,0,0,1-3.2.68c-3,0-4.58-2.29-4.58-5.87s1.56-5.87,4.4-5.87c2.58,0,4,2.07,4,5.42v1Zm4.55-1.43c0-2.37-.73-3.56-2.23-3.56-1.21,0-2.29.9-2.32,3.56Z" fill="#005950"/><path d="M101.89,80.28H107a5.61,5.61,0,0,1,4.21,1.37,5.12,5.12,0,0,1,1.48,3.81,4.56,4.56,0,0,1-3.94,4.78v.05a2.57,2.57,0,0,1,2.17,1.95l2.81,8H111l-2.29-6.76a2.81,2.81,0,0,0-3.18-2.28h-1.14v9h-2.52Zm2.52,8.86h1.94a3.36,3.36,0,0,0,3.72-3.51c0-2.23-1.46-3.29-3.66-3.29h-2Z" fill="#005950"/><path d="M119,79.43v2.86H116.4V79.43Zm-2.52,6h2.4V100h-2.4Z" fill="#005950"/><path d="M121.14,85.44h2.64L127,97.62H127l3.26-12.18h2.51L128.44,100h-2.86Z" fill="#005950"/><path d="M137.56,79.43v2.86h-2.63V79.43Zm-2.52,6h2.41V100H135Z" fill="#005950"/><path d="M143,93.45c0,3.37,1.31,4.94,4,4.94a6.21,6.21,0,0,0,3.34-1.2l.12,2.18a9.91,9.91,0,0,1-4.1.85c-3.86,0-5.85-2.91-5.85-7.49s2-7.5,5.63-7.5c3.29,0,5.12,2.64,5.12,6.92v1.3Zm-.52-14.17h2.83l1.92,4.15h-1.82Zm6.36,12.34c0-3-.95-4.56-2.87-4.56-1.53,0-2.91,1.15-3,4.56Z" fill="#005950"/><path d="M153.87,88.58c0-1-.09-2.12-.11-3.14h2.31l.09,2.28h.06c.77-1.77,2-2.49,4.15-2.49v2.38a4.63,4.63,0,0,0-.92-.08c-1.86,0-3.18,1.59-3.18,4.77V100h-2.4Z" fill="#005950"/><path d="M164.14,93.45c0,3.37,1.32,4.94,4,4.94a6.28,6.28,0,0,0,3.36-1.2l.11,2.18a9.93,9.93,0,0,1-4.09.85c-3.86,0-5.87-2.91-5.87-7.49s2-7.5,5.64-7.5c3.29,0,5.12,2.64,5.12,6.92v1.3ZM170,91.62c0-3-.94-4.56-2.86-4.56-1.54,0-2.91,1.15-3,4.56Z" fill="#005950"/><path d="M174.44,91h6.18V93h-6.18Z" fill="#005950"/><path d="M194,97.33c0,.89.09,1.81.11,2.7h-2.31l-.08-2.15h-.06a4.15,4.15,0,0,1-3.84,2.34c-3,0-5-2.45-5-7.49s2-7.5,5-7.5a4,4,0,0,1,3.72,2.21h.06V78.57H194ZM188.4,87.18c-2.19,0-3.21,1.89-3.21,5.55s1,5.55,3.21,5.55,3.21-1.89,3.21-5.55S190.6,87.18,188.4,87.18Z" fill="#005950"/><path d="M207.57,96.88c0,1.06.09,2.12.12,3.15h-2.33l-.08-2.18h-.06a3.76,3.76,0,0,1-3.69,2.37c-2.54,0-4.26-1.45-4.26-4.66V85.44h2.4v9.41c0,2.31.86,3.31,2.41,3.31,1.88,0,3.09-1.31,3.09-3.94V85.44h2.4Z" fill="#005950"/><path d="M210.46,91h6.18V93h-6.18Z" fill="#005950"/><path d="M220,80.06h2.52V97.85h6.56V100H220Z" fill="#005950"/><path d="M236.32,85.23c3.86,0,5.86,2.93,5.86,7.5s-2,7.49-5.86,7.49-5.87-2.91-5.87-7.49S232.45,85.23,236.32,85.23Zm0,13c2.29,0,3.35-1.89,3.35-5.55s-1.06-5.55-3.35-5.55S233,89.07,233,92.73,234,98.28,236.32,98.28Z" fill="#005950"/><path d="M255.26,96.88c0,1.06.09,2.12.11,3.15h-2.31L253,97.85h-.06a3.74,3.74,0,0,1-3.69,2.37c-2.54,0-4.26-1.45-4.26-4.66V85.44h2.4v9.41c0,2.31.86,3.31,2.41,3.31,1.89,0,3.09-1.31,3.09-3.94V85.44h2.4Z" fill="#005950"/><path d="M258.52,88.12c0-.88-.08-1.8-.11-2.68h2.31l.09,2.14h.06a4.13,4.13,0,0,1,3.83-2.35c3,0,5,2.46,5,7.5s-2.05,7.49-5,7.49A4,4,0,0,1,261,98h-.06v8.19h-2.4Zm5.61,10.16c2.2,0,3.2-1.89,3.2-5.55s-1-5.55-3.2-5.55-3.21,1.89-3.21,5.55S261.92,98.28,264.13,98.28Z" fill="#005950"/></svg>