<svg id="Layer_1" data-name="Layer 1" xmlns="http://www.w3.org/2000/svg" viewBox="0 0 259.53 97.93"><title>logo_4</title><path d="M13.25,84.14c0,4.92-1.19,6.54-4.61,6.54H6.42V73.26C4.14,72.62,2,72,0,71.35V97.28H9.53c6.63,0,10.15-4.53,10.15-14.11V76.67q-3.34-.77-6.42-1.57v9Z" fill="#003a5d"/><path d="M6.42,57.16H8.65c3.42,0,4.61,1.62,4.61,6.54v10q3.08.67,6.42,1.33V64.66c0-9.58-3.52-14.11-10.15-14.11H0V70.46q3,.81,6.42,1.65v-15Z" fill="#00609c"/><path d="M38.67,76.12c2.17-1.23,4.5-4.27,4.5-11.78,0-10-3.68-13.79-10.87-13.79h-9V75.7c4.93.91,10.24,1.76,15.92,2.52l-.54-2.11ZM32,71.52H29.72V57.15H32c3.47,0,4.76,1.62,4.76,7.19s-1.3,7.18-4.76,7.18Z" fill="#00609c"/><path d="M23.3,97.28h6.42V78.81q-3.31-.65-6.42-1.33v19.8Z" fill="#003a5d"/><path d="M37.59,97.28h6.52L39.83,80.63q-3.29-.53-6.43-1.11l4.18,17.77Z" fill="#003a5d"/><path d="M59.85,85.83c0,3.43-1.09,5.11-3.42,5.11S53,89.26,53,85.83V82.49q-3.27-.4-6.42-.84V85.5c0,8,3.73,12.43,9.84,12.43s9.84-4.4,9.84-12.43V83.83q-3.26-.26-6.42-.58v2.58Z" fill="#003a5d"/><path d="M53,50.55H46.6V79.14q3.14.35,6.42.66V50.55Z" fill="#00609c"/><path d="M66.27,50.55H59.85V80.38q3.15.24,6.42.43V50.55Z" fill="#00609c"/><path d="M90,84.93V97.28h5.59V85q-2.83,0-5.59,0Z" fill="#003a5d"/><path d="M75.12,60.78h.1l3.26,20.54q4,.1,8.16.11l3.28-20.65H90V81.43c1.84,0,3.71,0,5.59-.07V50.55H87.18L82.63,77.87h-.1L78,50.55H69.53V81q2.76.14,5.59.23V60.78Z" fill="#00609c"/><path d="M69.53,97.28h5.59V84.43q-2.83-.16-5.59-.36V97.28Z" fill="#003a5d"/><path d="M81,97.28h3.11l2-12.43q-3.6-.08-7.09-.23l2,12.66Z" fill="#003a5d"/><path d="M104.16,60.78h.1l3.2,20.17q4.13-.21,8.38-.5L119,60.78h.1V80.21c1.85-.14,3.71-.31,5.59-.48V50.55h-8.44l-4.56,27.32h-.1L107,50.55H98.57V81.29q2.77-.08,5.59-.19V60.78Z" fill="#00609c"/><path d="M110.07,97.28h3.11l2.06-12.95q-3.62.21-7.17.35l2,12.6Z" fill="#003a5d"/><path d="M119.07,97.28h5.59V83.66q-2.82.24-5.59.43V97.28Z" fill="#003a5d"/><path d="M98.57,97.28h5.59V84.81q-2.82.08-5.59.11V97.28Z" fill="#003a5d"/><path d="M141.23,81.87v3.89c0,3.49-.83,5.18-3.42,5.18s-3.42-1.68-3.42-5.18V82.7q-3.23.36-6.42.66V86c0,6.6,3.1,12,9.84,12s9.84-5.37,9.84-12V81c-1.85.28-3.72.55-5.61.8l-.81.1Z" fill="#003a5d"/><path d="M134.4,62.07c0-3.49.83-5.18,3.42-5.18s3.42,1.68,3.42,5.18V77.86q3.26-.44,6.42-1v-15c0-6.6-3.11-12-9.84-12s-9.84,5.37-9.84,12V79.41q3.18-.32,6.42-.7V62.07Z" fill="#00609c"/><path d="M165.36,97.28h5.59V76.59q-5.23,1.2-10.76,2.25l5.17,18.44Z" fill="#003a5d"/><path d="M151.27,97.28h5.8V79.42c-1.91.35-3.84.68-5.8,1V97.28Z" fill="#003a5d"/><path d="M170.95,50.55h-5.8v22.6q3-.77,5.8-1.62v-21Z" fill="#00609c"/><path d="M157.07,68.09h.1L159,74.65q2.49-.57,4.91-1.18l-6.7-22.92h-6v25.7q2.94-.54,5.8-1.16v-7Z" fill="#00609c"/><path d="M187.82,84.14c0,4.92-1.19,6.54-4.61,6.54H181V74.1q-3.15.84-6.42,1.63V97.28h9.53c6.63,0,10.15-4.53,10.15-14.11v-13q-3.14,1-6.42,2v12Z" fill="#003a5d"/><path d="M181,57.16h2.23c3.42,0,4.61,1.62,4.61,6.54v2q3.27-1.31,6.38-2.69c-.4-8.43-3.88-12.43-10.11-12.43h-9.53V70.43q3.28-1,6.42-2.17V57.16Z" fill="#00609c"/><path d="M204.86,85.76h-.1L202,67.58q-2.62.94-5.34,1.85L202,97.28h5.65l6.67-34.51q-3.06,1.29-6.29,2.54l-3.18,20.45Z" fill="#003a5d"/><path d="M195.28,62.46v0l.07,0Z" fill="#63a70a"/><polygon points="215.16 97.28 220.96 97.28 220.96 59.68 215.16 62.35 215.16 97.28" fill="#003a5d"/><path d="M224.06,97.28h5.8V55.51q-2.8,1.45-5.8,2.88V97.28Z" fill="#003a5d"/><path d="M233,97.28h5.8V50.62Q236,52.24,233,53.87V97.28Z" fill="#003a5d"/><path d="M250.52,61.81c-6.63,0-9,5.31-9,12.94V85c0,7.64,2.38,12.94,9,12.94,6.47,0,8.91-5.05,9-12.43h-5.8v.78c0,4-1.14,5.69-3.21,5.69s-3.21-1.68-3.21-5.69v-5h12.22V74.76c0-7.64-2.38-12.94-9-12.94Zm3.21,13.46h-6.42V73.47c0-4,1.14-5.69,3.21-5.69s3.21,1.68,3.21,5.69v1.81Z" fill="#003a5d"/><path d="M215.13,47.88S212.38,37.13,205,35.76c0,0,7.49-5.63,10.1,12.11Z" fill="#63a70a"/><path d="M219.58,44.66c3.76-19.76-3.47-26.23-3.47-26.23S229.26,9,219.58,44.66" fill="#63a70a"/><path d="M235.38,33.23s7-8.11,4.35-14.48l2.2-1.65c.29.46,3.63,5.81-6.55,16.13" fill="#003a5d"/><path d="M236,31.5s2.27-6.82.34-9l-1.49,1.33s1.42,2.53,1.15,7.71" fill="#003a5d"/><path d="M209.82,15.1c9.11-7.61,12.23-7.58,16.93-5.49,4.12,1.83,8.32,10.53-.84,32.33,0,0,17.18-29.9,4.79-40.28-6.94-5-12.95,2.37-19.1,8.39-4.48,4.36-8.2,8.36-8.62,8.8-1.49,1.56-2.12,2.7,2,5.31a57.77,57.77,0,0,1,6.14,4.5c0-1.75-3.68-5.62-4.95-6.75-2-1.76-.94-3,3.62-6.8Z" fill="#00609c"/><path d="M217.89,45.86s1.18-18.71-15.16-17.15c-5.06.61-10.06,5.1-8.6,7.08s16,5.64,19.7,13.27c-1.87-5.66-4.11-7.78-14.82-13.33-2.74-1.47,2.49-4.13,5.67-4.33s10-.45,13.22,14.46Z" fill="#00609c"/><path d="M203.64,58S228.76,45,238.76,31.91v8.22C218.65,52.58,203.64,58,203.64,58Z" fill="#003a5d"/><path d="M211.85,50.22s-8.44-9.81-31.54-3.53A34.88,34.88,0,0,1,155.4,44.2l-3.1-10.09s5.24,12,27.75,8.55c23.55-3.64,31.8,7.55,31.8,7.55Z" fill="#63a70a"/><path d="M221,57.9c-2.16,1-5.81,2.58-5.81,2.58V55s3.24-1.54,5.81-2.86V57.9Z" fill="#003a5d"/></svg>