<svg id="Layer_1" data-name="Layer 1" xmlns="http://www.w3.org/2000/svg" viewBox="0 0 100 67.06"><title>logo_7</title><path d="M14.72,64.65V62.3h.92l-.92-3.19V55.93h2.12l3.41,10.91H16.84l-.66-2.2Zm6.3,2.2h3.41V55.93H21V66.84Zm5.2,0H29l-.11-6.55,4,6.55h2.71V55.93H32.74l.15,5.75L29.4,55.93H26.22V66.84ZM42,58.5h2.16V55.93H36.47V58.5h2.16v8.35H42V58.5Zm3.15,8.35h8.24V64.28H48.3V62.45h4.06V60.07H48.3V58.5h5V55.93H45.11V66.84ZM54.6,64h4.14V61.57H54.6V64Zm7.69-1c0,.92-.29,1.32-1.35,1.32a4.25,4.25,0,0,1-1.25-.18v2.6a9.06,9.06,0,0,0,2.2.29c2.75,0,3.77-1.17,3.77-4V55.93H62.29V63Zm5.09-7.1v7.25c0,2.64,1.5,3.88,4.61,3.88,2.82,0,4.32-1.35,4.32-3.81V55.93H73.67v7a1.34,1.34,0,0,1-1.5,1.5c-1,0-1.43-.44-1.43-1.43v-7.1ZM78.1,66.84h7.58V64.32H81.44V55.93H78.1V66.84Zm8.39,0h3.41V55.93H86.49V66.84Zm5.24,0H100V64.28H94.91V62.45H99V60.07H94.91V58.5h5V55.93h-8.2ZM0,63.69C.51,65.82,2.31,67,5.09,67a5.15,5.15,0,0,0,3.63-1.28,3.22,3.22,0,0,0,1.06-2.42,2.8,2.8,0,0,0-1-2.31,7.53,7.53,0,0,0-2.93-1.14c-1.28-.29-2-.33-2-1,0-.4.44-.77,1.1-.77a1.63,1.63,0,0,1,1.76,1.1l2.78-.81a4.23,4.23,0,0,0-4.32-2.75C2.27,55.68.48,57.21.48,59.3c0,1.79,1.21,2.67,3.66,3.3,1.46.37,2.23.33,2.23,1.14,0,.44-.48.77-1.24.77A1.89,1.89,0,0,1,3,63.15l-3,.55Zm14.72-7.76v3.19l-.88,3.19h.88v2.34H13.26l-.62,2.2H10l3.33-10.91Z" fill="#333e48" fill-rule="evenodd"/><path d="M49.84,41.32,33.5,25l2.82-2.82a.92.92,0,0,0,.26-.15c.26-.15.15-.11.26-.18a.82.82,0,0,1,.4,0s.22-.18.29-.18a.52.52,0,0,1,.33,0c.07.07.07.15.15.18s.11.07.11.15-.18.07-.22.15-.26.18-.26.26a2.37,2.37,0,0,0,0,.51.64.64,0,0,0,.15.7.62.62,0,0,0,.62.11l.92-.26a1.57,1.57,0,0,1,.7,0c.11,0,.18-.18.26-.26a.39.39,0,0,1,.48-.07,1.24,1.24,0,0,0,.81,0c.26,0,.29.07.4.07s.26-.11.33-.07a2.32,2.32,0,0,0,.29.4.55.55,0,0,0,.33.15,1,1,0,0,0,.59,0c.11,0,.18-.07.37-.4.15-.15.11.07.59.11.22,0,.33-.26.44-.29s.18.11.26.11a.65.65,0,0,1,.4.29c0,.15.22.51.29.73a.9.9,0,0,0,1.21.26q.27-.11.33.22c.11.29.29.4.77.26a3.72,3.72,0,0,1,.48-.33c.4-.18.29.11,1.21-.44Z" fill="#d4d5d7" fill-rule="evenodd"/><path d="M64.12,20.38l.29.29-1.79,1.79a.82.82,0,0,0,1.17,1.14c.11-.11.88-.84,1.83-1.72l.33.33-.55.55c-.33.37.15,1.06.62.59l.55-.55L68.73,25,52.36,41.32V23.78c.18,0,.4.18.59.22.37,0,.48-.18.7-.4a1.44,1.44,0,0,1,.59-.29c.11,0,.26,0,.4-.07s.15-.22.4,0,.29.26.55.29.55-.22.88-.18.29.22.66.07c.07,0,.15-.33-.07-.51s0-.37.07-.22a1.58,1.58,0,0,0,.77.59c.33.07.37.29.73.33a1.23,1.23,0,0,0,.73-.4.65.65,0,0,1,.88-.11c.29.18.62.48,1,.07Z" fill="#d4d5d7" fill-rule="evenodd"/><path d="M68.36,19.9l-3,2.86c-.37.37.15,1.06.62.59s2.86-2.75,3-2.86C69.28,20.16,68.77,19.54,68.36,19.9Z" fill="#7a9c49" fill-rule="evenodd"/><path d="M69.43,18.14s-5.31,5.16-5.64,5.46a.82.82,0,0,1-1.17-1.14l2.53-2.53a.49.49,0,0,1,.48,0c.07,0,.15.15.22.18a.2.2,0,0,0,.29,0c.18-.18,2.53-2.38,2.71-2.53C69.24,17.23,69.79,17.78,69.43,18.14Z" fill="#7a9c49" fill-rule="evenodd"/><path d="M70,14.56c.4-.4-.11-1-.59-.51s-3.33,3.3-3.44,3.37-.33.07-.4,0-.44-.18-.62,0l-.84.84a.35.35,0,1,1-.48-.51c.4-.33,6.08-5.86,6.19-6,.37-.37-.22-1-.62-.55s-3.77,3.66-4,3.84a.43.43,0,0,1-.55,0,.5.5,0,0,0-.59,0c-.22.26-2.2,2.27-2.45,2.49s-.7-.07-.33-.44,6.44-6.3,6.63-6.52c.44-.44-.11-1.14-.7-.59-.4.44-2.67,2.67-2.86,2.86a.38.38,0,0,1-.59,0,.36.36,0,0,0-.55,0c-.11.15-.88.92-1.1,1.14s-.7-.18-.4-.48,4.72-4.58,4.83-4.72c.44-.44-.18-1.1-.73-.51s-1.79,1.83-2,2a.34.34,0,0,1-.48,0,.5.5,0,0,0-.66,0c-.22.18-1.14,1.17-1.32,1.35-.4.37-.77-.15-.48-.48L65.4,6.68a.4.4,0,1,0-.55-.59c-.37.33-3.08,3-3.3,3.26s-.29.15-.59,0a.58.58,0,0,0-.7.11c-.15.18-1.5,1.57-1.65,1.72-.4.44-.81,0-.44-.44S63.9,5.11,64,4.92s-.18-.92-.59-.51L61.15,6.72a.37.37,0,0,1-.55,0,.52.52,0,0,0-.66.11L58.29,8.4c-.26.29-.66-.15-.37-.44S61.81,4,62,3.72s-.18-1-.66-.48c-.29.29-2.93,3-3.19,3.22s-.37.22-.55.11a.62.62,0,0,0-.77.18c-.15.15-.88.84-1.06,1.06s-.84-.11-.44-.51S59.83,2.84,60,2.73a.42.42,0,1,0-.62-.55C59.1,2.4,57.41,4,57.2,4.23s-.33.18-.51,0a.46.46,0,0,0-.59.07L54.78,5.66a.34.34,0,1,1-.48-.48c.33-.29,3.22-3.19,3.41-3.33A.44.44,0,1,0,57,1.26l-2,1.94c-.29.26-.4.15-.55,0a.46.46,0,0,0-.62.07c-.15.15-.66.73-.88.92s-.88-.15-.48-.51S55.14,1.3,55.36,1c.4-.37-.22-1-.59-.55S53.5,1.7,53.31,1.81a.28.28,0,0,1-.44-.07.4.4,0,0,0-.55,0,6.62,6.62,0,0,1-.48.51c-.33.29-.77-.18-.48-.51a10.75,10.75,0,0,0,.92-.92c.4-.48-.29-1.14-.7-.66a1.75,1.75,0,0,1-.37.33c-.4.26-.51-.07-.81.22a3,3,0,0,1-.44.4c-.33.26-.33-.07-.66.15a1.38,1.38,0,0,1-.29.18c0,.11,0,.26-.18,0s-.15,0-.15-.11c-.22-.15-.77-.26-1.14.48a1.76,1.76,0,0,1-1.14.37c-.4,0-.7-.15-.81-.07s-.37.11-.48.29,0,.4,0,.51,0,.33-.33.33c-.66,0-.37-.37-1.06-.48-.4,0-.48.4-.55.59-.48.77-.81.33-1.35.66a1.45,1.45,0,0,0-.77,1.14c0,1-.37.77-.66.81a7.56,7.56,0,0,0-.88.29c-.15.07-.22.15-.55.33a3.3,3.3,0,0,0-.7.15c-.22.11-.11.07-.29.26s-.26.51,0,1a.4.4,0,0,0,.55.33c.15,0,.33.15.15.22s0,.07-.11.15a1.5,1.5,0,0,0-.22.07c-.11,0-.11.07-.26.07s-.44,0-.73-.11a1.21,1.21,0,0,0-.81-.07c-.22.11-.73.33-1.06.48a1.58,1.58,0,0,0-.51.29c-.11.07-.37.18-.4.26-.18.29-.18.11-.33.26s-.15.84.48.44c.11-.11.4-.07.51,0s.22.18,0,.26-.29.18-.48.29-.81.07-1,.4-.55.07-.92.37a1.07,1.07,0,0,0-.33.59c0,.18,0,.33.51.33s.84.62.59,1a1.42,1.42,0,0,0,.11,1.65c.07.29.77,1.43-.4,1.61a.41.41,0,0,0,0,.81c.11-.07.29,0,.37,0s.22-.18.33-.15-.07,0-.07.07a.4.4,0,0,1,0,.18,7.15,7.15,0,0,1-1,.44c-.15,0-.26,0-.29,0s-.07.18-.15.18-.29-.07-.37.11a.77.77,0,0,0,0,.73c.11.11.22,0,.37.4s-.07.44.18.84a.94.94,0,0,0,.66.37c.26,0,.4-.11.48.15a1.64,1.64,0,0,0,.37.92c.07,0,.15.15.22.18s.15,0,.22.11c.26.29.37.15.51.15.18-.22.22-.29.33-.26s.26,0,.29.07a.8.8,0,0,0,.84-.15c.22-.15.15-.11.26-.18a1.65,1.65,0,0,1,.4,0s.22-.18.29-.18a.52.52,0,0,1,.33,0c.07.07.07.15.15.22a.1.1,0,0,1,.11.11s-.18.07-.26.15-.22.18-.22.26a2.37,2.37,0,0,0,0,.51.58.58,0,0,0,.15.7.6.6,0,0,0,.62.11l.92-.26a1.57,1.57,0,0,1,.7,0c.11,0,.18-.18.26-.26s.18-.18.48-.07a1.12,1.12,0,0,0,.77,0c.29,0,.33.07.44.07s.26-.11.33-.07,0,.18.29.4a.71.71,0,0,0,.33.18,1.57,1.57,0,0,0,.59,0c.11,0,.18-.07.37-.4.15-.15.11.07.59.11.22,0,.33-.26.44-.29s.15.11.26.11.29.07.37.29a7.15,7.15,0,0,1,.33.73.9.9,0,0,0,1.21.26q.27-.11.33.22c.07.29.29.4.73.26.18-.11.37-.26.51-.33.44-.22.22.18,1.57-.66a.47.47,0,0,1,.44,0c.26.07.29,0,.37,0s.18-.07.4,0a.75.75,0,0,0,.7,0c.26-.15.59.15.84.18s.48-.18.7-.4a1.44,1.44,0,0,1,.59-.29,2.71,2.71,0,0,1,.4-.07c.11-.07.15-.22.4,0a.93.93,0,0,0,.51.29c.4,0,.59-.22.92-.18s.29.26.66.07c.07,0,.15-.33-.07-.51s0-.37.07-.22a1.4,1.4,0,0,0,.77.59c.33.07.37.29.73.33a1.23,1.23,0,0,0,.73-.4.65.65,0,0,1,.88-.11c.29.18.62.51,1,.07C62,22.46,69.94,14.63,70,14.56Z" fill="#7a9c49" fill-rule="evenodd"/><path d="M68.73,25v4.43L52.36,45.72V41.32L68.73,25Z" fill="#333e48" fill-rule="evenodd"/><polygon points="49.84 45.72 33.5 29.39 33.5 24.95 49.84 41.32 49.84 45.72" fill="#333e48" fill-rule="evenodd"/></svg>