<svg id="Layer_1" data-name="Layer 1" xmlns="http://www.w3.org/2000/svg" viewBox="0 0 200 86.41"><title>logo_11</title><rect y="79.69" width="55.46" height="6.38" fill="#00447c"/><rect y="71.51" width="55.47" height="6.25" fill="#00a88f"/><path d="M36.17,58.12s0,0,0,0c-8.09,7-15.61,2.41-18.1,0v0C10,65.11,2.5,60.55,0,58.17c0,0,0,3.53,0,7.76,8,6,15.83,2.27,18.1,0h0c8,6,15.83,2.27,18.1,0h0c8,6,17,1.95,19.26-.33V57.78A14.6,14.6,0,0,1,36.17,58.12Z" fill="#00447c"/><path d="M55.47,37.62V20.84l-1.57-1.7c.61,0,1,0,1.57,0V2.3L53.2,0H36.08V1.76L34.47,0H17.92V1.8L16.34,0H0V16.95l1.47,1.54c-.66,0-.65,0-1.47,0V34.65l1.46,1.72H0V53.28l2,2H18.81V53.82l1.33,1.47H36.89c0-.22,0-1.22,0-1.47l1.35,1.47H55.47v-16l-1.52-1.62ZM38.62,2.53H54.17v16H38.6Zm-20.69,0v16H2.55v-16ZM18.78,41h-.84v5.16h0V54H2.54V39.4H18.78Zm17.3-4.62v7h.5v1.21h-.5V54H20.43V36.37H2.55V20.92H20.43V2.54H36.08V20.92h18.1V36.37Zm18.08,3V54H38.6V47.26h0V39.39Z" fill="#00447c"/><path d="M49.87,31.15c.08-.38-.51-.7-.09-1.06.15-.53-.21-.74-.32-1.13-.78.15-1.74,0-2.27.66L47,29.45c-1.42-.19-2.32.34-3.74.17-.79.38-1.72-.07-2.53.06,0-.06,0-.11.09-.15.55.21.59-.81,1.21-.34V29c.45.17.53-.34,1.06-.17.17-.21.49-.6.26-1,.85-.06,1.55-.51,2.5-.55l-.09-.09c.64.13.77-.64,1.38-.25.57-.06.72-.47,1-.89-.51-.21.17-1-.4-1.3.19-.17.53-.28.64-.49.34.15.23-.23.49-.23a6.07,6.07,0,0,0-.49-2.27c-.34.17-.28-.32-.47-.34-1.68,0-2.7.91-4.48.83,0,.66-1.47.36-1.85,1.13,0,0-.11-.08-.09-.15-.34-.08-.47.3-.81.15a1.36,1.36,0,0,1-1.38.25l.15-.17c.08-.21-.19-.32-.24-.4-.21-.17-.55-.32-.81-.49.79-.13-.23-.93.55-1.06.11-.62-.45-.53-.64-1a4.9,4.9,0,0,1,1.78-.74c.38-.62,1.51-.66,1.53-1.53h-.4c-.3-.34-.11-1-.15-1.3A4,4,0,0,0,40,16.54c.21-.3-.4-.53-.09-.89l-.55.08c-.32.32-.89-.06-1.15.41a2.47,2.47,0,0,1-.89.4c-.17.45-.57.47-1,.66.11.51-.72,0-.57.4-.47-.06-.53.28-1,.25,0,.28-.34,0-.34.23-.55.36-.19-.64-.64-.49-.25-.09-.08-.36-.25-.49.15-.32.53,0,.74-.24.45-.72,2-.66,1.44-1.87h.08c.36-.91-.62-1.15-.55-1.87-.11-.23.17-.79-.26-.89-.66-.36-1,.42-1.46.72-.45.13-.72.55-1.21.66a1.53,1.53,0,0,1-.17-1c.25,0,.28-.28.25-.49a.43.43,0,0,1,.4-.17c.23-.26.53-.6.49-.89.51-.66-.24-1-.32-1.61-.11-.09-.19-.21-.34-.17v.08c-.08.17-.21,0-.32-.08l.4-.4c.36.13.11-.36.4-.32-.11-.32.17-.36.32-.58-.19-.17.09-.62-.32-.64.11-.53-.51-.78-.4-1.3.4-.15.19-.64.26-.83h.06c0-.23-.32-.61.08-.64-.13,0-.15-.1-.23-.17a.41.41,0,0,0,.15-.4c-.23.06-.64-.15-.72.17-.47-.19-.68.64-1.06.23-.06-.15.11-.19.08-.32a9.4,9.4,0,0,0-2,.4c-.11.06-.26.23-.34.08V4.55c-.42,0-.53.4-.81.49-.23.42-.79.15-1,.57-.59,0-.28.7-.81.89.25.55-.68.51-1,.89A6.12,6.12,0,0,0,23.92,8c-.32-.28-.45.28-.83.09-.08.25-.38.4-.32.72A1.22,1.22,0,0,0,22,10.3a1.68,1.68,0,0,1-.89.74c-.32.42-1,.13-1.29.55-.47-.36-.49.36-1,.17a3.47,3.47,0,0,1-1.15.32.91.91,0,0,1-.89.4c-.34.13-.4.42-.81.4s-.11.45-.15.66-.13.21-.25.17V14c-.32.74,1,.87.4,1.7-.72,1.36,1.59.87,1.47,1.87a2.89,2.89,0,0,0-1.78.57c-.49,0,0,.72-.49.89,0,.27,0,.81.32,1,0,.19-.21.57-.32.49-.93.19-1.91,1-2.76,1.3-.55.06-1.32.15-1.47.57-.38-.08-.55.45-.81.49s-.55.47-.64.15c-.32.57-.89.38-1.23.74,0,.66-.08.72.4,1.12L8.51,25,9,25.4c0,.15-.15.59.23.64,0,0-.09.11-.17.09l.08.08c0,.13-.11.17-.15.25a26.64,26.64,0,0,1-4.63,2.1c-.45.28-1.49.34-1.21,1.13a9.8,9.8,0,0,1,2,2.44c.53.64,1-.19,1.55.08l-.34.4c-.1.47.17.66.4.89.89.17,1.44-.57,2.21-.72.17-.38.72,0,.81-.49.55,0,.93-.38,1.38-.57l.23.4A1.84,1.84,0,0,0,13.2,32c.74-.47.68.57,1.15.81a1.82,1.82,0,0,1-.57.43c-.47.13-1.4.47-2.1.72-.26.42-.93.17-.89.81,0,.27.38.15.49.4a5.74,5.74,0,0,1-.89.57c0,.85.91,1.51,1.53,2.19a1.45,1.45,0,0,0,1.55-.49c.23-.23.57.06.55.32,0,.89.76,1.47,1.15,2.21h.23c.36-.3,1-.09,1.38-.49.36.26.72-.15,1-.08.15.27.59.34.74.64.15.57-.79.42-.83.89a37.29,37.29,0,0,1-3.72,1.15,7.17,7.17,0,0,0-3.16,1.38c-.55,1.4,1.1,1.08,1.13,2.19.34.13.62.44,1.06.32.51.25.28.72.57,1.06s1.08,0,1.53,0c.28-.17.62-.36.89-.23v-.17c.4-.15,1-.15,1.21-.49.09,0,.21,0,.26.09l.23-.25c.09,0,.13,0,.17.08a.58.58,0,0,1,.57-.23c.34-.36.74.08,1-.4l.17.15c-.06.47-.61.49-.64,1a4.65,4.65,0,0,0,1.13,2.1c.17.17-.13.45.25.49l-.08.08h.32c.06.08.21.13.17.26h.81c-.1-.3.21-.19.32-.34.42,0,.74-.4,1.15-.23.15.25.36-.21.49.17V55.3h6.3l0-6.46h2.82c.45-.3,1.21-.3.89-1.12a8.62,8.62,0,0,0,1.87-1.15c.51-.64,1.76.06,2.19-.72.38-.06.66-.57,1.06-.34l.32-.32a2.47,2.47,0,0,0,1.55-.89c1.42-.13,0-1,.32-1.7-.51-.27-.23-.81-.89-1.06-.17-.09,0-.21.08-.32a4.6,4.6,0,0,0,1.3-.08c.38-.55,1.19-.21,1.46-.89.32.09.47-.3.81-.17-.11-.46.66-.08.89-.32,0-.3.3-.49.4-.72-.15-.19-.38-.34-.4-.57.81-.38.17-.87.25-1.46l-.09.09c-.19-.21.19-.68-.17-.81.15-.08.06-.27.08-.4-1.21-.34-1.25.64-2.36.32-.3-.51.28-1.15-.17-1.55.23-.13.21-.38.49-.4.7-.06,1.17-.17,1.87-.23.45-.55,1,0,1.55-.32a6.89,6.89,0,0,1,3.17-.17c0-.72.64.13.72-.49.06.15.23.06.34.08A8.94,8.94,0,0,0,49.87,31.15ZM34.43,44.86c-.31-.25-.77-.28-1-.54.51-.31,1.3.09,1.81-.22.4.09.63-.29,1.05-.12A4.91,4.91,0,0,1,34.43,44.86Z" fill="#00a88f"/><path d="M69.3,63.38a14.44,14.44,0,0,0-2.46-2.73c-.59-.5-2.3-2.19-2.24-3.39s.71-1.42,1.78-.82c1.35.76,1.17,2.62,1.49,3.35h1.87c0-.23.14-3.33.14-3.33-.68-1.31-3.37-2.06-4.44-2-.47,0-2.48.41-3.19,1.39a4.4,4.4,0,0,0-.93,3.55c.22,1.64,1.79,3.29,2.57,4.15,1.48,1.64,3.41,3.56,3.28,4.37-.38,2.3-1.64,1.55-2.14,1.14-1.18-1-1.41-2.78-1.57-3.08H61.61c0,.57,0,4.24,0,4.24,2.84,1,4.76,1.42,6.78.17A4.39,4.39,0,0,0,70.5,67C70.8,65.77,69.74,64.14,69.3,63.38Z" fill="#00447c"/><path d="M80.94,67.92c-.38-.44-2.87-12.83-3.17-13.17H73.86c-.23,0,.22.57.23,1.16s-2.53,11.77-3,12.74-.94.46-.93,1,.06,1.08.06,1.08h4.18l-.11-1c-.3-.08-.51-.66-.84-1s.26-3.54.44-3.49a16.51,16.51,0,0,1,2.62,0A9.43,9.43,0,0,1,77,68.38c-.13.57-1,1-1.06,1.34s0,.94,0,1h6.27c0-.07,0-.29.05-.55V69C81.23,68.68,81.32,68.36,80.94,67.92Zm-7.08-5,.75-3.52,1.07,3.5Z" fill="#00447c"/><path d="M88.86,56.24a8.3,8.3,0,0,0,0-1.5H82.38a6.23,6.23,0,0,0,.05,1.69c.16.24.62-.09,1.09.8s.39,10.47.31,10.64-.05.75-.64,1a6.2,6.2,0,0,1-.86.16c.11,0,.05.67,0,1.17v.55s6.58,0,6.57,0a15.9,15.9,0,0,1,0-1.71,1.54,1.54,0,0,1-.78-.21,1.28,1.28,0,0,1-.48-.86c-.11-.37-.23-10.7,0-11.09A1.21,1.21,0,0,1,88.86,56.24Z" fill="#00447c"/><path d="M82.33,69v1.17C82.38,69.72,82.44,69.09,82.33,69Z" fill="#00447c"/><path d="M96.63,54.74v1.61c.69.07,1.71.7,1.71,1s.32,5.09.05,4.61-3.43-5.3-3.73-5.75-.66-1.49-1-1.49H89.5v1.71a1.27,1.27,0,0,1,.58.17,5.52,5.52,0,0,1,.81,1.17v9.32a2.31,2.31,0,0,1-.43,1.45,1.34,1.34,0,0,1-.93.48c.05.16,0,1.71,0,1.71h4.73c-.05-.21,0-1.71,0-1.71a1.58,1.58,0,0,1-1.07-.48,5.15,5.15,0,0,1-.7-1.5c-.11-.32-.21-6.86,0-6.75s6.22,10.5,6.59,10.45.91.16,1,0-.4-12.1,0-13.49,1.1-.65,1.1-1.08a13.28,13.28,0,0,0,0-1.45Z" fill="#00447c"/><path d="M110.45,57a15.69,15.69,0,0,1,.7,1.61,7.82,7.82,0,0,0,1.13,0l-.16-3.86H101.77V58.6h1a6,6,0,0,1,.86-1.61c.44-.38,1.18-.8,1.55-.64,0,0,.11,11.29-.16,11.84-.38.79-1,.7-1.29.86v1.71h6.64V69s-1.15-.2-1.38-.86c-.16-.47,0-12,0-12C109.05,55.87,110.13,56.35,110.45,57Z" fill="#00447c"/><path d="M117.27,63.21a2,2,0,0,0,.21-1.65c-.21-.53-.42-.48-.42-.48s-.16.26-.42.64a1.29,1.29,0,0,1-.85.64,3.18,3.18,0,0,1-1.17-.58,4,4,0,0,0-1.75-.69,2.13,2.13,0,0,0-1.06.16,1.76,1.76,0,0,0-.91.86,1.54,1.54,0,0,0-.25,1.68l.58.48s.19-.35.37-.74c.32-.69,1-.48,1.59,0a3.2,3.2,0,0,0,1.7.74,2.2,2.2,0,0,0,1.43-.05C117,63.85,117,63.68,117.27,63.21Z" fill="#00447c"/><path d="M126.92,67.87c-.38-.44-2.84-12.71-3.14-13h-3.87c-.22,0,.21.57.22,1.15s-2.5,11.65-3,12.62-.93.45-.92,1,.05,1.07.05,1.07h4.14l-.11-1c-.3-.08-.5-.66-.83-1s.26-3.51.44-3.46a16.11,16.11,0,0,1,2.59,0,9.38,9.38,0,0,1,.57,3.14c-.13.56-1,1-1,1.32s0,.93,0,1h6.21l0-1.69C127.13,68.63,127.3,68.31,126.92,67.87Zm-7-5,.74-3.48,1.06,3.46Z" fill="#00447c"/><path d="M138.91,56.21l-.07-1.5h-4.42s-.15,1.56.15,1.5,1.18,0,1.17.51.42,8.64,0,10.1c-.15.52,0,1.19-.67,1.53a2.27,2.27,0,0,1-2.28,0,2.43,2.43,0,0,1-.51-1.6V56.59a1.89,1.89,0,0,1,1.25-.38l.07-1.5h-6.4L127.13,56a3.06,3.06,0,0,1,.84.24c.71.26.49,1.12.49,1.12.27.38-.22,7.06,0,9.42s1,3.09,1.69,3.54a6.33,6.33,0,0,0,4,.64,4,4,0,0,0,2.66-1.53,4.56,4.56,0,0,0,.81-2.8c.15-1.47,0-10,0-10C138,56.22,138.91,56.21,138.91,56.21Z" fill="#00447c"/><path d="M144.12,64c.59,0,.74.12,1.09.73s.24,4.23.24,4.23c-.42.8-.21.79-1,.57s-.69-1-1.09-1.75-.46-4.07-.61-4.87a23.18,23.18,0,0,1,.28-5.08c.21-.49.08-1.48,1.32-1.7a1.57,1.57,0,0,1,1.9.73,10.16,10.16,0,0,1,1,2.65l1.75-.18.06-3.72a6.94,6.94,0,0,0-4-1.09,11.31,11.31,0,0,0-2.55.55,5,5,0,0,0-2.84,2.51,11,11,0,0,0-1.1,5,10,10,0,0,0,.58,4.42,5.51,5.51,0,0,0,3.58,3.67,15.25,15.25,0,0,0,4.3.22,9.54,9.54,0,0,0,2.4-.72s.15-4.67.07-5.47.81-.88.81-.88l.12-1.17L144,62.57Z" fill="#00447c"/><path d="M161.68,56.21l-.07-1.5h-4.42s-.15,1.56.15,1.5,1.18,0,1.18.51.42,8.64,0,10.1c-.15.52,0,1.19-.67,1.53a2.27,2.27,0,0,1-2.28,0,2.43,2.43,0,0,1-.51-1.6V56.59a1.89,1.89,0,0,1,1.25-.38l.07-1.5H150L149.9,56a3.08,3.08,0,0,1,.84.24c.71.26.49,1.12.49,1.12.27.38-.22,7.06,0,9.42s1,3.09,1.69,3.54a6.33,6.33,0,0,0,4,.64,4,4,0,0,0,2.65-1.53,4.55,4.55,0,0,0,.81-2.8c.15-1.47,0-10,0-10C160.73,56.22,161.68,56.21,161.68,56.21Z" fill="#00447c"/><path d="M167,60.68c-.58-.49-2.27-2.16-2.22-3.35s.7-1.41,1.76-.81c1.34.75,1.16,2.6,1.47,3.31h1.85c0-.23.14-3.3.14-3.3-.67-1.3-3.34-2-4.39-2-.46,0-2.46.4-3.16,1.38a4.35,4.35,0,0,0-.92,3.52c.22,1.62,1.77,3.26,2.54,4.11,1.46,1.62,3.38,3.53,3.25,4.33-.38,2.27-1.62,1.54-2.12,1.12-1.17-1-1.4-2.75-1.56-3.05h-1.82c0,.56,0,4.2,0,4.2,2.81,1,4.71,1.41,6.71.17A4.36,4.36,0,0,0,170.66,67c.29-1.26-.76-2.87-1.19-3.63A14.34,14.34,0,0,0,167,60.68Z" fill="#00447c"/><path d="M187.93,56.33a8.29,8.29,0,0,0,0-1.49h-6.42a6.16,6.16,0,0,0,.05,1.67c.16.24.61-.09,1.07.79s.39,10.36.31,10.54-.05.74-.64,1a6.32,6.32,0,0,1-.85.16v1.7s6.52,0,6.51,0a15.74,15.74,0,0,1,0-1.7,1.52,1.52,0,0,1-.77-.21,1.27,1.27,0,0,1-.48-.85c-.11-.37-.23-10.59,0-11A1.2,1.2,0,0,1,187.93,56.33Z" fill="#00447c"/><path d="M170.64,54.82v3.82h1a5.89,5.89,0,0,1,.85-1.59c.43-.37,1.17-.8,1.54-.64,0,0,.11,11.18-.16,11.73-.38.78-.94.69-1.27.85v1.7h6.58V69s-1.14-.19-1.37-.85c-.16-.46,0-11.88,0-11.88.05-.32,1.11.16,1.43.8a15.49,15.49,0,0,1,.69,1.59,7.88,7.88,0,0,0,1.11,0l-.16-3.82Z" fill="#00447c"/><path d="M195.47,54.82v1.59c.69.08,1.7.69,1.7,1s.32,5,.05,4.56-3.4-5.25-3.69-5.69-.66-1.47-1-1.47h-4.08v1.7a1.25,1.25,0,0,1,.58.17,5.56,5.56,0,0,1,.8,1.16v9.23a2.29,2.29,0,0,1-.43,1.43,1.32,1.32,0,0,1-.92.48c.05.16,0,1.7,0,1.7h4.69c-.05-.21,0-1.7,0-1.7a1.57,1.57,0,0,1-1.06-.48,5.14,5.14,0,0,1-.69-1.49c-.11-.32-.21-6.79,0-6.69s6.16,10.4,6.53,10.35.9.16,1,0-.4-12,0-13.36,1.09-.65,1.09-1.07a12.67,12.67,0,0,0,0-1.43Z" fill="#00447c"/><path d="M69.41,80.13a5.55,5.55,0,0,0-.83-2.51,5.16,5.16,0,0,0-1.79-1.55,5.94,5.94,0,0,0-2.21-.28H61.3s-.07,1,0,1a1.2,1.2,0,0,1,.56.19.89.89,0,0,1,.24.53c0,.24.16,6.53.08,6.8s-.11.56-.37.64l-.48.12v1c.08,0,3.84,0,4.21,0a5.82,5.82,0,0,0,2.24-.91,4.76,4.76,0,0,0,1.33-2.29A9.25,9.25,0,0,0,69.41,80.13Zm-2.88,2.72A3.69,3.69,0,0,1,66,84.53a1.16,1.16,0,0,1-.72.43,1.74,1.74,0,0,1-.59.05V76.83c.8-.11.74.1,1.09.37a5.12,5.12,0,0,1,.61,1.46,8.26,8.26,0,0,1,.27,2A15.18,15.18,0,0,1,66.53,82.85Z" fill="#00447c"/><path d="M74.26,84.51c-.32.32-.41.51-.77.6s-.61.09-.77-.18c0,0-.11-.05-.16-.34s0-3.2,0-3.2a.5.5,0,0,1,.37-.08,1.48,1.48,0,0,1,.64.45,1,1,0,0,1,.35.69h1V79.07h-1a2.3,2.3,0,0,1-.21.66.68.68,0,0,1-.59.43,2.11,2.11,0,0,1-.54,0v-3.3a1.14,1.14,0,0,1,.56,0,1.22,1.22,0,0,1,.69.35,2.55,2.55,0,0,1,.8,1.09h1.2l-.4-2.47H69.24v1a.76.76,0,0,1,.59.08c.35.27.14.43.21.75s0,6.51,0,6.85-.08.36-.32.48a1.1,1.1,0,0,1-.45.12v1h6.35l.48-2.85h-1.2A4.28,4.28,0,0,1,74.26,84.51Z" fill="#00447c"/><path d="M80.85,80.12c-.14-.36-.28-.32-.28-.32s-.11.18-.28.43a.86.86,0,0,1-.57.43,2.13,2.13,0,0,1-.78-.39,2.7,2.7,0,0,0-1.17-.46,1.42,1.42,0,0,0-.71.11,1.19,1.19,0,0,0-.61.58,1,1,0,0,0-.17,1.13l.39.32s.13-.24.25-.5c.21-.46.68-.32,1.07,0a2.15,2.15,0,0,0,1.14.5,1.48,1.48,0,0,0,1,0c.49-.24.46-.36.64-.68A1.34,1.34,0,0,0,80.85,80.12Z" fill="#00447c"/><path d="M88.91,80.12a5.51,5.51,0,0,0-.83-2.49,5.11,5.11,0,0,0-1.78-1.54,5.88,5.88,0,0,0-2.2-.28H80.85s-.07,1,0,1a1.23,1.23,0,0,1,.56.19.9.9,0,0,1,.24.53c0,.24.16,6.5.08,6.76s-.11.56-.37.64l-.48.12v1c.08,0,3.82,0,4.19,0a5.78,5.78,0,0,0,2.23-.9,4.74,4.74,0,0,0,1.33-2.28A9.23,9.23,0,0,0,88.91,80.12ZM86,82.82a3.66,3.66,0,0,1-.53,1.67,1.15,1.15,0,0,1-.72.42,1.75,1.75,0,0,1-.58.05V76.82c.79-.11.74.1,1.09.37a5.14,5.14,0,0,1,.61,1.46,8.17,8.17,0,0,1,.27,2A15.23,15.23,0,0,1,86,82.82Z" fill="#00447c"/><path d="M119.08,84.27c-.25-.29-1.85-8.27-2-8.49h-2.52c-.15,0,.14.37.15.75s-1.63,7.58-2,8.21-.61.29-.6.64,0,.7,0,.7h2.69l-.07-.67c-.19-.05-.33-.43-.54-.66a4.79,4.79,0,0,1,.28-2.25,10.87,10.87,0,0,1,1.69,0,6.09,6.09,0,0,1,.37,2c-.08.37-.67.66-.68.86s0,.61,0,.67h4l0-1.1C119.22,84.76,119.33,84.55,119.08,84.27ZM114.52,81l.48-2.27L115.7,81Z" fill="#00447c"/><line x1="115.7" y1="81.02" x2="115" y2="78.77" fill="#00447c"/><path d="M124.14,75.8s-.1,1,.09,1,.76,0,.76.33.27,5.57,0,6.51c-.09.33,0,.76-.43,1a1.46,1.46,0,0,1-1.47,0,1.56,1.56,0,0,1-.33-1V77a1.21,1.21,0,0,1,.8-.25l0-1h-4.13l0,.85a1.88,1.88,0,0,1,.54.16c.46.17.32.72.32.72.17.25-.14,4.55,0,6.07s.65,2,1.09,2.28a4.09,4.09,0,0,0,2.61.42,2.57,2.57,0,0,0,1.71-1,2.93,2.93,0,0,0,.52-1.8c.09-.95,0-6.45,0-6.45.19-.28.8-.29.8-.29l0-1Z" fill="#00447c"/><path d="M93.74,84.46c-.32.32-.41.5-.77.6s-.61.09-.77-.18c0,0-.11-.05-.16-.35s0-3.18,0-3.18a.49.49,0,0,1,.37-.08,1.49,1.49,0,0,1,.64.45,1,1,0,0,1,.35.69h1V79.05h-1a2.29,2.29,0,0,1-.21.66.68.68,0,0,1-.58.42,2.12,2.12,0,0,1-.54,0V76.82a1.14,1.14,0,0,1,.56,0,1.23,1.23,0,0,1,.69.35,2.54,2.54,0,0,1,.8,1.09h1.19l-.4-2.46H88.75v1a.76.76,0,0,1,.58.08c.35.26.14.42.21.74s0,6.48,0,6.82-.08.35-.32.48a1.1,1.1,0,0,1-.45.12v1h6.31l.48-2.84H94.35A4.23,4.23,0,0,1,93.74,84.46Z" fill="#00447c"/><path d="M99.6,79.51c-.38-.33-1.5-1.43-1.47-2.22s.47-.93,1.17-.54c.88.5.77,1.72,1,2.19h1.22c0-.15.09-2.19.09-2.19-.44-.86-2.21-1.35-2.91-1.3a3.44,3.44,0,0,0-2.09.91A2.88,2.88,0,0,0,96,78.69a6,6,0,0,0,1.68,2.72c1,1.08,2.24,2.34,2.15,2.87-.25,1.5-1.08,1-1.41.75a4.22,4.22,0,0,1-1-2h-1.2c0,.37,0,2.78,0,2.78,1.86.68,3.12.93,4.44.11a2.89,2.89,0,0,0,1.4-2.19,3.91,3.91,0,0,0-.79-2.4A9.45,9.45,0,0,0,99.6,79.51Z" fill="#00447c"/><path d="M110.92,83.74c-.07-.47-.07-3.29-.11-3.68a16.38,16.38,0,0,1-.11-1.86,6.21,6.21,0,0,1,.1-1.11.45.45,0,0,1,.54-.31v-1h-3s-1.38,5.32-1.49,5.57-1.12-5.57-1.12-5.57h-3.24v1a.62.62,0,0,1,.5.11c.29.18.25.46.29.71a18.74,18.74,0,0,1-.14,2.32c0,.53-.11,2.36-.22,2.93a12.67,12.67,0,0,1-.25,1.89c-.18.39-.29.21-.51.39v1l2.85,0v-1a.88.88,0,0,1-.53-.21,1,1,0,0,1-.39-.75,25.09,25.09,0,0,1,.27-3.54c.12-.21.61,2.25.8,2.72s.3,1.05.39,1.29a6.35,6.35,0,0,0,.81,1.47c.18,0,.79-1.33.9-1.65s.47-1.52.57-1.86.57-2.14.64-2.39-.07,2,0,2.39a5.75,5.75,0,0,1-.14,2.07,1,1,0,0,1-.62.46l0,1h4v-1l-.54-.32C110.88,84.56,111,84.2,110.92,83.74Z" fill="#00447c"/><path d="M140.48,84.44c-.32.32-.41.5-.77.6s-.61.09-.77-.18c0,0-.11-.05-.16-.35s0-3.18,0-3.18a.49.49,0,0,1,.37-.08,1.48,1.48,0,0,1,.64.45,1,1,0,0,1,.34.69h1V79h-1a2.31,2.31,0,0,1-.21.66.67.67,0,0,1-.58.42,2.13,2.13,0,0,1-.54,0V76.8a1.16,1.16,0,0,1,.56,0,1.24,1.24,0,0,1,.69.35,2.54,2.54,0,0,1,.79,1.09H142l-.4-2.46H135.5v1a.75.75,0,0,1,.58.08c.34.26.14.42.21.74s0,6.48,0,6.82-.08.36-.32.48a1.08,1.08,0,0,1-.45.12v1h6.31l.48-2.84h-1.19A4.23,4.23,0,0,1,140.48,84.44Z" fill="#00447c"/><path d="M147.74,81.28a9.53,9.53,0,0,0-1.61-1.79c-.39-.33-1.51-1.43-1.47-2.22s.47-.93,1.17-.54c.88.5.77,1.72,1,2.19H148c0-.15.09-2.18.09-2.18-.44-.86-2.21-1.35-2.91-1.3a3.45,3.45,0,0,0-2.09.91,2.89,2.89,0,0,0-.61,2.33,6,6,0,0,0,1.68,2.72c1,1.08,2.24,2.34,2.15,2.87-.25,1.5-1.07,1-1.4.74a4.22,4.22,0,0,1-1-2h-1.2c0,.37,0,2.78,0,2.78,1.86.68,3.12.93,4.44.11a2.88,2.88,0,0,0,1.4-2.19A3.91,3.91,0,0,0,147.74,81.28Z" fill="#00447c"/><path d="M134.33,84.38a20.94,20.94,0,0,0-.91-2c-.28-.49-.81-1-.53-1.16a2.89,2.89,0,0,0,1-.81,2.71,2.71,0,0,0,.63-2.45c-.21-1.3-1.19-1.54-1.72-1.93s-2.49-.25-2.94-.28-2.31,0-2.31,0-.23.88,0,.91a.54.54,0,0,1,.42.53c0,.26.07,6.53,0,6.85s0,.52-.31.78a.7.7,0,0,1-.53.21v1h4V85c-.14-.11-.28,0-.45-.21a4.1,4.1,0,0,1-.18-1.64c0-.37,0-1.72.21-1.49a3.59,3.59,0,0,1,.63,1.34s.5,1.17.63,1.54c.48,1.41.76,1.41.76,1.41h2.18V85C134.58,85,134.53,84.87,134.33,84.38Zm-3-4.09c-.25.27-.69.06-.69.06v-3.5l-.07-.11c.45-.1.88.32,1.09.6a3.62,3.62,0,0,1,.22,1.55A2.47,2.47,0,0,1,131.34,80.29Z" fill="#00447c"/></svg>