<svg id="Layer_1" data-name="Layer 1" xmlns="http://www.w3.org/2000/svg" viewBox="0 0 559.9 439.57"><title>logo_12</title><path d="M182.82,0V47.88c-1.26,0-3.9-.13-4.82-.13a7.94,7.94,0,0,1-2.45-.46l-1.22.93-2.45,5.1-1.84.47s-2.45-2-3.68-2.94-1.43-2.16-3.88-1.39-13.68,4.17-13.68,4.17c-2.25.62,3.26-.31,3.26-.31l-2.45,1.24,3.27-1.09-1.23,1.24,2.45-1.08.2.77,2.25-.16s7.14.93,9.8,1.39,2.86,1.54,2.86,1.54-.61-.15-1.84.77a8.53,8.53,0,0,1-3.27,1.24l2-.31-.61,1.24s-.2.31,1.63.31,2.25-.62,3.27-.47,1.63,1.39,1.63,1.39l-.61-1.23,1-.78,1,1.86V59.35l1-.77,1.22-.15-.41-.77h1.84l-3.27-1.24a1.75,1.75,0,0,0,.21-1.7,2.33,2.33,0,0,1,.2-2.78c.81-.77,4.28-1.39,6.74-1.85l1.76-.33V163.32S237.57,136,286.5,156s95.66,7.35,95.66,7.35V0Zm0,48v.61l-1.56-.4Zm-1.35,1,1.35-.09v.5Z" fill="#385988"/><path d="M382.2.07H361.09c-1.49,18.72-12.52,37.84-19.81,48.63,6.84-15.78-7.14-34.24-23.33-48.63H281.56c12,6.49,22.6,13.33,29.89,20.22,15.43,14.57,22.64,30.53-4.76,44.56S232.94,89.41,204.08,86.41a60.23,60.23,0,0,1-21.28-6.56V97.73a67.44,67.44,0,0,0,18.32,1.7c10.59-.63,21.53-.77,33.17-1.54-9.73,5.18-20.35,11.14-30.76,17.57-7.7,4.75-14.62,7-20.73,7.74v9.43c8.46-1.76,17.37-6.25,28.69-12.15,17.21-9,51.9-23.12,73.27-31.61A216.87,216.87,0,0,0,323.84,72c44.23-24.19,56-58.45,58.36-67.18ZM319.61,71.61Zm4.61-4.26L326,65.73Zm7.79-7.2,1.65-1.52Z" fill="#648acc"/><circle cx="223.78" cy="55.09" r="20.66" fill="#648acc"/><path d="M207.93,17.82s-3.42,2.52-5.41,4.33l-2,1.8.72-1.62a14.56,14.56,0,0,0-2,1.8c-.36.54.9-2.16.9-2.16l-1.62,1.8s.72-1.62,4-4.87,7.57-6.13,8.83-5.77,2.71,1.62,5.23,2.16,2-.9,3.24-.72.54-.54,2.35-2,3.6-4.33,9.55-2,6.85,4.15,7.39,4.69-2.88,0-3.6-.36-.7.54-1.44.54a10.1,10.1,0,0,1-4-.54c-2-.54-6.67-.72-8.29.36s.36,1.8-1.26,3.25a6.47,6.47,0,0,1-3.24,1.62l-1.08,2.16c-.18.36.18-2,.18-2l-1.26,2.35s.18-3.07.36-2.52a1.45,1.45,0,0,1-1.08,1.8c-1.08.36-1.62-.18-3.06-.36s-2.7-1.26,0-2.16l2.71-.9S209.91,18.18,207.93,17.82Z" fill="#fff"/><path d="M246.25,52.18s4.1,7.48,6,10.62-1.69-1.21-1.69-1.21a2.53,2.53,0,0,0,0,1.45c.24.73-1.93-1.93-1.93-1.93l-.48,1.21-1.45-2.65A3.11,3.11,0,0,1,245,58.21a3.7,3.7,0,0,1-.48-2.41s-1.69-1-4.11-2.66L238,51.46s-.48.73-4.1.24a5.49,5.49,0,0,1-4.58-3.14s2.65,1,4.35.48,2.32-1.07.39-.59c0,0,.09.35-2.81-.37s-2.41-1.21-2.41-1.21-1.45,1-3.14,1.93.48-1.21.48-1.21l-1.93.72,1-1.45-1.69.49L225,45.9l-2.41.48s6.27-3.13,9.41-2.9,1,1.45,2.41,2.9,4.34,1.21,6,2.9S244.8,49.29,246.25,52.18Z" fill="#fff"/><path d="M282.35,48.18c1.37.28,1.57-.61,3-2.09s2-3.31,2.44-3.74.09,0,.35.6.43-1.65,1-2.78.26.52.26,1.39.18,1.74,1-.26,1.14-3.39,1.14-2.35-.44,2.35.52.87.78-1.13.61.35a8.2,8.2,0,0,1-2.27,5.4c-1.83,1.74-2.7,1.74-2.7,1.74a8.16,8.16,0,0,1-4.88,6.79c-4.79,2.26-5.22,2.26-5.74,2.61s-.17-.08-.34,1.14a10.12,10.12,0,0,1-.61,3c-.43.87-.78,1.22-.78,1.83a4.84,4.84,0,0,1,.18-2.7,4.13,4.13,0,0,0,.52-2.44c-.09-.44-1.22,1.48-2.44,2.52s-1.83.52-2.26,1-1.74-3.74-.78-5.39,1.13-1,3-1.48,1.65-.08,2.18-1.13,0-1.13-.52-1.3a1.84,1.84,0,0,1-.78-1.92l.17-.7s-.17-.78-1.31-.17-1.39.52-2.53-1.05-3.57-3.48-3.83-4.52-1.57-.61-3-2.52-1.65-1.22-3.14-2.35.09-.35,1,0-2.09-1.39-2.87-2-2.7-2.53,0-.88a18.14,18.14,0,0,1,2.35,1.48s-2.61-2.35-3.48-3.22,3,1.57,5.4,3.92,8.7,3.83,10.19,4.18a7.73,7.73,0,0,1,3.91,2.78A8.84,8.84,0,0,0,282.35,48.18Z" fill="#fff"/><path d="M220.82,410.6l-2.59,10.54a12.27,12.27,0,0,0-.41,2.7,3,3,0,0,0,.36,1.5,1,1,0,0,0,.88.64q.8,0,2.65-2l.38.4-.3.38a26.41,26.41,0,0,1-2.25,2.46,2.22,2.22,0,0,1-1.36.7,1.85,1.85,0,0,1-1.53-1,3.93,3.93,0,0,1-.65-2.24,28.32,28.32,0,0,1,.66-4.17l.22-1.1a21.58,21.58,0,0,1-2.73,4.75q-2.87,3.8-5.48,3.8a3,3,0,0,1-2.48-1.18,5.07,5.07,0,0,1-.91-3.17,12.78,12.78,0,0,1,1.47-5.67,15.57,15.57,0,0,1,3.66-4.88,6.59,6.59,0,0,1,4.26-1.92,3.6,3.6,0,0,1,3.25,1.67l.3-1.1Zm-3.17,3.69a3.36,3.36,0,0,0-1.11-1.71,2.86,2.86,0,0,0-1.81-.62,4,4,0,0,0-2.56,1.17,11.52,11.52,0,0,0-2.48,3.24,19.22,19.22,0,0,0-1.47,3.62,12,12,0,0,0-.59,3.29,4.2,4.2,0,0,0,.53,2.3,1.71,1.71,0,0,0,1.53.84,4.07,4.07,0,0,0,2.65-1.24,14.75,14.75,0,0,0,2.73-3.54,13.58,13.58,0,0,0,1.3-2.65q.47-1.32,1-3.68Z" fill="#66b245"/><path d="M208.67,428.54a3.53,3.53,0,0,1-2.94-1.41,5.66,5.66,0,0,1-1-3.52,13.4,13.4,0,0,1,1.54-5.93,16.2,16.2,0,0,1,3.8-5.06,7.16,7.16,0,0,1,4.64-2.06,4.31,4.31,0,0,1,3,1l.08-.31,3.92-1.7-2.87,11.68a11.78,11.78,0,0,0-.4,2.57,2.39,2.39,0,0,0,.28,1.21c.13.23.25.35.38.35s.59-.05,2.21-1.86l.42-.46,1.17,1.23-.62.77a26.81,26.81,0,0,1-2.31,2.53,2.72,2.72,0,0,1-1.75.86,2.4,2.4,0,0,1-2-1.22,4.53,4.53,0,0,1-.75-2.56,11.14,11.14,0,0,1,.17-1.55q-.45.71-1,1.38c-2,2.71-4,4-5.95,4Zm2.85-15.62c-.24.17-.47.36-.72.57a15.08,15.08,0,0,0-3.52,4.7,12.28,12.28,0,0,0-1.41,5.41,4.53,4.53,0,0,0,.79,2.81c.81,1.05,2.23,1.28,3.74.49a2.46,2.46,0,0,1-2.72-1,4.77,4.77,0,0,1-.63-2.61,12.62,12.62,0,0,1,.62-3.45,19.73,19.73,0,0,1,1.52-3.73,12.66,12.66,0,0,1,2.34-3.16Zm5.33,6.42.61.18-.22,1.09a26.29,26.29,0,0,0-.65,4.06,3.33,3.33,0,0,0,.55,1.91c.48.7.91.7,1,.7s.42-.05,1-.56l.23-.22a1.3,1.3,0,0,1-.33,0,1.56,1.56,0,0,1-1.39-.94,3.51,3.51,0,0,1-.43-1.78,12.83,12.83,0,0,1,.43-2.84l2.31-9.4-1.26.54-.53,1.92,0,.06,0,.15-.28,1.16c-.38,1.57-.74,2.83-1.06,3.74l-.06.17Zm-2.11-6.81a3.5,3.5,0,0,0-2.18,1,11,11,0,0,0-2.35,3.08,18.73,18.73,0,0,0-1.42,3.51,11.54,11.54,0,0,0-.57,3.12,3.66,3.66,0,0,0,.44,2c.64,1,1.95.7,3.3-.52a14.2,14.2,0,0,0,2.61-3.4,13.08,13.08,0,0,0,1.25-2.55c.31-.88.65-2.1,1-3.63l.21-.85a2.72,2.72,0,0,0-.87-1.28,2.27,2.27,0,0,0-1.44-.49Z" fill="#8bc541"/><path d="M229.22,410.77l-2.67,11.14a11.31,11.31,0,0,0-.36,2.54,2.17,2.17,0,0,0,.61,1.61,2.14,2.14,0,0,0,1.57.6q2.34,0,4.87-4l.11-.17c0-.19.06-.34.08-.46L235.17,412l2.7-1.18-2.42,9.48a15.57,15.57,0,0,0-.61,3.74,3.2,3.2,0,0,0,.3,1.5.9.9,0,0,0,.8.58q.85,0,2.73-2.13l.44.4-.28.32a26.21,26.21,0,0,1-2.31,2.61,2.15,2.15,0,0,1-1.38.68,1.71,1.71,0,0,1-1.45-.91,4,4,0,0,1-.59-2.26c0-.29,0-.56,0-.81q-2.86,4-5.68,4a3,3,0,0,1-2.24-.85,3.08,3.08,0,0,1-.84-2.26,14.8,14.8,0,0,1,.3-2.68L226.54,412Z" fill="#66b245"/><path d="M235.14,428.52a2.27,2.27,0,0,1-1.93-1.17,4.23,4.23,0,0,1-.63-1.75c-1.69,1.94-3.41,2.92-5.12,2.92a3.59,3.59,0,0,1-2.66-1,3.66,3.66,0,0,1-1-2.67,15.39,15.39,0,0,1,.31-2.79L226,411.55l4-1.78-2.95,12.28a10.79,10.79,0,0,0-.34,2.4,1.6,1.6,0,0,0,.44,1.2,1.56,1.56,0,0,0,1.16.44c1.34,0,2.81-1.26,4.38-3.74l0-.08.06-.34,1.79-10.39,4.08-1.78L236,420.39a15.09,15.09,0,0,0-.59,3.59,2.67,2.67,0,0,0,.24,1.23c.14.27.24.27.29.27s.67-.09,2.29-1.94l.39-.45,1.3,1.19-.66.74a25.88,25.88,0,0,1-2.36,2.66,2.66,2.66,0,0,1-1.77.83Zm-1.35-5.63-.08,1.11c0,.24,0,.49,0,.77a3.44,3.44,0,0,0,.5,1.94c.38.58.73.65,1,.65a1.66,1.66,0,0,0,1-.53l.27-.26a1.46,1.46,0,0,1-.45.08,1.45,1.45,0,0,1-1.31-.89,3.73,3.73,0,0,1-.37-1.77,16.24,16.24,0,0,1,.63-3.89l2.13-8.32-1.32.58L234,422.12c0,.12,0,.28-.09.48l-.13.28Zm-6.73-10.52-1.82,9.89a14.32,14.32,0,0,0-.29,2.57,2.5,2.5,0,0,0,.67,1.85,2.75,2.75,0,0,0,2.67.57,2.69,2.69,0,0,1-1.91-.77,2.74,2.74,0,0,1-.78-2,11.9,11.9,0,0,1,.37-2.67l2.4-10-1.32.58Z" fill="#8bc541"/><path d="M262,423.3a14.42,14.42,0,0,1-3.27,3.62,5.89,5.89,0,0,1-3.51,1.13,4.35,4.35,0,0,1-3.46-1.55,6,6,0,0,1-1.34-4,12,12,0,0,1,1.3-5.27,13.68,13.68,0,0,1,3.32-4.44,6.1,6.1,0,0,1,3.9-1.76,2.87,2.87,0,0,1,2,.73,2.63,2.63,0,0,1,.77,2,3.4,3.4,0,0,1-.81,2.14,2.27,2.27,0,0,1-1.75,1,1,1,0,0,1-.74-.34,3.12,3.12,0,0,0,1.79-3.12,1.81,1.81,0,0,0-.4-1.25,1.36,1.36,0,0,0-1.06-.45,3.22,3.22,0,0,0-2.05.86,9.22,9.22,0,0,0-1.94,2.4,14.66,14.66,0,0,0-1.42,3.28,12.59,12.59,0,0,0-.51,3.53,5.73,5.73,0,0,0,1,3.45,3,3,0,0,0,2.53,1.33,4.51,4.51,0,0,0,2.62-.89,12.52,12.52,0,0,0,2.64-2.74Z" fill="#66b245"/><path d="M255.19,428.63a4.93,4.93,0,0,1-3.9-1.75,6.58,6.58,0,0,1-1.48-4.41,12.69,12.69,0,0,1,1.35-5.53,14.32,14.32,0,0,1,3.46-4.62,6.68,6.68,0,0,1,4.28-1.9,3.43,3.43,0,0,1,2.44.89,3.2,3.2,0,0,1,1,2.4,4,4,0,0,1-.94,2.51,2.82,2.82,0,0,1-2.2,1.24,1.59,1.59,0,0,1-1.16-.52l-.56-.58.73-.34a2.54,2.54,0,0,0,1.45-2.59,1.26,1.26,0,0,0-.25-.86.77.77,0,0,0-.63-.25,2.65,2.65,0,0,0-1.68.73,8.66,8.66,0,0,0-1.81,2.25,14,14,0,0,0-1.36,3.15,12.08,12.08,0,0,0-.48,3.36,5.19,5.19,0,0,0,.85,3.11c1,1.4,2.76,1.41,4.35.3a12,12,0,0,0,2.51-2.61l.38-.51,1.24,1.11-.29.42a15,15,0,0,1-3.41,3.76,6.48,6.48,0,0,1-3.85,1.25ZM255,413.54a13.32,13.32,0,0,0-2.8,3.91,11.51,11.51,0,0,0-1.24,5,5.39,5.39,0,0,0,1.2,3.66,3.76,3.76,0,0,0,3,1.35,5.31,5.31,0,0,0,2-.4,4.48,4.48,0,0,1-.91.09,3.55,3.55,0,0,1-3-1.57,6.32,6.32,0,0,1-1.07-3.79,13.24,13.24,0,0,1,.53-3.69,15.25,15.25,0,0,1,1.48-3.42,12.13,12.13,0,0,1,.77-1.15Zm5.43-1.48a2.56,2.56,0,0,1,.34,1.35,4.23,4.23,0,0,1-.66,2.43,3.44,3.44,0,0,0,.32-.35,2.81,2.81,0,0,0,.69-1.78,2.06,2.06,0,0,0-.59-1.56l-.1-.09Z" fill="#8bc541"/><path d="M279.4,410.6l-2.59,10.54a12.45,12.45,0,0,0-.41,2.7,3,3,0,0,0,.36,1.5,1,1,0,0,0,.88.64q.8,0,2.64-2l.39.4-.3.38a26.34,26.34,0,0,1-2.24,2.46,2.22,2.22,0,0,1-1.36.7,1.84,1.84,0,0,1-1.53-1,3.9,3.9,0,0,1-.65-2.24,28.35,28.35,0,0,1,.66-4.17l.22-1.1a21.49,21.49,0,0,1-2.73,4.75q-2.86,3.8-5.48,3.8a3,3,0,0,1-2.48-1.18,5.08,5.08,0,0,1-.91-3.17,12.74,12.74,0,0,1,1.47-5.67,15.55,15.55,0,0,1,3.66-4.88,6.59,6.59,0,0,1,4.25-1.92,3.61,3.61,0,0,1,3.25,1.67l.3-1.1Zm-3.17,3.69a3.38,3.38,0,0,0-1.11-1.71,2.85,2.85,0,0,0-1.8-.62,4,4,0,0,0-2.56,1.17,11.47,11.47,0,0,0-2.48,3.24A19.26,19.26,0,0,0,266.8,420a11.9,11.9,0,0,0-.59,3.29,4.2,4.2,0,0,0,.54,2.3,1.71,1.71,0,0,0,1.53.84,4.07,4.07,0,0,0,2.65-1.24,14.8,14.8,0,0,0,2.72-3.54,13.46,13.46,0,0,0,1.3-2.65q.47-1.32,1-3.68Z" fill="#66b245"/><path d="M267.26,428.54a3.54,3.54,0,0,1-2.94-1.41,5.66,5.66,0,0,1-1-3.52,13.38,13.38,0,0,1,1.53-5.93,16.18,16.18,0,0,1,3.8-5.06,7.16,7.16,0,0,1,4.64-2.06,4.32,4.32,0,0,1,3,1l.08-.31,3.92-1.7-2.87,11.68a12,12,0,0,0-.4,2.57,2.43,2.43,0,0,0,.28,1.21c.13.23.25.34.38.34s.59-.05,2.21-1.85l.42-.46,1.18,1.22-.63.77a26.27,26.27,0,0,1-2.31,2.53,2.72,2.72,0,0,1-1.75.86,2.38,2.38,0,0,1-2-1.22,4.48,4.48,0,0,1-.75-2.56,11.26,11.26,0,0,1,.17-1.55q-.45.7-1,1.38c-2,2.67-4,4-5.94,4Zm2.84-15.61c-.24.17-.47.36-.71.57a15,15,0,0,0-3.52,4.7,12.23,12.23,0,0,0-1.41,5.41,4.54,4.54,0,0,0,.79,2.81c.81,1.05,2.23,1.28,3.74.49a2.46,2.46,0,0,1-2.72-1,4.76,4.76,0,0,1-.63-2.61,12.47,12.47,0,0,1,.62-3.45,19.9,19.9,0,0,1,1.52-3.73,12.58,12.58,0,0,1,2.33-3.16Zm5.33,6.41.61.19-.22,1.09a26.35,26.35,0,0,0-.65,4.06,3.29,3.29,0,0,0,.55,1.91c.47.71.9.71,1,.71s.44-.07,1-.56l.23-.22a1.31,1.31,0,0,1-.33,0,1.56,1.56,0,0,1-1.39-.94,3.55,3.55,0,0,1-.43-1.78,12.86,12.86,0,0,1,.43-2.84l2.31-9.4-1.26.54-.53,1.92,0,.06,0,.15-.29,1.16c-.39,1.58-.74,2.84-1.06,3.74l-.06.17Zm-2.11-6.81a3.5,3.5,0,0,0-2.18,1,10.94,10.94,0,0,0-2.35,3.08,18.72,18.72,0,0,0-1.43,3.51,11.41,11.41,0,0,0-.57,3.12,3.66,3.66,0,0,0,.44,2c.63,1,1.95.7,3.3-.52a14.23,14.23,0,0,0,2.61-3.4,12.94,12.94,0,0,0,1.25-2.55c.31-.87.65-2.09,1-3.63l.21-.85a2.71,2.71,0,0,0-.87-1.28,2.25,2.25,0,0,0-1.44-.49Z" fill="#8bc541"/><path d="M282.21,419.44a17.71,17.71,0,0,0,3.17-5.58,4.08,4.08,0,0,1-2.23-3.71,3.11,3.11,0,0,1,.53-1.87,1.56,1.56,0,0,1,2.67.07,3.71,3.71,0,0,1,.52,2.06,7.4,7.4,0,0,1-.3,2,5,5,0,0,0,1.35.2,3.91,3.91,0,0,0,2.81-1H292l-.2.41a56.13,56.13,0,0,0-3.26,7.47,18.54,18.54,0,0,0-1.28,5.49,1.83,1.83,0,0,0,.33,1.11,1,1,0,0,0,.8.44q1.13,0,3.64-2.5l.44.52a19.85,19.85,0,0,1-2.4,2.22,4.39,4.39,0,0,1-2.72,1.21,2.08,2.08,0,0,1-1.7-.75,3.09,3.09,0,0,1-.62-2,13.32,13.32,0,0,1,1.6-5.47c.39-.82.88-1.76,1.49-2.82s1.36-2.31,2.29-3.78l.27-.4a6.06,6.06,0,0,1-1.75,1.22,4.76,4.76,0,0,1-1.91.36,4.17,4.17,0,0,1-1-.14,17.89,17.89,0,0,1-3.3,5.82Zm3.78-7.31a8.84,8.84,0,0,0,.11-1.21,3.31,3.31,0,0,0-.32-1.58.93.93,0,0,0-.82-.58.6.6,0,0,0-.48.27,1.12,1.12,0,0,0-.21.68A3,3,0,0,0,286,412.12Z" fill="#66b245"/><path d="M287.39,428.49a2.65,2.65,0,0,1-2.15-1,3.67,3.67,0,0,1-.75-2.41,13.75,13.75,0,0,1,1.66-5.73c.39-.83.9-1.79,1.51-2.86q.51-.9,1.18-2a5.22,5.22,0,0,1-2.44.22,19.2,19.2,0,0,1-3.24,5.51l-.4.49-1.34-1.26.33-.42a18,18,0,0,0,2.93-5,4.56,4.56,0,0,1-2.12-4,3.69,3.69,0,0,1,.64-2.22,2.14,2.14,0,0,1,3.63.09,4.28,4.28,0,0,1,.62,2.38,7.49,7.49,0,0,1-.17,1.55,3.35,3.35,0,0,0,3.05-.82l.17-.16H293l-.59,1.24a55.49,55.49,0,0,0-3.24,7.41,18.1,18.1,0,0,0-1.25,5.29,1.26,1.26,0,0,0,.22.77c.15.2.28.2.33.2.27,0,1.12-.23,3.23-2.33l.45-.44,1.17,1.38-.33.38a19.94,19.94,0,0,1-2.47,2.29,4.94,4.94,0,0,1-3.09,1.34Zm1.84-12.35-.57,1c-.59,1-1.09,2-1.46,2.78a12.88,12.88,0,0,0-1.54,5.23,2.56,2.56,0,0,0,.48,1.67,1.89,1.89,0,0,0,2.39.26,1.47,1.47,0,0,1-1.36-.67,2.41,2.41,0,0,1-.44-1.45,18.92,18.92,0,0,1,1.31-5.68q.54-1.54,1.19-3.09Zm-3.42-2.71.34.09a3.89,3.89,0,0,0,2.58-.19,4,4,0,0,0,.68-.38,5.33,5.33,0,0,1-3,0l0,.13-.58-.3,0-.06-.18-.11a3.73,3.73,0,0,1-2-2.5v0a3.5,3.5,0,0,0,1.94,3.21l.15.08Zm4.74-1,.28.24.27-.53h-.16a4.69,4.69,0,0,1-.39.29ZM285,409.34a.53.53,0,0,0-.13.37,1.83,1.83,0,0,0,.65,1.33s0-.09,0-.13a2.72,2.72,0,0,0-.25-1.3c-.13-.24-.22-.27-.28-.28Zm0-1.21a.93.93,0,0,0-.58.19,1.06,1.06,0,0,1,1.11,0,.87.87,0,0,0-.52-.16Z" fill="#8bc541"/><path d="M294.42,419.44a17.71,17.71,0,0,0,3.17-5.58,4.07,4.07,0,0,1-2.23-3.71,3.11,3.11,0,0,1,.52-1.87,1.56,1.56,0,0,1,2.67.07,3.68,3.68,0,0,1,.52,2.06,7.49,7.49,0,0,1-.3,2,5.05,5.05,0,0,0,1.35.2,3.91,3.91,0,0,0,2.81-1h1.32l-.19.41a55.63,55.63,0,0,0-3.26,7.47,18.59,18.59,0,0,0-1.28,5.49,1.82,1.82,0,0,0,.33,1.11,1,1,0,0,0,.8.44q1.13,0,3.63-2.5l.44.52a19.73,19.73,0,0,1-2.4,2.22,4.4,4.4,0,0,1-2.73,1.21,2.08,2.08,0,0,1-1.7-.75,3.1,3.1,0,0,1-.62-2,13.33,13.33,0,0,1,1.6-5.47c.38-.82.88-1.76,1.49-2.82s1.37-2.31,2.29-3.78l.27-.4a6,6,0,0,1-1.75,1.22,4.77,4.77,0,0,1-1.92.36,4.15,4.15,0,0,1-1-.14,18,18,0,0,1-3.3,5.82Zm3.78-7.31a8.63,8.63,0,0,0,.11-1.21,3.22,3.22,0,0,0-.32-1.58.92.92,0,0,0-.81-.58.59.59,0,0,0-.48.27,1.12,1.12,0,0,0-.21.68A3,3,0,0,0,298.19,412.12Z" fill="#66b245"/><path d="M299.59,428.49a2.65,2.65,0,0,1-2.14-1,3.67,3.67,0,0,1-.75-2.41,13.77,13.77,0,0,1,1.66-5.73c.39-.84.9-1.8,1.51-2.86.34-.6.74-1.26,1.18-2a5.22,5.22,0,0,1-2.44.22,19.21,19.21,0,0,1-3.24,5.51l-.39.49-1.34-1.26.33-.42a18,18,0,0,0,2.93-5,4.56,4.56,0,0,1-2.12-4,3.68,3.68,0,0,1,.64-2.22A2.16,2.16,0,0,1,299,408a4.29,4.29,0,0,1,.62,2.38,7.48,7.48,0,0,1-.18,1.55,3.33,3.33,0,0,0,3.05-.82l.17-.16h2.47l-.58,1.23a55.72,55.72,0,0,0-3.24,7.42,18.11,18.11,0,0,0-1.25,5.3,1.26,1.26,0,0,0,.22.76c.15.21.28.21.33.21.27,0,1.12-.23,3.22-2.33l.45-.44,1.17,1.38-.33.38a20.22,20.22,0,0,1-2.47,2.29,5,5,0,0,1-3.09,1.34Zm1.84-12.34-.56,1c-.59,1-1.09,2-1.47,2.78a12.88,12.88,0,0,0-1.55,5.23,2.56,2.56,0,0,0,.49,1.67,1.89,1.89,0,0,0,2.39.26,1.47,1.47,0,0,1-1.36-.67,2.4,2.4,0,0,1-.45-1.45,19.13,19.13,0,0,1,1.31-5.68q.53-1.53,1.19-3.09ZM298,413.43l.34.09a3.86,3.86,0,0,0,2.58-.19,4.15,4.15,0,0,0,.68-.38,5.33,5.33,0,0,1-3,0l0,.13-.58-.29v-.06l-.18-.11a3.74,3.74,0,0,1-1.95-2.48h0a3.5,3.5,0,0,0,1.94,3.21l.14.08Zm4.74-1,.28.24.27-.53h-.16a4.28,4.28,0,0,1-.39.29Zm-5.57-3.09a.53.53,0,0,0-.13.37,1.84,1.84,0,0,0,.65,1.33s0-.09,0-.12a2.7,2.7,0,0,0-.24-1.29c-.13-.25-.23-.28-.28-.29Zm0-1.21a.9.9,0,0,0-.58.19,1.07,1.07,0,0,1,1.09,0,.88.88,0,0,0-.51-.15Z" fill="#8bc541"/><path d="M317.89,423.15l.5.43A13.31,13.31,0,0,1,315,427a6.34,6.34,0,0,1-3.5,1A4.51,4.51,0,0,1,308,426.5a6.06,6.06,0,0,1-1.35-4.12,11.88,11.88,0,0,1,1.31-5.25,14.09,14.09,0,0,1,3.28-4.41,6,6,0,0,1,3.9-1.74,2.61,2.61,0,0,1,1.86.69,2.35,2.35,0,0,1,.73,1.78,6.31,6.31,0,0,1-2.31,4.44,19.07,19.07,0,0,1-6.31,3.77,4.59,4.59,0,0,0,0,.52,4.88,4.88,0,0,0,1,3.24,3.36,3.36,0,0,0,2.7,1.26,4.34,4.34,0,0,0,2.51-.85A12.44,12.44,0,0,0,317.89,423.15ZM309.07,421a14.82,14.82,0,0,0,4.57-3.08,10.72,10.72,0,0,0,1.74-2.48A5.42,5.42,0,0,0,316,413q0-1.35-1.18-1.36-1.8,0-3.63,3A14.55,14.55,0,0,0,309.07,421Z" fill="#66b245"/><path d="M311.55,428.63a5.09,5.09,0,0,1-4-1.75,6.68,6.68,0,0,1-1.49-4.51,12.49,12.49,0,0,1,1.37-5.51,14.72,14.72,0,0,1,3.41-4.59,6.56,6.56,0,0,1,4.28-1.88,3.18,3.18,0,0,1,2.26.84,2.92,2.92,0,0,1,.91,2.21,6.88,6.88,0,0,1-2.49,4.86,19.36,19.36,0,0,1-6.16,3.75v.11a4.34,4.34,0,0,0,.91,2.86,2.78,2.78,0,0,0,2.25,1,3.79,3.79,0,0,0,2.17-.75,12,12,0,0,0,2.46-2.54l.38-.5,1.36,1.19-.31.43a13.88,13.88,0,0,1-3.49,3.56,7,7,0,0,1-3.81,1.14Zm-.11-15.34a13.7,13.7,0,0,0-3,4.09,11.37,11.37,0,0,0-1.25,5,5.48,5.48,0,0,0,1.21,3.74,3.92,3.92,0,0,0,3.14,1.35,5.65,5.65,0,0,0,1.64-.24,4,4,0,0,1-3.55-1.44,5.47,5.47,0,0,1-1.18-3.61c0-.1,0-.2,0-.29l-.08,0,.1-1a15.18,15.18,0,0,1,2.25-6.6c.23-.37.46-.72.7-1Zm3.42-1c-1,0-2,.9-3.13,2.68a14.1,14.1,0,0,0-1.93,5,12.94,12.94,0,0,0,3.42-2.47,10.19,10.19,0,0,0,1.64-2.34,4.89,4.89,0,0,0,.6-2.13c0-.72-.26-.78-.6-.78Zm1.55-.29a2.42,2.42,0,0,1,.22,1.07,6,6,0,0,1-.72,2.65,11.27,11.27,0,0,1-1.73,2.5c.29-.23.56-.47.81-.71a5.79,5.79,0,0,0,2.13-4,1.77,1.77,0,0,0-.55-1.36l-.16-.13Z" fill="#8bc541"/><path d="M323.7,412.24H321l.19-1h2.73l2.59-12.64a36.65,36.65,0,0,1,1.35-5,13.82,13.82,0,0,1,1.65-3.23,7,7,0,0,1,5.9-3.31,5.77,5.77,0,0,1,2.18.4l-1,2.62a3.3,3.3,0,0,0-2.81-1.61,2.56,2.56,0,0,0-2.11,1,9.48,9.48,0,0,0-1.39,3.47l-4.22,18.26h4.43l-.19,1h-4.47l-3.77,16.35a29.55,29.55,0,0,1-1.45,4.9,11.47,11.47,0,0,1-1.92,3,6.36,6.36,0,0,1-4.82,2.5,5.3,5.3,0,0,1-2.26-.46l1.35-2.07a3.81,3.81,0,0,0,2.5,1,3.28,3.28,0,0,0,3.06-2.25,30.92,30.92,0,0,0,1.57-5.53Z" fill="#66b245"/><path d="M313.89,439.57a5.93,5.93,0,0,1-2.5-.51l-.61-.28,2.08-3.19.5.43a3.21,3.21,0,0,0,2.13.84,2.73,2.73,0,0,0,2.53-1.91,30.75,30.75,0,0,0,1.53-5.41L323,412.82h-2.69l.42-2.14h2.73l2.5-12.18a37.57,37.57,0,0,1,1.37-5.1A14.7,14.7,0,0,1,329,390a7.63,7.63,0,0,1,6.37-3.55,6.31,6.31,0,0,1,2.39.45l.53.21-1.59,4.19-.63-.92a2.73,2.73,0,0,0-2.33-1.36,2,2,0,0,0-1.65.83,9,9,0,0,0-1.28,3.25l-4,17.54h4.41l-.41,2.14h-4.48l-3.67,15.9a29.84,29.84,0,0,1-1.48,5,12.17,12.17,0,0,1-2,3.14,7,7,0,0,1-5.26,2.7Zm-1.37-1.33a5.17,5.17,0,0,0,3.29-.23,4.28,4.28,0,0,1-2.68-.71l-.61.94Zm11.86-26.39-3.69,17.93a40.42,40.42,0,0,1-1.26,4.76,10.85,10.85,0,0,0,.67-1.27,29.11,29.11,0,0,0,1.41-4.8l3.83-16.62h0l4.38-19a11.38,11.38,0,0,1,1.22-3.3,9.64,9.64,0,0,0-1,1.15,13.31,13.31,0,0,0-1.58,3.09,36.09,36.09,0,0,0-1.33,4.93l-2.7,13.11Zm9.4-23.94A3.66,3.66,0,0,1,336.4,389l.43-1.13a6.09,6.09,0,0,0-3.2.07Z" fill="#8bc541"/><path d="M329.32,422.09a11.12,11.12,0,0,1,1.34-5.17,12.23,12.23,0,0,1,3.45-4.19,7.1,7.1,0,0,1,4.33-1.62,4.76,4.76,0,0,1,3.73,1.6,6,6,0,0,1,1.42,4.13,11.74,11.74,0,0,1-1.31,5.36,12.27,12.27,0,0,1-3.44,4.25,7,7,0,0,1-4.31,1.66,4.76,4.76,0,0,1-3.78-1.66A6.46,6.46,0,0,1,329.32,422.09Zm11.79-6.33a4.76,4.76,0,0,0-.81-2.85,2.47,2.47,0,0,0-2.08-1.13,3.72,3.72,0,0,0-2.22.78,7.47,7.47,0,0,0-1.94,2.28,17.43,17.43,0,0,0-1.64,4,15.44,15.44,0,0,0-.65,4.09,5.72,5.72,0,0,0,.8,3.28,2.62,2.62,0,0,0,2.29,1.16q2.4,0,4.21-3.49a18.07,18.07,0,0,0,1.49-4A17.32,17.32,0,0,0,341.11,415.75Z" fill="#66b245"/><path d="M334.52,428.69a5.34,5.34,0,0,1-4.21-1.86,7,7,0,0,1-1.57-4.75,11.74,11.74,0,0,1,1.4-5.44,12.83,12.83,0,0,1,3.62-4.38,7.68,7.68,0,0,1,4.68-1.74,5.34,5.34,0,0,1,4.17,1.79,6.6,6.6,0,0,1,1.56,4.52,12.39,12.39,0,0,1-1.37,5.62,12.92,12.92,0,0,1-3.61,4.45,7.61,7.61,0,0,1-4.67,1.78Zm0-15.55-.08.06a11.67,11.67,0,0,0-3.29,4,10.59,10.59,0,0,0-1.27,4.9,5.91,5.91,0,0,0,1.29,4,4.11,4.11,0,0,0,1.39,1.06,3.33,3.33,0,0,1-.49-.57,6.28,6.28,0,0,1-.9-3.61,15.88,15.88,0,0,1,.67-4.24,18.15,18.15,0,0,1,1.7-4.16,10,10,0,0,1,1-1.4Zm3.68-.78a3.12,3.12,0,0,0-1.87.67,6.93,6.93,0,0,0-1.78,2.1A16.85,16.85,0,0,0,333,419a15,15,0,0,0-.63,3.93,5.22,5.22,0,0,0,.69,3,2.05,2.05,0,0,0,1.81.91c1.35,0,2.6-1.07,3.7-3.18a17.43,17.43,0,0,0,1.44-3.87,16.71,16.71,0,0,0,.54-4,4.17,4.17,0,0,0-.7-2.51,1.91,1.91,0,0,0-1.61-.88Zm2.13-.29a4.06,4.06,0,0,1,.42.49,5.35,5.35,0,0,1,.92,3.19,17.89,17.89,0,0,1-.57,4.29,18.55,18.55,0,0,1-1.54,4.13,10.87,10.87,0,0,1-1.26,1.94l.16-.12a11.77,11.77,0,0,0,3.28-4.05,11.22,11.22,0,0,0,1.25-5.09,5.49,5.49,0,0,0-1.27-3.75,4.07,4.07,0,0,0-1.39-1Z" fill="#8bc541"/><path d="M351.44,410.77l-2.67,11.14a11.14,11.14,0,0,0-.36,2.54,2.18,2.18,0,0,0,.61,1.61,2.14,2.14,0,0,0,1.57.6q2.34,0,4.87-4l.11-.17c0-.19.06-.34.08-.46L357.39,412l2.7-1.18-2.42,9.48a15.59,15.59,0,0,0-.6,3.74,3.16,3.16,0,0,0,.3,1.5.9.9,0,0,0,.8.58q.86,0,2.72-2.13l.44.4-.27.32a26.2,26.2,0,0,1-2.32,2.61,2.13,2.13,0,0,1-1.37.68,1.71,1.71,0,0,1-1.45-.91,4,4,0,0,1-.59-2.26c0-.29,0-.56,0-.81q-2.87,4-5.68,4a3,3,0,0,1-2.24-.85,3.08,3.08,0,0,1-.84-2.26,14.58,14.58,0,0,1,.3-2.68L348.77,412Z" fill="#66b245"/><path d="M357.36,428.52a2.27,2.27,0,0,1-1.94-1.17,4.2,4.2,0,0,1-.63-1.75c-1.69,1.94-3.41,2.92-5.12,2.92a3.58,3.58,0,0,1-2.66-1,3.66,3.66,0,0,1-1-2.67,15.15,15.15,0,0,1,.31-2.79l1.93-10.49,4-1.78-2.95,12.28a10.64,10.64,0,0,0-.35,2.4,1.61,1.61,0,0,0,.44,1.2,1.57,1.57,0,0,0,1.16.44c1.34,0,2.82-1.26,4.38-3.73l0-.08,1.85-10.73,4.08-1.78-2.72,10.63a15.16,15.16,0,0,0-.58,3.59,2.64,2.64,0,0,0,.24,1.23c.14.27.24.27.28.27s.67-.09,2.29-1.94l.39-.45,1.3,1.19-.65.74a25.54,25.54,0,0,1-2.37,2.66,2.66,2.66,0,0,1-1.76.83ZM356,422.88l-.08,1.12c0,.24,0,.49,0,.76a3.43,3.43,0,0,0,.5,1.94c.38.58.73.65,1,.65a1.64,1.64,0,0,0,1-.53l.27-.26a1.47,1.47,0,0,1-.45.08,1.44,1.44,0,0,1-1.31-.89,3.71,3.71,0,0,1-.37-1.77,16.16,16.16,0,0,1,.62-3.89l2.13-8.32-1.32.58L356,422.88Zm-6.73-10.52-1.82,9.89a13.94,13.94,0,0,0-.3,2.57,2.51,2.51,0,0,0,.67,1.85,2.75,2.75,0,0,0,2.67.57,2.7,2.7,0,0,1-1.91-.77,2.75,2.75,0,0,1-.78-2,11.59,11.59,0,0,1,.38-2.67l2.4-10-1.32.58Z" fill="#8bc541"/><path d="M362.84,419.44a17.8,17.8,0,0,0,3.17-5.58,4.07,4.07,0,0,1-2.23-3.71,3.14,3.14,0,0,1,.52-1.87,1.56,1.56,0,0,1,2.68.07,3.73,3.73,0,0,1,.52,2.06,7.53,7.53,0,0,1-.3,2,5,5,0,0,0,1.35.2,3.91,3.91,0,0,0,2.81-1h1.33l-.2.41a55.76,55.76,0,0,0-3.26,7.47,18.67,18.67,0,0,0-1.28,5.49,1.82,1.82,0,0,0,.33,1.11,1,1,0,0,0,.8.44q1.12,0,3.63-2.5l.44.52a20,20,0,0,1-2.4,2.22,4.4,4.4,0,0,1-2.73,1.21,2.07,2.07,0,0,1-1.69-.75,3.09,3.09,0,0,1-.62-2,13.33,13.33,0,0,1,1.6-5.47c.39-.82.88-1.76,1.49-2.82s1.37-2.31,2.29-3.78l.27-.4a6,6,0,0,1-1.75,1.22,4.75,4.75,0,0,1-1.91.36,4.17,4.17,0,0,1-1-.14,17.94,17.94,0,0,1-3.3,5.82Zm3.77-7.31a8.55,8.55,0,0,0,.11-1.21,3.28,3.28,0,0,0-.32-1.58.93.93,0,0,0-.81-.58.61.61,0,0,0-.49.27,1.14,1.14,0,0,0-.2.68A3,3,0,0,0,366.61,412.12Z" fill="#66b245"/><path d="M368,428.49a2.64,2.64,0,0,1-2.14-1,3.66,3.66,0,0,1-.75-2.41,13.73,13.73,0,0,1,1.65-5.73c.41-.86.91-1.82,1.51-2.86q.52-.9,1.18-2a5.25,5.25,0,0,1-2.44.22,19.19,19.19,0,0,1-3.24,5.51l-.39.49-1.34-1.26.33-.42a18.08,18.08,0,0,0,2.93-5,4.56,4.56,0,0,1-2.12-4,3.7,3.7,0,0,1,.63-2.21,2.16,2.16,0,0,1,1.79-1,2.13,2.13,0,0,1,1.84,1,4.3,4.3,0,0,1,.62,2.38,7.45,7.45,0,0,1-.18,1.55,3.34,3.34,0,0,0,3.05-.82l.17-.16h2.49l-.6,1.24a55.22,55.22,0,0,0-3.24,7.41,18.24,18.24,0,0,0-1.25,5.3,1.24,1.24,0,0,0,.22.76c.15.21.27.21.33.21.26,0,1.11-.23,3.22-2.34l.45-.44,1.17,1.38-.32.38a20.75,20.75,0,0,1-2.47,2.29,5,5,0,0,1-3.1,1.34Zm1.84-12.34-.56,1c-.58,1-1.07,1.94-1.47,2.78a12.89,12.89,0,0,0-1.54,5.22,2.54,2.54,0,0,0,.49,1.67,1.88,1.88,0,0,0,2.39.26,1.5,1.5,0,0,1-1.36-.67,2.4,2.4,0,0,1-.45-1.45,18.93,18.93,0,0,1,1.31-5.68q.53-1.53,1.19-3.09Zm-3.41-2.71.34.09a3.88,3.88,0,0,0,2.58-.19,4.26,4.26,0,0,0,.68-.38,5.27,5.27,0,0,1-3,0l0,.13-.58-.29,0-.06-.18-.11a3.75,3.75,0,0,1-2-2.48h0a3.5,3.5,0,0,0,1.94,3.21l.15.08Zm4.74-1,.28.24.27-.53h-.16a4.32,4.32,0,0,1-.39.29Zm-5.57-3.09a.53.53,0,0,0-.13.37,1.84,1.84,0,0,0,.65,1.33s0-.09,0-.13a2.75,2.75,0,0,0-.25-1.29c-.13-.24-.23-.28-.28-.28Zm0-1.21a.91.91,0,0,0-.59.2,1.06,1.06,0,0,1,1.12,0,.87.87,0,0,0-.53-.16Z" fill="#8bc541"/><path d="M404.82,387l-7.3,33.21a20.4,20.4,0,0,0-.58,3.68,3.07,3.07,0,0,0,.32,1.5,1,1,0,0,0,.86.57c.48,0,1.06-.37,1.74-1.12l.8-.83.06-.06.08-.06.41.4-.22.26-1.07,1.24-.91.95a6.1,6.1,0,0,1-1,.91,1.37,1.37,0,0,1-.7.19,1.76,1.76,0,0,1-1.52-1,4.18,4.18,0,0,1-.61-2.25,17.57,17.57,0,0,1,.39-2.73l.3-1.64a18.67,18.67,0,0,1-2.26,3.95q-2.78,3.75-5.4,3.74a3,3,0,0,1-2.48-1.19,5.22,5.22,0,0,1-.91-3.24,13.1,13.1,0,0,1,1.43-5.78,14.86,14.86,0,0,1,3.65-4.82,6.82,6.82,0,0,1,4.42-1.9,5.09,5.09,0,0,1,3,1l4.49-23.53Zm-7.71,26.43a2.27,2.27,0,0,0-1-1.25,3.09,3.09,0,0,0-1.66-.47,4.09,4.09,0,0,0-2.66,1.21,12.74,12.74,0,0,0-2.57,3.43,18.11,18.11,0,0,0-1.45,3.59,12.65,12.65,0,0,0-.57,3.52,3.88,3.88,0,0,0,.57,2.22,1.77,1.77,0,0,0,1.55.84,3.8,3.8,0,0,0,2.49-1.24,15.33,15.33,0,0,0,2.69-3.57,16.08,16.08,0,0,0,1.43-3.29q.63-2.19.91-3.51Z" fill="#66b245"/><path d="M388.21,428.54a3.52,3.52,0,0,1-2.94-1.42,5.8,5.8,0,0,1-1-3.59,13.72,13.72,0,0,1,1.49-6,15.5,15.5,0,0,1,3.79-5c2.48-2.13,5.16-2.58,7.41-1.39l4.39-23,4.32-2.13-7.56,34.39a20,20,0,0,0-.56,3.56,2.53,2.53,0,0,0,.24,1.21c.15.28.29.28.36.28s.54-.09,1.31-.93l.81-.84a1.07,1.07,0,0,1,.26-.22l.38-.22,1.12,1.09-1.27,1.49-.35.41-1,1a6.44,6.44,0,0,1-1.12,1,2,2,0,0,1-1,.27,2.31,2.31,0,0,1-2-1.26,4.73,4.73,0,0,1-.69-2.55,7.71,7.71,0,0,1,.08-.94c-.19.28-.38.57-.59.85-2,2.64-3.94,4-5.87,4Zm3.09-15.93a9.35,9.35,0,0,0-1,.76,14.37,14.37,0,0,0-3.51,4.63,12.57,12.57,0,0,0-1.37,5.52,4.68,4.68,0,0,0,.79,2.89,2.68,2.68,0,0,0,3.27.71,2.37,2.37,0,0,1-2.19-1.09,4.43,4.43,0,0,1-.67-2.54,13.29,13.29,0,0,1,.59-3.69,18.68,18.68,0,0,1,1.49-3.7,13.54,13.54,0,0,1,2.61-3.5Zm4.6,7.61.55.16-.31,1.64a17.32,17.32,0,0,0-.38,2.63,3.62,3.62,0,0,0,.52,1.94c.39.63.77.71,1,.71a.8.8,0,0,0,.41-.11,4.7,4.7,0,0,0,.7-.63,1.53,1.53,0,0,1-1.67-.85,3.59,3.59,0,0,1-.39-1.78,20.71,20.71,0,0,1,.59-3.81l7-32-1.63.8L397.75,413l-.29-.21a2.86,2.86,0,0,1,.2.46l0,.14-.3,1.62c-.19.89-.49,2.05-.93,3.57a16.43,16.43,0,0,1-.58,1.6Zm-1.46-7.89a3.56,3.56,0,0,0-2.27,1.06,12.26,12.26,0,0,0-2.45,3.27,17.78,17.78,0,0,0-1.39,3.47,12.15,12.15,0,0,0-.55,3.37,3.35,3.35,0,0,0,.47,1.89c.62.93,1.82.76,3.17-.5a14.74,14.74,0,0,0,2.58-3.43,15.47,15.47,0,0,0,1.38-3.17c.43-1.48.72-2.61.9-3.46l.25-1.3a1.74,1.74,0,0,0-.72-.8,2.5,2.5,0,0,0-1.35-.39Z" fill="#8bc541"/><path d="M414,423.15l.5.43a13.33,13.33,0,0,1-3.34,3.41,6.33,6.33,0,0,1-3.5,1,4.52,4.52,0,0,1-3.58-1.55,6.07,6.07,0,0,1-1.35-4.12,11.86,11.86,0,0,1,1.31-5.25,14.07,14.07,0,0,1,3.28-4.41,5.94,5.94,0,0,1,3.9-1.74,2.61,2.61,0,0,1,1.86.69,2.35,2.35,0,0,1,.73,1.78,6.31,6.31,0,0,1-2.31,4.44,19.07,19.07,0,0,1-6.31,3.77,4.33,4.33,0,0,0,0,.52,4.86,4.86,0,0,0,1,3.24,3.35,3.35,0,0,0,2.7,1.26,4.36,4.36,0,0,0,2.51-.85A12.46,12.46,0,0,0,414,423.15ZM405.21,421a14.85,14.85,0,0,0,4.57-3.08,10.69,10.69,0,0,0,1.74-2.48,5.45,5.45,0,0,0,.66-2.39c0-.9-.4-1.36-1.18-1.36q-1.79,0-3.62,3A14.57,14.57,0,0,0,405.21,421Z" fill="#66b245"/><path d="M407.68,428.63a5.1,5.1,0,0,1-4-1.75,6.68,6.68,0,0,1-1.49-4.51,12.49,12.49,0,0,1,1.37-5.51,14.75,14.75,0,0,1,3.42-4.59,6.52,6.52,0,0,1,4.28-1.88,3.19,3.19,0,0,1,2.26.84,2.92,2.92,0,0,1,.91,2.21,6.88,6.88,0,0,1-2.49,4.86,19.35,19.35,0,0,1-6.16,3.76s0,.07,0,.11a4.26,4.26,0,0,0,.91,2.86,2.77,2.77,0,0,0,2.25,1.05,3.81,3.81,0,0,0,2.18-.75,12,12,0,0,0,2.45-2.54l.38-.49,1.37,1.19-.31.43a13.75,13.75,0,0,1-3.49,3.56,7,7,0,0,1-3.81,1.14Zm-.12-15.33a13.67,13.67,0,0,0-3,4.08,11.37,11.37,0,0,0-1.25,5,5.48,5.48,0,0,0,1.21,3.74,3.93,3.93,0,0,0,3.14,1.35,5.65,5.65,0,0,0,1.64-.24,4,4,0,0,1-3.54-1.45,5.44,5.44,0,0,1-1.18-3.61c0-.1,0-.2,0-.29l-.08,0,.1-1a15.24,15.24,0,0,1,2.25-6.6c.23-.37.46-.71.69-1Zm3.43-1.05c-1,0-2,.9-3.13,2.68a14.08,14.08,0,0,0-1.93,5,13.06,13.06,0,0,0,3.42-2.47,10.17,10.17,0,0,0,1.64-2.34,4.92,4.92,0,0,0,.6-2.13c0-.72-.26-.78-.6-.78Zm1.53-.31a2.38,2.38,0,0,1,.23,1.08,6,6,0,0,1-.72,2.65,11.39,11.39,0,0,1-1.74,2.51c.29-.23.56-.47.81-.71a5.8,5.8,0,0,0,2.13-4,1.78,1.78,0,0,0-.55-1.36l-.17-.15Z" fill="#8bc541"/><path d="M414.9,425.77l1.55-1.9q1.21,3,3.85,3a3.24,3.24,0,0,0,2.35-.94,2.9,2.9,0,0,0,1-2.17,2.5,2.5,0,0,0-.47-1.53,16.37,16.37,0,0,0-2.23-2.13,14.07,14.07,0,0,1-2.19-2.18,3.06,3.06,0,0,1-.56-1.82,4.44,4.44,0,0,1,.76-2.51,5.72,5.72,0,0,1,2-1.86,5.45,5.45,0,0,1,2.67-.7,3.32,3.32,0,0,1,2.08.65,2,2,0,0,1,.84,1.66,1.8,1.8,0,0,1-1.07,1.81,3.34,3.34,0,0,0-1-2.11,2.91,2.91,0,0,0-2.08-.77,2.84,2.84,0,0,0-2,.77,2.3,2.3,0,0,0-.84,1.74,3.22,3.22,0,0,0,1.43,2.38l1.6,1.36q2.34,1.93,2.34,3.95a5.22,5.22,0,0,1-.81,2.81,6.11,6.11,0,0,1-5.14,2.86A4.94,4.94,0,0,1,414.9,425.77Z" fill="#66b245"/><path d="M419,428.72a5.51,5.51,0,0,1-4.61-2.61l-.26-.36,2.45-3,.37.92c.71,1.77,1.8,2.63,3.32,2.63a2.67,2.67,0,0,0,1.95-.78,2.33,2.33,0,0,0,.8-1.75,1.94,1.94,0,0,0-.35-1.18,15.13,15.13,0,0,0-2.14-2,14.68,14.68,0,0,1-2.29-2.28,3.65,3.65,0,0,1-.67-2.16,5.05,5.05,0,0,1,.85-2.83,6.33,6.33,0,0,1,2.23-2,5.08,5.08,0,0,1,5.39,0,2.58,2.58,0,0,1,1.07,2.12,2.36,2.36,0,0,1-1.42,2.34L425,416l-.1-.78a2.77,2.77,0,0,0-.8-1.76,2.33,2.33,0,0,0-1.68-.61,2.26,2.26,0,0,0-1.58.62,1.73,1.73,0,0,0-.65,1.31,2.71,2.71,0,0,0,1.22,1.93l1.6,1.36c1.69,1.39,2.55,2.87,2.55,4.39a5.81,5.81,0,0,1-.9,3.11,6.7,6.7,0,0,1-5.63,3.14Zm-3.39-2.93a4.2,4.2,0,0,0,3.39,1.76,5.33,5.33,0,0,0,1.07-.11,4.34,4.34,0,0,1-3.79-2.49l-.68.83Zm3.4-11.14a3.82,3.82,0,0,0-.27,1.45,2.48,2.48,0,0,0,.46,1.49,13.76,13.76,0,0,0,2.09,2.07,16.45,16.45,0,0,1,2.32,2.23,3.07,3.07,0,0,1,.58,1.87v0a4.67,4.67,0,0,0,.19-1.32c0-1.16-.72-2.33-2.13-3.5l-1.6-1.36a3.76,3.76,0,0,1-1.64-2.83s0-.08,0-.12Zm3.7-3a3.41,3.41,0,0,1,2.17.91,3.57,3.57,0,0,1,.93,1.46,1.68,1.68,0,0,0,.14-.74,1.44,1.44,0,0,0-.62-1.2,3.34,3.34,0,0,0-2.62-.44Z" fill="#8bc541"/><path d="M449.77,423.3a14.39,14.39,0,0,1-3.26,3.62A5.9,5.9,0,0,1,443,428a4.34,4.34,0,0,1-3.45-1.55,6,6,0,0,1-1.34-4,12.06,12.06,0,0,1,1.3-5.27,13.76,13.76,0,0,1,3.32-4.44,6.1,6.1,0,0,1,3.9-1.76,2.86,2.86,0,0,1,2,.73,2.62,2.62,0,0,1,.77,2,3.39,3.39,0,0,1-.81,2.14,2.27,2.27,0,0,1-1.75,1,1,1,0,0,1-.74-.34,3.12,3.12,0,0,0,1.79-3.12,1.83,1.83,0,0,0-.4-1.25,1.34,1.34,0,0,0-1.06-.45,3.24,3.24,0,0,0-2.06.86,9.37,9.37,0,0,0-1.94,2.4,14.41,14.41,0,0,0-1.42,3.28,12.51,12.51,0,0,0-.51,3.53,5.72,5.72,0,0,0,1,3.45,3,3,0,0,0,2.53,1.33,4.49,4.49,0,0,0,2.62-.89,12.44,12.44,0,0,0,2.65-2.74Z" fill="#66b245"/><path d="M443,428.63a4.91,4.91,0,0,1-3.89-1.75,6.56,6.56,0,0,1-1.48-4.41,12.69,12.69,0,0,1,1.35-5.52,14.35,14.35,0,0,1,3.46-4.62,6.68,6.68,0,0,1,4.28-1.9,3.43,3.43,0,0,1,2.44.89,3.2,3.2,0,0,1,1,2.4,4,4,0,0,1-.94,2.51,2.82,2.82,0,0,1-2.2,1.24,1.59,1.59,0,0,1-1.16-.52l-.57-.58L446,416a2.54,2.54,0,0,0,1.46-2.59,1.28,1.28,0,0,0-.26-.86.77.77,0,0,0-.62-.25,2.66,2.66,0,0,0-1.68.73,8.8,8.8,0,0,0-1.81,2.25,13.93,13.93,0,0,0-1.36,3.15,12,12,0,0,0-.49,3.37,5.17,5.17,0,0,0,.86,3.11c1,1.41,2.77,1.41,4.34.3a11.91,11.91,0,0,0,2.51-2.61l.38-.51,1.24,1.11-.28.42a15,15,0,0,1-3.4,3.76,6.49,6.49,0,0,1-3.86,1.25Zm-.17-15.09a13.47,13.47,0,0,0-2.8,3.91,11.52,11.52,0,0,0-1.24,5,5.37,5.37,0,0,0,1.2,3.65,3.76,3.76,0,0,0,3,1.35,5.35,5.35,0,0,0,2-.4,4.7,4.7,0,0,1-.92.09,3.54,3.54,0,0,1-3-1.57A6.3,6.3,0,0,1,440,421.8a13.14,13.14,0,0,1,.54-3.69,15,15,0,0,1,1.47-3.42,12.76,12.76,0,0,1,.77-1.16Zm5.43-1.47a2.55,2.55,0,0,1,.34,1.35,4.23,4.23,0,0,1-.66,2.43,3.26,3.26,0,0,0,.32-.35,2.81,2.81,0,0,0,.69-1.78,2.06,2.06,0,0,0-.6-1.56l-.09-.08Z" fill="#8bc541"/><path d="M457.26,410.77l-2.67,11.14a11.11,11.11,0,0,0-.36,2.54,2.17,2.17,0,0,0,.61,1.61,2.12,2.12,0,0,0,1.57.6q2.35,0,4.88-4l.12-.17c0-.19.06-.34.08-.46L463.21,412l2.7-1.18-2.43,9.48a15.69,15.69,0,0,0-.6,3.74,3.27,3.27,0,0,0,.3,1.5.91.91,0,0,0,.8.58c.57,0,1.48-.71,2.73-2.13l.44.4-.28.32a26.34,26.34,0,0,1-2.31,2.61,2.14,2.14,0,0,1-1.38.68,1.71,1.71,0,0,1-1.45-.91,4.09,4.09,0,0,1-.59-2.26c0-.29,0-.56,0-.81q-2.86,4-5.67,4a3,3,0,0,1-2.25-.85,3.08,3.08,0,0,1-.84-2.26,14.89,14.89,0,0,1,.3-2.68L454.59,412Z" fill="#66b245"/><path d="M463.18,428.52a2.27,2.27,0,0,1-1.93-1.17,4.3,4.3,0,0,1-.63-1.74c-1.69,1.94-3.41,2.92-5.12,2.92a3.6,3.6,0,0,1-2.66-1,3.66,3.66,0,0,1-1-2.67,15.4,15.4,0,0,1,.31-2.78l1.93-10.49,4-1.78-2.95,12.28a10.67,10.67,0,0,0-.34,2.4,1.6,1.6,0,0,0,.44,1.2,1.55,1.55,0,0,0,1.16.44c1.34,0,2.82-1.26,4.38-3.73l.08-.21,1.82-10.6,4.08-1.78-2.72,10.63a15.29,15.29,0,0,0-.59,3.59,2.73,2.73,0,0,0,.24,1.23c.14.26.24.26.28.26s.67-.09,2.29-1.94l.39-.45,1.3,1.19-.65.74a26.32,26.32,0,0,1-2.36,2.66,2.66,2.66,0,0,1-1.77.83Zm-1.34-5.64-.09,1.13c0,.23,0,.49,0,.76a3.54,3.54,0,0,0,.5,1.94c.42.64.82.64,1,.64a1.65,1.65,0,0,0,1-.53l.27-.26a1.41,1.41,0,0,1-1.77-.81,3.81,3.81,0,0,1-.37-1.77,16.34,16.34,0,0,1,.62-3.88l2.13-8.32-1.32.58-1.89,10.52Zm-6.74-10.52-1.82,9.89a14.33,14.33,0,0,0-.29,2.57,2.51,2.51,0,0,0,.67,1.86,2.76,2.76,0,0,0,2.67.57,2.68,2.68,0,0,1-1.91-.77,2.75,2.75,0,0,1-.78-2,11.79,11.79,0,0,1,.37-2.67l2.4-10-1.32.58Z" fill="#8bc541"/><path d="M479,387l-7.24,33.21-.25,1.12a12.4,12.4,0,0,0-.36,2.68,3,3,0,0,0,.32,1.45.92.92,0,0,0,.78.56q.85,0,2.73-2.13l.44.4-.27.32a26.76,26.76,0,0,1-2.31,2.61,2.16,2.16,0,0,1-1.38.68,1.76,1.76,0,0,1-1.45-1,4,4,0,0,1-.62-2.2,16.65,16.65,0,0,1,.36-2.74l6.37-33.52Z" fill="#66b245"/><path d="M471.45,428.52a2.31,2.31,0,0,1-1.93-1.23,4.59,4.59,0,0,1-.71-2.52,16.94,16.94,0,0,1,.37-2.85l6.42-33.79,4.24-2.15-7.75,35.53a11.82,11.82,0,0,0-.35,2.55,2.39,2.39,0,0,0,.25,1.17c0,.08.16.27.27.27s.64-.05,2.29-1.94l.39-.45,1.3,1.19-.65.74a26.62,26.62,0,0,1-2.36,2.66,2.7,2.7,0,0,1-1.77.83Zm5.17-39.62-6.31,33.23a16.3,16.3,0,0,0-.35,2.63,3.42,3.42,0,0,0,.53,1.89c.46.7.83.7,1,.7a1.67,1.67,0,0,0,1-.53l.27-.26a1.4,1.4,0,0,1-1.75-.78,3.57,3.57,0,0,1-.39-1.74,13,13,0,0,1,.37-2.8l.25-1.12,7-32-1.54.78Z" fill="#8bc541"/><path d="M482.05,412.24l-2.1,9.58a13,13,0,0,0-.33,2.25,2.74,2.74,0,0,0,.47,1.67,1.49,1.49,0,0,0,1.24.63,2.27,2.27,0,0,0,1.37-.45,13.78,13.78,0,0,0,1.89-1.85l.33-.35.42.43a17.92,17.92,0,0,1-2.72,2.93,3.48,3.48,0,0,1-2.13.85,2.65,2.65,0,0,1-2.11-.91,3.5,3.5,0,0,1-.78-2.38,17.67,17.67,0,0,1,.42-3.16l1.79-9.24h-2.64l.19-1H480l1.54-7.78,2.64-1.1-1.93,8.87h4.46l-.19,1Z" fill="#66b245"/><path d="M480.49,428.52a3.23,3.23,0,0,1-2.55-1.11,4.09,4.09,0,0,1-.93-2.76,17.84,17.84,0,0,1,.43-3.28l1.65-8.54h-2.65l.42-2.14h2.64l1.51-7.61,4-1.64-2,9.25h4.45l-.42,2.14h-4.47l-2,9.12a12.62,12.62,0,0,0-.31,2.13,2.2,2.2,0,0,0,.35,1.32,1.24,1.24,0,0,0,1.79.06,13.28,13.28,0,0,0,1.8-1.77l.76-.8,1.19,1.23-.31.4a18.53,18.53,0,0,1-2.81,3,4.06,4.06,0,0,1-2.49,1Zm0-16.67-1.89,9.75a17.1,17.1,0,0,0-.41,3.05,2.92,2.92,0,0,0,.64,2,2.23,2.23,0,0,0,3,.27,2.23,2.23,0,0,1-2.21-.82,3.32,3.32,0,0,1-.58-2,13.29,13.29,0,0,1,.34-2.37l2.16-9.86h0l1.85-8.49-1.33.55-1.57,7.94Z" fill="#8bc541"/><path d="M492.5,410.77l-2.67,11.14a11.31,11.31,0,0,0-.36,2.54,2.19,2.19,0,0,0,.6,1.61,2.14,2.14,0,0,0,1.57.6q2.34,0,4.88-4l.11-.17c0-.19.06-.34.08-.46L498.45,412l2.7-1.18-2.42,9.48a15.61,15.61,0,0,0-.61,3.74,3.26,3.26,0,0,0,.3,1.5.91.91,0,0,0,.8.58q.85,0,2.73-2.13l.44.4-.28.32a26,26,0,0,1-2.31,2.61,2.15,2.15,0,0,1-1.38.68A1.71,1.71,0,0,1,497,427a4.06,4.06,0,0,1-.59-2.26c0-.29,0-.56,0-.81q-2.87,4-5.67,4a3,3,0,0,1-2.25-.85,3.1,3.1,0,0,1-.83-2.26,14.93,14.93,0,0,1,.3-2.68L489.82,412Z" fill="#66b245"/><path d="M498.41,428.52a2.27,2.27,0,0,1-1.93-1.17,4.25,4.25,0,0,1-.63-1.75c-1.69,1.94-3.41,2.92-5.12,2.92a3.6,3.6,0,0,1-2.66-1,3.68,3.68,0,0,1-1-2.67,15.47,15.47,0,0,1,.31-2.78l1.93-10.5,4-1.78-2.95,12.28a10.79,10.79,0,0,0-.34,2.4,1.61,1.61,0,0,0,.44,1.2,1.55,1.55,0,0,0,1.16.44c1.34,0,2.82-1.26,4.39-3.74l0-.08c0-.13,0-.23.05-.33l1.8-10.41,4.07-1.78-2.72,10.63a15.11,15.11,0,0,0-.59,3.59,2.74,2.74,0,0,0,.24,1.23c.14.26.25.26.29.26s.67-.09,2.29-1.94l.39-.45,1.3,1.19-.66.74a26.12,26.12,0,0,1-2.36,2.66,2.7,2.7,0,0,1-1.77.83Zm-1.34-5.65L497,424q0,.35,0,.76a3.5,3.5,0,0,0,.5,1.94c.38.58.73.65,1,.65a1.66,1.66,0,0,0,1-.53l.27-.26a1.41,1.41,0,0,1-1.77-.81,3.81,3.81,0,0,1-.37-1.77,16.17,16.17,0,0,1,.62-3.89l2.13-8.32-1.32.58-1.69,9.77c0,.1,0,.27-.08.48l-.12.27Zm-6.74-10.51-1.82,9.89a14.37,14.37,0,0,0-.29,2.57,2.52,2.52,0,0,0,.67,1.86,2.76,2.76,0,0,0,2.67.57,2.69,2.69,0,0,1-1.91-.77,2.76,2.76,0,0,1-.77-2,11.88,11.88,0,0,1,.37-2.67l2.4-10-1.32.58Z" fill="#8bc541"/><path d="M503.9,419.44a17.63,17.63,0,0,0,3.17-5.58,4.08,4.08,0,0,1-2.23-3.71,3.11,3.11,0,0,1,.53-1.87,1.56,1.56,0,0,1,2.67.07,3.72,3.72,0,0,1,.52,2.06,7.36,7.36,0,0,1-.31,2,5.08,5.08,0,0,0,1.36.2,3.91,3.91,0,0,0,2.81-1h1.32l-.19.41a55.75,55.75,0,0,0-3.26,7.47,18.61,18.61,0,0,0-1.28,5.49,1.81,1.81,0,0,0,.33,1.11,1,1,0,0,0,.8.44q1.13,0,3.63-2.5l.44.52a19.66,19.66,0,0,1-2.4,2.22,4.39,4.39,0,0,1-2.73,1.21,2.08,2.08,0,0,1-1.7-.75,3.09,3.09,0,0,1-.62-2,13.38,13.38,0,0,1,1.6-5.47c.38-.82.89-1.76,1.49-2.82s1.37-2.31,2.28-3.78l.28-.4a6.07,6.07,0,0,1-1.75,1.22,4.77,4.77,0,0,1-1.92.36,4.1,4.1,0,0,1-1-.14,18,18,0,0,1-3.31,5.82Zm3.78-7.31a8.47,8.47,0,0,0,.11-1.21,3.31,3.31,0,0,0-.31-1.58.93.93,0,0,0-.81-.58.61.61,0,0,0-.49.27,1.15,1.15,0,0,0-.2.68A3,3,0,0,0,507.67,412.12Z" fill="#66b245"/><path d="M509.08,428.49a2.66,2.66,0,0,1-2.14-1,3.67,3.67,0,0,1-.75-2.41,13.82,13.82,0,0,1,1.65-5.72c.38-.81.89-1.77,1.51-2.86q.51-.9,1.18-2a5.21,5.21,0,0,1-2.44.22,19.25,19.25,0,0,1-3.24,5.51l-.39.49-1.35-1.26.33-.42a18,18,0,0,0,2.93-5,4.56,4.56,0,0,1-2.12-4,3.68,3.68,0,0,1,.64-2.22,2.14,2.14,0,0,1,3.63.09,4.31,4.31,0,0,1,.62,2.38,7.23,7.23,0,0,1-.18,1.55,3.34,3.34,0,0,0,3.06-.82l.17-.16h2.48l-.6,1.24a55.64,55.64,0,0,0-3.24,7.41,18.2,18.2,0,0,0-1.25,5.3,1.24,1.24,0,0,0,.22.76c.15.21.27.21.33.21.26,0,1.11-.23,3.22-2.33l.45-.45,1.17,1.38-.32.38a20.32,20.32,0,0,1-2.47,2.29,4.92,4.92,0,0,1-3.09,1.34Zm1.84-12.35-.57,1c-.61,1.06-1.1,2-1.47,2.78a13,13,0,0,0-1.54,5.23,2.55,2.55,0,0,0,.48,1.67,1.88,1.88,0,0,0,2.39.26,1.52,1.52,0,0,1-1.36-.68,2.39,2.39,0,0,1-.44-1.45,18.87,18.87,0,0,1,1.31-5.68q.53-1.53,1.19-3.1Zm-3.43-2.71.36.09a3.89,3.89,0,0,0,2.58-.19,4,4,0,0,0,.68-.38,5.33,5.33,0,0,1-3,0l0,.13-.59-.29,0-.06-.18-.11a3.72,3.72,0,0,1-2-2.51v0a3.5,3.5,0,0,0,1.94,3.21l.13.08Zm4.75-1,.28.24.27-.53h-.16a4.05,4.05,0,0,1-.39.29Zm-5.57-3.09a.55.55,0,0,0-.12.37,1.83,1.83,0,0,0,.65,1.33s0-.08,0-.12a2.77,2.77,0,0,0-.24-1.3c-.13-.24-.23-.27-.29-.28Zm0-1.21a.92.92,0,0,0-.58.19,1.06,1.06,0,0,1,1.1,0,.87.87,0,0,0-.52-.16Z" fill="#8bc541"/><path d="M527.37,423.15l.5.43a13.33,13.33,0,0,1-3.34,3.41,6.33,6.33,0,0,1-3.5,1,4.52,4.52,0,0,1-3.58-1.55,6.07,6.07,0,0,1-1.35-4.12,11.84,11.84,0,0,1,1.31-5.25,14.06,14.06,0,0,1,3.28-4.41,5.94,5.94,0,0,1,3.89-1.74,2.59,2.59,0,0,1,1.86.69,2.35,2.35,0,0,1,.73,1.78,6.32,6.32,0,0,1-2.31,4.44,19.12,19.12,0,0,1-6.31,3.77,4.38,4.38,0,0,0,0,.52,4.86,4.86,0,0,0,1,3.24,3.34,3.34,0,0,0,2.7,1.26,4.32,4.32,0,0,0,2.5-.85A12.42,12.42,0,0,0,527.37,423.15ZM518.55,421a14.8,14.8,0,0,0,4.57-3.08,10.83,10.83,0,0,0,1.74-2.48,5.5,5.5,0,0,0,.66-2.39q0-1.35-1.19-1.36-1.79,0-3.62,3A14.5,14.5,0,0,0,518.55,421Z" fill="#66b245"/><path d="M521,428.63a5.09,5.09,0,0,1-4-1.75,6.67,6.67,0,0,1-1.5-4.51,12.5,12.5,0,0,1,1.37-5.51,14.8,14.8,0,0,1,3.42-4.59,6.52,6.52,0,0,1,4.28-1.88,3.18,3.18,0,0,1,2.26.84,2.92,2.92,0,0,1,.91,2.21,6.89,6.89,0,0,1-2.49,4.86,19.43,19.43,0,0,1-6.16,3.75s0,.07,0,.11A4.27,4.27,0,0,0,520,425a2.77,2.77,0,0,0,2.25,1,3.76,3.76,0,0,0,2.17-.75,11.9,11.9,0,0,0,2.46-2.54l.38-.5,1.37,1.19-.31.43a13.73,13.73,0,0,1-3.49,3.56,7,7,0,0,1-3.81,1.14Zm-.13-15.33a13.62,13.62,0,0,0-3,4.07,11.32,11.32,0,0,0-1.25,5,5.46,5.46,0,0,0,1.21,3.74,3.92,3.92,0,0,0,3.14,1.35,5.75,5.75,0,0,0,1.64-.23,4,4,0,0,1-3.55-1.45,5.45,5.45,0,0,1-1.18-3.61c0-.1,0-.2,0-.29l-.08,0,.1-1a15.13,15.13,0,0,1,2.25-6.6c.23-.37.45-.7.68-1Zm3.43-1.06c-1,0-2,.9-3.13,2.68a14.06,14.06,0,0,0-1.93,5,12.93,12.93,0,0,0,3.43-2.47,10.22,10.22,0,0,0,1.64-2.34,5,5,0,0,0,.6-2.13c0-.72-.26-.78-.61-.78Zm1.55-.29a2.42,2.42,0,0,1,.22,1.07,6.1,6.1,0,0,1-.72,2.65,11.37,11.37,0,0,1-1.74,2.51c.29-.23.56-.47.81-.71a5.79,5.79,0,0,0,2.13-4,1.77,1.77,0,0,0-.55-1.36l-.16-.13Z" fill="#8bc541"/><path d="M528.25,425.77l1.54-1.9q1.21,3,3.85,3a3.26,3.26,0,0,0,2.36-.94,2.92,2.92,0,0,0,1-2.17,2.54,2.54,0,0,0-.47-1.53,16.78,16.78,0,0,0-2.23-2.13,14.16,14.16,0,0,1-2.19-2.18,3.08,3.08,0,0,1-.56-1.82,4.46,4.46,0,0,1,.76-2.51,5.73,5.73,0,0,1,2-1.86A5.46,5.46,0,0,1,537,411a3.33,3.33,0,0,1,2.08.65,2,2,0,0,1,.84,1.66,1.81,1.81,0,0,1-1.07,1.81,3.35,3.35,0,0,0-1-2.11,2.92,2.92,0,0,0-2.08-.77,2.83,2.83,0,0,0-2,.77,2.29,2.29,0,0,0-.84,1.74,3.23,3.23,0,0,0,1.43,2.38l1.6,1.36q2.34,1.93,2.34,3.95a5.23,5.23,0,0,1-.81,2.81,6.11,6.11,0,0,1-5.14,2.86A4.93,4.93,0,0,1,528.25,425.77Z" fill="#66b245"/><path d="M532.38,428.72a5.51,5.51,0,0,1-4.6-2.61l-.26-.36,2.44-3,.37.92c.71,1.77,1.8,2.63,3.31,2.63a2.69,2.69,0,0,0,2-.78,2.34,2.34,0,0,0,.8-1.75,2,2,0,0,0-.36-1.19,15.71,15.71,0,0,0-2.14-2,14.38,14.38,0,0,1-2.29-2.28,3.65,3.65,0,0,1-.67-2.16,5.05,5.05,0,0,1,.86-2.83,6.35,6.35,0,0,1,2.22-2,5.1,5.1,0,0,1,5.39,0,2.6,2.6,0,0,1,1.07,2.12,2.37,2.37,0,0,1-1.42,2.34l-.72.32-.1-.78a2.76,2.76,0,0,0-.8-1.76,2.32,2.32,0,0,0-1.68-.61,2.25,2.25,0,0,0-1.58.62,1.73,1.73,0,0,0-.65,1.31,2.7,2.7,0,0,0,1.22,1.93l1.61,1.36c1.69,1.39,2.54,2.87,2.54,4.39a5.83,5.83,0,0,1-.9,3.11,6.7,6.7,0,0,1-5.63,3.14ZM529,425.79a4.2,4.2,0,0,0,3.39,1.76,5.34,5.34,0,0,0,1.07-.11,4.35,4.35,0,0,1-3.79-2.49l-.67.83Zm3.39-11.12a3.82,3.82,0,0,0-.27,1.44,2.49,2.49,0,0,0,.46,1.49,13.67,13.67,0,0,0,2.09,2.07,16.9,16.9,0,0,1,2.32,2.23,3.11,3.11,0,0,1,.58,1.87h0a4.56,4.56,0,0,0,.19-1.3c0-1.16-.71-2.33-2.13-3.5L534,417.6a3.76,3.76,0,0,1-1.64-2.83s0-.07,0-.11Zm3.7-3a3.41,3.41,0,0,1,2.17.91,3.62,3.62,0,0,1,.93,1.46,1.7,1.7,0,0,0,.14-.74,1.44,1.44,0,0,0-.62-1.2,3.35,3.35,0,0,0-2.62-.44Z" fill="#8bc541"/><path d="M60.1,269.78l-1.57,9.15q-10.59-3-17.68-3.05a12.38,12.38,0,0,0-9.48,4.24q-3.88,4.24-4.15,11.7-.25,7.12,7.47,13.9Q49.05,318.09,49,318.25a29.06,29.06,0,0,1,7.34,21,37.05,37.05,0,0,1-.71,5.93q-2.55,15.6-13.53,23.73-9.46,7.11-22.77,7.12-8.7,0-19.38-4.07l1.62-10.51a41.72,41.72,0,0,0,19,4.75q6.72,0,10.29-2.54,5.1-3.56,6.69-13.39c.11-.79.18-1.52.2-2.2q.26-7.28-7.45-14.41Q23.23,327.24,16,320.62a29.49,29.49,0,0,1-7.22-20.85,43.68,43.68,0,0,1,.57-5.59q2.19-12.71,11.41-20,8.83-7.12,21.4-7.12Q48.63,267.07,60.1,269.78Z" fill="#385988"/><path d="M120.57,297.07l-12.7,77.29H90.59l.8-5.08A17.24,17.24,0,0,1,87,374.36q-2.55,1.69-7.4,1.7-10.08,0-15.22-9.16-4.68-8.3-4.21-21.53a62.34,62.34,0,0,1,.93-8.64q2.55-15.59,11.2-26.36t19.48-10.76q8,0,9.77,8.47l1.11-6.78Zm-23.8,39.66a137.47,137.47,0,0,0,1.95-16.27q.44-12.37-4.53-12.37-11.2,0-15.95,28.65a105.49,105.49,0,0,0-1.47,13.38q-.6,16.79,7.61,16.78,7.34,0,11.43-24.24Z" fill="#385988"/><path d="M153.53,297.07l-12.83,77.29H123.42l8.72-52.88a49.55,49.55,0,0,0,.72-6.27q.16-4.58-1.46-6.27t-5.6-1.69c-.91-.11-1.25-.79-1-2s.77-1.75,1.68-1.87Zm-9.59-3a6.39,6.39,0,0,1-5.55-3.05,12.45,12.45,0,0,1-1.9-7.63,17.85,17.85,0,0,1,3.73-10.51q3.52-4.57,8-4.57a6.92,6.92,0,0,1,5.74,3,11.39,11.39,0,0,1,2.1,7.54,17.6,17.6,0,0,1-3.92,10.59Q148.41,294,143.94,294Z" fill="#385988"/><path d="M219.68,328.93l-7.59,45.43H194.81l7.6-45.93a106.23,106.23,0,0,0,1.4-11.35q.35-9.83-5.62-9.83-6.22,0-10.61,6.18a35.72,35.72,0,0,0-5.83,15.34l-7.59,45.6H156.88l8.72-52.88a49.39,49.39,0,0,0,.72-6.27q.16-4.58-1.46-6.27c-1.08-1.13-2.95-1.69-5.6-1.69q-1.36-.17-1-2,.3-1.69,1.68-1.87L187,297.07l-1.73,10q6.85-7.46,18.8-7.46,8.58,0,12.89,8.14,3.49,6.78,3.14,16.44A42.79,42.79,0,0,1,219.68,328.93Z" fill="#385988"/><path d="M262.28,299.27l-1.41,8.13h-9.33L244.4,351a66.8,66.8,0,0,0-1,8q-.28,8,7.8,8a29,29,0,0,0,4.37-.51l-1.42,8.48a43.54,43.54,0,0,1-7.88,1.19q-20.77,0-20.2-15.94a37.5,37.5,0,0,1,.39-4.24l7.94-48.48h-9l1.41-8.13h9l2.38-14.58L256,280.46l-3,18.82Z" fill="#385988"/><path d="M300.91,328.76l-2.22,13.4H259.26l2.22-13.4Z" fill="#385988"/><path d="M375.41,297.23q-4,24.25-24.94,29.83l13.74,47.29H345.8l-13.67-45.77h-3l-7.6,45.77H304.26l13.44-80.68q.35-3,.43-5.26.31-9-6.89-9-1.37-.17-1-2c.2-1.13.76-1.75,1.68-1.86q23.93-4.91,25.93-5.25t10.5-1.53c1.08-.11,2.16-.17,3.23-.17a25,25,0,0,1,16.71,5.93q8.08,6.95,7.68,18.48A25.76,25.76,0,0,1,375.41,297.23Zm-17.32.85a43.3,43.3,0,0,0,.57-5.42q.6-17-11.46-17a14.71,14.71,0,0,0-3,.34l-6.63,1.19-7.28,43.9h6.47Q354.28,321.14,358.09,298.08Z" fill="#385988"/><path d="M421.72,327.4l-34.92,9.66a46.53,46.53,0,0,0-.58,5.93q-.34,9.33,2.68,15.42,3.36,7,10,7,7.71,0,16.12-9.15l-1.88,10.85q-8.53,9-21.71,9-11.07,0-17.21-7.46t-5.63-21.69a70.87,70.87,0,0,1,.94-9q3.17-19.15,12.76-29.83,9.19-10.17,22-10.17,9.83,0,14.46,9.49Q422.76,315.71,421.72,327.4Zm-11.08-3q.22-2.72.31-5.26.56-15.76-7.53-15.76-10.32,0-15.65,27.29Zm1.18-57.8-14.26,26.78h-7l7.91-26.78Z" fill="#385988"/><path d="M522.41,328.93,515,374.36H497.66l7.48-45.93a95.26,95.26,0,0,0,1.52-11.35q.35-9.83-5.75-9.83t-10.67,6.44a37.5,37.5,0,0,0-5.64,15.08l-7.47,45.6H459.85l7.48-45.93a94.91,94.91,0,0,0,1.53-11.35q.35-9.83-5.74-9.83t-10.8,6.44a37.6,37.6,0,0,0-5.63,15.08l-7.47,45.6H421.92l8.72-52.88a48.53,48.53,0,0,0,.72-6.27q.16-4.58-1.45-6.27t-5.72-1.69q-1.24-.17-.92-2a1.84,1.84,0,0,1,1.68-1.87l27-6.27-1.59,9.83q7.22-7.29,18.67-7.29,13.18,0,15.43,13.73,6.21-13.73,22.38-13.73,8.83,0,12.95,6.61,3.77,5.94,3.42,15.76A51.21,51.21,0,0,1,522.41,328.93Z" fill="#385988"/><path d="M557.37,297.07l-12.82,77.29H527.26L536,321.47a49.06,49.06,0,0,0,.72-6.27q.16-4.58-1.46-6.27t-5.6-1.69c-.91-.11-1.26-.79-1-2s.76-1.75,1.68-1.87Zm-9.59-3a6.4,6.4,0,0,1-5.55-3.05,12.48,12.48,0,0,1-1.9-7.63,17.85,17.85,0,0,1,3.73-10.51q3.52-4.57,8-4.57a6.93,6.93,0,0,1,5.74,3,11.41,11.41,0,0,1,2.09,7.54A17.6,17.6,0,0,1,556,289.36Q552.25,294,547.78,294Z" fill="#385988"/><path d="M48.79,218.54,30.67,254.11h-3l-4.27-27.69a16.14,16.14,0,0,0-.78-3.59,1.73,1.73,0,0,0-1.71-1.2c-.36,0-.49-.23-.41-.69a.71.71,0,0,1,.66-.63l9.05-1.77,3.69,24.15,12.33-24.15Z" fill="#385988"/><path d="M54.31,228.08l-5,26H42.49l3.43-17.81a14.63,14.63,0,0,0,.28-2.11,2.63,2.63,0,0,0-.57-2.11,3.29,3.29,0,0,0-2.2-.57c-.36,0-.49-.27-.41-.69a.71.71,0,0,1,.66-.62Zm-3.76-1a2.64,2.64,0,0,1-2.18-1,3.79,3.79,0,0,1-.75-2.57,5.51,5.51,0,0,1,1.47-3.54,4.13,4.13,0,0,1,3.14-1.55,2.89,2.89,0,0,1,2.25,1,3.46,3.46,0,0,1,.82,2.54,5.47,5.47,0,0,1-1.54,3.57A4.33,4.33,0,0,1,50.54,227Z" fill="#385988"/><path d="M68.17,216.43l-7.27,37.68H54.11l5.66-29.46a14.37,14.37,0,0,0,.28-2.11q.11-2.68-2.77-2.68c-.36,0-.5-.26-.41-.69a.71.71,0,0,1,.66-.63Z" fill="#385988"/><path d="M81.3,216.43,74,254.11H67.24l5.66-29.46a14.27,14.27,0,0,0,.28-2.11q.11-2.68-2.77-2.68c-.36,0-.49-.26-.41-.69a.71.71,0,0,1,.66-.63Z" fill="#385988"/><path d="M100,238.3l-13.71,3.26a13.53,13.53,0,0,0-.23,2,9.47,9.47,0,0,0,1.05,5.2,4.22,4.22,0,0,0,3.9,2.34q3,0,6.33-3.09l-.74,3.66a12.23,12.23,0,0,1-8.52,3,8.91,8.91,0,0,1-6.75-2.51q-2.41-2.51-2.21-7.31a20.3,20.3,0,0,1,.37-3,18.24,18.24,0,0,1,5-10.05,12.1,12.1,0,0,1,8.64-3.42,6.08,6.08,0,0,1,5.68,3.2A11,11,0,0,1,100,238.3Zm-4.35-1c.06-.61.1-1.2.12-1.77q.22-5.32-3-5.31-4.05,0-6.14,9.19Z" fill="#385988"/><path d="M135.83,216.43l-7.22,37.68h-6.79l.32-1.71a6.19,6.19,0,0,1-1.73,1.71,6,6,0,0,1-2.9.57,6.69,6.69,0,0,1-6-3.08,12,12,0,0,1-1.65-7.25,18.19,18.19,0,0,1,.36-2.91,17.48,17.48,0,0,1,4.4-8.88,10.27,10.27,0,0,1,7.64-3.62,3.53,3.53,0,0,1,3.84,2.85l1.37-7.14a14.63,14.63,0,0,0,.28-2.11q.11-2.68-2.82-2.68c-.32,0-.44-.26-.36-.69a.66.66,0,0,1,.66-.63Zm-11.58,25A40.09,40.09,0,0,0,125,236q.17-4.17-1.78-4.17-4.4,0-6.26,9.65a31,31,0,0,0-.58,4.51q-.23,5.66,3,5.66,2.88,0,4.49-8.17Z" fill="#385988"/><path d="M154.31,238.3l-13.71,3.26a13.45,13.45,0,0,0-.23,2,9.46,9.46,0,0,0,1.06,5.2,4.22,4.22,0,0,0,3.9,2.34q3,0,6.33-3.09l-.74,3.66a12.22,12.22,0,0,1-8.52,3,8.92,8.92,0,0,1-6.76-2.51q-2.41-2.51-2.21-7.31a20.48,20.48,0,0,1,.37-3,18.26,18.26,0,0,1,5-10.05,12.11,12.11,0,0,1,8.64-3.42,6.08,6.08,0,0,1,5.68,3.2A11,11,0,0,1,154.31,238.3Zm-4.35-1c.06-.61.1-1.2.12-1.77q.22-5.32-3-5.31-4.05,0-6.14,9.19Z" fill="#385988"/><path d="M283.61,165.14l-.23-.08,9.76,96,1.43-.1Z" fill="#66b245"/><path d="M276.38,163q-1.78-.46-3.57-.86l-51.18,85.83a140.85,140.85,0,0,0,23.51,8.54Z" fill="#66b245"/><path d="M269.75,161.46q-2-.38-4-.68l-77,65.36a129.59,129.59,0,0,0,16.18,12.47Z" fill="#66b245"/><path d="M261.93,160.24q-2.93-.36-5.88-.57l-87.83,42.28A117.58,117.58,0,0,0,178,215.14Z" fill="#66b245"/><path d="M211.77,162.61l-29.54,7.28c-11,3.34-19.9,6.69-25.42,8.73a109.29,109.29,0,0,0,4.68,11.26l82-30.58A190.45,190.45,0,0,0,211.77,162.61Z" fill="#66b245"/><path d="M279.29,163.76l-13.52,96.62a149.73,149.73,0,0,0,17.27,1c3.4,0,6.76-.13,10.1-.35l-9.76-96C282,164.6,280.66,164.16,279.29,163.76Z" fill="#66b245"/><path d="M294.18,169.58q-3.29-1.65-6.69-3l28.06,91.2A141.87,141.87,0,0,0,339.81,250Z" fill="#66b245"/><path d="M318.37,179.65A120.85,120.85,0,0,1,303.08,174L357.27,241a131.27,131.27,0,0,0,17.08-12.29Z" fill="#66b245"/><path d="M357.77,185.28a149.78,149.78,0,0,1-22.87-1.88l50.82,34.35a119.26,119.26,0,0,0,10.51-13.34Z" fill="#66b245"/><path d="M402.89,193.28a109.44,109.44,0,0,0,6.84-16,161.16,161.16,0,0,1-31.12,6.81Z" fill="#66b245"/><path d="M328.32,77.82,306.2,98.73h53L338,77.82Zm78.12,35.28-63-34.61,23.25,21Zm-78.11-51h.56v3.81H338V62.05h.5a.92.92,0,0,0,0-1.83H338a4.55,4.55,0,0,0-9,0h-.63a.92.92,0,0,0,0,1.83Zm53.84,46.73-21.6-6.57v0l0,0H303.59v0l-21.19,6.91-.76.22v37.59h-6.42V131.7H262v14.93h-7V134.17H242.81V138H233v9.08h-6.33V133.5H206.41v13.57h-6.59v-9.53h-17c-.11,26.62,0,29.69,0,29.88a229.42,229.42,0,0,1,30.76-9.79l1.21-.29.45-.1q2.89-.68,6-1.29l2.18-.43h0a168.15,168.15,0,0,1,31.08-3.1,118.41,118.41,0,0,1,25.85,2.74l.47.09.18,0,.7.15v0a95.12,95.12,0,0,1,10.24,3c1.31.47,2.6.92,3.89,1.37l3.56,1.2c20.54,6.81,38.67,10.23,53.89,10.23,9.75,0,18.29-1.39,25.57-4.09l3.41-1.24ZM287,154.87l-1.1.33V144l1.1-.34Zm2.71-.78-1.06.29v-11.2l1.06-.29Zm0-14.39-3.81,1.12V122.64c.63-.59,2.13-1.66,2.84-1.54a1.16,1.16,0,0,1,.7.23l.26.18Zm0-23.09a5.36,5.36,0,0,0-1-.09,7.09,7.09,0,0,0-2.84.64V112.3l3.81-1.06Zm5.12,36-1,.24V141.66l1-.24Zm2.48-.72-1,.25V140.94l1-.26Zm2.45-.76-1,.29V140.21l1-.29Zm0-14.41-5.89,1.73V119.4a4.86,4.86,0,0,1,3.18-1.29,5.68,5.68,0,0,1,2.71.77Zm0-22.8a9.42,9.42,0,0,0-2.71-.41,8.88,8.88,0,0,0-3.18.6v-4l5.89-1.64Zm6,35.63H304V138.71h1.83Zm3.63,0h-2V138.71h2Zm3.74,0H311V138.71h2.14Zm0-13.87H304V117.11c1.25-1.14,3.37-2.63,5.53-2.56a6.58,6.58,0,0,1,3.67,1.24Zm0-25a10.41,10.41,0,0,0-3.67-.69,12.13,12.13,0,0,0-5.53,1.5v-4.08h9.2Zm6.94,38.84-2.78,0v-10.8h2.78Zm4.45,0-2.84,0V138.71h2.84Zm4.44,0-2.84,0V138.71H329Zm4.45,0-2.84,0V138.71h2.84Zm4.45,0-2.84,0V138.71h2.84Zm4.45,0-2.84,0V138.71h2.84Zm4.44,0-2.83,0V138.71h2.83Zm0-13.68H317.32V116.18c2.89-2.06,9.61-2.51,13.4-2.43h1.62a50.39,50.39,0,0,1,7.86.52c2.91.44,5.57,1.44,6.56,2.63Zm0-24a22.48,22.48,0,0,0-5.86-1.7,54.89,54.89,0,0,0-8.56-.57h-1.62c-3.36.06-8.87,0-13.4,1.91v-3.89h29.45Zm6.45,37.65h-2.29v-10.6h2.29Zm3.62,0h-2V138.71h2Zm3.67,0h-2.06V138.71h2.06Zm0-13.6h-9.59V115.74a6.52,6.52,0,0,1,3.6-1.2,7.9,7.9,0,0,1,4.7,1.85,12.77,12.77,0,0,1,1.28,1.16Zm0-23.92a12.18,12.18,0,0,0-6-1.77,10.37,10.37,0,0,0-3.6.66v-3.24h9.59Zm5.11,39.06-.94-.32v-11l.94.31Zm2.48.8-1-.32V140.23l1,.31Zm2.6.82-1-.3V141l1,.29Zm0-14.29-6-1.87V118.66a5.43,5.43,0,0,1,2.25-.55,5,5,0,0,1,3.19,1.27,6.66,6.66,0,0,1,.58.55Zm0-23.76a9,9,0,0,0-3.76-.84,9.27,9.27,0,0,0-2.25.29v-5.39l6,1.52Zm5,39.67-.85-.28V142.63l.85.28Zm2.18.69-.86-.28V143.29l.86.28Zm0-14.37-3-.94V121.17a1.22,1.22,0,0,1,.38-.07,3.88,3.88,0,0,1,2,.88,6.91,6.91,0,0,1,.61.49Zm0-23.29a7,7,0,0,0-2.64-.56l-.38,0V111l3,.76Zm-40-42.32,9.82-3.23-9.89-3h-9.26l-9.89,3,9.82,3.23Zm44.22,102.78,0,0M322.68,78.49l-62.9,34.61,39.75-13.6Z" fill="#66b245"/></svg>