<svg id="Layer_1" data-name="Layer 1" xmlns="http://www.w3.org/2000/svg" viewBox="0 0 464.87 201.42"><title>logo_15</title><polygon points="99.83 0.39 76.41 49.6 76.41 23.34 49.67 23.34 49.67 115.05 108.89 0.39 99.83 0.39 99.83 0.39" fill="#231f20" stroke="#231f20" stroke-width="0.79"/><polygon points="51.92 144.5 42.07 144.5 51.92 123.85 51.92 144.5 51.92 144.5" fill="#00945e" stroke="#00945e" stroke-width="0.79"/><polygon points="51.92 148.56 39.46 148.56 34.44 159 51.92 159 51.92 148.56 51.92 148.56" fill="#00945e" stroke="#00945e" stroke-width="0.79"/><polygon points="51.92 161.99 32.7 161.99 27.48 172.13 51.92 172.13 51.92 161.99 51.92 161.99" fill="#00945e" stroke="#00945e" stroke-width="0.79"/><polygon points="51.92 175.33 25.74 175.33 21.39 185.28 51.92 185.28 51.92 175.33 51.92 175.33" fill="#00945e" stroke="#00945e" stroke-width="0.79"/><polygon points="47.29 187.89 51.92 187.89 51.92 201.03 47.29 201.03 47.29 187.89 47.29 187.89" fill="#00945e" stroke="#00945e" stroke-width="0.79"/><path d="M80.82,171.56c-7.78-3.34-12-6.43-17.49-12.85a41.51,41.51,0,0,1-8.12-13.34V115.31L77.63,72.7H91.35a58.86,58.86,0,0,0-14,17.49,58.69,58.69,0,0,0-6.47,16h4.44v5.31h26.77l-5.51,23.87H81.4l-.87,1.45H76.18l-.58,3.77H69.71l-.29,1.74H66.81a40.09,40.09,0,0,0,4.06,15.17,40.19,40.19,0,0,0,10,14Z" fill="#ffc627" stroke="#ffc627" stroke-width="0.79"/><path d="M11.34,113.08c.13.4.34.6.69.57a.71.71,0,0,0,.57-.78l0-1.41a10.65,10.65,0,0,1,1.54-.11c.36,0,.71,0,1.06,0l0,1.4c0,.42.13.7.48.79a.72.72,0,0,0,.81-.53l.43-1.39a12.47,12.47,0,0,1,3.09,1.14l-.65,1.34a.67.67,0,0,0,.12.91.71.71,0,0,0,1-.15l1-1.16a11.46,11.46,0,0,1,1.91,1.87l-1.09,1c-.32.29-.4.59-.22.89a.72.72,0,0,0,.94.2l1.45-.72a11.36,11.36,0,0,1,1,2.44L24,120c-.4.16-.59.4-.53.76a.72.72,0,0,0,.81.52l1.51-.19.12,0a13.49,13.49,0,0,1,.11,2.18c0,.15,0,.3,0,.45l-1.51.06c-.43,0-.69.16-.76.52a.71.71,0,0,0,.57.78l1.62.4a11.59,11.59,0,0,1-.86,2.54l-1.47-.51c-.4-.15-.71-.09-.9.21a.71.71,0,0,0,.25.93l1.37.94a12.27,12.27,0,0,1-1.72,2.1l-1.18-1a.67.67,0,0,0-.91-.13.72.72,0,0,0-.1,1l1,1.32a12.44,12.44,0,0,1-2.4,1.33l-.7-1.31c-.2-.38-.46-.54-.81-.44a.71.71,0,0,0-.44.86l.35,1.48a20.08,20.08,0,0,1-2.69.46l-.14-1.46c0-.43-.24-.67-.59-.71a.72.72,0,0,0-.72.65l-.21,1.5a11.59,11.59,0,0,1-2.65-.56l.36-1.39c.11-.41,0-.71-.3-.87a.71.71,0,0,0-.9.35L8.92,134a12.18,12.18,0,0,1-2.29-1.41l.77-1.13a.7.7,0,0,0,0-.92c-.32-.43-1,.18-1.31.41L5.29,130l6.06-16.92Z" fill="#f7323f" stroke="#f7323f" stroke-width="0.79"/><path d="M.52,147.22h24l-8.62,37.62,30.62-60.3V59.71L34.94,100.09H14.49l-2.38,8.83c.58-.07.84-.63.84-1.22l.65-2.49c.81-.11.83.12,1.69.12.56,0,1.11,0,1.65.06l-.06,2.17c0,.66.2,1.09.74,1.23a1.11,1.11,0,0,0,1.26-.82l.67-2.17a19.32,19.32,0,0,1,4.81,1.78l-1,2.08a1,1,0,0,0,.18,1.42,1.11,1.11,0,0,0,1.48-.24l1.59-1.8a17.94,17.94,0,0,1,3,2.91l-1.69,1.58c-.49.45-.63.91-.34,1.39a1.11,1.11,0,0,0,1.47.31l2.25-1.12a17.74,17.74,0,0,1,1.61,3.79l-2.14.87c-.62.24-.91.63-.82,1.18a1.11,1.11,0,0,0,1.26.82l2.34-.3.19,0a21,21,0,0,1,.17,3.38c0,.24,0,.47,0,.71l-2.34.09c-.66,0-1.08.26-1.19.8a1.11,1.11,0,0,0,.88,1.21l2.52.62a18.15,18.15,0,0,1-1.33,4l-2.28-.79a1,1,0,0,0-1.4.33,1.11,1.11,0,0,0,.39,1.45l2.13,1.47A19.07,19.07,0,0,1,28.58,137l-1.84-1.59a1,1,0,0,0-1.42-.2,1.11,1.11,0,0,0-.15,1.49l1.48,2.05a19.47,19.47,0,0,1-3.73,2.07l-1.09-2c-.31-.59-.72-.84-1.26-.69a1.12,1.12,0,0,0-.68,1.34l.54,2.3a31.3,31.3,0,0,1-4.18.72L16,140.2c-.08-.66-.37-1-.92-1.1a1.11,1.11,0,0,0-1.11,1l-.32,2.34a18,18,0,0,1-4.12-.87l.56-2.16c.17-.64,0-1.11-.47-1.35a1.11,1.11,0,0,0-1.4.54l-1,1.92a18.83,18.83,0,0,1-3.56-2.19l1.2-1.76a1,1,0,0,0,0-1.43.94.94,0,0,0-.92-.26L.52,147.22Z" fill="#f7323f" stroke="#f7323f" stroke-width="0.79"/><polygon points="344.45 23.05 348.59 23.05 348.59 56.02 344.45 56.02 344.45 23.05 344.45 23.05" fill="#231f20" stroke="#231f20" stroke-width="1.12"/><path d="M411.85,33a3.69,3.69,0,0,1-3.94,1.28,4.32,4.32,0,0,0,1.67-2.36,4.32,4.32,0,0,0,.1-2.75H408.6v-.69l0-4.23h4.14v6a6.35,6.35,0,0,1-.94,2.75Z" fill="#231f20" stroke="#231f20" stroke-width="1.12"/><path d="M457.92,37.7a5.76,5.76,0,0,1,1.77-1.57c1.57-1,2.65-.89,4.62-.89V30.62c-2.29-.19-4.92,0-6.51,1.67l0-2.07h-4.14V56h4.28l0-3.57,0-14.76Z" fill="#231f20" stroke="#231f20" stroke-width="1.12"/><polygon points="358.8 39.76 370.6 39.76 370.6 44.97 358.8 44.97 358.8 39.76 358.8 39.76" fill="#231f20" stroke="#231f20" stroke-width="1.12"/><polygon points="289.44 23.05 289.44 56.02 293.87 56.02 315.08 23.05 309.58 23.05 294.26 46.25 294.26 23.05 289.44 23.05 289.44 23.05" fill="#231f20" stroke="#231f20" stroke-width="1.12"/><polygon points="164.86 23.05 169 23.05 169 56.02 164.86 56.02 164.86 23.05 164.86 23.05" fill="#231f20" stroke="#231f20" stroke-width="1.12"/><polygon points="109.86 23.05 109.86 56.02 114.28 56.02 135.5 23.05 130 23.05 114.68 46.25 114.68 23.05 109.86 23.05 109.86 23.05" fill="#231f20" stroke="#231f20" stroke-width="1.12"/><polygon points="151.43 23.05 155.57 23.05 155.57 56.02 151.43 56.02 151.43 23.05 151.43 23.05" fill="#231f20" stroke="#231f20" stroke-width="1.12"/><polygon points="144.08 32.99 144.08 56.02 139.92 56.02 139.83 32.99 144.08 32.99 144.08 32.99" fill="#231f20" stroke="#231f20" stroke-width="1.12"/><polygon points="139.83 29.07 139.92 23.05 144.06 23.05 144.06 29.07 139.83 29.07 139.83 29.07" fill="#231f20" stroke="#231f20" stroke-width="1.12"/><path d="M222,43.79a8.06,8.06,0,1,1,8.06,8.06A8.06,8.06,0,0,1,222,43.79Zm17-9.15L239,23h4.14V56H239L239,52.45A12.54,12.54,0,1,1,230,31.11a12.37,12.37,0,0,1,9,3.54Z" fill="#231f20" stroke="#231f20" stroke-width="1.12" fill-rule="evenodd"/><path d="M266.7,54.53a12.55,12.55,0,1,1-6.28-23.42,12.38,12.38,0,0,1,9,3.54l1.52,1.62L256.55,50.94a8.57,8.57,0,0,0,3.91.91A8.14,8.14,0,0,0,266.68,49l0,5.55Zm-13.17-6.84a7.71,7.71,0,0,1-1.13-3.9,8.07,8.07,0,0,1,11.37-7.36L253.53,47.69Z" fill="#231f20" stroke="#231f20" stroke-width="1.12" fill-rule="evenodd"/><path d="M193.37,54.53a12.55,12.55,0,1,1-6.27-23.42,12.38,12.38,0,0,1,9,3.54l1.52,1.62L183.22,50.94a8.58,8.58,0,0,0,3.91.91A8.15,8.15,0,0,0,193.35,49v5.55ZM180.2,47.69a7.67,7.67,0,0,1-1.14-3.9,8.07,8.07,0,0,1,11.37-7.36L180.2,47.69Z" fill="#231f20" stroke="#231f20" stroke-width="1.12" fill-rule="evenodd"/><path d="M317.25,43.79a8.06,8.06,0,1,1,8.06,8.06,8.07,8.07,0,0,1-8.06-8.06Zm17-9.15,0-3.34h4.14V56h-4.14l-.07-3.57a12.54,12.54,0,1,1-8.94-21.35,12.38,12.38,0,0,1,9,3.54Z" fill="#231f20" stroke="#231f20" stroke-width="1.12" fill-rule="evenodd"/><path d="M383.16,43.79a8.06,8.06,0,1,1,8.06,8.06,8.06,8.06,0,0,1-8.06-8.06Zm17-9.15,0-11.6h4.14V56h-4.14l-.07-3.57a12.54,12.54,0,1,1-8.94-21.35,12.37,12.37,0,0,1,9,3.54Z" fill="#231f20" stroke="#231f20" stroke-width="1.12" fill-rule="evenodd"/><path d="M418.87,39.75a11.66,11.66,0,1,1,11.66,11.66,11.66,11.66,0,0,1-11.66-11.66Zm-4.86,0a16.65,16.65,0,1,1,16.65,16.66A16.66,16.66,0,0,1,414,39.7Z" fill="#231f20" stroke="#231f20" stroke-width="1.12" fill-rule="evenodd"/></svg>