<svg id="Layer_1" data-name="Layer 1" xmlns="http://www.w3.org/2000/svg" viewBox="0 0 572.28 271.55"><title>logo_10</title><g id="_Group_" data-name="&lt;Group&gt;"><g id="_Group_2" data-name="&lt;Group&gt;"><path id="_Path_" data-name="&lt;Path&gt;" d="M311.08,91.93c-5.43-2.55-10.74-6.18-15.29-7.71a54.93,54.93,0,0,0-6.39-1.81c-10.87-2.36-21.38,2.28-29.09,8.88-.72.62-1.4,1.27-2.07,1.92a15.07,15.07,0,0,0,4.54,3c.42-.23.83-.46,1.26-.67a36,36,0,0,1,27.79-1.81c3.22,1.18,11.3,7,16.75,9.66A23.72,23.72,0,0,0,323,105.37,26.52,26.52,0,0,0,345.1,83.51C336.79,93.93,324.56,98.24,311.08,91.93Z" fill="#ef373e"/><path id="_Path_2" data-name="&lt;Path&gt;" d="M237,39.48a9.75,9.75,0,0,0,4.07-.66A1.24,1.24,0,0,0,241,36.6a8.66,8.66,0,0,1-3.24-2.37c-4.24-5.35-13.86-5-16.88-.65,0,0,5.58.85,7.08,1.13C228.63,40.37,234.9,41.71,237,39.48Z" fill="#ef373e"/><path id="_Path_3" data-name="&lt;Path&gt;" d="M243.16,148.43A31.85,31.85,0,0,0,233,136.86h0l-.3-.18c-.18-.12-.34-.25-.52-.36l-1.69-1c-.21-.12-.43-.23-.65-.34l-27.75-16.9-.34-.21a31.63,31.63,0,0,1-13.27-38.94,31.58,31.58,0,0,0,5,47.76h0l.3.18c.18.12.34.25.52.36l1.69,1,.65.35,27.75,16.89.34.21A31.63,31.63,0,0,1,238,184.62a31.61,31.61,0,0,0,5.18-36.19Z" fill="#ef373e"/></g><g id="_Group_3" data-name="&lt;Group&gt;"><path id="_Path_4" data-name="&lt;Path&gt;" d="M279.57,181.52l-.06-.39-.61-4.74c-5.11-33-20.21-55.87-21.77-58.16l7.3.24,8.38.29,2,.07a7.65,7.65,0,0,0,7.26-5.27h0l2.51-7.08,1-3c1.36-4.61-2.86-5.62-5.77-5.7-1,0-1.91,0-3,0h.93l-9.09-.3h-.06a15.11,15.11,0,1,1,14-21c.94-1.16,1.86-2.34,2.7-3.56C286,72,286.5,71.17,287,70.3a57.61,57.61,0,0,0,8.6-30.38l0-.8a16.2,16.2,0,0,0-1.05-6.31,10.06,10.06,0,0,0-2.52-3.71,10.31,10.31,0,0,0-7.68-2.6c-1.65,0-17.71.05-25-.4-6.51-.4-10.35-.49-10.79-2.4-3.75-11.92-16.39-13.42-26.72-14.1-9.34-.61-15.07.37-19.79,3.45a16.25,16.25,0,0,1-2-3.65A16.56,16.56,0,0,1,199,3.45,17,17,0,0,1,199.34,0a24.41,24.41,0,0,0-17.51,20.89,33.67,33.67,0,0,0-31.18,10.49,34.75,34.75,0,0,1,9.92,5.08v0l0,0A36.33,36.33,0,0,1,164,39.3a31.13,31.13,0,0,0-15.77,38.32,35.24,35.24,0,0,1,8.64-8.84,15.81,15.81,0,0,1-2.47,20.77l-.25.18-.15.14c-.14.14-.31.28-.47.42l-.18.16a13.35,13.35,0,0,1-1.56,1.13l-.11.06-17.59,10.74-2.32,1.42c-.19.1-.39.19-.58.3l-1.49.88c-.16.1-.31.22-.46.32l-.27.16h0a28,28,0,0,0-9,10.17,28.08,28.08,0,0,0-3.14,13.5,27.85,27.85,0,0,0,7.55,18.48,28,28,0,0,1,11.9-34.33l.3-.18,19.76-12.06.37-.22,1.15-.68c.14-.09.26-.18.4-.26s.31-.21.47-.31A20,20,0,0,0,164.55,94a26.35,26.35,0,0,0-5.28-37.65A19,19,0,0,1,170,46.82c.45-.16.9-.29,1.37-.42l.29-.07c.4-.11.81-.19,1.21-.27l.71-.11c.31,0,.61-.09.93-.12s.73,0,1.09,0a14.25,14.25,0,0,0,15.24,23.76,34.61,34.61,0,0,0,.41-5.32c0-1.16-.06-2.3-.17-3.43a7.48,7.48,0,1,1-6.18-11.69,7.33,7.33,0,0,1,3,.66l.54.42a35.11,35.11,0,0,0-20.05-18.83,26.39,26.39,0,0,1,10.45-2.15,26.09,26.09,0,0,1,3.57.25A26.38,26.38,0,0,1,192,32.68a22.16,22.16,0,0,1-.69-5.5,23.15,23.15,0,0,1,.19-2.9,22.28,22.28,0,0,1,2.06-6.89c.49.77,1,1.51,1.59,2.23a26.5,26.5,0,0,0,4.89,4.75l.43-.54c5.34-6.62,9.28-8.22,20.94-7.45,17.15,1.13,19.22,4.73,20.57,9.09l.22.65c2.48,5.88,9.41,6.3,16.74,6.76,7.87.48,25.41.41,25.59.42h0a1.2,1.2,0,0,1,.78,2.11l0,0-.08.07L280.05,39h0a2.87,2.87,0,0,0,1.64,5.22h.05a6,6,0,0,1,6,6c0,.2,0,.4,0,.6a51.23,51.23,0,0,1-5.43,14.28,21.9,21.9,0,1,0-14.75,39.13l.9,0,8.22.27h0a1.14,1.14,0,0,1,1.14,1.13,1.17,1.17,0,0,1-.08.37h0l0,.06h0l-1.9,4.93-.18.48h0a.87.87,0,0,1-.77.52l-25.69-.79s-8.48-.13-10.63-.59a13.72,13.72,0,0,1-2.32-.61,24.17,24.17,0,0,1-3.58-1.73c6.57,12.07,23.89,21.69,36.49,62A132.3,132.3,0,0,1,274.92,203,31.71,31.71,0,0,0,279.57,181.52Z" fill="#ef373e"/></g></g><path id="_Path_5" data-name="&lt;Path&gt;" d="M167.6,252.69l-31-40h-9.43v.06l-.1-.06H125.4a9.36,9.36,0,0,1,1.51,3.7,28.29,28.29,0,0,1,.15,3.28v46.62c0,.22,0,.44-.06.58a9.29,9.29,0,0,1-1.52,3.71h11.75v-41.1l31.86,41.1h8.51V212.67h-10Z" fill="#231f20"/><path id="_Path_6" data-name="&lt;Path&gt;" d="M229.9,212.67h-47v.26h0v9h0v1.68a9.29,9.29,0,0,1,3.71-1.52l.25,0h14.4v40.75h0v.72a28.19,28.19,0,0,1-.15,3.28,9.36,9.36,0,0,1-1.51,3.71h13.55a9.36,9.36,0,0,1-1.51-3.71,16.51,16.51,0,0,1-.12-1.75v-43h14.53l.25,0a9.2,9.2,0,0,1,3.7,1.52V222h0v-9l-.13.17Z" fill="#231f20"/><path id="_Compound_Path_" data-name="&lt;Compound Path&gt;" d="M390.52,231.11V231a17.49,17.49,0,0,0-4.8-12.49c-3.72-3.64-9.42-5.79-16.7-5.79H341.56a9.36,9.36,0,0,1,1.51,3.7,28.29,28.29,0,0,1,.15,3.28v44.7a23.61,23.61,0,0,1-.14,2.5,9.29,9.29,0,0,1-1.52,3.71h11.83V250.38h12.73l14.23,20.18h12l-15.63-21.92C384.81,246.33,390.52,240.62,390.52,231.11Zm-37.13,10.25V221.93h14.8c7.53,0,12,3.39,12,9.59v.17c0,5.87-4.63,9.67-11.91,9.67Z" fill="#231f20"/><path id="_Compound_Path_2" data-name="&lt;Compound Path&gt;" d="M424.52,211.68c-17.78,0-30.35,13.64-30.35,29.93v.17c0,16.29,12.4,29.77,30.18,29.77s30.35-13.65,30.35-29.94v-.16C454.7,225.16,442.3,211.68,424.52,211.68ZM444,241.78c0,11.24-8,20.42-19.52,20.42s-19.68-9.34-19.68-20.59v-.16c0-11.25,8-20.43,19.51-20.43S444,230.37,444,241.61Z" fill="#231f20"/><path id="_Path_7" data-name="&lt;Path&gt;" d="M490.34,240l-17.61-27.37H461.89v0l0,0H460.2a9.28,9.28,0,0,1,1.52,3.7,30.69,30.69,0,0,1,.15,3.28v45.64c0,.61-.06,1.22-.12,1.56a9.36,9.36,0,0,1-1.51,3.71H472V229.41l18,26.92h.33L508.62,229v41.52h10.17V212.67H508Z" fill="#231f20"/><path id="_Path_8" data-name="&lt;Path&gt;" d="M539.14,261.46V245.91h29v-9.09h-29v-15h32.73v-9.1H527.31a9.36,9.36,0,0,1,1.51,3.7,19.38,19.38,0,0,1,.13,2v45.16a28.19,28.19,0,0,1-.15,3.28,9.36,9.36,0,0,1-1.51,3.71h45v-9.1Z" fill="#231f20"/><path id="_Path_9" data-name="&lt;Path&gt;" d="M272.71,212.67h-1.66a9.36,9.36,0,0,1,1.51,3.7,28.29,28.29,0,0,1,.15,3.28v.73h0v30.25c0,7.69-3.72,11.33-9.18,11.33a11.92,11.92,0,0,1-5.59-1.33,12.33,12.33,0,0,1-1.34-.84,12.76,12.76,0,0,1-2-2.12A9.25,9.25,0,0,1,253,254l-1.25,1.29L245.17,262a21.82,21.82,0,0,0,18.53,9.34c5.79,0,10.67-1.73,14.06-5.12s5.37-8.52,5.37-15.39v-38.2H272.71Z" fill="#231f20"/><path id="_Path_10" data-name="&lt;Path&gt;" d="M44.82,253.93c0-9.59-6.37-14-18.61-17-11.08-2.64-13.72-4.63-13.72-9.09v-.17c0-3.8,3.47-6.86,9.42-6.86a22.38,22.38,0,0,1,8.77,1.89l1.25.67a15.7,15.7,0,0,1,2.29,1.81,9.22,9.22,0,0,1,2.14,3.37L38,226.34h0l5.12-7.22a32.1,32.1,0,0,0-21-7.28c-11.49,0-19.76,6.87-19.76,16.79v.17c0,10.66,6.94,14.3,19.26,17.28,10.75,2.48,13.07,4.71,13.07,8.85v.16c0,4.39-4,7.28-10.25,7.28a24.22,24.22,0,0,1-11.47-2.78l-1.43-.9a15.61,15.61,0,0,1-2.15-1.95,9.24,9.24,0,0,1-1.91-3.52l-1.57,1.92-5.87,7a35.68,35.68,0,0,0,24.15,9.26c12.15,0,20.67-6.45,20.67-17.28Z" fill="#231f20"/><path id="_Compound_Path_3" data-name="&lt;Compound Path&gt;" d="M102.37,268.17,78,212.26H68.52L44.69,266.8a8.09,8.09,0,0,1-3.07,3.76H53.47l6-14H86.79l5.88,14h12A7.51,7.51,0,0,1,102.37,268.17Zm-39.23-20.6,9.93-23.16,10,23.16Z" fill="#231f20"/><polygon id="_Path_11" data-name="&lt;Path&gt;" points="322.65 206.64 320.9 200.15 306.12 205.66 307.26 209.78 322.65 206.64" fill="#231f20"/><polygon id="_Path_12" data-name="&lt;Path&gt;" points="424.47 206.21 433.86 209.78 435.44 205.88 424.47 199.79 413.43 205.88 415.02 209.78 424.47 206.21" fill="#231f20"/><polygon id="_Path_13" data-name="&lt;Path&gt;" points="248.77 237.94 233.06 238.2 233.01 243.98 248.67 244.66 248.77 237.94" fill="#231f20"/><path id="_Path_14" data-name="&lt;Path&gt;" d="M302.85,245.91h29v-9.09h-29v-15H335.6v-9.1H291a9.36,9.36,0,0,1,1.51,3.7,28.29,28.29,0,0,1,.15,3.28v43.2h0v.72a28.19,28.19,0,0,1-.15,3.28,9.36,9.36,0,0,1-1.51,3.71h45v-9.1H302.85Z" fill="#231f20"/><path id="_Path_15" data-name="&lt;Path&gt;" d="M117.93,219.65a28.29,28.29,0,0,1,.15-3.28,9.36,9.36,0,0,1,1.51-3.7H107.74v53.07a8.52,8.52,0,0,1-.1,1.11,9.36,9.36,0,0,1-1.51,3.71h11.78V219.64Z" fill="#231f20"/><g id="_Group_4" data-name="&lt;Group&gt;"><path id="_Compound_Path_4" data-name="&lt;Compound Path&gt;" d="M71.05,198.53a2.3,2.3,0,0,1-1.38-1.37L59.85,163a1.6,1.6,0,0,1-.06-1q.06-.24.66-.24h2.4l9.52,33.34h2l9.22-32a1.71,1.71,0,0,1,.72-.89,1.67,1.67,0,0,1,1.14-.42h1.86L77.16,197.16a2.12,2.12,0,0,1-1.38,1.37,5.7,5.7,0,0,1-2.34.48A5.83,5.83,0,0,1,71.05,198.53Z" fill="#231f20"/><path id="_Compound_Path_5" data-name="&lt;Compound Path&gt;" d="M92.9,163.47c0-1.15.62-1.73,1.86-1.73h1.38v1.85c0,1.19-.62,1.79-1.86,1.79H92.9Zm0,8.47c0-1.15.62-1.73,1.86-1.73h1.38v28.68H94.76c-1.24,0-1.86-.57-1.86-1.73Z" fill="#231f20"/><path id="_Compound_Path_6" data-name="&lt;Compound Path&gt;" d="M108.29,194.9a2,2,0,0,0,1.44,2,3,3,0,0,0,1.92.24v1.26a1.16,1.16,0,0,1-.84,1.19,4.6,4.6,0,0,1-1.2.18,4.4,4.4,0,0,1-3.17-1.37,4.31,4.31,0,0,1-1.32-3.16V164.13c0-1.16.62-1.73,1.86-1.73h1.31Z" fill="#231f20"/><path id="_Compound_Path_7" data-name="&lt;Compound Path&gt;" d="M120.75,194.9a2,2,0,0,0,1.43,2,3,3,0,0,0,1.92.24v1.26a1.16,1.16,0,0,1-.84,1.19,4.6,4.6,0,0,1-1.2.18,4.44,4.44,0,0,1-3.17-1.37,4.31,4.31,0,0,1-1.32-3.16V164.13c0-1.16.62-1.73,1.86-1.73h1.32Z" fill="#231f20"/><path id="_Compound_Path_8" data-name="&lt;Compound Path&gt;" d="M128.83,177.66a7.36,7.36,0,0,1,2.81-6,10.44,10.44,0,0,1,6.89-2.15,10.64,10.64,0,0,1,6.94,2.15q2.64,2.21,2.76,6.8.12,8-6.17,8h-8.38a2.52,2.52,0,0,1-1.62-.48v6a3.6,3.6,0,0,0,2,3.34,8.69,8.69,0,0,0,3.53,1,11.16,11.16,0,0,0,3.65-.24A5.27,5.27,0,0,0,143.8,195a2.26,2.26,0,0,0,.72-.66,1.52,1.52,0,0,1,1.91-.24l1.62.78a5.57,5.57,0,0,1-1.32,1.73,9.83,9.83,0,0,1-3.71,2.2,13.35,13.35,0,0,1-4.37.72,16.93,16.93,0,0,1-1.8-.09c-.56-.06-1.12-.13-1.67-.21a9.9,9.9,0,0,1-3.12-1.37,6.11,6.11,0,0,1-2.39-2.8,8.65,8.65,0,0,1-.84-3.7Zm12.87,5.67a3,3,0,0,0,3.18-2.15A10.79,10.79,0,0,0,145,180c0-.58,0-1.36,0-2.36a4.45,4.45,0,0,0-1.5-3.63,7.84,7.84,0,0,0-5-1.38,8,8,0,0,0-4.91,1.38,4.37,4.37,0,0,0-1.56,3.63v5.67Z" fill="#231f20"/><path id="_Compound_Path_9" data-name="&lt;Compound Path&gt;" d="M186.67,163.41c0-1.15.62-1.73,1.86-1.73h1.31v28.74a8.13,8.13,0,0,1-3.23,6.5,10.93,10.93,0,0,1-7.36,2.57,11.24,11.24,0,0,1-7.37-2.57,7.94,7.94,0,0,1-3.23-6.5V178.5a8,8,0,0,1,3.23-6.44,11.24,11.24,0,0,1,7.37-2.57,12.24,12.24,0,0,1,3.89.6,8.13,8.13,0,0,1,3.53,2.15Zm0,15.09a5.09,5.09,0,0,0-2-4.06,8.45,8.45,0,0,0-5.38-1.79,8.21,8.21,0,0,0-5.33,1.79,5.09,5.09,0,0,0-2,4.06v11.92a5.12,5.12,0,0,0,2,4.12,8.21,8.21,0,0,0,5.33,1.79,8.45,8.45,0,0,0,5.38-1.79,5.12,5.12,0,0,0,2-4.12Z" fill="#231f20"/><path id="_Compound_Path_10" data-name="&lt;Compound Path&gt;" d="M196.61,177.66a7.36,7.36,0,0,1,2.81-6,10.44,10.44,0,0,1,6.89-2.15,10.69,10.69,0,0,1,6.95,2.15q2.63,2.21,2.75,6.8.12,8-6.17,8h-8.38a2.52,2.52,0,0,1-1.62-.48v6a3.6,3.6,0,0,0,2,3.34,8.69,8.69,0,0,0,3.53,1,11.16,11.16,0,0,0,3.65-.24,5.27,5.27,0,0,0,2.52-1.13,2.26,2.26,0,0,0,.72-.66,1.52,1.52,0,0,1,1.91-.24l1.62.78a5.57,5.57,0,0,1-1.32,1.73,9.83,9.83,0,0,1-3.71,2.2,13.35,13.35,0,0,1-4.37.72,16.93,16.93,0,0,1-1.8-.09c-.56-.06-1.11-.13-1.67-.21a9.9,9.9,0,0,1-3.12-1.37,6.17,6.17,0,0,1-2.39-2.8,8.65,8.65,0,0,1-.84-3.7Zm12.87,5.67a3,3,0,0,0,3.18-2.15,8.62,8.62,0,0,0,.09-1.16c0-.58,0-1.36,0-2.36a4.45,4.45,0,0,0-1.5-3.63,7.82,7.82,0,0,0-5-1.38A8,8,0,0,0,201.4,174a4.37,4.37,0,0,0-1.56,3.63v5.67Z" fill="#231f20"/></g></svg>