<svg xmlns="http://www.w3.org/2000/svg" viewBox="0 0 100.2 111.88"><title>logo_9</title><g id="Calque_1" data-name="Calque 1"><rect width="100.19" height="88.94" fill="#46ae4d"/><path d="M100.22,86.3H98A10.48,10.48,0,0,1,87.5,75.73s.56-9.27-6.58-15.29c-4.64-4-31.33-26.79-46.44-39.77V34.39l39,33.56a10.76,10.76,0,0,1,3.34,7.79,10.61,10.61,0,0,1-21.23,0s1.11-8.9-7.23-15.94c-2.69-2.22-8.53-7.32-13.9-12v14l7.32,6.12a10.77,10.77,0,0,1,3.34,7.79A10.64,10.64,0,0,1,34.48,86.3V97.14h.09A21.22,21.22,0,0,0,50.43,90a21.18,21.18,0,0,0,31.8-.09,21.5,21.5,0,0,0,15.94,7.23h2.05ZM13.26,0V75.73A10.67,10.67,0,0,1,8,84.91V96.4a21.67,21.67,0,0,0,10.66-6.58,21.24,21.24,0,0,0,15.85,7.32V86.3h0A10.56,10.56,0,0,1,23.92,75.73v-23l10.57,9.08v-14c-5.56-4.91-10.57-9.27-10.57-9.27V25.31l10.57,9.08V20.67c-6.3-5.38-10.57-9.08-10.57-9.08V0ZM0,97.14H2.6A20.89,20.89,0,0,0,8,96.4V84.91A10.47,10.47,0,0,1,2.69,86.3H0Z" fill="#2977b5"/><path d="M99.92,105.58c-.18-2.5-2.22-2.87-4-2.87-2.78,0-3.52,1.58-3.52,2.87,0,3.24,5.47,2.13,5.47,3.61,0,.37-.28.93-1.48.93-1.48,0-1.94-.56-1.94-1.3H92c.09,2.32,2.22,3.06,4.26,3.06,1.39,0,3.89-.46,3.89-3.06,0-3.15-5.56-2.22-5.56-3.52,0-.46.19-.93,1.48-.93s1.48.65,1.57,1.21Z" fill="#2977b5"/><path d="M3.62,100.57H1.2v2.32H0v1.67H1.2v5.28c0,1.11.37,1.85,2.41,1.85H5v-1.76H4.54c-.93,0-.93-.19-.93-.65v-4.73H5v-1.67H3.62Z" fill="#2977b5"/><path d="M6.12,111.6H8.53v-4.54c0-.93.28-2,2.13-2h.65V102.7h-.46a2.58,2.58,0,0,0-2.41,1.67h0v-1.48H6.12Z" fill="#2977b5"/><path d="M21,107.25a4.27,4.27,0,0,0-4.54-4.54v1.86c1.76,0,2.13,1.57,2.13,2.69s-.37,2.69-2.13,2.69v1.95A4.35,4.35,0,0,0,21,107.25Zm-4.54-4.54a4.29,4.29,0,0,0-4.63,4.54,4.37,4.37,0,0,0,4.63,4.64v-1.95c-1.85,0-2.23-1.58-2.23-2.69s.37-2.69,2.23-2.69Z" fill="#2977b5"/><path d="M22,102.89v8.71h2.32v-8.71Zm2.32-3.15H22v2.13h2.32Z" fill="#2977b5"/><path d="M33,105.58c-.19-2.5-2.22-2.87-4-2.87-2.78,0-3.62,1.58-3.62,2.87,0,3.24,5.56,2.13,5.56,3.61,0,.37-.28.93-1.48.93-1.48,0-1.95-.56-1.95-1.3H25.12c0,2.32,2.23,3.06,4.26,3.06,1.39,0,3.89-.46,3.89-3.06,0-3.15-5.56-2.22-5.56-3.52,0-.46.18-.93,1.39-.93s1.48.65,1.58,1.21Z" fill="#2977b5"/><rect x="35.41" y="105.95" width="7.14" height="2.13" fill="#2977b5"/><path d="M44.86,111.6h2.41v-4.54c0-.93.28-2,2.13-2H50V102.7h-.37a2.58,2.58,0,0,0-2.41,1.67h0v-1.48H44.86v8.71Z" fill="#2977b5"/><path d="M51.08,102.89v8.71h2.32v-8.71Zm2.32-3.15H51.08v2.13h2.32Z" fill="#2977b5"/><polygon points="63.49 102.89 60.99 102.89 59.05 109.29 59.05 109.29 57.19 102.89 54.6 102.89 57.75 111.6 60.25 111.6 63.49 102.89" fill="#2977b5"/><path d="M64.61,102.89v8.71H67v-8.71ZM67,99.74H64.61v2.13H67Z" fill="#2977b5"/><path d="M74,109a1.51,1.51,0,0,1-1.48,1h-.28v1.76a.34.34,0,0,0,.28.09A3.92,3.92,0,0,0,76.38,109H74Zm-1.76-1.11h4.26v-.46c0-4-2.41-4.73-4.17-4.73h-.09v1.86h.09a1.76,1.76,0,0,1,1.76,1.85H72.21Zm0,2.13c-1.67-.09-1.76-1.48-1.85-2.13h1.85v-1.48H70.45c.09-1.21.74-1.85,1.76-1.85V102.7c-3.8,0-4.17,3.34-4.17,4.36,0,3.52,1.85,4.73,4.17,4.73Z" fill="#2977b5"/><path d="M77.49,111.6h2.32v-4.54c0-.93.37-2,2.22-2h.65V102.7h-.46a2.58,2.58,0,0,0-2.41,1.67h-.09v-1.48H77.49v8.71Z" fill="#2977b5"/><path d="M88.89,109a1.5,1.5,0,0,1-1.48,1h-.19v1.76c.09.09.09.09.19.09A3.85,3.85,0,0,0,91.3,109H88.89Zm-1.67-1.11H91.4v-.46c0-4-2.41-4.73-4.17-4.73h0v1.86h0A1.76,1.76,0,0,1,89,106.41H87.23Zm0,2.13a1.91,1.91,0,0,1-1.86-2.13h1.86v-1.48H85.37c.19-1.21.74-1.85,1.86-1.85V102.7A4.06,4.06,0,0,0,83,107.06c0,3.52,1.86,4.73,4.27,4.73Z" fill="#2977b5"/><rect x="69.8" y="99.74" width="4.73" height="2.13" fill="#2977b5"/></g></svg>