<svg id="Layer_1" data-name="Layer 1" xmlns="http://www.w3.org/2000/svg" viewBox="0 0 106.84 27.45"><title>logo_5</title><path d="M15.92,1.2c.28,0,.24.22.08.28L12.22,2.83a18.69,18.69,0,0,1,6.1,1.07l2.37-1.75c.56-.47,0-1-.74-1.14A36.67,36.67,0,0,0,8.3,1.07a46.21,46.21,0,0,1,7.62.13" fill="#002f87"/><path d="M9.11,6.54c-6,4.49,4.9,7.71,20.09,5.2-20,1.38-15.83-3.79-14-5.44A30.56,30.56,0,0,0,7.39,4.54l-2.51.9C-5.2,8.84.34,21,36.69,11.77,8.94,17.05,1.58,10.71,9.11,6.54" fill="#002f87"/><path d="M24.51,1.66c0-1.09-.3-1.13-2-1.39V0l5.52,0c2.38,0,4.35.47,4.34,2.72,0,1.78-1.67,2.35-3.38,2.53L33,10.54H31L27.17,5.35h-1l0,5.17h-1.7l0-8.85M26.2,4.74h.53c1.38,0,3.76,0,3.77-2.17,0-1.48-1.38-1.94-2.9-1.94-1.31,0-1.39.12-1.39,1Z" fill="#002f87"/><path d="M39.29,10.44a7.57,7.57,0,0,1-2.2.3c-2.6,0-4.12-1.55-4.11-4.37,0-2.43,1-3.87,3.58-3.86a2.73,2.73,0,0,1,3,3v.25l-5.17,0v.36c0,1.64,1.22,4,3.69,4a5.18,5.18,0,0,0,1.25-.2v.56M38,5a1.68,1.68,0,0,0-1.66-1.81,1.92,1.92,0,0,0-2,2H38Z" fill="#002f87"/><path d="M41.33,4.34c0-1.07-.87-1.09-1.39-1.14V2.91l2.77-.37V3.82h0a2.37,2.37,0,0,1,2.13-1.28c2.24,0,3.25,1.75,3.24,4.1s-.87,4.13-3.17,4.12a2.36,2.36,0,0,1-2.22-1.34h0v4.74H41.3l0-9.82m1.36,2.75c0,1.13.43,3,2,3S46.6,8,46.6,6.67s-.32-3.47-2-3.47c-1.22,0-1.95,1.43-2,2.68Z" fill="#002f87"/><path d="M55.66,10.5a7.71,7.71,0,0,1-2.2.29c-2.6,0-4.12-1.55-4.11-4.37,0-2.43,1-3.86,3.58-3.85a2.72,2.72,0,0,1,3,2.95v.25l-5.17,0v.36c0,1.64,1.22,4,3.69,4a5.18,5.18,0,0,0,1.25-.2v.56M54.35,5A1.68,1.68,0,0,0,52.7,3.23a1.93,1.93,0,0,0-2,1.95h3.61Z" fill="#002f87"/><path d="M58.18,4.39c0-1-.83-1.06-1.35-1.11V3l2.72-.4V4.84h0a3.42,3.42,0,0,1,3-2.24c1.72,0,2.1.84,2.1,2l0,6H63.25l0-5.45c0-.91,0-1.76-1.23-1.76S59.53,5.5,59.53,6.61v4H58.16Z" fill="#002f87"/><path d="M70.49,10.75a4.94,4.94,0,0,1-1,.1c-2.37,0-2.53-.8-2.52-2.39V3.38H65.61V2.8H67V1.37L68.33.24V2.81h2.19v.57H68.34l0,5.56c0,1,.63,1.24,1.5,1.24a3.82,3.82,0,0,0,.68-.07Z" fill="#002f87"/><path d="M72.67,4.44c0-1-.83-1.06-1.33-1.11V3L74,2.64l0,8H72.64l0-6.23M72.29,1a1,1,0,0,1,1-.95,1,1,0,0,1,1,1,1,1,0,0,1-1,1,1,1,0,0,1-1-.95" fill="#002f87"/><path d="M82.34,10.93c0,1.75-.57,3.22-3.48,3.21-2.53,0-3.21-1-3.25-2h1.63c.12.66.4,1.37,1.89,1.37C81,13.49,81,11.75,81,10.71V9.46h0a2.43,2.43,0,0,1-2.22,1.23c-2.17,0-3.27-1.73-3.26-4s.92-4.07,3.34-4.06A2.41,2.41,0,0,1,81,3.94h0V2.85H83.7v.29c-.46.05-1.33.08-1.33,1.13l0,6.65M81,6.42c0-1.1-.22-3.09-2-3.1s-2,2.09-2,3.52S77.36,10,79.09,10c1.28,0,1.9-1.5,1.9-2.8Z" fill="#002f87"/><path d="M85.58,4.49c0-1-.83-1.06-1.34-1.12V3.08L87,2.69V4.93h0a3.38,3.38,0,0,1,3-2.23c1.72,0,2.11.83,2.11,2l0,6H90.66l0-5.46c0-.91,0-1.75-1.23-1.75S86.94,5.59,86.93,6.7v4H85.56Z" fill="#002f87"/><path d="M97.88,11.16c-.75,1.86-1.22,3-2.88,3a2.17,2.17,0,0,1-2.35-2.07h1.54c0,.44.23,1.4,1.06,1.41s1-.74,1.62-2.19l.23-.59L94.5,4.81c-.47-1.1-.66-1.54-1.85-1.63V2.89h2.53L97.8,9l2.43-6.1h.93Z" fill="#002f87"/><path d="M0,4.67c8.51-2.6,17.16-3,22,1.34a23.5,23.5,0,0,0-8.06-1.85c5.43,2.11,6.74,4.93,6.74,4.93C12.89,4.44,5.89,4.16,0,4.67" fill="#789904"/><path d="M54.37,21.39a1.23,1.23,0,0,0,.73-1.17,1,1,0,0,0-.23-.59,5.7,5.7,0,0,0-1-.86l-1.33-.92a5.13,5.13,0,0,1-1.14-1,1.77,1.77,0,0,1-.44-1,2,2,0,0,1,.51-1.32,4.84,4.84,0,0,1,1.45-1.13,8.55,8.55,0,0,1,3.2-.83,3.61,3.61,0,0,1,1.52.28,1.1,1.1,0,0,1,.67.94,1.62,1.62,0,0,1-.42,1l-.7.77a.22.22,0,0,1-.21.05L56,15.26a.2.2,0,0,1-.13-.16.21.21,0,0,1,.07-.21l.75-.63c.35-.36.42-.58.41-.69a.35.35,0,0,0-.23-.33,1.31,1.31,0,0,0-.87-.12,6.16,6.16,0,0,0-2.41.64,3.11,3.11,0,0,0-1.09.81,1.16,1.16,0,0,0-.33.8.93.93,0,0,0,.24.55,3,3,0,0,0,.81.7l1.85,1.23a3.93,3.93,0,0,1,1,.93,2,2,0,0,1,.37,1.06,2.13,2.13,0,0,1-1.22,2,7.47,7.47,0,0,1-3,.78,11.56,11.56,0,0,1-1.77-.06,16.2,16.2,0,0,1-2.25-.36.21.21,0,0,1-.16-.13.23.23,0,0,1,.05-.21l.64-.78A.22.22,0,0,1,49,21a8.41,8.41,0,0,0,2,.76A4.83,4.83,0,0,0,54.37,21.39Z" fill="#789904"/><path d="M64.05,15.49a.44.44,0,0,1-.32.44l-1.55.54a.82.82,0,0,0-.22.15.7.7,0,0,1-.2.12.31.31,0,0,1-.29-.29c0-.12.1-.22.28-.3a7.55,7.55,0,0,0,1.12-.64c.08,0,.19-.14.33-.25a.76.76,0,0,1,.4-.21A.39.39,0,0,1,64.05,15.49Z" fill="#789904"/><path d="M99.63,15.87a.65.65,0,0,1,.67-.63.66.66,0,0,1,.66.64.63.63,0,0,1-.66.63.65.65,0,0,1-.67-.64" fill="#789904"/><path d="M63,21.1l.12.2a6.59,6.59,0,0,1-1.41.92,3.18,3.18,0,0,1-1.3.3,1.67,1.67,0,0,1-1.24-.43,1.76,1.76,0,0,1-.43-1.27,3.08,3.08,0,0,1,1.12-2.26,3.47,3.47,0,0,1,2.45-1.06,1.58,1.58,0,0,1,1.06.33,1.08,1.08,0,0,1,.38.89,1.65,1.65,0,0,1-.92,1.34A10.14,10.14,0,0,1,60,21.13a1,1,0,0,0,.23.69.86.86,0,0,0,.64.23,2.63,2.63,0,0,0,1-.24A5.94,5.94,0,0,0,63,21.1Zm-3-.31a5,5,0,0,0,2.1-.92,1.81,1.81,0,0,0,.8-1.39.7.7,0,0,0-.14-.49.55.55,0,0,0-.43-.17,1.84,1.84,0,0,0-1.35.83A5.23,5.23,0,0,0,60,20.79Z" fill="#789904"/><path d="M64,27.32l-1.21.13,2.48-9.63,1.4-.25-1.33,4.57a13.39,13.39,0,0,1,1.92-3.45,2.65,2.65,0,0,1,1.92-1.19,1.13,1.13,0,0,1,.88.37,1.37,1.37,0,0,1,.33.94,3.65,3.65,0,0,1-1.08,2.51,3.19,3.19,0,0,1-2.38,1.17,1.82,1.82,0,0,1-.38,0,1.32,1.32,0,0,1-.44-.18l.1-.36.15.05a2.45,2.45,0,0,0,.69.18c.48,0,.94-.34,1.36-1A4.33,4.33,0,0,0,69,18.83a.77.77,0,0,0-.12-.48.44.44,0,0,0-.37-.15q-.92,0-2.22,2.55A32.05,32.05,0,0,0,64,27.32Z" fill="#789904"/><path d="M75.33,19.49a8.06,8.06,0,0,1-1.55,2.27,2.31,2.31,0,0,1-1.61.73,1.31,1.31,0,0,1-1-.37,1.46,1.46,0,0,1-.35-1,3.37,3.37,0,0,1,1.21-2.52,4,4,0,0,1,2.77-1.12l.38,0,.33.07-.19.57a3.41,3.41,0,0,0-.45-.24,1.06,1.06,0,0,0-.38-.07c-.5,0-1,.36-1.55,1.09a3.67,3.67,0,0,0-.79,2.16,1,1,0,0,0,.16.58.54.54,0,0,0,.47.21c.42,0,.87-.31,1.33-.94a20.74,20.74,0,0,0,1.75-3.27l1.36-.08L76,21.19c0,.12-.08.23-.1.32a1,1,0,0,0,0,.21.22.22,0,0,0,.08.2.32.32,0,0,0,.23.07,1.12,1.12,0,0,0,.56-.22,9.16,9.16,0,0,0,1.1-.91l.13.23a8.06,8.06,0,0,1-1.35,1.11,2.24,2.24,0,0,1-1,.29,1,1,0,0,1-.67-.21.79.79,0,0,1-.24-.63,3.16,3.16,0,0,1,.16-.69v0Z" fill="#789904"/><path d="M79.41,22.46H78.13l1.21-4.64,1.5-.22-1,3.18a11.4,11.4,0,0,1,1.61-2.48,2.1,2.1,0,0,1,1.5-.73,1.11,1.11,0,0,1,.77.26.84.84,0,0,1,.29.68A2.49,2.49,0,0,1,84,19a5.5,5.5,0,0,1-.21.69L83.35,21a4.75,4.75,0,0,0-.15.52,1.67,1.67,0,0,0-.06.35.21.21,0,0,0,.07.17.24.24,0,0,0,.18.07A1.2,1.2,0,0,0,84,21.8a6.51,6.51,0,0,0,1-.93l.2.19a6.93,6.93,0,0,1-1.32,1.19,2.07,2.07,0,0,1-1,.3,1.06,1.06,0,0,1-.71-.21.78.78,0,0,1-.24-.63,1.58,1.58,0,0,1,0-.28q0-.16.12-.48l.47-1.53c.09-.29.14-.5.17-.62a1.53,1.53,0,0,0,0-.3.41.41,0,0,0-.1-.27.37.37,0,0,0-.27-.1q-.54,0-1.32,1.14A17.91,17.91,0,0,0,79.41,22.46Z" fill="#789904"/><path d="M85.58,20.58a2.87,2.87,0,0,1,1-2.09,3.25,3.25,0,0,1,2.3-.95,1.92,1.92,0,0,1,1.41.54,1.9,1.9,0,0,1,.54,1.4,2.86,2.86,0,0,1-1,2.07,3,3,0,0,1-2.17.94A2.27,2.27,0,0,1,86.13,22,1.82,1.82,0,0,1,85.58,20.58Zm3.32-2.76a1.12,1.12,0,0,0-.53.12,1.51,1.51,0,0,0-.44.41,5.37,5.37,0,0,0-.77,1.47,4.38,4.38,0,0,0-.31,1.52,1,1,0,0,0,.2.63.66.66,0,0,0,.53.24q.73,0,1.38-1.17a5.06,5.06,0,0,0,.64-2.5.76.76,0,0,0-.2-.51A.67.67,0,0,0,88.9,17.82Z" fill="#789904"/><path d="M92.28,17.78l1.47-.21-1.13,3.61c0,.09-.05.19-.08.29a1.29,1.29,0,0,0,0,.24.2.2,0,0,0,.09.17.27.27,0,0,0,.2.07c.41,0,.89-.4,1.43-1.2a11.89,11.89,0,0,0,1.43-3.15H97L96,21.49a1.67,1.67,0,0,0,0,.18,1,1,0,0,0,0,.16.21.21,0,0,0,.06.17.26.26,0,0,0,.18.05,1.09,1.09,0,0,0,.48-.21c.22-.14.74-.58,1.08-.85l.13.22a8.6,8.6,0,0,1-1.33,1.06,2,2,0,0,1-1,.25,1,1,0,0,1-.63-.18.71.71,0,0,1-.22-.56,1.65,1.65,0,0,1,0-.21l.09-.37.46-1.72a8.09,8.09,0,0,1-1.41,2.25,2.13,2.13,0,0,1-1.51.79,1.29,1.29,0,0,1-.85-.24.87.87,0,0,1-.3-.73,1.54,1.54,0,0,1,.06-.38c0-.16.1-.37.19-.63Z" fill="#789904"/><path d="M99.26,17.61l1.34-.13-1,3.85a1,1,0,0,0,0,.26c0,.08,0,.15,0,.2a.32.32,0,0,0,.07.22.27.27,0,0,0,.19.08,1.31,1.31,0,0,0,.59-.28,6.85,6.85,0,0,0,1-.95l.22.2a6.93,6.93,0,0,1-1.35,1.18,2.11,2.11,0,0,1-1,.31,1.07,1.07,0,0,1-.71-.21.76.76,0,0,1-.24-.62,4.08,4.08,0,0,1,.11-.6,1.18,1.18,0,0,1,0-.18Z" fill="#789904"/><path d="M101.59,22.46l1.21-4.6,1.3-.23-.87,3a11,11,0,0,1,1.57-2.32,2,2,0,0,1,1.36-.78.59.59,0,0,1,.51.22,1.09,1.09,0,0,1,.17.66,2.68,2.68,0,0,1,0,.46c0,.17-.07.37-.13.6l-1,.17v-.06a7.94,7.94,0,0,0,.2-1.1.41.41,0,0,0-.06-.23.18.18,0,0,0-.15-.09c-.33,0-.77.39-1.3,1.16a16,16,0,0,0-1.61,3.1Z" fill="#789904"/><path d="M60.35,13.69A.37.37,0,0,0,60,13.6a.75.75,0,0,0-.57.48,4.09,4.09,0,0,1-1,1.7c-.2.23-.28.32-.24.41a.23.23,0,0,0,.14.07c.47,0,1.63-1.15,2.1-2.16A.38.38,0,0,0,60.35,13.69Z" fill="#789904"/></svg>