<svg id="Layer_1" data-name="Layer 1" xmlns="http://www.w3.org/2000/svg" viewBox="0 0 100 77.51"><title>logo_8</title><path d="M32.46,42.39,32.4,45C32.43,44.19,32.48,43.3,32.46,42.39Z" fill="#555759"/><path d="M15,62.69a5.26,5.26,0,0,1-1.63,2.7,8.05,8.05,0,0,1-5.84,2C3.07,67.35,0,65,0,60.68c0-4.7,3.74-6.6,7.68-6.6,1.43,0,5.53.32,7.15,3.88l-3.43.42a4.1,4.1,0,0,0-3.73-2,4.17,4.17,0,0,0-4.43,4.34,4.3,4.3,0,0,0,4.5,4.34,4,4,0,0,0,3.94-2.35Z" fill="#545658"/><path d="M24.6,54.46H21.22l-6,12.46h3.41l1.05-2.35h6.39l1.06,2.35h3.5Zm-3.92,7.91,1.89-4.15c.07-.15.12-.31.19-.48s.07-.28.12-.44a1.9,1.9,0,0,0,.11.49,2.63,2.63,0,0,0,.21.5l1.85,4.07Z" fill="#545658"/><path d="M32.41,54.46h3.11l6.11,6.94c.74.87.88,1,1.66,2-.11-1.18-.11-1.5-.12-2.58V54.46h3V66.93H43.05l-6.18-7c-.65-.76-.92-1.08-1.61-2,.09,1,.09,1.17.11,2.12v6.87h-3Z" fill="#545658"/><path d="M56.84,54.53c-.46-.05-.92-.05-1.38-.07H48.65V66.93h6.43c1.89,0,4.24,0,6-2.31a6.56,6.56,0,0,0,1.22-4C62.28,57.41,60.48,54.87,56.84,54.53Zm1.57,9c-.83,1.18-2.1,1.2-3.21,1.21H51.76V56.67h3.6c1.08,0,2.38,0,3.2,1.32a4.71,4.71,0,0,1,.62,2.56A4.84,4.84,0,0,1,58.41,63.51Z" fill="#545658"/><rect x="64.36" y="54.46" width="3.12" height="12.46" fill="#545658"/><path d="M78.7,54.46H75.33l-6,12.46h3.41l1.06-2.35h6.39l1.06,2.35h3.5Zm-3.91,7.91,1.88-4.15c.07-.15.13-.31.19-.48a3.86,3.86,0,0,1,.13-.44,2.13,2.13,0,0,0,.1.49,3.5,3.5,0,0,0,.21.5l1.86,4.07Z" fill="#545658"/><path d="M99.86,62.69a5.23,5.23,0,0,1-1.62,2.7,8,8,0,0,1-5.84,2c-4.43,0-7.5-2.31-7.5-6.67,0-4.7,3.74-6.6,7.68-6.6,1.43,0,5.53.32,7.15,3.88l-3.43.42a4.09,4.09,0,0,0-3.72-2,4.17,4.17,0,0,0-4.43,4.34,4.3,4.3,0,0,0,4.5,4.34,4,4,0,0,0,3.94-2.35Z" fill="#545658"/><path d="M43.48,32.57l0,.07,0,.09,0-.09Z" fill="#f6c12b"/><path d="M44.31,23.64a.64.64,0,0,1,0-.29A.69.69,0,0,0,44.31,23.64Z" fill="#f6c12b"/><path d="M45.88,4a2.35,2.35,0,0,0-1.06.12l.07,0A2.14,2.14,0,0,1,45.88,4Z" fill="#f6c12b"/><path d="M46,8.8l0,0,0,0Z" fill="#f6c12b"/><path d="M46.31,9l-.06,0h0Z" fill="#f6c12b"/><path d="M46.31,24.38h0Z" fill="#f6c12b"/><path d="M67.33,17.47A5.26,5.26,0,0,1,67.1,19c-.56,2-4,.62-6.76,3-.95.81-1.2,1.35-1.11,1.7a.44.44,0,0,0,0,.12.52.52,0,0,0,.08.11l.05,0,.06,0,0,0,.08.05.09,0,.15.06a2.83,2.83,0,0,0,.49.12h.08l.14,0h.17l.36,0h.07c.43,0,1.66-.77,2.75,1.3l.11.26a1.32,1.32,0,0,1,.12.42.76.76,0,0,1,0,.09,1,1,0,0,1,0,.18.93.93,0,0,1-.06.14l0,.06-.09.13a3.58,3.58,0,0,1-1.25.86l-.28.13-.3.13-.46.18-.32.12-.32.12c-.61.22-1.24.43-1.8.65l-.25.1-.54.24-.24.12c-.64.34-1,.72-1,1.16v0l0,.09a.88.88,0,0,0,.1.2l0,.07.12.14.07.07.08.07a.71.71,0,0,1,.17.22l0,.06a.6.6,0,0,1,0,.19.56.56,0,0,1,0,.09.61.61,0,0,1,0,.09,1.27,1.27,0,0,1-.07.2l-.07.14-.06.1a3.54,3.54,0,0,1-.22.3l-.1.12-.3.33-.17.17-.18.18-.9.86,0,0-.19.18L51,39.07V48a5.1,5.1,0,0,0-.05.72h0l-1.6.4-.09,0-1.14.27.18-9.4-6.51-5.75h0l0,0c.19-.18.9-.75,1-.84h0a2.27,2.27,0,0,0,.46-.44l0-.06.05-.08.05-.08,0-.09,0-.07h0c.23-.49.21-.74-.7-1.19a1.1,1.1,0,0,1-.35-.25l0,0a.35.35,0,0,1-.06-.15c-.2-1.23,7.81-2.69,6.74-5l-.05-.1,0-.08-.08-.16-.08-.15-.06-.1-.07-.1-.06-.08-.06-.08,0,0-.13-.16-.1-.1-.08-.08-.13-.11a1.8,1.8,0,0,0-.37-.23l0,0-.21-.07-.13,0H47l-.14,0-.13,0-.12,0-.08,0-.07,0h-.24l-.43,0-.23,0-.16,0-.21,0-.2-.05-.16-.05-.21-.1L44.51,24l-.05,0a.54.54,0,0,1-.11-.17l0-.06v0a.19.19,0,0,1,0,0,.69.69,0,0,1,0-.29A1.39,1.39,0,0,1,44.5,23a3.66,3.66,0,0,1,.52-.63l.41-.38a6.29,6.29,0,0,1,.52-.4l.13-.08,0,0,.16-.1.21-.12.13-.07.14-.07.14-.06L47,21l.14-.06.61-.21.12,0,.28-.07.27-.06h0l.77-.14.33-.05.41-.07.2,0h0l.11,0,.11,0h0l.11,0,.09,0h0l.13,0,.12,0,.11,0,.07,0,.12,0h0l.15-.06.13-.07h0l.09-.05.07,0,.08-.06.11-.1.11-.13.09-.14.08-.16,0-.08,0-.09,0-.1,0-.1c.05-.2.09-.39.12-.58h0c0-.12,0-.24,0-.35s0-.22,0-.33,0-.13,0-.19a.21.21,0,0,0,0,0s0-.06,0-.08v-.15l0-.09,0-.1a1.09,1.09,0,0,0,0-.13l0,0,0-.06,0,0h0l0-.08-.07-.12,0-.07L52,16.29,52,16.22l-.06-.06-.12-.1h0L51.68,16l-.14-.08-.12-.06-.12-.05-.12,0h0l-.14,0-.19,0-.21,0h-.11l-.16,0-.53,0h-.6l-.13,0-.12,0-.1,0h0l-.09,0-.1,0-.07,0-.06,0-.06,0-.09-.07,0,0h0l0,0h0v-.07h0a.26.26,0,0,1,0-.06c0-.23.19-.57.65-1.08.24-.26.45-.49.65-.69l.06-.06.06-.06.06-.06L49.8,13l.21-.2.1-.09.18-.17.08-.08.15-.14a3.49,3.49,0,0,0,.46-.49l0-.06,0,0,0-.05,0,0v-.09a.81.81,0,0,0,0-.37c-.22-.77-.76-1.31-2.91-1.75L48,9.4l-.27-.05-.23,0h-.06l-.17,0-.22,0-.14,0-.17,0-.21-.05-.1,0-.09,0-.07,0-.09,0h0l-.1-.06L46,8.85l0-.06,0-.06,0,0,0-.06V8.57h0a.59.59,0,0,1,0-.08,1.39,1.39,0,0,1,.08-.41L46,8,46,7.84c.06-.16.15-.34.25-.55l.09-.17L46.43,7V7l.08-.15.29-.57L46.93,6c0-.07.06-.15.09-.21l0-.09,0-.09V5.54c.07-.32-.07-.56-.46-1.06a1.26,1.26,0,0,0-.16-.18,1,1,0,0,0-.41-.24L46,4l-.08,0a2.14,2.14,0,0,0-1,.09l-.07,0h0a8.61,8.61,0,0,1,.64-1.47c.5-.81,1.64.22,2.54-.11.67-.25,1.07-2.51,3-2.57,1.5,0,2,2.45,2.89,2.65s1.74-1.15,2.34.72a8.41,8.41,0,0,0,.55,1.21c.24.48,1.3.14,1.3.14.31-.08.76-.26.76-.26.71-.15,1.95-1,2.74,0,.65.83.65,1,.13,2-.15.26-.31.56-.49.92a1.72,1.72,0,0,0-.1.24h0c0,.1-.09.19-.12.28l0,.12a1.78,1.78,0,0,0-.1.39v0s0,0,0,.06a.68.68,0,0,0,0,.08.54.54,0,0,0,0,.08.46.46,0,0,0,.06.13l0,.06,0,0,.11.08.07,0,.09,0h0l.08,0,.11,0,.12,0,.08,0,.16,0,.11,0,.21,0,1,.19c2.14.44,2.69,1,2.91,1.75a.81.81,0,0,1,0,.37v0a.75.75,0,0,1-.13.26l0,0h0l-.06.07c-.09.1-.21.21-.35.35l-.15.14-.08.08h0l-.18.17-.1.09-.1.1-.11.1-.11.11-.12.12-.12.12,0,0-.19.2-.15.16-.05.06-.11.12-.16.18h0l-.14.16h0l-.11.15h0l0,.07-.08.13-.06.12,0,.06,0,.05v0a.26.26,0,0,0,0,.05.43.43,0,0,0,0,0h0a.32.32,0,0,0,0,.07l0,.05h0v0h0l0,0,0,.05.09.07.18.08.1,0,.09,0h0l.22,0,.55,0,.21,0a8.19,8.19,0,0,1,1,.11l.19,0,.35.12a1.8,1.8,0,0,1,.3.16,1.46,1.46,0,0,1,.25.2l.07.08,0,0a1.62,1.62,0,0,1,.31.63l0,.13,0,.08v.15s0,.08,0,.12A.81.81,0,0,1,67.33,17.47Z" fill="#f6c12b"/><path d="M63.53,14.26l-.11.15Z" fill="#f6c12b"/><path d="M63.67,14.1l-.14.16Z" fill="#f6c12b"/><path d="M63.94,13.8l-.1.12-.16.18.16-.18Z" fill="#f6c12b"/><path d="M80.86,19c-.56,2-4,.62-6.76,3s.34,2.36.79,2.37a2,2,0,0,1,2.45.8,5.08,5.08,0,0,1,.43.77c1.19,2.58-9,4.1-6.31,5.42,1.81.91.52,2.14,0,2.55a7.91,7.91,0,0,0-2.67,2.35c-2.32,3-1.51,4.89-1.5,7.71l-.57.17h0l-2.24.65-.1-4-2.95-3.7-2,2-3.88-4.38.19-.18,0,0,.9-.86.18-.18L57,33.3l.3-.33.1-.12a3.54,3.54,0,0,0,.22-.3l.06-.1.07-.14a1.27,1.27,0,0,0,.07-.2.61.61,0,0,0,0-.09.56.56,0,0,0,0-.09.6.6,0,0,0,0-.19l0-.06a.71.71,0,0,0-.17-.22l-.08-.07-.07-.07-.12-.14,0-.07a.88.88,0,0,1-.1-.2l0-.09v0c-.08-.44.31-.82,1-1.16l.24-.12.54-.24.25-.1c.56-.22,1.19-.43,1.8-.65l.32-.12.32-.12.46-.18.3-.13.28-.13A3.58,3.58,0,0,0,63.87,27l.09-.13,0-.06a.93.93,0,0,0,.06-.14.88.88,0,0,0,0-.18.76.76,0,0,0,0-.09A1,1,0,0,0,64,26l-.13-.27c-1.08-2.07-2.31-1.29-2.75-1.3h-.07l-.36,0h-.17l-.14,0H60.3a2.83,2.83,0,0,1-.49-.12l-.15-.06-.09,0L59.5,24l0,0-.06,0-.05,0a.52.52,0,0,1-.08-.11.44.44,0,0,1,0-.12c-.09-.35.16-.88,1.11-1.7,2.75-2.36,6.2-1,6.76-3a5.26,5.26,0,0,0,.24-1.56.81.81,0,0,0,0-.09s0-.08,0-.12v-.15l0-.08,0-.13a1.62,1.62,0,0,0-.31-.63l0,0-.07-.08a1.46,1.46,0,0,0-.25-.2,1.8,1.8,0,0,0-.3-.16l-.35-.12-.19,0a8.19,8.19,0,0,0-1-.11l-.21,0-.55,0-.22,0h0l-.09,0-.1,0-.18-.08-.09-.07,0-.05,0,0h0v0h0l0-.05a.32.32,0,0,1,0-.07h0a.43.43,0,0,1,0,0,.26.26,0,0,1,0-.05v0l0-.05,0-.06.06-.12.08-.13,0-.07h0l.11-.15h0l.14-.16h0l.16-.18.1-.12.05-.06.15-.16.19-.2,0,0,.12-.12.12-.12.11-.11.11-.1.1-.1.1-.09.18-.17h0l.08-.08.15-.14c.14-.13.26-.25.35-.35l.06-.07h0l0,0a.75.75,0,0,0,.13-.26v0a.81.81,0,0,0,0-.37c-.22-.77-.76-1.31-2.91-1.75l-1-.19-.21,0-.11,0-.16,0-.08,0-.12,0-.11,0L61.2,9h0L61.1,9l-.07,0-.11-.08,0,0,0-.06a.46.46,0,0,1-.06-.13l0-.08a.7.7,0,0,1,0-.08s0,0,0-.06v0a1.78,1.78,0,0,1,.1-.39l0-.12c0-.09.07-.18.12-.28h0l.14-.29.46-.88c.52-1,.52-1.13-.13-2-.79-1-2-.13-2.74,0l0-.09c.09-.2.11-.51.24-.94.62-2.05,2.12-.46,2.89-.85S63.06,0,64.76,0s2.12,2.2,2.89,2.59,1.91-1.2,2.53.85.88,1.16,1.58,1,2-1.06,2.78,0,.62,1-.32,2.84S74.69,9,76.84,9.43s2.69,1,2.91,1.75-.42.82-2.16,2.74.42,1.44,1.91,1.73S81.42,17,80.86,19Z" fill="#f38b00"/><path d="M63.42,14.41l.11-.15Z" fill="#f38b00"/><path d="M63.53,14.26l.14-.16Z" fill="#f38b00"/><path d="M63.94,13.8l-.1.12-.16.18.16-.18Z" fill="#f38b00"/><path d="M52.43,17.56q0,.16,0,.33c0,.11,0,.23,0,.35h0c0,.18-.07.37-.12.58l0,.1,0,.1,0,.09,0,.08-.08.16-.09.14-.11.13-.11.1-.08.06-.07,0-.09.05h0l-.13.07-.15.06h0l-.12,0-.07,0-.11,0-.12,0-.13,0h0l-.09,0-.11,0h0l-.11,0-.11,0h0l-.2,0-.41.07-.33.05-.77.14h0l-.27.06-.28.07-.12,0-.61.21L47,21l-.14.06-.14.06-.14.07-.13.07-.21.12-.16.1,0,0-.13.08a6.29,6.29,0,0,0-.52.4l-.41.38a3.66,3.66,0,0,0-.52.63,1.39,1.39,0,0,0-.16.34.64.64,0,0,0,0,.29.19.19,0,0,0,0,0v0l0,.06a.54.54,0,0,0,.11.17l.05,0,.12.08.21.1.16.05.2.05.21,0,.16,0,.23,0,.43,0h.24l.07,0,.08,0,.12,0,.13,0,.14,0h.4l.13,0,.21.07,0,0a1.8,1.8,0,0,1,.37.23l.13.11.08.08.1.1.13.16,0,0,.06.08.06.08.07.1.06.1.08.15.08.16,0,.08.05.1c1.07,2.3-6.94,3.77-6.74,5a.35.35,0,0,0,.06.15l0,0a1.1,1.1,0,0,0,.35.25c.91.46.93.71.7,1.19h0l0,.07,0,.09-.05.08-.05.08,0,.06a2.27,2.27,0,0,1-.46.44h0c-.1.08-.82.66-1,.84l0,0h0v0L39.38,36.4V35.24h-2v2.93l-2.21,2.07-.07,9.13h0l0,0a6.68,6.68,0,0,1-1.09-.7,6.16,6.16,0,0,1-.62-.68h0l0,0a6.49,6.49,0,0,1-.94-1.71v0c0-.09,0-.18,0-.28s0-.32,0-.49l0-.41c0-.81.08-1.71.06-2.61h0c0-2.26-.49-4.57-2.53-5.74-7-4-.89-3.24-.4-5,.41-1.44-5.29-3-4.59-5.71.75-3,2.43-2,2.88-2s3.53.41.79-2-6.11-1-6.67-3,.09-3.55,1.58-3.83,3.65.63,1.91-1.29-2.38-2-2.16-2.74S24,9.87,26.18,9.43s2.91-.29,1.9-2.13c-.52-.93-1.35-1.67-.54-2.7S29,4.27,29.6,4.48s1.17,1,1.8-1,2.12-.46,2.89-.85S35.47,0,37.17,0,39.23,2.19,40,2.59s1.94-1.19,2.53.78a4.27,4.27,0,0,0,.39,1c.29.47.48.41.78.29s.31-.18.42-.21l.66-.25h0A2.35,2.35,0,0,1,45.88,4L46,4l.09,0a1.16,1.16,0,0,1,.41.24l.13.15c.39.51.55.75.49,1.09v.07l0,.09,0,.09c0,.06-.05.14-.09.21l-.12.25-.29.57L46.44,7V7l-.07.14-.09.17c-.1.21-.19.39-.25.55L46,8l0,.07a1.39,1.39,0,0,0-.08.41.59.59,0,0,0,0,.08h0v.06l0,.06,0,0,0,0,0,0,0,.06.08.07.1.06h.06l.06,0,.07,0,.09,0,.1,0,.21.05.17,0,.14,0,.22,0,.17,0h.06l.23,0L48,9.4l.14,0c2.15.44,2.69,1,2.91,1.75a.81.81,0,0,1,0,.37v.09l0,0,0,.05,0,0,0,.06a3.49,3.49,0,0,1-.46.49l-.15.14-.08.08-.18.17-.1.09-.21.2-.05.05-.06.06-.06.06-.06.06c-.2.2-.41.42-.65.69-.46.51-.65.85-.65,1.08a.26.26,0,0,0,0,.06h0v.07h0l0,0h0l0,0,.09.07.06,0,.06,0,.07,0,.1,0,.09,0h0l.1,0,.12,0,.13,0h.6l.53,0,.16,0h.11l.21,0,.19,0,.14,0h0l.12,0,.12.05.12.06.14.08.13.09h0l.12.1.06.06.06.07.05.07,0,.07.07.12,0,.08h0l0,0,0,.06,0,0a1.09,1.09,0,0,1,0,.13l0,.1,0,.09v.15s0,.05,0,.08a.21.21,0,0,1,0,0C52.42,17.44,52.43,17.5,52.43,17.56Z" fill="#e70"/><path d="M43.48,32.57l0,.07,0,.09,0-.09Z" fill="#e70"/><path d="M44.31,23.64a.64.64,0,0,1,0-.29A.69.69,0,0,0,44.31,23.64Z" fill="#e70"/><path d="M45.88,4a2.35,2.35,0,0,0-1.06.12l.07,0A2.14,2.14,0,0,1,45.88,4Z" fill="#e70"/><path d="M46,8.8l0,0,0,0Z" fill="#e70"/><path d="M46.31,24.38h0Z" fill="#e70"/><path d="M46.31,9l-.06,0h0Z" fill="#e70"/><path d="M.48,77.38l.84-4.8H2.2l-.1.59a1.64,1.64,0,0,1,1.4-.67,1,1,0,0,1,1.14.82,1.7,1.7,0,0,1,1.47-.82c1,0,1.4.63,1.18,1.83L7,76.26c-.06.32,0,.44.23.44a.77.77,0,0,0,.43-.17l-.07.73a1.54,1.54,0,0,1-.79.21c-.59,0-.84-.29-.72-1l.35-2c.14-.8-.08-1.16-.68-1.16s-.81.35-1.06.85a.71.71,0,0,1,0,.14L4.1,77.38H3.22l.5-2.89c.15-.8-.13-1.16-.68-1.16a1.29,1.29,0,0,0-1.12.9l-.56,3.15Z" fill="#555759"/><path d="M12.37,76.19c-.06.32,0,.51.22.51a.84.84,0,0,0,.43-.17l-.07.73a1.56,1.56,0,0,1-.8.21c-.43,0-.66-.16-.67-.62a1.9,1.9,0,0,1-1.4.62c-.95,0-1.57-.73-1.57-1.91,0-1.79.92-3.06,2.39-3.06A1.46,1.46,0,0,1,12,73l.07-.44H13ZM11,73.29c-1,0-1.6.87-1.6,2.14,0,.76.36,1.26,1,1.26a1.55,1.55,0,0,0,1.07-.58l.39-2.3A1,1,0,0,0,11,73.29Z" fill="#555759"/><path d="M17.3,75.31c-.16.85.14,1.34.73,1.34s1.45-.74,1.45-2.81a11.78,11.78,0,0,0-.07-1.26h.91c0,.19,0,.83,0,1.19,0,2.56-1.07,3.7-2.44,3.7-1.18,0-1.74-.76-1.51-2.1l.28-1.6c.06-.34,0-.51-.23-.51a.82.82,0,0,0-.43.17l.07-.72a1.52,1.52,0,0,1,.81-.22c.55,0,.82.34.69,1.12Z" fill="#555759"/><path d="M22.9,72.58l-.65,3.68c-.06.32,0,.44.22.44a.8.8,0,0,0,.44-.17l-.07.73a1.52,1.52,0,0,1-.78.2c-.6,0-.85-.29-.73-1L22,72.58Zm-.1-1.9c.28,0,.47.11.47.39a.59.59,0,0,1-.65.64c-.29,0-.49-.12-.49-.4C22.13,70.84,22.4,70.68,22.8,70.68Z" fill="#555759"/><path d="M25.8,70.86l-.94,5.31c-.06.41,0,.53.28.53a.94.94,0,0,0,.5-.17l-.07.73a1.85,1.85,0,0,1-.85.21c-.62,0-.91-.35-.77-1.14l1-5.47Z" fill="#555759"/><path d="M28.45,70.86l-.94,5.31c-.06.41,0,.53.28.53a.94.94,0,0,0,.5-.17l-.07.73a1.85,1.85,0,0,1-.85.21c-.62,0-.91-.35-.77-1.14l1-5.47Z" fill="#555759"/><path d="M30.06,75.28c0,.1,0,.2,0,.28a1,1,0,0,0,1.13,1.18,2.13,2.13,0,0,0,1.32-.52l.23.7a2.82,2.82,0,0,1-1.78.59,1.71,1.71,0,0,1-1.75-1.93c0-1.8,1.07-3.13,2.56-3.13A1.41,1.41,0,0,1,33.25,74,3.4,3.4,0,0,1,33,75.28Zm2.29-.71a1.64,1.64,0,0,0,.1-.55.74.74,0,0,0-.8-.8,1.48,1.48,0,0,0-1.4,1.35Z" fill="#555759"/><path d="M40.76,70.86l-.93,5.32c-.06.31,0,.52.22.52a.82.82,0,0,0,.42-.17l-.07.73a1.45,1.45,0,0,1-.78.22.65.65,0,0,1-.73-.56,1.86,1.86,0,0,1-1.39.56c-.94,0-1.54-.73-1.54-1.91,0-1.87,1-3.07,2.34-3.07A1.44,1.44,0,0,1,39.5,73l.39-2.19Zm-2.88,5.82a1.59,1.59,0,0,0,1.07-.51l.42-2.37a1,1,0,0,0-.89-.51c-.95,0-1.59.87-1.59,2.14C36.89,76.18,37.25,76.68,37.88,76.68Z" fill="#555759"/><path d="M42.41,72.29a.45.45,0,0,1-.33-.46.69.69,0,0,1,.7-.77.47.47,0,0,1,.49.51,5.49,5.49,0,0,1-1,2.18l-.47-.21Z" fill="#555759"/><path d="M43.48,77.38l1.15-6.52h.88l-.4,2.31a1.77,1.77,0,0,1,1.44-.68c1,0,1.38.69,1.17,1.88l-.33,1.88c-.06.32,0,.44.22.44a.8.8,0,0,0,.44-.17l-.07.73a1.53,1.53,0,0,1-.78.21c-.6,0-.86-.29-.73-1l.34-1.95c.15-.8-.1-1.21-.7-1.21a1.45,1.45,0,0,0-1.18,1l-.55,3.09Z" fill="#555759"/><path d="M50.57,72.58l-.65,3.68c-.06.32,0,.44.22.44a.8.8,0,0,0,.44-.17l-.07.73a1.51,1.51,0,0,1-.78.2c-.6,0-.85-.29-.73-1l.69-3.91Zm-.1-1.9c.28,0,.47.11.47.39a.59.59,0,0,1-.65.64c-.29,0-.49-.12-.49-.4C49.8,70.84,50.07,70.68,50.47,70.68Z" fill="#555759"/><path d="M52.42,75.27c0,.1,0,.2,0,.28a1,1,0,0,0,1.13,1.18,2.13,2.13,0,0,0,1.32-.52l.23.7a2.82,2.82,0,0,1-1.78.59,1.71,1.71,0,0,1-1.75-1.93c0-1.8,1.07-3.13,2.56-3.13A1.41,1.41,0,0,1,55.61,74a3.4,3.4,0,0,1-.29,1.29Zm2.29-.71a1.63,1.63,0,0,0,.1-.55.74.74,0,0,0-.8-.8,1.48,1.48,0,0,0-1.4,1.35Z" fill="#555759"/><path d="M59.59,73.56a1,1,0,0,0-.65-.23c-.53,0-.84.5-1.06,1.14l-.5,2.91h-.89l.64-3.6c.06-.32,0-.52-.23-.52a.79.79,0,0,0-.43.18l.07-.73a1.82,1.82,0,0,1,.82-.22.63.63,0,0,1,.71.65,1.2,1.2,0,0,1,1.1-.64.94.94,0,0,1,.71.27Z" fill="#555759"/><path d="M65.69,76.18c-.05.32,0,.51.22.51a.84.84,0,0,0,.43-.17l-.07.73a1.56,1.56,0,0,1-.8.21c-.43,0-.66-.16-.67-.62a1.9,1.9,0,0,1-1.4.62c-.95,0-1.57-.73-1.57-1.91,0-1.79.92-3.06,2.39-3.06a1.46,1.46,0,0,1,1.14.52l.07-.44h.89Zm-1.34-2.9c-1,0-1.6.87-1.6,2.14,0,.76.36,1.26,1,1.26a1.55,1.55,0,0,0,1.07-.58l.39-2.3A1,1,0,0,0,64.35,73.28Zm-.45-2.71h.85l.39,1.31h-.73Z" fill="#555759"/><path d="M74.08,70.86l-.93,5.32c-.06.31,0,.52.22.52a.82.82,0,0,0,.42-.17l-.07.73a1.45,1.45,0,0,1-.78.22.65.65,0,0,1-.73-.56,1.86,1.86,0,0,1-1.39.56c-.94,0-1.54-.73-1.54-1.91,0-1.87,1-3.07,2.34-3.07a1.44,1.44,0,0,1,1.18.55l.39-2.19ZM71.2,76.68a1.59,1.59,0,0,0,1.06-.51l.42-2.37a1,1,0,0,0-.89-.51c-.95,0-1.59.87-1.59,2.14C70.21,76.18,70.57,76.68,71.2,76.68Z" fill="#555759"/><path d="M75.61,75.27c0,.1,0,.2,0,.28a1,1,0,0,0,1.13,1.18A2.13,2.13,0,0,0,78,76.22l.23.7a2.82,2.82,0,0,1-1.78.59,1.71,1.71,0,0,1-1.75-1.93c0-1.8,1.07-3.13,2.56-3.13A1.41,1.41,0,0,1,78.79,74a3.4,3.4,0,0,1-.29,1.29Zm2.29-.71A1.64,1.64,0,0,0,78,74a.74.74,0,0,0-.8-.8,1.48,1.48,0,0,0-1.4,1.35Z" fill="#555759"/><path d="M79.42,77.38l.84-4.8h.88l-.1.59a1.64,1.64,0,0,1,1.4-.67,1,1,0,0,1,1.14.82A1.7,1.7,0,0,1,85,72.49c1,0,1.4.63,1.18,1.83l-.34,1.94c-.05.32,0,.44.23.44a.77.77,0,0,0,.43-.17l-.07.73a1.54,1.54,0,0,1-.79.21c-.59,0-.84-.29-.72-1l.35-2c.14-.8-.08-1.16-.68-1.16s-.81.35-1.06.85a.7.7,0,0,1,0,.14L83,77.37h-.88l.5-2.89c.15-.8-.13-1.16-.68-1.16a1.29,1.29,0,0,0-1.12.9l-.56,3.15Z" fill="#555759"/><path d="M91.31,76.18c-.05.32,0,.51.22.51a.84.84,0,0,0,.43-.17l-.07.73a1.56,1.56,0,0,1-.8.21c-.43,0-.66-.16-.67-.62a1.9,1.9,0,0,1-1.4.62c-.95,0-1.57-.73-1.57-1.91,0-1.79.92-3.06,2.39-3.06A1.46,1.46,0,0,1,91,73l.07-.44h.89ZM90,73.28c-1,0-1.6.87-1.6,2.14,0,.76.36,1.26,1,1.26a1.55,1.55,0,0,0,1.07-.58l.39-2.3A1,1,0,0,0,90,73.28Z" fill="#555759"/><path d="M94.55,72.57l-.65,3.68c-.06.32,0,.44.22.44a.8.8,0,0,0,.44-.17l-.07.73a1.52,1.52,0,0,1-.78.2c-.6,0-.85-.29-.73-1l.69-3.91Zm-.1-1.9c.28,0,.47.11.47.39a.59.59,0,0,1-.65.64c-.29,0-.49-.12-.49-.4C93.77,70.84,94.05,70.67,94.44,70.67Z" fill="#555759"/><path d="M95.44,77.37l.84-4.8h.88l-.1.61a1.77,1.77,0,0,1,1.44-.69c1,0,1.38.69,1.17,1.88l-.33,1.88c-.06.32,0,.44.22.44a.8.8,0,0,0,.44-.17l-.07.72a1.54,1.54,0,0,1-.79.22c-.59,0-.85-.29-.73-1l.34-1.95c.15-.8-.1-1.21-.7-1.21a1.45,1.45,0,0,0-1.18,1l-.55,3.09Z" fill="#555759"/></svg>