<svg id="Layer_1" data-name="Layer 1" xmlns="http://www.w3.org/2000/svg" viewBox="0 0 178.3 43.2"><title>logo</title><path d="M73.5,11.6H75V13H73.5Zm0,2.6H75v6.2H73.5Z" fill="#3b64c4"/><path d="M76.6,20.4V11.6h1.5v8.8Z" fill="#3b64c4"/><path d="M79.7,20.4V11.6h1.5v8.8Z" fill="#3b64c4"/><path d="M84,17.6a1.51,1.51,0,0,0,1.4,1.7,1.15,1.15,0,0,0,1.2-.8h1.5a2.54,2.54,0,0,1-2.7,1.9,2.83,2.83,0,0,1-2.9-3.1c0-1.9,1-3.3,2.9-3.3a2.71,2.71,0,0,1,2.8,3v.5H84Zm2.6-1c0-.8-.4-1.5-1.3-1.5s-1.3.6-1.4,1.5Z" fill="#3b64c4"/><path d="M97.7,11.6v8.8H96.3c0-.2-.1-.5-.1-.7a2,2,0,0,1-1.8.9c-1.6,0-2.6-1.3-2.6-3.2s1.1-3.3,2.8-3.3a1.72,1.72,0,0,1,1.6.7V11.7h1.5Zm-4.3,5.7c0,1.3.5,2,1.4,2,1.3,0,1.5-1,1.5-2,0-1.2-.2-2-1.4-2C93.9,15.3,93.4,16,93.4,17.3Z" fill="#3b64c4"/><path d="M100.4,17.6a1.51,1.51,0,0,0,1.4,1.7,1.15,1.15,0,0,0,1.2-.8h1.5a2.54,2.54,0,0,1-2.7,1.9,2.83,2.83,0,0,1-2.9-3.1c0-1.9,1-3.3,2.9-3.3a2.71,2.71,0,0,1,2.8,3v.5h-4.2Zm2.7-1c0-.8-.4-1.5-1.3-1.5s-1.3.6-1.4,1.5Z" fill="#3b64c4"/><path d="M174.6,43.2H151.5V.8h-1.9V43.2H126.5V39.7H131a10.57,10.57,0,0,0,1-1.2,3.7,3.7,0,0,0,.3-4c-.2-.5-5.6-8.9-9.1-14.5l-.4-.6h2.9c-.5-.8-.9-1.6-1.3-2.2l-.4-.6h3.3c-.7-1.3-1.1-2.2-1.1-2.2l-.3-.6h3.7c-.6-1.4-1-2.3-1-2.3l-.3-.6h3.9a17.21,17.21,0,0,1-.7-2.2l-.2-.6h4.2a18.32,18.32,0,0,0-.6-2.1l-.1-.5h4.8l-.5-2.7h9.6V0h3.5V2.8h9.6l-.5,2.7h4.8L166,6s-.2.8-.6,2.1h4.2l-.2.6s-.3.8-.7,2.2h3.9l-.3.6s-.4.9-1,2.3H175l-.3.6s-.5.9-1.1,2.2h3.3l-.4.6c-.4.6-.8,1.4-1.3,2.2h2.9l-.4.6c-3.5,5.6-8.9,14-9.1,14.5a3.7,3.7,0,0,0,.3,4,10.57,10.57,0,0,0,1,1.2h4.5v3.5Zm-22.3-.8h21.4V40.6H162.1a6.61,6.61,0,0,1-4.8-2c-1.3-1.4-1.7-3.5-1.3-6.2l4.9-28.8h-8.6Zm-25,0h21.5V3.7h-8.6l4.9,28.8c.4,2.7,0,4.7-1.3,6.2a6.84,6.84,0,0,1-4.8,2H127.3Zm43.8-27.8c-2.5,5.7-7.6,17.5-8.1,18.9-.6,1.7-.5,3.5.2,4.4,1.3,1.7,2.2,1.8,2.2,1.8h.3c-.2-.3-.5-.6-.9-1.1a5.29,5.29,0,0,1-.5-5.1c.6-1.7,7.8-15.8,9.4-18.9Zm2.2,2.8c-2.6,5.1-7.7,15.1-8.1,16.4-.5,1.6-.7,2.9.4,4.4a16.19,16.19,0,0,0,1.4,1.6h.4c-.2-.3-.5-.6-.8-1a4.79,4.79,0,0,1-.4-4.9c.3-.6,7.7-13.4,9.4-16.4h-2.3Zm1.6,2.8c-3.1,5.4-7.8,13.6-8,14a3.7,3.7,0,0,0,.3,4,8.1,8.1,0,0,0,1.3,1.5h.4a4.23,4.23,0,0,1-.5-.7,4.79,4.79,0,0,1-.4-4.9c.3-.6,6.9-11,8.8-14h-1.9ZM135.6,39.8Zm-.2,0h.3s.9-.1,2.2-1.8a5.09,5.09,0,0,0,.2-4.4c-.5-1.4-5.6-13.2-8.1-18.9h-2.7c1.6,3.2,8.9,17.2,9.4,18.9a5.26,5.26,0,0,1-.5,5.1C135.9,39.2,135.6,39.5,135.4,39.8Zm-1.7,0h.4a9,9,0,0,0,1.4-1.6c1.1-1.5.9-2.8.4-4.4-.5-1.3-5.5-11.3-8.1-16.4h-2.3c1.8,3,9.2,15.9,9.4,16.4a4.58,4.58,0,0,1-.4,4.9A5.22,5.22,0,0,1,133.7,39.8Zm-1.6,0h.4a7.91,7.91,0,0,0,1.3-1.5,3.7,3.7,0,0,0,.3-4c-.2-.4-4.9-8.6-8-14h-1.9c1.9,3,8.5,13.4,8.8,14a4.67,4.67,0,0,1-.4,4.9A2.65,2.65,0,0,1,132.1,39.8Zm36.4-28c-2.2,6.2-7,20-7.5,21.5a5.55,5.55,0,0,0-.1,4.2,4.76,4.76,0,0,0,2.6,2.2,12,12,0,0,1-1-1.1,5.74,5.74,0,0,1-.4-5.2c.6-1.7,7.7-18.1,9.2-21.5h-2.8Zm-38.8,0c1.5,3.4,8.6,19.8,9.2,21.5.7,2,.6,4-.4,5.2a12,12,0,0,1-1,1.1,4,4,0,0,0,2.6-2.2c.6-1.1.6-2.4-.1-4.2-.5-1.4-5.3-15.3-7.5-21.5h-2.8ZM165.4,9c-1.8,6.7-5.9,22.4-6.3,23.9-.5,2-.5,3.5.1,4.5a4.49,4.49,0,0,0,2.4,2,4.17,4.17,0,0,1-1.3-1.6,5.92,5.92,0,0,1,0-4.9c.6-1.7,7.1-20.4,8.3-23.9ZM132.5,9c1.2,3.5,7.7,22.2,8.3,23.9a5.94,5.94,0,0,1,0,4.9,5.34,5.34,0,0,1-1.3,1.6,4.49,4.49,0,0,0,2.4-2,6.63,6.63,0,0,0,.1-4.5c-.4-1.5-4.5-17.2-6.3-23.9Zm28.8-2.6-4.4,26.2c-.4,2.4,0,4.2,1.1,5.5a4.79,4.79,0,0,0,1.5,1.1,5.26,5.26,0,0,1-1.1-1.4,7.2,7.2,0,0,1-.1-5.1c.4-1.7,6-22.7,6.9-26.3Zm-25.4,0c.9,3.6,6.5,24.6,6.9,26.3a7.2,7.2,0,0,1-.1,5.1,5.26,5.26,0,0,1-1.1,1.4,3.88,3.88,0,0,0,1.5-1.1c1.1-1.2,1.5-3.1,1.1-5.5L139.8,6.4Z" fill="#e03268"/><path d="M31,43.2V25.7h2.8V43.2Z" fill="#3b64c4"/><path d="M45.8,36.9H38.7v6.3H36.2V25.7h9a6.35,6.35,0,0,1,4.4,1.5,5.35,5.35,0,0,1,1.7,4.1,5.35,5.35,0,0,1-1.7,4.1,5.86,5.86,0,0,1-3.1,1.3Zm-7.1-2.6h6.5a3.85,3.85,0,0,0,2.6-.7,3.11,3.11,0,0,0,.8-2.2,3,3,0,0,0-.8-2.2,3.85,3.85,0,0,0-2.6-.7H38.7Z" fill="#3b64c4"/><path d="M80.2,25.7a5.68,5.68,0,0,1,4,1.3,4.82,4.82,0,0,1,1.5,3.7,4.82,4.82,0,0,1-1.5,3.7,4.68,4.68,0,0,1,1.5,3.7,4.9,4.9,0,0,1-1.5,3.8,5.68,5.68,0,0,1-4,1.3H70.6V25.7Zm-7.1,7.5h7.1a3.71,3.71,0,0,0,2.3-.6,2.48,2.48,0,0,0,.7-1.8,2.32,2.32,0,0,0-.7-1.8,3.71,3.71,0,0,0-2.3-.6H73.1Zm0,7.4h7.1a3.71,3.71,0,0,0,2.3-.6,2.48,2.48,0,0,0,.7-1.8,2.32,2.32,0,0,0-.7-1.8,3.71,3.71,0,0,0-2.3-.6H73.1Z" fill="#3b64c4"/><path d="M90.4,28.3v4.9h8.7v2.5H90.4v4.9h8.7v2.6H87.7V25.7H99v2.6Z" fill="#3b64c4"/><path d="M111.9,40.6v2.6H101.6V25.7h2.7V40.6Z" fill="#3b64c4"/><polygon points="0 43.2 6.7 25.7 9.4 25.7 2.7 43.2 1.4 43.2 0 43.2" fill="#3b64c4"/><polygon points="16.1 43.2 9.4 25.7 6.7 25.7 13.5 43.2 14.8 43.2 16.1 43.2" fill="#3b64c4"/><polygon points="13.5 43.2 20.2 25.7 22.9 25.7 16.1 43.2 14.9 43.2 13.5 43.2" fill="#3b64c4"/><polygon points="29.6 43.2 22.9 25.7 20.2 25.7 26.9 43.2 28.3 43.2 29.6 43.2" fill="#3b64c4"/><polygon points="52.7 43.2 59.4 25.7 62.1 25.7 55.4 43.2 54.1 43.2 52.7 43.2" fill="#3b64c4"/><polygon points="68.8 43.2 62.1 25.7 59.4 25.7 66.2 43.2 67.5 43.2 68.8 43.2" fill="#3b64c4"/><polygon points="72.4 11.6 69 20.3 67.5 20.3 70.8 11.6 71.6 11.6 72.4 11.6" fill="#3b64c4"/><polygon points="64.1 11.6 67.5 20.3 69 20.3 65.7 11.6 64.8 11.6 64.1 11.6" fill="#3b64c4"/><polygon points="51.3 43.2 48.3 35.6 45.4 35.6 48.5 43.2 50 43.2 51.3 43.2" fill="#3b64c4"/></svg>