<svg id="Layer_1" data-name="Layer 1" xmlns="http://www.w3.org/2000/svg" viewBox="0 0 182.1 232.2"><title>logo_06</title><path d="M11.4,217.9a5.26,5.26,0,0,0-3.2-1.2c-.9,0-2.1.5-2.1,1.5s1.3,1.5,2.1,1.8l1.2.4c2.6.8,4.6,2.1,4.6,5.1a6.33,6.33,0,0,1-1.9,5,8.21,8.21,0,0,1-5.3,1.7,11.69,11.69,0,0,1-6.5-2.1l2.1-3.9a6.32,6.32,0,0,0,4.3,1.9A2.06,2.06,0,0,0,9,226.2c0-1.4-1.9-1.8-2.9-2.1-3-.9-5-1.6-5-5.2,0-3.8,2.7-6.2,6.4-6.2a13.16,13.16,0,0,1,5.8,1.5Z" fill="#231f20"/><path d="M29.7,231.6H25.2v-1.4h0a4.27,4.27,0,0,1-3.8,1.8,6.51,6.51,0,0,1-6.4-6.7,6.43,6.43,0,0,1,6.3-6.7,5.13,5.13,0,0,1,3.9,1.6V219h4.5Zm-10-6.2a2.7,2.7,0,0,0,2.9,2.8,2.7,2.7,0,0,0,2.9-2.8,2.76,2.76,0,0,0-2.9-2.8A2.7,2.7,0,0,0,19.7,225.4Z" fill="#231f20"/><path d="M37.2,214.2a2.5,2.5,0,1,1-2.5-2.5A2.54,2.54,0,0,1,37.2,214.2Zm-.3,17.4H32.4V219.1h4.5Z" fill="#231f20"/><path d="M44,220.7h0a4.5,4.5,0,0,1,4.1-2c3.4,0,4.7,2.1,4.7,5.2v7.8H48.4v-6.1c0-1.2.2-3.3-2-3.3-1.8,0-2.3,1.3-2.3,2.9v6.5H39.6V219.1h4.5v1.6Z" fill="#231f20"/><path d="M60.4,231.6H55.9v-8.9H54.4V219h1.4v-3.8h4.6V219h2.5v3.7H60.4Z" fill="#231f20"/><path d="M70.9,221.9v3.7h-7v-3.7Z" fill="#231f20"/><path d="M86.7,219.3a5.31,5.31,0,0,0-4.2-2,4.89,4.89,0,0,0-4.9,5.1,4.78,4.78,0,0,0,5,5,5.42,5.42,0,0,0,4.1-2v5.8a13.8,13.8,0,0,1-4.2.9,10.3,10.3,0,0,1-6.9-2.7,9.08,9.08,0,0,1-3-7,10.05,10.05,0,0,1,2.7-6.8,9.76,9.76,0,0,1,7-3,11.17,11.17,0,0,1,4.4.9Z" fill="#231f20"/><path d="M103.5,225.4c0,4.3-3.5,6.7-7.6,6.7s-7.6-2.4-7.6-6.7,3.5-6.7,7.6-6.7S103.5,221.1,103.5,225.4Zm-10.5,0a2.9,2.9,0,0,0,5.8,0,2.76,2.76,0,0,0-2.9-2.8A2.65,2.65,0,0,0,93,225.4Z" fill="#231f20"/><path d="M109.7,220.7h0a4.5,4.5,0,0,1,4.1-2c3.4,0,4.7,2.1,4.7,5.2v7.8H114v-6.1c0-1.2.2-3.3-2-3.3-1.8,0-2.3,1.3-2.3,2.9v6.5h-4.5V219.1h4.5Z" fill="#231f20"/><path d="M129.5,222.3a5,5,0,0,0-2.4-.6c-.5,0-1.4.2-1.4.9,0,.9,1.4,1,2,1.1,2.1.4,3.7,1.4,3.7,3.7,0,3.3-3,4.7-5.9,4.7a10,10,0,0,1-5.1-1.4l1.6-3.1a7.47,7.47,0,0,0,3.5,1.3c.6,0,1.4-.3,1.4-1,0-1-1.4-1-2.8-1.4s-2.8-1.1-2.8-3.3c0-3.1,2.8-4.5,5.5-4.5a9.68,9.68,0,0,1,4.1.8Z" fill="#231f20"/><path d="M138.3,231.6h-4.5v-8.9h-1.4V219h1.4v-3.8h4.5V219h2.5v3.7h-2.5Z" fill="#231f20"/><path d="M155.8,231.6h-4.5v-1.4h0a4.27,4.27,0,0,1-3.8,1.8,6.51,6.51,0,0,1-6.4-6.7,6.43,6.43,0,0,1,6.3-6.7,5.13,5.13,0,0,1,3.9,1.6V219h4.5Zm-10.1-6.2a2.9,2.9,0,0,0,5.8,0,2.76,2.76,0,0,0-2.9-2.8A2.65,2.65,0,0,0,145.7,225.4Z" fill="#231f20"/><path d="M162.9,220.7h0a4.5,4.5,0,0,1,4.1-2c3.4,0,4.7,2.1,4.7,5.2v7.8h-4.5v-6.1c0-1.2.2-3.3-2-3.3-1.8,0-2.3,1.3-2.3,2.9v6.5h-4.5V219.1h4.5Z" fill="#231f20"/><path d="M179.3,231.6h-4.5v-8.9h-1.4V219h1.4v-3.8h4.5V219h2.5v3.7h-2.5Z" fill="#231f20"/><polygon points="163.3 65.5 163.3 37.4 135.3 37.4 135.3 65.5 144.7 65.5 144.7 46.7 154 46.7 154 65.5 163.3 65.5" fill="#41873f"/><path d="M44.1,164A81.52,81.52,0,0,1,34,154.6H47.4A83.61,83.61,0,0,0,60.9,164ZM26.5,145.3a88.19,88.19,0,0,1-5.6-9.3H31.6a77.83,77.83,0,0,0,6.6,9.3ZM11.2,96.1A86.68,86.68,0,0,1,97.9,9.4l43.3-.1-8.3,9.4h-35A77.52,77.52,0,0,0,26.7,126.6h-10a85.94,85.94,0,0,1-5.5-30.5M116.7,37.4h0l-18.8.1a58.68,58.68,0,0,0-50.1,89.1H37.1A68,68,0,0,1,97.9,28.1h26.9Zm0,18.8H97.9a39.94,39.94,0,0,0-25.8,70.4H59.2A49.36,49.36,0,0,1,98,46.8l18.8-.1v9.5ZM51.1,145.3a80.24,80.24,0,0,1-8.2-9.3H55a54.84,54.84,0,0,0,11.1,9.3Zm46.8,46.9h0a96.1,96.1,0,0,0,83.9-49.1l-8.1-4.6A86.77,86.77,0,0,1,98,182.9a84.44,84.44,0,0,1-30.3-5.5l-3.6-1.5a3.55,3.55,0,0,1-.9-.4c-1.6-.7-3.1-1.4-4.6-2.2H94.8c1.1,0,2.1.1,3.2.1a77.06,77.06,0,0,0,67.4-39.5l.1.1h0l-8.2-4.6a66.21,66.21,0,0,1-13.8,17.3,67.95,67.95,0,0,1-80,8.1H95.8c.8,0,1.6.1,2.3.1a58.74,58.74,0,0,0,42.1-17.8,57.47,57.47,0,0,0,9-12.2h0l-8.1-4.6a49.17,49.17,0,0,1-71.9,15.9H98.1a39.75,39.75,0,0,0,34.8-20.4l-8.1-4.6a30.26,30.26,0,0,1-26.7,15.7,30.6,30.6,0,1,1,0-61.2h28.1V40.9l23.3-26.8,23.3,26.7V65.5h9.3V37.4L149.3,0H97.9A96.28,96.28,0,0,0,6.7,126.6H0v9.5H10.5a102.77,102.77,0,0,0,4.9,9.3H0v9.3H21.8a104.11,104.11,0,0,0,8.2,9.4H0v9.3H40.9a93.27,93.27,0,0,0,15.8,9.5H0v9.3Z" fill="#41873f"/></svg>