<svg id="Layer_1" data-name="Layer 1" xmlns="http://www.w3.org/2000/svg" viewBox="0 0 399.49 85.17"><title>logo_1</title><g id="g12564"><g id="g12694"><path id="path12696" d="M0,14.24H13L30,60.3h.17l17-46.06H59.76V70.9H51V22h-.18L32.89,70.9H25.45L7.54,22H7.36V70.9H0Z"/></g><g id="g12698"><path id="path12700" d="M85,68.35c8,0,9-9.86,9-17s-1-17-9-17-8.87,9.86-8.87,17,1,17,8.87,17m-18.62-17c0-13.21,6.2-20.43,18.62-20.43s18.71,7.22,18.71,20.43S97.38,71.8,85,71.8,66.35,64.57,66.35,51.35"/></g><g id="g12702"><path id="path12704" d="M110.62,31.81h9v9.28h.17c1.42-2.87,5.51-10.18,14.81-10.18,7.45,0,10.64,5.74,10.64,11.4V70.9h-9V46.42c0-4.92-.8-9.35-5.32-9.35-8.87,0-11.35,12.81-11.35,17.64V70.9h-9V31.81"/></g><g id="g12706"><path id="path12708" d="M177.32,71.22a29.92,29.92,0,0,1-6.2.58c-8.43,0-13.3-2.38-13.3-9.94V36.08h-6.74V31.81h6.74v-9.2l9-5v14.2H178.3v4.27H166.77v22.5c0,5.75.63,8.54,6.39,8.54a11.77,11.77,0,0,0,4.16-.65v4.76"/></g><g id="g12710"><path id="path12712" d="M184.06,31.81h9v9.94h.18c2.84-5.25,5.94-10.27,13.66-10.83v8.61c-8.6.25-13.84,3-13.84,13.46V70.9h-9V31.81"/></g><g id="g12714"><path id="path12716" d="M229,14.29h9.4L229.73,25h-6.65Zm6.42,28.85c0-3-1.15-8.79-7.81-8.79-6.92,0-8.24,6.57-8.41,8.79Zm8,26.44a31.68,31.68,0,0,1-12.32,2.22C219.35,71.8,210,65.39,210,49.62c0-10.83,4.7-18.71,18-18.71,13.66,0,16.23,8.46,16.23,16H218.92c0,7.73,3.72,20.52,16.4,20.52a20,20,0,0,0,8.07-1.63v3.77"/></g><g id="g12718"><path id="path12720" d="M272.73,52.58c-3.72.24-13.84,1-13.84,8.21,0,3.53,2.22,5.83,5.15,5.83a9.21,9.21,0,0,0,8.68-9.45Zm0,12.89h-.18a13.69,13.69,0,0,1-11.88,6.32c-6.64,0-11.52-4.36-11.52-9.77,0-12.07,18-12.65,23.58-12.89V45.69c0-4.27,0-11.34-5.94-11.34-5.5,0-6.48,3.95-6.83,8.55h-9.39c.43-5.83,2.92-12,16.23-12,13.74,0,14.89,7.14,14.89,14.77V70.9h-9V65.47"/></g><path id="path12722" d="M291,70.9h8.94V14.24H291Z"/><g id="g12724"><path id="path12726" d="M362.09,77.8a9.47,9.47,0,0,1-2.85-6.71v-22a4.33,4.33,0,0,1,4.2-4.21h22a9.44,9.44,0,1,1-6.77,16l-1.1-1.1a5.66,5.66,0,0,0,.37-2h0a5.76,5.76,0,0,0-5.78-5.72,5.43,5.43,0,0,0-4,1.6,6,6,0,0,0-1.73,4.14A6.08,6.08,0,0,0,368.26,62a5.53,5.53,0,0,0,4,1.6,5.82,5.82,0,0,0,2-.37l1.13,1.11a9.54,9.54,0,0,1,2.9,6.79h0a9.46,9.46,0,0,1-16.16,6.69M321.7,61.18a9.62,9.62,0,0,1-2.83-6.73,9.54,9.54,0,0,1,9.49-9.52h22a4.34,4.34,0,0,1,4.25,4.16v22a9.64,9.64,0,0,1-2.83,6.77,9.21,9.21,0,0,1-6.64,2.72,9.45,9.45,0,0,1-9.46-9.39h0a9.44,9.44,0,0,1,2.86-6.85l1.1-1.1a5.59,5.59,0,0,0,2,.37,5.77,5.77,0,0,0,5.72-5.78,5.48,5.48,0,0,0-1.6-4,6,6,0,0,0-4.15-1.73,6.08,6.08,0,0,0-4.12,1.73,5.56,5.56,0,0,0-1.6,4h0a5.5,5.5,0,0,0,.39,2c-.21.2-1.12,1.14-1.12,1.14a9.54,9.54,0,0,1-6.78,2.9,9.34,9.34,0,0,1-6.65-2.72M359.25,14A9.51,9.51,0,0,1,362,7.26a9.15,9.15,0,0,1,6.63-2.71,9.58,9.58,0,0,1,6.74,2.79,9.21,9.21,0,0,1,2.73,6.6h0a9.4,9.4,0,0,1-2.85,6.84s-.83.84-1.11,1.11a5.57,5.57,0,0,0-2-.36,5.77,5.77,0,0,0-5.72,5.78,5.42,5.42,0,0,0,1.6,4A6,6,0,0,0,372.18,33a6,6,0,0,0,4.12-1.74,5.51,5.51,0,0,0,1.6-4h0a5.83,5.83,0,0,0-.37-2l1.11-1.13a9.46,9.46,0,1,1,6.77,16.05h-22a4.28,4.28,0,0,1-4.2-4.15Zm-20.69,6.79h0a9.61,9.61,0,0,1-2.9-6.79v0a9.46,9.46,0,0,1,16.15-6.69A9.39,9.39,0,0,1,354.58,14V36a4.28,4.28,0,0,1-4.11,4.21H328.4a9.59,9.59,0,0,1-6.75-2.8,9.18,9.18,0,0,1-2.71-6.63A9.55,9.55,0,0,1,321.73,24a9.23,9.23,0,0,1,6.59-2.72,9.4,9.4,0,0,1,6.86,2.85l1.12,1.1a5.11,5.11,0,0,0-.38,2A5.77,5.77,0,0,0,341.69,33a5.46,5.46,0,0,0,4-1.62,5.9,5.9,0,0,0,1.73-4.13,6,6,0,0,0-1.73-4.12,5.56,5.56,0,0,0-4-1.61,6.18,6.18,0,0,0-2,.38l-1.14-1.1M357,6.62A14.52,14.52,0,0,0,345.16,0a13.94,13.94,0,0,0-14,14.18,15.47,15.47,0,0,0,.46,3.16,16.59,16.59,0,0,0-3.18-.41,13.9,13.9,0,0,0-14.17,13.93A14.49,14.49,0,0,0,321,42.67a13.84,13.84,0,0,0,7.53,25.66,15.29,15.29,0,0,0,3.12-.45,16,16,0,0,0-.44,3.12,13.93,13.93,0,0,0,14,14.18,14.12,14.12,0,0,0,11.69-6.48,14.83,14.83,0,0,0,11.8,6.48A13.89,13.89,0,0,0,382.57,71a15.76,15.76,0,0,0-.41-3.12,16.53,16.53,0,0,0,3.16.45,14.1,14.1,0,0,0,14.17-14A14.41,14.41,0,0,0,393,42.59a14.37,14.37,0,0,0,6.48-11.75,14.1,14.1,0,0,0-14.23-13.91,16.23,16.23,0,0,0-3.1.45,16.55,16.55,0,0,0,.41-3.19A13.9,13.9,0,0,0,368.65,0,14.37,14.37,0,0,0,357,6.62" fill="#e02f2e"/></g></g></svg>