<?xml version="1.0" encoding="utf-8"?>
<!-- Generator: Adobe Illustrator 21.1.0, SVG Export Plug-In . SVG Version: 6.00 Build 0)  -->
<svg version="1.1" id="Calque_1" xmlns="http://www.w3.org/2000/svg" xmlns:xlink="http://www.w3.org/1999/xlink" x="0px" y="0px"
	 viewBox="0 0 3633.4 1611" style="enable-background:new 0 0 3633.4 1611;" xml:space="preserve">
<style type="text/css">
	.st0{fill:#FFFFFF;}
	.st1{fill:#EAE9E8;}
	.st2{fill-rule:evenodd;clip-rule:evenodd;fill:#279B69;}
	.st3{fill:#0076A5;}
	.st4{fill-rule:evenodd;clip-rule:evenodd;fill:#A39372;}
	.st5{fill:#A52837;}
	.st6{stroke:#000000;stroke-width:2;stroke-miterlimit:10;}
	.st7{stroke:#000000;stroke-width:4;stroke-miterlimit:10;}
</style>
<g>
	<g>
		<g>
			<path class="st0" d="M211.4,1237.8L33.3,276.3l18.1-10.6c4.1-2.4,102.1-59.6,243.8-117.6c83.4-34.1,164.5-61.3,241.2-80.9
				C633,42.5,722.8,30,803.4,30c5.5,0,11,0.1,16.3,0.2c94.4,2,193.2,15.7,293.8,40.7c80.2,19.9,161.8,47,242.4,80.5
				c137.4,57.1,223.5,112.6,227.1,115l16.9,11l-182.1,960.4l-598.6,338.9L211.4,1237.8z"/>
		</g>
		<g>
			<path class="st1" d="M803.4,60c5.2,0,10.5,0.1,15.7,0.2c403.9,8.6,747.6,231.3,747.6,231.3l-175.8,927l-571.9,323.8l-580.8-323.8
				l-171.7-927C66.7,291.5,461.1,60,803.4,60 M803.4,0C720.3,0,628,12.8,529,38c-78,19.9-160.5,47.5-245.1,82.2
				C140.2,179,40.5,237.3,36.3,239.8L0,261.1l7.7,41.4l171.7,927l5.1,27.7l24.6,13.7l580.8,323.8l29.4,16.4l29.3-16.6l571.9-323.8
				l24.2-13.7l5.2-27.3l175.8-927l7.5-39.6l-33.8-21.9c-3.7-2.4-92.1-59.3-231.9-117.5c-82-34.1-165-61.7-246.7-82
				C1018,16.2,917,2.2,820.4,0.2C814.8,0.1,809.1,0,803.4,0L803.4,0z"/>
		</g>
	</g>
	<path class="st2" d="M826.1,375.3l57.6,12.8l-5.3-23.3l60.5-46.9l-15-7.2l11.9-40.8l-37.3,5.3l-4.4-18.6l-28.5,29.8
		c-1.7,1.8-4.6,2.5-6.5,0.7c-1.9-1.2-2.2-3.3-1.9-5.6l13.6-66.7L853.4,226c-1.9,1.2-4.3,2.6-6.1,1.1c-1-0.7-1.4-1.9-1.7-3.2
		l-19.8-43.4l-21.3,40.8c-1,2.3-3.2,3.3-5.6,3.7c-1.4,0.2-3.1,0-4.3-0.7l-18.1-10l10.4,65.5c0.2,2.3,0.5,5.3-2,6.1
		c-2,0.9-3.9-0.7-5.1-2.3L753.7,255l-6.5,18.4l-36.3-7.4l9.9,39.4l-14.7,7.2l57.3,49.4l-6.5,22.8l58.5-9.8l0.2,170.9L552.3,430.6
		l-35.2-44.5l50.5-29.7L549,342.2l16.7-76l-16.2,4.6l-16.7-39l-25,28.9l-15.2-11.2l-2.9,41.5c-0.2,2.6-2,4.9-4.3,4.7
		c-2.4,0.5-3.9-0.7-5.1-2.6L448.9,233l-6.5,20.3c-0.5,2.1-1.5,4.7-3.9,4.9c-1.2,0-2.4-0.7-3.4-1.4L392.8,237l9.4,45.5
		c0.7,2.1-0.3,4.2-1.9,6.1c-1,1.4-2.4,2.1-3.6,2.5l-20.3,4.6l49.2,42.9c1.5,1.4,3.9,3.3,2.6,6c-1,2.1-3.6,1.9-5.5,1.6l-38-4.4
		l6.8,18.4l-32.2,18.6l32.2,23.5l-6.5,15.4l74.6-0.9l9.5,21.7l40.2-45.8l38.6,47.7l267.3,119.1l0.2,102.8H827L826.6,559l272.5-119.2
		l38-48.2l39.9,45.7l9.5-21.7l74.6,0.7l-6.6-15.2l32.4-23.5l-32.4-18.6l7-18.4l-38,4.4c-2,0.4-4.4,0.5-5.5-1.6
		c-1.4-2.6,0.9-4.6,2.6-6l49.1-42.9l-20.1-4.6c-1.4-0.4-2.6-1.1-3.6-2.5c-1.7-1.9-2.6-4-1.9-6.1l9.2-45.5l-42.3,19.8
		c-1,0.7-2,1.4-3.2,1.4c-2.4-0.2-3.4-2.8-3.9-4.9l-6.5-20.3l-31.5,60.1c-1.2,1.9-2.7,3.2-5.1,2.6c-2.2,0.2-4.3-2.1-4.4-4.7
		l-2.7-41.5l-15.2,11.2l-25.2-28.9l-16.7,38.9l-16-4.4l16.7,76l-18.6,14.2l50.7,29.8l-32.5,42.8l-270.8,118V375.3L826.1,375.3z"/>
	<g>
		<path class="st2" d="M953,1208.4l24.7,44.2l22.1-4.4v33.9l30.1,0.2v-33.7l25,4.8l-2.5-8.7l20.4,3.9l-4.7-9.4l29.7,3.6l-29.7-53.6
			h7.2l-25-44.4h4.2l-39.7-69.1l-40,67.6h4.9l-26.2,46.5h8.2L953,1208.4L953,1208.4z"/>
		<path class="st2" d="M643,1252.7l24.8-43.5l-9.1-19.3h8.2l-26.2-46.5h4.9l-40-67.6l-39.7,69.1h4.2l-25,44.4h7.1l-29.5,53.6
			l29.5-3.6l-4.6,9.4l20.4-3.9l-2.5,8.7l25-4.8v33.7l30.1-0.2v-33.9L643,1252.7L643,1252.7z"/>
		<path class="st2" d="M901.4,1185.2l16.6,4.7l-47.9-84.2l8.9,0.3l-69.4-120.2L740.6,1106l9-0.3l-47.9,84.2l16.6-4.7l-54.8,98.4
			l53.2-9.7l-10.4,18.2l37.1-9l-4.9,16.3l45.4-6.9v63.7h51.8l-0.2-63.7l45.5,6.9l-4.9-16.3l36.9,9l-10.2-18.2l53.2,9.7L901.4,1185.2
			L901.4,1185.2z"/>
	</g>
	<polygon class="st3" points="66.7,291.5 238.3,1218.5 815.9,813.9 	"/>
	<polygon class="st4" points="403.7,1002.5 408.3,999.4 412.2,995.4 416.2,990.9 419.6,985.5 422.4,979.3 424.4,972.2 426.1,964.6 
		426.6,955.8 432.3,958 436.6,959.2 441.6,959.8 444.5,959.5 447.6,958.7 450.7,957.5 453.8,956.1 457.2,953.8 460.3,951 
		463.7,947.3 467.1,943.1 459.2,943.3 451.5,942.2 444.5,939.9 441.3,938.3 438.2,936.3 435.4,933.8 432.9,930.9 430.6,927.8 
		428.9,924.1 427.2,920.2 426.4,915.9 425.5,910.8 425.2,905.8 495.6,905.8 495.6,877.7 452.9,877.7 452.6,873.2 452.9,859.3 
		454.4,852.8 456,847.2 458.3,842.3 461.2,838.1 464,834.4 467.3,831.3 470.7,828.7 474.1,826.8 481.2,823.7 487.7,822 493.1,821.4 
		497.1,821.1 500.8,821.1 505.5,822 511.5,823.7 514.3,825.1 517.5,827.1 520.2,829.4 523.1,832.5 525.4,836.1 527.6,840.7 
		529.3,845.7 530.7,852 531.6,858.8 531.9,866.7 538.1,863.5 544,859.9 548.8,855.9 553.4,852 557.3,848 560.4,843.8 563.2,839.5 
		565.5,835 567.2,830.5 568.4,826 568.9,821.4 569.2,816.9 568.9,812.4 568.4,807.9 567.5,803.3 565.8,798.8 564.1,794.6 
		561.8,790.4 556.8,782.5 550.3,775.3 546.6,772.3 542.6,769.2 538.7,766.3 534.4,764 529.9,761.8 525.1,760.1 520.2,758.4 
		515.5,757.2 510.3,756.7 505.3,756.4 495.4,757 486.3,758.7 478.1,761.8 470.7,766 464,771.4 458,777.9 452.6,785.2 448.1,793.5 
		444.2,802.2 440.8,811.8 437.9,821.7 435.9,832.5 434.3,843.5 433.2,854.8 432.3,866.4 432.3,878 417.6,878 416.7,876 415.9,868.9 
		415.6,863 415.9,855.4 416.2,845.2 417.6,833 419,822.3 420.7,812.7 423.2,804.2 426.1,796 433.7,778.2 443.9,755.8 449.5,741.1 
		453.2,727.3 455.5,714.8 456,708.6 456,702.9 455.5,692.2 453.8,682 451,672.7 447.3,664.2 443.1,656 437.9,648.3 432.5,641.3 
		426.9,634.5 415.1,621.8 403.7,609.6 392.4,621.8 380.6,634.5 375,641.3 369.6,648.3 364.4,656 359.9,664.2 356.2,672.7 353.7,682 
		351.7,692.2 351.5,697.5 351.2,702.9 352,714.8 354.2,727.3 358,741.1 363.6,755.8 373.8,778.2 381.4,796 384.3,804.2 386.5,812.7 
		388.5,822.3 389.9,833 391.1,845.2 391.6,855.4 391.6,863 391.6,868.9 390.5,876 389.9,878 375.2,878 375,866.4 374.3,854.8 
		373.2,843.5 371.6,832.5 369.3,821.7 366.7,811.8 363.3,802.2 359.4,793.5 354.6,785.2 349.5,777.9 343.6,771.4 336.8,766 
		329.4,761.8 325.1,760.1 320.9,758.7 316.7,757.5 311.9,757 307,756.4 302.2,756.4 296.8,756.7 292,757.2 286.9,758.4 282.1,760.1 
		273.1,764 264.6,769.2 257.2,775.3 253.8,778.7 250.7,782.5 247.9,786.4 245.4,790.4 243.4,794.6 241.4,798.8 240,803.3 
		239.1,807.9 238.3,812.4 238.3,816.9 238.3,821.4 239.1,826 240.3,830.5 242,835 244.2,839.5 246.8,843.8 250.2,848 254.1,852 
		258.4,855.9 263.5,859.9 269.2,863.5 275.6,866.7 275.9,858.8 276.5,852 277.9,845.7 279.9,840.7 281.9,836.1 284.4,832.5 
		287.3,829.4 290,827.1 292.9,825.1 296,823.7 302,822 306.7,821.1 310.4,821.1 314.1,821.4 319.8,822 326.3,823.7 333.4,826.8 
		336.8,828.7 340.2,831.3 343.6,834.4 346.3,838.1 349.2,842.3 351.5,847.2 353.1,852.8 354.2,859.3 354.9,867.6 354.9,873.2 
		354.6,877.7 311.9,877.7 311.9,905.8 382,905.8 382,910.8 381.1,915.9 380,920.2 378.6,924.1 376.6,927.8 374.3,930.9 372.1,933.8 
		369.3,936.3 366.2,938.3 362.8,939.9 359.4,941.4 355.7,942.2 348.3,943.3 340.4,943.1 343.8,947.3 346.9,951 350.3,953.8 
		353.7,956.1 356.8,957.5 359.9,958.7 362.8,959.5 365.6,959.8 371,959.2 375.2,958 380.6,955.8 381.4,964.6 382.9,972.2 
		385.1,979.3 387.9,985.5 391.3,990.9 395,995.4 399.2,999.4 403.7,1002.5 	"/>
	<polygon class="st5" points="1566.8,291.5 1391,1218.5 815.9,813.9 	"/>
	<path class="st4" d="M1283.3,722.8c-6.8,2.5-12.7,4.4-19.6,6.3c-2.2,0.6-21,1.2-23.5,0.8c-17.5-2.8-7.8-2.1-24.5-6.9
		c-3.8-1.1-27.8-4.5-30.7-4.5c-4.4,0.1-20,3.2-26.1,7.7c-4.3,3.2-8.9,9.2-8.8,14.9c0.5-0.3,1-0.7,1.5-1c1.1-0.8,3.5-4.2,4.7-5.9
		c0.6-0.9,8.1-5.8,9.8-6.5c16.2-6,31.4-5.1,47.1,2.6c2.9,1.6,5.8,3.7,8.3,4.7c0.8,0.3,1.5,0.5,2.3,0.8c1.7,0.7,14.2,10.2,21.5,15.1
		c9.7,6.6,19,9.8,30,10.4l-0.4-7.2c4.2-1.3,8-1.2,12.1,0.4c1,0.3,1.9,0.4,2.9,0.3c0.1,0,1.6-0.6,2-1.3c0.1-0.2,0.1-0.3,0-1.4
		l-0.3-5.7c3.8-1.9,6.9-3.7,10.5-6.1c1.6-1.2,4.5-4.5,4.9-6.6c0.9-4.3-12.2,0.6-15,1.1c-2.7,0.5-9.4,0.8-10.7,0.4
		c-1.7-0.5-2.1-1.9-1.3-4L1283.3,722.8L1283.3,722.8z M1017.3,769.1c1.5,10.7,4.2,19.5,8.7,28.9c0.7,1.4,6.6,12.1,8.3,11.9
		c0.4,0,0.7-0.4,1-0.8c0.6-1,0.4-1.7-0.8-3.7c-1.7-2.9-3.9-5.6-5.4-8.3c-3.2-5.6-9-28.1-7.5-35.6c0.2-1.1,0.7-1.9,1-3
		c0.4-1.4,0.5-9.1,1-13.7c0.4-3.8,2-9.3,2.3-12.4c0.6-6.9-2.4-17.7-6.9-22.2c-1.8-1.8-5-2.9-6.5-0.2c-0.7,1.2-2.1,7.4-2.6,7.9
		c-0.3,0.3-1.9,0.8-2.9,0.6c-0.9-0.2-1.9-1-2.7-1.2c-3.2-1-4.6,4.3-4.2,7.6c0.3,2.2,1.4,5.8,1.3,6.8c0,0.5-0.8,1.4-1.2,1.5
		c-1,0.2-2.6-0.2-4,0c-3,0.4-3.7,4.2-3.3,7.4c1.1,7.6,2.5,8.5,5.7,15c0.8,1.5,1.2,2.9,1.5,4.6c0.1,1.5-1.3,8.3-1.3,11.2
		c0,3.8,2.6,12.7,4.6,17c2.1,4.3,3.9,7.9,6.2,12.1c0,0-5.3,1.9-6.2,2.7c-3.7,3,9.1,13,12.3,15.9c0.7,0.7,0.8,0.8,0.8,1
		c0.1,1.4-1.8,4.2-2,4.9c-0.3,1.3,0.2,2.6,0.8,3.9c2.6,5.3,4,5.5,7.6,7.7c7.4,4.6,5.5,4.3,8.4,11.9c2.2,5.7,22.3,14.8,25.9,16.7
		c5.1,2.6,6.9,2.5,9.4-3.1c0.6,0.8,1.1,1.6,1.6,2.5c0.6,1.2,0.7,2,1.1,3c0.6,1.5,1.8,3.4,2.2,4.5c1.1,3.1-2.9,0.2-5.8,0.5
		c-0.9,0.1-4,2.3-6.1,3.3c-1.2,0.5-2.3,0.7-3.6,0.7c-14.3,0.9-19.2-7.4-34.4-19.3c-6.2-4.8-19.4-13.7-28.4-11.2
		c-4.8,1.3-7.3,5.1-4.3,10.5c1.2,2.2,2.8,4.6,2.8,5.1c0,0.5-1.7,2-2.6,4c-1.1,2.2-1.6,5.2-1,6.1c0.4,0.7,8.2,4.5,8.7,5.3
		c1,1.5-0.1,4-0.7,6.5c-0.5,2.4-0.3,3.9,0.7,4.7c3.2,2.7,12.3,1.5,14.4,1c5.2-1.5,9.5-3,14.6-5c11,18.6,28.2,27.2,46.5,23.3
		c3.6-1,7.2-2.7,10.2-3.7c0.9-0.3,2.6-0.3,2.9,0c0.5,0.5,1,2.9,1.8,4.5c1.1,2.2,2.9,1.4,4.9-0.4c2.1-1.9,7.7-9.4,8.5-9.8
		c0.3-0.1,0.6-0.2,0.9,0c1.2,0.8,1.9,4.6,2.8,5.9c1,1.4,3.3,0.2,5.9-1.2c2.4-1.3,28.8-19.9,29.7-30c0.1-1.1-0.3-2-0.9-2
		c-0.8-0.1-4.1,3.8-5.2,5.3c-1.3,1.8-2.6,4.1-3.7,5.1c-1.2,1.1-2.7,1.6-3.9,2.9c-2.7,2.8-2.6,4.6-4.5,5.5c-1.2,0.5-1.2,0-1-1.4
		c0.1-0.6,0.2-0.8,0.8-1.6l10.9-14.4c0.6-0.8,0.7-0.9,0.7-1.3c0.1-1,0-1-0.5-0.9c-0.5,0.1-0.4,0.2-1.2,1l-7,8.3
		c-0.5,0.6-1.4,1.4-2.1,0.8c-0.2-0.2,0-0.9,0.4-1.5c1.6-2.8,5.4-7.7,5.6-8.6c0.4-1.5,0.2-3.6,1.9-4.4c0.3-0.1,0.5-0.1,1.3-0.1
		c55.5,4.6,44.8,2.7,103.1-21.3c1.2-0.5,7.3-1.9,7.1,0.6c-0.1,1.1-1.2,3.2-1.6,5.1c-1.8,8.5,7.3,13.1,12.2,20
		c10.2,14.3-2.3,34.9-15.7,33c-3.1-0.4-5.7-3.2-14.5-3.2c-1.4,0-2.6-0.2-4-0.7c-1.4-0.6-3.2-1.5-4.1-1.4c-1.2,0.1-0.9,0.5-0.6,1.5
		c1.4,4.2-6.2,0.8-7,0.6c-1.8-0.4-6.7-0.5-7.5,2c-0.3,0.7-0.3,1.6-0.6,2.1c-0.2,0.3-2.2,0.3-2.6,0c-0.8-0.7-1.4-2.7-1.9-3
		c-0.5-0.3-2.1,0.6-3.5,0.5c-1.5,0-2.6-1.1-2.1-2.3c1-2.8,5.2-2,7.2-2.1l8.5-0.6c-2.6-0.5-4.9-0.8-7.5-1.2
		c-7.1-1.6-13.7,0.2-19.6,5.5c-3,3-8.1,9.7-8.2,14.7c-0.3,14.1,10.5,1.9,12.5,1.4c2.5-0.7,3,2.6,5.5,5.1c4.7,4.8,8-1,11.7-4.5
		c3.6-3.3,3.4,1.4,7.5,5.3c2.5,2.3,5.8-1.4,8.2-3.9c3.6-3.8,5.5-0.4,10.1,2.6c5.1,3.4,14.9,2.9,20.6,0.8c3.6-1.3,7.4-3.7,10.1-4.8
		c0.8-0.3,1.5-0.5,2.1-0.3c0.8,0.3,2.9,2.9,4.5,4.1c1.6,1.1,3.3,1.1,4.9,0.2c2.2-1.1,5.7-3.8,6.5-3.9c1.1-0.1,4.1,1.2,5,1.1
		c1.4-0.2,4.3-2.8,5.5-4.5c1.4-2.2,3.8-8.4,4.6-9.4c1.1-1.3,1.7-0.4,3.9,0.4c3.3,1.3,3.2-3.6,2.9-5.9c-0.8-5.7-2.3-10.3-4.9-15.1
		c-0.8-1.3-6.9-7.3-9-8.8c-2.6-1.7-4.8-3.4-7.2-5.5c-2.8-2.8-8.4-10.8-9.3-14.7c-1-4-1.5-11.4-2-12.2c-0.1-0.2-0.2-0.3-0.4-0.4
		c-1-0.5-1.7,1.9-1.9,3c-0.5,3.8-0.4,8.4,1.3,11.6l7.6,14.6c0.5,0.9,0.5,1,0.5,1.3c-0.1,0.6-0.2,0.6-0.7,0.4c-1.8-1.1-5.1-4.3-5.9-6
		c-0.5-1.1-0.8-2.3-1.3-3.3c-0.5-0.9-1.1-1.6-1.6-2.4c-2-3.2-2.7-10.6-2.5-13.5c0.1-1.1,0-1.2-0.6-1.4l-1.3-0.3
		c-0.1,1.2-0.1,2.3-0.1,3.5c-0.1,6.4,1.3,6.8,3.5,12.5c0.5,1.2,1.3,5.1,0.8,5.7c-0.4,0.6-1.2-0.3-1.8-1.2c-2.2-3.5-4.2-8.4-4.4-11.9
		c-0.2-3.1,0-9.2-0.3-10.4c-0.8-2.8-1.8-3.2,0-4.8c9.1-8.2,28.3,0.9,35.9,7.3c3.9,3.3,11.7,12.5,15.8,16.1
		c9.7,7.3,19.5,10.5,30.9,10c3.6-0.4,18.5-5.4,21.4-5.6c4.5-0.2,8.4-0.2,12.9,0.1v-0.4c6,1.6,11,3.1,17,5.1
		c6.3,2.4,10.7,8,12.7,15.8c0.3,1.4,0.3,8.1,0,9.5c-0.7,3.4-2.2,5.9-4.6,7.7c-7.2,5.9-12.6,3.6-22,3.9c-6,0.3-11.1,2.3-16.2,6.3
		c-2.7,2.4-6.9,9.9-4.7,14.5c1,2.1,3.7,3.4,5.7,2.9c1.6-0.4,4.6-2.7,5.7-2.9c1.4-0.2,2.5,1.3,4.4,3.1c3,2.8,4.5,1.9,7.8-0.2
		c2.9-1.9,7.3-3.8,8.9-2.9c1,0.6,3.5,4,4.3,4.5c6.3,3.3,14.8-5.4,18-10.8c3.6-6,3.9-9.1,7.5-9.4c2.2-0.2,2.7,0,3.9-1.6
		c3.6-4.6,1.6-10.8,0.2-18.7c-0.2-0.9-0.3-1.8-0.2-2.6c0.5-2.8,2.4-2,5.2-3.2c1.3-0.5,0.7-1.8-0.2-4.2c-1-2.5-1.7-5.1-2.8-7.2
		c-2.8-5.9-8-9.8-13.7-14.6c-0.7-0.6-0.8-0.7-1-1.1c-0.4-0.9-0.4-2.2-0.3-2.7c0.4-1.4,2.6-4.5,2.6-5.2c0-0.5-0.2-0.8-0.6-1.3
		c-5.3-6.2-23.8-13.9-33.7-9.3c-8.8,4.1-28.5,1-35.6-4.9c-0.8-0.6-1.5-1.4-2.3-2c-2.2-1.9-5.2-3.3-7.8-5.3c-1.4-1.1-8.8-9.7-10-11.6
		c-15.5-26.1-36.6-29.5-61.6-23.4c-7.6,1.9-17.4,5.8-22.4,6.9c-7.7,1.6-18.8,2.2-22.7,3.2c-13,3.5-48.5-2.7-65.2-9.5
		c-1.1-0.4-1.8-1.3-2.7-1.5c-0.9-0.2-7.2,1.6-7.2,1.6s-1.1-13-0.8-14.1c0.2-0.8,2.8-3.6,3.3-4.8c1-2.6-0.7-9.4-2.3-13.4
		c-2.7-6.9-7.9-14.5-2.6-18.3c1.1-0.8,2.2-0.7,3.1-1.4c1.8-1.4,2.9-6.9,2.4-8.7c-0.8-3.2-4.9-8.4-8.1-7.6c-1.6,0.4-5.2,2.9-5.9,2.9
		c-1.6,0-1.5-2.7-1.8-5.3c-0.1-0.7-1-2.4-1.4-2.4c-0.8-0.2-7.4,1.6-7.4,1.6s-1.6-5-2.2-5.7c-0.3-0.3-1.3,0-2.6,0
		c-1.1,0-2.4-0.3-2.5-2c-0.1-1.7-0.3-4.5-0.7-5c-0.2-0.3-3.9-0.3-5.4,0c-5.6,1.3-7.9,3.5-12.1,7.5c-0.6-2.1-1.2-3.9-2-5.9
		c-0.8-1.6-2.4-1-3.8,0.6c-1.2,1.4-2.7,4.2-3.6,4.9c-0.9,0.6-1.7,1.1-2.6,1.6c0,0-4.9-6.6-5.9-7.3c-4.8-3.4-12.9,1.4-10.8,9.3
		c0.5,1.7,4.2,9.1,4.2,9.1c-2.5,2.6-4.7,4.8-7.2,7.5c-2.1,2.2-10.3,13.6-10.9,15.1c-0.5,1.3-1.3,3.6-1.1,5c0.4,3.1,3.6,2.7,4.6,4
		c0.2,0.3-0.2,3.2-0.5,3.9c-1.4,2.3-2.7,4.1-4.4,6.1c-1,1.3-5,9.2-5.4,10.8c-0.7,2.7-1.2,5-1.7,7.7c0,0,3.4,2.4,4,3.3
		c0.7,1,0.6,3.1,0.3,4.5c-0.3,1.4-2.5,5.5-3.7,8.3c-2.1,5.3-2.6,10.5-1.7,16.3c0.5,2.1,0.7,2.6,0.1,3.3c-1.4,1.3-2.1,0.9-3.1-1
		c-1.5-2.9-2.8-7.8-1.7-9c1.2-1.3,1.6-1.7,1.2-3.3c-0.3-1.2-8.1-12.1-11.3-17.8C1022.2,796.1,1012.8,770.5,1017.3,769.1
		L1017.3,769.1z M1090.6,739c-0.3-0.8-2.3-2.4-2.8-3.5c-0.2-0.4-0.2-0.8,0-1c0.2-0.2,0.8-0.2,1.3,0c2.4,0.9,3.4,4.8,2.9,7.2
		c-0.8,4.4-5.5,8.8-8,9.5c-4.3,1.2-10.2-3.2-11.5-10.3c-0.1-0.5-0.1-0.9,0-1.3c0.3-1.3,1.3-2.2,2.4-1.8c1.7,0.3,6.4,3.2,8.5,3.7
		c2.2,0.6,4.1,0.2,6.1-1C1090,740,1090.7,739.3,1090.6,739L1090.6,739z M1103.6,745.5c1-4.4,2-2.4,2.8-0.1c2,5.6,6.2,4.8,10.4,4.8
		c1.4,0,4.3,0.7,4.9,1.2c1.6,1.2,0.6,3.4-1.1,5.1C1113,764,1100.8,757.9,1103.6,745.5L1103.6,745.5z M1055.5,750
		c0.2-1.2,3-6.2,4.4-6.5c0.5-0.1,0.7,0.1,1.2,0.9c1,1.6,4.5,11-2.9,9.7C1056.6,753.8,1055.1,752.4,1055.5,750L1055.5,750z
		 M1093.4,749c1.4-2.6,3.3-4.9,4.7-2.6c1.3,2.3,1.3,3.8,1,6.4c-0.1,1.1-0.2,1.1-0.9,0.7c-1.5-0.9-4-2.3-4.5-3
		C1093.6,750.3,1093.1,749.4,1093.4,749L1093.4,749z M1073.3,808.2c-0.5-1.2-0.8-2.3-1.2-3.6c-0.8-3.6,2.9-3.2,6.2-4.2
		c9.2-2.8,6.8-4,4.1-12.4c-0.8-2.5-1.4-8.6-2-9.8c-0.7-1.4-1.8-3-1.8-3.7c0-0.2,4.7-8.7,6.3-8.5c1,0.1,0.5,0.9,1.4,2.8
		c0.4,0.9,1.6,1.6,2.3,2c2.2,1.3,8.2,3,9.3,1.8c0.6-0.6,1.3-1.8,1.8-2.2c1.9-1.2,2.3,3.7,2.9,5.7c0.5,1.8,1.3,2.9,1.2,4.5
		c0,0.5-0.1,0.6-0.8,1.3c-1.4,1.2-3.4,3.1-3.9,4c-0.7,1.2-0.8,2.6-1.3,3.7c-0.4,0.7-0.9,1.3-1.5,1.7c-4.2,3.2-7.2,4-7.1,8.3
		c0,1.9,3.4,6.7,5.5,9c1.1,1.1,2.2,2,2.6,2.9c0.2,0.4,0.2,1.5,0,1.8c-0.3,0.3-1.7,0.1-2.1-0.2c-0.6-0.6-1.1-1.7-1.8-2.4
		c-2.4-2.5-5.8-0.1-9,0.6c-0.6,0.1-2.5-0.7-3.1-1.2c-1.8-1.8-3.2-3.5-4.8-5.5L1073.3,808.2L1073.3,808.2z M1130.5,780
		c0-0.8,0-1.4,0.1-2.1c0.1-1.6,0.6-2.6,1.4-2.2c1.1,0.5,1.2,3.1,1.1,4c-0.1,0.9,0.2,2.3,0.4,3.7c0.5,5.6,0.2,10.5-0.9,15.9
		c-0.5,2.4-0.7,2.5-1.4,1.6c-0.2-0.3-0.3-0.4-0.3-1.5L1130.5,780L1130.5,780z M1012.9,780.5c0.2,0,0.3,0.1,0.7,0.9
		c0.3,0.7,0.5,1.3,0.7,2c0.7,2.9,1.6,6.2,2.2,8.8c0.1,0.5,0.2,1,0.1,1.3c-0.2,0.6-0.9,0.5-1.3,0c-3-3.3-3.1-10.8-2.9-13H1012.9
		L1012.9,780.5z M1047.8,812.3c-0.1,0.4-0.6,1.1-1.1,1.3c-0.3,0.1-1.6-2.7-1.7-3.6c-0.7-4.6,1.7-19.7,3.8-25
		c0.5-1.4,1.1-2.5,1.7-2.9c0.3-0.2,1,0.1,1.1,0.4c0.7,2.3-1.5,9.3-2.1,12.6C1048.7,799.6,1048.4,808.1,1047.8,812.3L1047.8,812.3z
		 M1126,788.5c0.1-1.3,0.3-2.4,1.1-2.6c1.3-0.4,1.7,3.6,1.5,4.7c-0.2,1.1-0.8,2.1-1,3.1c-0.3,1.8,0.9,5.2-1.1,6
		c-0.3,0.1-0.5,0-0.7-0.4c-0.9-2-0.4-3.5,0.2-5.5c0.3-1.1,0.4-3.9,0.2-4.5C1126.1,788.9,1125.9,788.7,1126,788.5L1126,788.5z
		 M1051.6,814c-0.3,0-0.5,0-0.8,0c-0.3,0-0.3-0.2-0.4-0.4c-1.8-10.6-0.7-11.7,2.7-25.7c0.1-0.6,0.6-2.3,1.2-0.8
		c1.6,3.7-0.9,9.3-1.8,14.9C1052,806.1,1051.7,809.7,1051.6,814L1051.6,814z M1018.4,798.2c0-0.1,0.2-0.3,0.3-0.4
		c0.6-0.5,1.2,0.8,1.6,1.8c0.3,0.6,2.5,5.4,1.6,6.3c-0.6,0.7-1.3-0.7-1.8-1.6C1019.2,802.4,1017.9,800.1,1018.4,798.2L1018.4,798.2z
		 M1126.9,821.6c0.8-2.2,1.4-0.6,3.3,0.3c2.6,1.3,3.8-0.4,4.2,2.2c0.3,1.6-1,2.4-2.1,2.5C1130.8,826.8,1126.7,822.3,1126.9,821.6
		L1126.9,821.6z M1043.2,829.9c-0.4,0-0.8-0.1-1.1-0.5c-0.7-0.7-0.8-2-0.2-2.8c0.6-0.9,1.4-0.6,2.1,0.5c0.5,0.7,0.4,1.9,0.4,2.7
		H1043.2L1043.2,829.9z M1088.9,869.5c0,0-1.4-2.9-2.1-3.5c-0.7-0.7-1.7-0.5-2.2-1c-0.3-0.3-0.5-0.7-0.6-1.2
		c-0.7-2.7,1.3-4.8,3.5-5.4c1.7-0.5,1.4,0.8,3.6,3.1c1.8,1.9,3.8-1.3,5.8-4.2c0.8-1.1,1.9-1.6,2.6-0.1c2.3,4.8,3.3,4.5,6.3-0.7
		l3.8-7.6c1.1-2.6,2.8-5.9,4.1-5.7c0.7,0.1,3.8,3.3,4.6,3.5c0.7,0.2,1.4-0.1,1.7,0.3c0.6,0.6,0.2,4.2-0.7,5.1
		c-1.7,1.9-2.9-0.9-5.2-1.8c-1.7-0.7-2.5,1.8-2.6,4.6c-0.1,2.5,0.4,4.4-0.8,5.5c-0.5,0.5-4.6,1.2-5.4,1.8c-0.7,0.5-2.2,4.1-3.3,5.3
		c-1.3,1.4-3,1.5-4.8-0.3c-0.8-0.7-1.2-1.7-1.7-1.7C1094.8,865.5,1088.9,869.5,1088.9,869.5L1088.9,869.5z M1051.7,844.1
		c0.9,0,1.7,2.2,1.8,3.1c0.2,1.7-0.3,2-0.8,1.8c-0.5-0.2-2-2.1-2.1-2.7c-0.1-0.8-0.1-1.4,0-2.2H1051.7L1051.7,844.1z M1044,845.4
		c0.1-0.2,0.4-0.4,0.7-0.4c0.9-0.1,1.6,1.1,1.2,1.9c-0.2,0.5-0.6,0.7-1,0.5C1044.5,847.3,1043.7,846.2,1044,845.4L1044,845.4z
		 M1055.5,855.5h2.2c1.1,0.1,2.1-0.2,3-1c1.8-1.5,3.1-3.2,4.7-0.6c0.9,1.5,1.8,6.8,0.4,7.3c-0.7,0.3-0.7-0.6-1.2-1.9
		c-1.2-3.8-3.6-1.9-5.9-0.8C1056.4,859.6,1055.2,858.5,1055.5,855.5L1055.5,855.5z M1172.8,860.2c0.4-0.3,1.2-0.3,2-0.4
		c1.6-0.2,5.4-2.1,7.3-2.7c0.8-0.2,1.6-0.1,2,1.1c0.4,1.3-1.8,2.6-2.9,3.2c-2.8,1.6-6.7,1.7-8.2,0.4
		C1172.8,861.8,1172,860.8,1172.8,860.2L1172.8,860.2z M1310.7,861c0-0.1,0.1-0.1,0.1-0.2c0.3-0.3,8.2,2.5,13.3,3.9
		c1.6,0.4,7.9,0,11.4,0.3c1.4,0.1,3.1,0.7,2.8,1.9c-0.4,1.8-2.7,2.4-4.3,2.6c-4.2,0.4-16.5-0.9-20.5-3.5
		C1312.9,865.4,1310.1,863,1310.7,861L1310.7,861z M1145.9,861.9c0-0.2,0.2-0.3,0.3-0.5c1.2-1.2,2.1-0.5,3.2-0.1
		c1.1,0.4,3.7-0.1,4.4,0.3c1.4,0.7,1.5,2.2,0.7,3c-0.4,0.4-5.9,0.9-6.4,0.6C1147,864.8,1145.5,863.6,1145.9,861.9L1145.9,861.9z
		 M1159.3,864.1c-0.7,0-0.8,0-0.8-0.2c-0.1-0.1-0.1-0.2-0.1-0.4c-0.3-1.4,0.9-1.7,2.1-1.4c0.5,0.2,1,0.9,0.5,1.8
		C1160.8,864.2,1159.7,864.1,1159.3,864.1L1159.3,864.1z M1391.4,871.6c-0.7-0.6-0.8-0.7-0.8-0.9c0-0.1,0-0.2,0.1-0.3
		c0.7-1.7,5,1.7,5.8,2.3c0.6,0.4,1.1,0.8,1.7,1.3c8.7,7.8,10.6,22.9,4.4,33.7c-0.9,1.5-2.7,3.8-3.9,2.7c-1.3-1.1,0.9-4,1.8-5.3
		c3.3-4.9,4.7-17.1,0.7-22.2c-0.6-0.7-1.3-1.3-1.8-2c-0.6-0.9-0.8-1.9-1.3-2.9C1397.4,877,1393.6,873.6,1391.4,871.6L1391.4,871.6z
		 M1408.5,886.9c1.9-0.2,2.5,2.9,2.5,5.4c0,2.1-0.2,4.9,0,6.2c0.3,2.1-0.8,2-2.5,1.8V886.9L1408.5,886.9z M1067.7,897.9
		c0,0-1.5,1.5-1.7,2.3c-0.1,0.4,0,0.6,0.2,0.8c1.2,1.5,3.9-0.8,8.9-0.4c0.5,0,0.9,0.1,1.4,0.4c0.6,0.3,0.4,0.9-0.3,1.6
		c-6.3,6.6-29.4,1.1-34.2-7.5c4.1,2.1,7.8,3.4,12.2,4.3c2,0.2,1.4-0.4,1-2.3c-0.3-1.8,3.3-1.7,4.6-1.4L1067.7,897.9L1067.7,897.9z"
		/>
</g>
<g>
	<path class="st6" d="M1815.2,441.2c6.3,0,17.9,0.8,28.5,0.8c10.9,0,22.2-0.5,32.6-0.8l-1.5,7.1c-16.7,1-17.9,2.5-18.2,7.8
		c-0.5,17.4,0,79.6,0.5,121.8c28.8-45.7,53.8-82.4,74-119.7c3.3-5.8,2.3-7.6-1.3-8.1c-5.3-0.8-10.6-1.3-15.9-1.8l2-7.1
		c4.3,0,17.4,0.8,27,0.8c7.6,0,17.9-0.8,27.3-0.8l-1.5,7.1c-15.2,1.3-18.7,3.8-26.5,14.7c-18.4,25.5-59.6,87.9-89.7,138.9
		c-7.1,0.3-13.6,1.8-17.2,3.5l-1.3-1c0.5-39.9-0.8-121.3-2.3-148.8c-0.3-4-1.5-5.6-6.8-6.1l-12.1-1.3L1815.2,441.2z"/>
	<path class="st6" d="M1974.6,441.2c9.6,0,20.7,0.8,31.1,0.8c12.6,0,24-0.8,31.8-0.8l-2.3,7.1l-11.1,1c-5.1,0.8-7.1,2.3-9.1,7.8
		c-3,8.1-9.3,29-19.2,63.9c-9.6,33.6-15.7,56.3-17.7,65.2c-1,6.1,0.8,7.3,5.3,7.8l13.6,1.3l-2.3,6.8c-8.3,0-22.5-0.8-34.4-0.8
		c-13.1,0-23.7,0.8-31.3,0.8l2.5-6.8l10.9-1.3c6.1-0.5,8.3-1.8,10.6-8.8c3.3-9.1,7.6-23,19.7-64.4c10.6-36.4,14.9-52.8,17.4-63.2
		c1.5-5.8,0.5-7.8-5.1-8.3l-12.9-1L1974.6,441.2z"/>
	<path class="st6" d="M2138.6,555.4c-4,9.6-12.6,31.8-18.7,47.2c-9.6-1.3-44.5-1.3-79.6-1.3c-11.4,0-27,0.8-33.6,0.8l2-6.8
		c4.3-0.5,9.1-1,13.6-1.5c4-0.5,6.3-1.8,8.1-6.1c5.1-13.9,11.6-36.9,21.2-70.5c7.8-26.5,12.9-46.2,16.9-62.1c1-3.8,0-5.1-5.1-5.6
		l-13.4-1.3l2.3-7.1c5.6,0,21.7,0.8,31.8,0.8c10.4,0,22.5-0.5,32.8-0.8l-2,7.1l-12.9,1.3c-5.6,0.8-7.1,1.8-8.8,6.6
		c-4.8,12.9-10.4,32.3-18.7,62.1c-8.3,29.3-15.9,57.1-18.9,71.7c-0.5,3,1,4,13.4,4c27.5,0,34.1-1.8,41.9-9.6
		c7.8-7.8,14.1-18.9,20.7-30.1L2138.6,555.4z"/>
	<path class="st6" d="M2270.2,555.4c-4,9.6-12.6,31.8-18.7,47.2c-9.6-1.3-44.5-1.3-79.6-1.3c-11.4,0-27,0.8-33.6,0.8l2-6.8
		c4.3-0.5,9.1-1,13.6-1.5c4-0.5,6.3-1.8,8.1-6.1c5.1-13.9,11.6-36.9,21.2-70.5c7.8-26.5,12.9-46.2,16.9-62.1c1-3.8,0-5.1-5.1-5.6
		l-13.4-1.3l2.3-7.1c5.6,0,21.7,0.8,31.8,0.8c10.4,0,22.5-0.5,32.8-0.8l-2,7.1l-12.9,1.3c-5.6,0.8-7.1,1.8-8.8,6.6
		c-4.8,12.9-10.4,32.3-18.7,62.1c-8.3,29.3-15.9,57.1-18.9,71.7c-0.5,3,1,4,13.4,4c27.5,0,34.1-1.8,41.9-9.6
		c7.8-7.8,14.1-18.9,20.7-30.1L2270.2,555.4z"/>
	<path class="st6" d="M2314.1,441.2c9.1,0,23.7,0.8,36.4,0.8h38.4c19.2,0,30.8-0.8,35.9-1.3c-3.3,6.3-9.9,31.3-13.1,43.4h-6.1
		c0.8-6.8,1.5-15.2,1.5-22.5c-0.3-9.6-3.5-11.9-26.5-11.9h-18.4c-3,0-4.3,1-5.3,4.3c-4.3,12.4-12.6,40.7-17.7,59.9
		c2.3,0.5,10.4,0.8,18.9,0.8c17.9,0,21.7-4.5,29.3-20.2h6.3c-6.6,16.9-12.1,38.1-15.9,55.6h-6.1c2.5-20.5,2-27.3-16.7-27.3
		c-6.6,0-15.7,0-18.7,0.5c-7.1,24.8-13.4,47.5-17.2,63.9c-1,5.3-0.5,6.6,19.2,6.6c25.8,0,34.1-1.5,41.9-8.3
		c8.3-7.1,15.4-18.4,21.2-28l6.1,2.3c-3.3,7.1-15.2,36.6-18.4,43.4c-8.3-0.8-24.3-1.8-60.9-1.8H2304c-13.6,0-27.5,0.8-34.9,0.8
		l2-6.8l14.4-1.5c4.5-0.8,6.6-2,8.8-8.6c5.8-17.2,12.6-40.2,20.5-67.7c7.6-26,13.4-47,16.7-61.9c1-4,0.3-5.6-5.1-6.1l-14.7-1.3
		L2314.1,441.2z"/>
	<path class="st6" d="M2504.1,441.2c5.1,0,18.9,0.8,28.3,0.8c10.1,0,22.5-0.8,37.6-0.8c21.7,0,35.4,4.5,45.5,13.4
		c10.4,8.6,16.4,24.8,16.2,43.4c0,40.7-21,81.3-59.4,97.5c-11.9,5.1-27.8,7.1-43.4,7.1c-12.6,0-25.3-1.3-37.6-1.3
		c-9.3,0-25.8,0.8-31.1,0.8l2.5-6.8l11.9-1.3c5.3-0.5,7.6-1.8,9.9-8.6c2.5-6.6,5.3-15.7,19.2-62.4c12.9-43.7,16.2-57.8,18.2-66.2
		c1.3-5.1,0-6.6-5.1-7.1l-15.4-1.8L2504.1,441.2z M2547.8,453.1c-2.3,5.1-6.3,17.2-20.2,66.9c-13.9,49.5-16.9,61.9-18.2,68.7
		c-0.3,3.8,1,6.3,15.4,6.3c17.7,0,27.5-3,35.1-7.1c29-15.2,46.2-59.9,46.5-95.5c0-13.6-3-24.2-8.1-30.8
		c-7.3-9.3-19.7-12.9-34.4-12.9C2551.3,448.8,2549,450.1,2547.8,453.1z"/>
	<path class="st6" d="M2671.6,441.2c9.1,0,23.7,0.8,36.4,0.8h38.4c19.2,0,30.8-0.8,35.9-1.3c-3.3,6.3-9.9,31.3-13.1,43.4h-6.1
		c0.8-6.8,1.5-15.2,1.5-22.5c-0.3-9.6-3.5-11.9-26.5-11.9h-18.4c-3,0-4.3,1-5.3,4.3c-4.3,12.4-12.6,40.7-17.7,59.9
		c2.3,0.5,10.4,0.8,18.9,0.8c17.9,0,21.7-4.5,29.3-20.2h6.3c-6.6,16.9-12.1,38.1-15.9,55.6h-6.1c2.5-20.5,2-27.3-16.7-27.3
		c-6.6,0-15.7,0-18.7,0.5c-7.1,24.8-13.4,47.5-17.2,63.9c-1,5.3-0.5,6.6,19.2,6.6c25.8,0,34.1-1.5,41.9-8.3
		c8.3-7.1,15.4-18.4,21.2-28l6.1,2.3c-3.3,7.1-15.2,36.6-18.4,43.4c-8.3-0.8-24.3-1.8-60.9-1.8h-24.3c-13.6,0-27.5,0.8-34.9,0.8
		l2-6.8l14.4-1.5c4.5-0.8,6.6-2,8.8-8.6c5.8-17.2,12.6-40.2,20.5-67.7c7.6-26,13.4-47,16.7-61.9c1-4,0.3-5.6-5.1-6.1l-14.7-1.3
		L2671.6,441.2z"/>
</g>
<g>
	<path class="st7" d="M1809.7,664.6c9.4,0,32.5,1.3,48.3,1.3c14.5,0,30.8-1.3,54.3-1.3c40.2,0,56,9.8,66.3,21.8
		c9.4,10.7,14.5,27.4,14.5,45.3c0,29.5-11.5,59-35.9,79.5c-21,17.5-48.8,21.8-67.6,21.8c-12.4,0-24-1.7-30.8-4.7l3-12.4
		c6.4,2.1,13.7,3,21.4,3c12,0,26.9-4.3,38.1-14.5c21-18.8,30.4-49.2,30.4-78.7c0-14.5-4.3-26.5-9.8-33.4
		c-6.4-8.1-17.5-14.5-38.5-14.5c-13.7,0-18.4,2.1-21,9c-4.7,12.8-18.4,56.5-36.4,120.6c-18.4,67.1-24.8,91.5-26.5,101.4
		c-1.7,9.4-0.9,12.8,10.3,13.7l27.8,3l-4.7,11.5c-15.4,0-36.8-1.3-63.3-1.3c-22.7,0-44.9,1.3-54.3,1.3l3.4-11.5l18.4-1.7
		c11.1-0.9,15.4-4.7,19.2-15.8c7.7-21.4,15-44.5,34.2-112c20.1-69.3,26.5-93.2,29.1-105.2c2.1-8.1,0.4-10.7-8.1-11.5l-26.5-2.6
		L1809.7,664.6z"/>
	<path class="st7" d="M2024.4,664.6c16.3,0,35.1,1.3,52.6,1.3c21.4,0,40.6-1.3,53.9-1.3l-3.8,12l-18.8,1.7
		c-8.6,1.3-12,3.8-15.4,13.3c-5.1,13.7-15.8,49.2-32.5,108.2c-16.3,56.9-26.5,95.4-29.9,110.3c-1.7,10.3,1.3,12.4,9,13.3l23.1,2.1
		l-3.8,11.5c-14.1,0-38.1-1.3-58.2-1.3c-22.2,0-40.2,1.3-53,1.3l4.3-11.5l18.4-2.1c10.3-0.9,14.1-3,18-15
		c5.6-15.4,12.8-38.9,33.4-109.1c18-61.6,25.2-89.4,29.5-106.9c2.6-9.8,0.9-13.3-8.6-14.1l-21.8-1.7L2024.4,664.6z"/>
	<path class="st7" d="M2349,692c1.3-9-0.9-12-13.3-13.3l-22.2-2.1l4.7-12c14.1-0.4,31.2,1.3,44,1.3c14.5,0,37.2-1.7,47.9-1.3
		l-3.8,12c-7.7,0.4-14.5,1.3-21,2.6c-6,1.3-10.7,4.3-14.1,12.4c-10.7,26.5-46.2,150.5-67.6,245.1c-10.3,0-21,2.1-27.8,4.3
		c-16.3-51.7-56.9-161.2-82.5-234.8c-22.2,84.3-43.6,165.1-49.2,195.4c-3,14.1-0.4,18.4,7.7,20.1c6.4,1.3,17.1,3,28.7,3.8l-3.8,11.5
		c-16.3,0-36.4-1.3-53-1.3c-12.8,0-31.6,0.4-44.9,1.3l4.3-11.5c5.6,0,16.3-2.1,21.4-3c7.3-1.7,12-6,17.1-18
		c9-21.8,40.2-133.4,60.7-209.1c3-11.1-2.1-14.5-12.8-15.8l-24.4-3l4.3-12c9.4,0,26.1,1.3,42.8,1.3c12,0,19.7-0.4,28.2-1.3
		c21.4,59.9,57.3,156.5,80.8,218.5C2330.6,774.1,2346,714.7,2349,692z"/>
	<path class="st7" d="M2591.1,862.2l0.9,23.1c-21.4,35.1-65,57.7-110.3,57.7c-62.9,0-94.9-38.1-94.9-100.5
		c0-53,23.1-113.3,65.4-150.5c20.5-17.5,50-32.9,90.2-32.9c30.4,0,53.9,11.1,64.2,26.5l15-23.1l9,4.7c-8.6,21.4-22.2,62.9-27.4,88.5
		l-11.1,0.4c4.7-25.2,3-47.9-4.7-61.2c-8.6-14.1-21.8-22.7-42.8-22.7c-21.4,0-44,8.6-63.3,30.4c-33.4,38.5-50.5,94.1-50.5,144.1
		c0,24.4,6.8,47,15.4,57.7c10.7,13.7,27.8,22.2,47,22.2c45.3,0,71.8-23.5,90.7-64.6H2591.1z"/>
	<path class="st7" d="M2869.5,754.9c0,48.8-20.5,110.3-54.7,146.3c-28.7,30.4-62,41.9-98.8,41.9c-54.7,0-93.2-28.2-93.2-93.7
		c0-57.7,29.5-129.6,76.6-164.7c22.2-16.3,47.9-25.7,78.7-25.7C2837.4,659.1,2869.5,695,2869.5,754.9z M2718.5,703.5
		c-31.6,40.2-52.6,109.9-52.6,160.4c0,46.2,21.4,65.9,50,65.9c21.4,0,40.6-7.3,59.9-30.8c31.2-40.2,51.3-111.2,51.3-164.2
		c0-34.2-13.3-63.3-49.6-63.3C2757,671.5,2736.5,680.9,2718.5,703.5z"/>
	<path class="st7" d="M3168.8,676.2c-27.4,1.7-30.4,4.7-36.4,22.7c-12,36.8-30.4,105.6-43.6,149.7c-12,41.5-24.4,64.2-52.2,81.3
		c-15.8,9.8-38.1,13.3-61.2,13.3c-29.5,0-56.5-10.3-68-27.4c-10.7-15-14.5-35.9-6.4-67.1c10.3-39.8,40.2-138.6,44.9-160
		c1.3-6.4-0.9-9.4-6-9.8l-23.1-2.6l4.3-11.5c17.1,0,35.5,1.3,53.5,1.3c19.7,0,35.1-1.3,49.6-1.3l-3,11.5l-20.1,2.6
		c-6,0.4-9.8,3-12.4,9.4c-12.8,32.9-38.5,124-48.3,168.5c-6,27.4-0.9,41.5,8.1,52.2c8.1,9.4,25.2,16.3,42.8,16.3
		c41.9,0,64.2-18.8,83-82.5c15.8-52.6,32.1-116.8,38.1-146.3c2.6-14.1,0.4-16.3-10.7-17.5l-21.8-2.6l3.8-11.5
		c11.5,0,30.4,1.3,43.2,1.3c15,0,30.4-1.3,44.9-1.3L3168.8,676.2z"/>
	<path class="st7" d="M3188.1,664.6c9.4,0,33.8,1.3,49.6,1.3c15,0,33.4-0.9,58.6-0.9c32.1,0,47,4.7,58.2,15
		c9.8,9,13.7,22.7,13.7,38.1c0,48.3-38.5,72.7-90.2,79.1l-0.4,1.7c43.6,8.1,57.3,24.4,54.7,53.5c1.3,8.6,0.4,19.2-5.1,39.8
		c-4.3,21-0.9,32.9,18.4,33.4c3.8,0,9.8,0,13.3-0.9l-5.1,12.4c-5.6,1.3-16.7,2.6-26.5,2.6c-41.1,0-48.8-20.1-41.9-52.6
		c3-12.4,5.6-23.5,7.7-33.8c6.8-35.9-12.8-44.9-40.2-46.6c-10.7-1.3-22.2-2.1-27.8-0.9c-19.7,68.9-25.2,88.5-28.2,103.9
		c-2.6,10.3,0,12.4,9.8,13.7l21.8,2.1l-4.3,11.5c-10.3,0-35.9-1.3-56-1.3c-19.2,0-40.2,1.3-53.5,1.3l4.3-12l15-1.7
		c13.3-1.3,16.3-4.3,20.1-14.5c5.1-12.4,16.7-50,35.1-113.3c18.4-63.7,25.2-91.1,28.7-104.4c2.6-9,0-11.5-9.8-12.4l-24.8-2.6
		L3188.1,664.6z M3274.9,677.9c-7.3,0-11.5,1.7-14.5,9c-3.8,9.4-7.3,23.1-31.2,104.4c3.8,0.9,8.1,0.9,12.8,0.9
		c53.5,0,84.3-32.9,84.3-76.6c0-11.1-2.6-20.5-7.7-26.1c-6-6-15-11.5-33.4-11.5H3274.9z"/>
	<path class="st7" d="M3389.5,737.8c7.7-15.8,23.1-58.6,29.5-77.4c9.8,4.3,28.7,5.6,86.4,5.6h28.2c67.1,0,80.8,0,96.2-5.1
		c-3.4,8.1-18,47.9-24.8,77l-12.4,3.4c3.8-21,5.1-38.5,4.7-47c-0.4-12.4-6.4-16.3-60.7-15.4c-9.4,29.1-21.8,72.7-32.9,112.5
		c-12.4,44.9-24.8,89.8-31.2,119.3c-1.7,8.6,1.3,11.1,8.1,12c12.4,1.3,20.1,2.1,31.2,3l-3.8,11.5c-14.1,0-43.2-1.3-65-1.3
		c-19.2,0-43.6,1.3-62.4,1.3l3.4-12c8.1,0,14.1-0.9,25.2-2.1c9.4-0.9,14.5-3.4,18-12c11.1-30.4,22.7-70.1,38.1-122.3
		c13.3-46.2,24.8-86,30.8-109.9c-52.6-0.4-58.6,3.4-71,21c-10.3,14.1-19.2,30.4-25.2,41.9L3389.5,737.8z"/>
</g>
</svg>
