<?xml version="1.0" encoding="UTF-8" standalone="no"?>
<!-- Created with Inkscape (http://www.inkscape.org/) -->

<svg
   xmlns:dc="http://purl.org/dc/elements/1.1/"
   xmlns:cc="http://creativecommons.org/ns#"
   xmlns:rdf="http://www.w3.org/1999/02/22-rdf-syntax-ns#"
   xmlns:svg="http://www.w3.org/2000/svg"
   xmlns="http://www.w3.org/2000/svg"
   xmlns:sodipodi="http://sodipodi.sourceforge.net/DTD/sodipodi-0.dtd"
   xmlns:inkscape="http://www.inkscape.org/namespaces/inkscape"
   width="400"
   height="113.95232"
   id="svg10844"
   version="1.1"
   inkscape:version="0.47 r22583"
   sodipodi:docname="Nouveau document 15">
  <defs
     id="defs10846">
    <inkscape:perspective
       sodipodi:type="inkscape:persp3d"
       inkscape:vp_x="0 : 526.18109 : 1"
       inkscape:vp_y="0 : 1000 : 0"
       inkscape:vp_z="744.09448 : 526.18109 : 1"
       inkscape:persp3d-origin="372.04724 : 350.78739 : 1"
       id="perspective10852" />
    <inkscape:perspective
       id="perspective10802"
       inkscape:persp3d-origin="0.5 : 0.33333333 : 1"
       inkscape:vp_z="1 : 0.5 : 1"
       inkscape:vp_y="0 : 1000 : 0"
       inkscape:vp_x="0 : 0.5 : 1"
       sodipodi:type="inkscape:persp3d" />
  </defs>
  <sodipodi:namedview
     id="base"
     pagecolor="#ffffff"
     bordercolor="#666666"
     borderopacity="1.0"
     inkscape:pageopacity="0.0"
     inkscape:pageshadow="2"
     inkscape:zoom="0.35"
     inkscape:cx="65.77312"
     inkscape:cy="18.7375"
     inkscape:document-units="px"
     inkscape:current-layer="layer1"
     showgrid="false"
     inkscape:window-width="1280"
     inkscape:window-height="738"
     inkscape:window-x="-8"
     inkscape:window-y="-8"
     inkscape:window-maximized="1" />
  <metadata
     id="metadata10849">
    <rdf:RDF>
      <cc:Work
         rdf:about="">
        <dc:format>image/svg+xml</dc:format>
        <dc:type
           rdf:resource="http://purl.org/dc/dcmitype/StillImage" />
        <dc:title></dc:title>
      </cc:Work>
    </rdf:RDF>
  </metadata>
  <g
     inkscape:label="Calque 1"
     inkscape:groupmode="layer"
     id="layer1"
     transform="translate(-309.22688,-437.14736)">
    <g
       id="g9968"
       transform="matrix(3.8009445,0,0,-3.8009445,309.22688,480.06003)">
      <path
         d="m 0,0 3.434,0 4.461,-12.14 0.046,0 4.485,12.14 3.317,0 0,-14.93 -2.313,0 0,12.89 -0.046,0 -4.719,-12.89 -1.961,0 -4.719,12.89 -0.047,0 0,-12.89 -1.938,0"
         style="fill:#231f20;fill-opacity:1;fill-rule:nonzero;stroke:none"
         id="path9970" />
    </g>
    <g
       id="g9972"
       transform="matrix(3.8009445,0,0,-3.8009445,394.30342,534.2615)">
      <path
         d="M 0,0 C 2.102,0 2.359,2.6 2.359,4.48 2.359,6.36 2.102,8.96 0,8.96 -2.079,8.96 -2.336,6.36 -2.336,4.48 -2.336,2.6 -2.079,0 0,0 M -4.905,4.48 C -4.905,7.96 -3.27,9.87 0,9.87 3.27,9.87 4.929,7.96 4.929,4.48 4.929,1 3.27,-0.9 0,-0.9 -3.27,-0.9 -4.905,1 -4.905,4.48"
         style="fill:#231f20;fill-opacity:1;fill-rule:nonzero;stroke:none"
         id="path9974" />
    </g>
    <g
       id="g9976"
       transform="matrix(3.8009445,0,0,-3.8009445,419.9864,497.6584)">
      <path
         d="m 0,0 2.36,0 0,-2.45 0.046,0 c 0.374,0.76 1.448,2.69 3.901,2.69 1.962,0 2.803,-1.52 2.803,-3.01 l 0,-7.53 -2.359,0 0,6.45 c 0,1.3 -0.21,2.46 -1.402,2.46 -2.336,0 -2.989,-3.37 -2.989,-4.65 l 0,-4.26 -2.36,0"
         style="fill:#231f20;fill-opacity:1;fill-rule:nonzero;stroke:none"
         id="path9978" />
    </g>
    <g
       id="g9980"
       transform="matrix(3.8009445,0,0,-3.8009445,486.7766,537.1122)">
      <path
         d="m 0,0 c -0.468,-0.11 -1.098,-0.15 -1.635,-0.15 -2.219,0 -3.504,0.62 -3.504,2.61 l 0,6.79 -1.775,0 0,1.13 1.775,0 0,2.42 2.359,1.32 0,-3.74 3.036,0 0,-1.13 -3.036,0 0,-5.92 c 0,-1.52 0.164,-2.25 1.682,-2.25 0.374,0 0.771,0.04 1.098,0.17"
         style="fill:#231f20;fill-opacity:1;fill-rule:nonzero;stroke:none"
         id="path9982" />
    </g>
    <g
       id="g9984"
       transform="matrix(3.8009445,0,0,-3.8009445,493.52328,497.6584)">
      <path
         d="m 0,0 2.359,0 0,-2.62 0.047,0 c 0.747,1.39 1.565,2.7 3.597,2.86 l 0,-2.28 C 3.737,-2.1 2.359,-2.81 2.359,-5.58 l 0,-4.72 -2.359,0"
         style="fill:#231f20;fill-opacity:1;fill-rule:nonzero;stroke:none"
         id="path9986" />
    </g>
    <g
       id="g9988"
       transform="matrix(3.8009445,0,0,-3.8009445,538.50366,480.09804)">
      <path
         d="m 0,0 2.476,0 -2.281,-2.83 -1.752,0 L 0,0 z m 1.69,-7.61 c 0,0.8 -0.304,2.32 -2.055,2.32 -1.823,0 -2.173,-1.73 -2.22,-2.32 l 4.275,0 z m 2.102,-6.96 c -0.981,-0.37 -1.845,-0.58 -3.246,-0.58 -3.084,0 -5.56,1.68 -5.56,5.84 0,2.85 1.238,4.93 4.742,4.93 3.598,0 4.275,-2.23 4.275,-4.22 l -6.658,0 c 0,-2.03 0.981,-5.41 4.321,-5.41 0.725,0 1.425,0.13 2.126,0.44"
         style="fill:#231f20;fill-opacity:1;fill-rule:nonzero;stroke:none"
         id="path9990" />
    </g>
    <g
       id="g9992"
       transform="matrix(3.8009445,0,0,-3.8009445,582.30574,518.44957)">
      <path
         d="m 0,0 c -0.981,-0.07 -3.644,-0.26 -3.644,-2.17 0,-0.93 0.584,-1.53 1.355,-1.53 C -1.472,-3.7 0,-2.97 0,-1.21 L 0,0 z m 0,-3.4 -0.047,0 c -0.374,-0.6 -1.355,-1.66 -3.13,-1.66 -1.752,0 -3.036,1.14 -3.036,2.57 0,3.18 4.741,3.33 6.213,3.39 L 0,1.81 C 0,2.94 0,4.8 -1.565,4.8 -3.013,4.8 -3.27,3.76 -3.364,2.55 l -2.476,0 c 0.117,1.53 0.771,3.16 4.275,3.16 3.621,0 3.924,-1.89 3.924,-3.9 l 0,-6.64 -2.359,0"
         style="fill:#231f20;fill-opacity:1;fill-rule:nonzero;stroke:none"
         id="path9994" />
    </g>
    <path
       d="m 600.55407,536.80813 8.96643,0 0,-56.7481 -8.96643,0 0,56.7481 z"
       style="fill:#231f20;fill-opacity:1;fill-rule:nonzero;stroke:none"
       id="path9996" />
    <g
       id="g9998"
       transform="matrix(3.8009445,0,0,-3.8009445,671.77997,543.72585)">
      <path
         d="m 0,0 c -0.471,0.47 -0.749,1.1 -0.75,1.77 l 0,5.79 c 0.001,0.71 0.659,1.11 1.108,1.11 l 5.808,0 C 7.365,8.67 8.66,7.72 8.663,6.18 8.664,4.81 7.555,3.69 6.189,3.69 5.31,3.69 4.721,4.1 4.383,4.44 L 4.091,4.73 c 0.047,0.13 0.096,0.3 0.096,0.53 0,0.83 -0.682,1.51 -1.521,1.51 C 2.262,6.77 1.903,6.63 1.624,6.35 1.339,6.06 1.167,5.66 1.166,5.26 1.166,4.87 1.342,4.46 1.625,4.17 1.902,3.89 2.266,3.75 2.68,3.75 c 0.226,0 0.415,0.06 0.514,0.1 L 3.493,3.56 C 3.673,3.39 4.256,2.76 4.259,1.77 l 0,-0.01 C 4.259,0.23 2.966,-0.73 1.767,-0.73 1.103,-0.73 0.474,-0.47 0,0 m -10.638,4.38 c -0.473,0.48 -0.745,1.12 -0.746,1.78 -0.002,0.66 0.257,1.29 0.729,1.76 0.47,0.47 1.097,0.75 1.769,0.75 l 5.788,0 c 0.715,0 1.119,-0.65 1.12,-1.1 l 0,-5.81 c 10e-4,-0.66 -0.275,-1.31 -0.748,-1.78 -0.323,-0.33 -0.89,-0.72 -1.746,-0.72 -1.374,0 -2.492,1.11 -2.495,2.48 0,0.87 0.409,1.46 0.751,1.8 l 0.29,0.3 c 0.131,-0.05 0.298,-0.1 0.531,-0.1 0.83,0 1.505,0.68 1.508,1.52 0,0.4 -0.144,0.76 -0.421,1.04 C -4.592,6.59 -5,6.76 -5.399,6.76 -5.784,6.76 -6.201,6.59 -6.485,6.3 -6.761,6.02 -6.909,5.66 -6.909,5.25 c 0,-0.23 0.066,-0.42 0.101,-0.52 L -7.101,4.43 C -7.269,4.25 -7.9,3.67 -8.889,3.67 c -0.664,0 -1.285,0.25 -1.749,0.71 m 9.888,12.43 c -0.001,0.65 0.258,1.3 0.73,1.78 0.324,0.32 0.893,0.71 1.748,0.71 0.66,0 1.309,-0.26 1.776,-0.73 0.462,-0.46 0.717,-1.08 0.718,-1.74 0,-0.88 -0.406,-1.47 -0.75,-1.81 l -0.29,-0.29 c -0.129,0.05 -0.298,0.1 -0.53,0.1 -0.828,0 -1.504,-0.68 -1.508,-1.52 -10e-4,-0.41 0.144,-0.77 0.423,-1.05 0.284,-0.28 0.69,-0.45 1.089,-0.45 l 0.002,0 c 0.387,0 0.801,0.17 1.084,0.45 0.277,0.28 0.422,0.64 0.422,1.06 0,0.22 -0.064,0.42 -0.098,0.51 l 0.291,0.3 c 0.17,0.18 0.798,0.77 1.788,0.77 1.539,0 2.494,-1.29 2.496,-2.49 C 8.642,11.74 8.383,11.12 7.912,10.64 7.442,10.17 6.814,9.9 6.141,9.9 l -5.785,0 c -0.715,0 -1.105,0.65 -1.106,1.1 l 0,5.81 z m -5.449,-1.79 -0.001,0 c -0.179,0.17 -0.761,0.79 -0.763,1.79 0,1.54 1.29,2.49 2.489,2.49 0.666,0 1.292,-0.26 1.765,-0.73 0.472,-0.47 0.73,-1.1 0.731,-1.77 l 0,-5.78 c 0,-0.72 -0.636,-1.12 -1.083,-1.12 l -5.811,0 c -0.658,0 -1.306,0.27 -1.781,0.74 -0.325,0.33 -0.713,0.89 -0.714,1.75 -10e-4,0.66 0.266,1.31 0.735,1.78 0.461,0.46 1.077,0.71 1.736,0.71 0.878,0 1.467,-0.4 1.808,-0.75 l 0.292,-0.29 c -0.05,-0.13 -0.098,-0.29 -0.098,-0.53 0,-0.83 0.683,-1.5 1.521,-1.51 0.405,0 0.765,0.15 1.046,0.43 0.286,0.28 0.456,0.69 0.456,1.09 10e-4,0.38 -0.174,0.8 -0.458,1.08 -0.278,0.28 -0.643,0.43 -1.056,0.43 -0.226,-0.01 -0.415,-0.07 -0.516,-0.1 l -0.298,0.29 m 4.845,3.73 c -0.722,1.08 -1.903,1.75 -3.108,1.75 -2.064,0 -3.682,-1.64 -3.682,-3.74 0,-0.2 0.043,-0.48 0.121,-0.83 -0.19,0.04 -0.545,0.11 -0.838,0.11 -2.093,0 -3.733,-1.61 -3.733,-3.67 0,-1.21 0.674,-2.39 1.759,-3.11 -1.095,-0.74 -1.751,-1.88 -1.751,-3.08 0,-2.03 1.676,-3.68 3.735,-3.68 0.251,0 0.557,0.06 0.822,0.12 C -8.102,2.28 -8.144,2 -8.144,1.79 c 0,-2.09 1.618,-3.73 3.682,-3.73 1.224,0 2.365,0.64 3.08,1.71 0.689,-1.03 1.926,-1.71 3.111,-1.71 2.057,0 3.666,1.64 3.666,3.73 0,0.28 -0.059,0.6 -0.107,0.83 C 5.639,2.54 5.919,2.5 6.12,2.5 c 2.058,0 3.732,1.65 3.732,3.68 0,1.21 -0.652,2.39 -1.705,3.1 1.053,0.71 1.705,1.88 1.705,3.1 0,2.02 -1.682,3.66 -3.75,3.66 -0.259,0 -0.571,-0.07 -0.816,-0.12 0.041,0.19 0.109,0.55 0.109,0.84 0,2.1 -1.609,3.74 -3.666,3.74 -1.197,0 -2.365,-0.67 -3.083,-1.75"
         style="fill:#ef4135;fill-opacity:1;fill-rule:nonzero;stroke:none"
         id="path10000" />
    </g>
    <g
       id="g10002"
       transform="matrix(3.8009445,0,0,-3.8009445,413.22832,437.56547)">
      <path
         d="m 0,0 0.786,0 0,-6.3 2.49,0 0,-0.66 -3.276,0"
         style="fill:#231f20;fill-opacity:1;fill-rule:nonzero;stroke:none"
         id="path10004" />
    </g>
    <g
       id="g10006"
       transform="matrix(3.8009445,0,0,-3.8009445,437.90406,450.9828)">
      <path
         d="M 0,0 C 0,0.32 -0.222,0.91 -0.918,0.91 -1.633,0.91 -1.865,0.32 -1.926,0 L 0,0 z M 0.675,-3.4 C 0.383,-3.49 0.02,-3.54 -0.423,-3.54 c -1.482,0 -2.339,0.9 -2.339,2.67 0,1.44 0.595,2.35 1.875,2.35 1.129,0 1.673,-0.77 1.673,-1.82 l 0,-0.23 -2.762,0 0,-0.29 c 0,-0.72 0.323,-2.1 1.704,-2.1 0.534,0 0.725,0.08 0.947,0.13"
         style="fill:#231f20;fill-opacity:1;fill-rule:nonzero;stroke:none"
         id="path10008" />
    </g>
    <g
       id="g10010"
       transform="matrix(3.8009445,0,0,-3.8009445,464.11157,449.72849)">
      <path
         d="m 0,0 c 0.706,-0.39 1.472,-0.81 1.472,-1.91 0,-1.45 -1.149,-1.96 -2.45,-1.96 -0.746,0 -1.421,0.17 -1.603,0.21 l 0,0.81 c 0.152,-0.06 0.847,-0.36 1.694,-0.36 0.857,0 1.502,0.42 1.502,1.19 0,0.78 -0.585,1.08 -1.16,1.4 l -0.614,0.34 c -0.646,0.36 -1.502,0.75 -1.502,1.81 0,1.2 0.957,1.78 2.238,1.78 0.665,0 1.209,-0.13 1.451,-0.18 l 0,-0.78 c -0.171,0.07 -0.776,0.3 -1.522,0.3 -0.797,0 -1.311,-0.41 -1.311,-1.05 0,-0.62 0.616,-0.94 1.16,-1.24"
         style="fill:#231f20;fill-opacity:1;fill-rule:nonzero;stroke:none"
         id="path10012" />
    </g>
    <g
       id="g10014"
       transform="matrix(3.8009445,0,0,-3.8009445,484.26038,459.80099)">
      <path
         d="m 0,0 -0.02,0 c -0.121,-0.39 -0.424,-1.22 -1.492,-1.22 -0.827,0 -1.23,0.69 -1.23,1.48 l 0,3.43 0.686,0 0,-2.66 c 0,-0.83 0,-1.56 0.705,-1.56 C -0.444,-0.53 0,0.85 0,1.72 l 0,1.97 0.685,0 0,-4.8 -0.685,0"
         style="fill:#231f20;fill-opacity:1;fill-rule:nonzero;stroke:none"
         id="path10016" />
    </g>
    <g
       id="g10018"
       transform="matrix(3.8009445,0,0,-3.8009445,498.58994,462.2336)">
      <path
         d="M 0,0 C 0.786,0 1.129,1.09 1.129,1.91 1.129,2.98 0.746,3.87 0.02,3.87 -0.796,3.87 -0.998,2.78 -0.998,1.76 -0.998,1.15 -0.907,0 0,0 m 1.129,0.35 -0.02,0 c -0.101,-0.34 -0.484,-0.93 -1.25,-0.93 -1.159,0 -1.643,0.95 -1.643,2.47 0,1.29 0.453,2.55 1.633,2.55 0.836,0 1.139,-0.55 1.26,-0.89 l 0.02,0 0,2.94 0.685,0 0,-6.96 -0.685,0"
         style="fill:#231f20;fill-opacity:1;fill-rule:nonzero;stroke:none"
         id="path10020" />
    </g>
    <path
       d="m 510.5059,455.77199 11.64609,0 0,-2.62265 -11.64609,0 0,2.62265 z"
       style="fill:#231f20;fill-opacity:1;fill-rule:nonzero;stroke:none"
       id="path10022" />
    <g
       id="g10024"
       transform="matrix(3.8009445,0,0,-3.8009445,535.48571,461.92952)">
      <path
         d="M 0,0 C 1.391,0 1.613,1.7 1.613,2.95 1.613,4.21 1.391,5.87 0,5.87 -1.401,5.87 -1.623,4.21 -1.623,2.95 -1.623,1.7 -1.401,0 0,0 m -2.48,2.94 c 0,1.77 0.484,3.58 2.48,3.58 1.986,0 2.47,-1.81 2.47,-3.58 0,-1.75 -0.484,-3.6 -2.47,-3.6 -1.996,0 -2.48,1.85 -2.48,3.6"
         style="fill:#231f20;fill-opacity:1;fill-rule:nonzero;stroke:none"
         id="path10026" />
    </g>
    <g
       id="g10028"
       transform="matrix(3.8009445,0,0,-3.8009445,560.15764,459.80099)">
      <path
         d="m 0,0 -0.02,0 c -0.121,-0.39 -0.424,-1.22 -1.492,-1.22 -0.826,0 -1.229,0.69 -1.229,1.48 l 0,3.43 0.685,0 0,-2.66 c 0,-0.83 0,-1.56 0.706,-1.56 0.906,0 1.35,1.38 1.35,2.25 l 0,1.97 0.686,0 0,-4.8 -0.686,0"
         style="fill:#231f20;fill-opacity:1;fill-rule:nonzero;stroke:none"
         id="path10030" />
    </g>
    <g
       id="g10032"
       transform="matrix(3.8009445,0,0,-3.8009445,578.31855,450.9828)">
      <path
         d="M 0,0 C 0,0.32 -0.221,0.91 -0.917,0.91 -1.633,0.91 -1.865,0.32 -1.925,0 L 0,0 z M 0.675,-3.4 C 0.383,-3.49 0.02,-3.54 -0.423,-3.54 c -1.482,0 -2.339,0.9 -2.339,2.67 0,1.44 0.595,2.35 1.875,2.35 1.129,0 1.673,-0.77 1.673,-1.82 l 0,-0.23 -2.762,0 0,-0.29 c 0,-0.72 0.323,-2.1 1.704,-2.1 0.534,0 0.726,0.08 0.947,0.13"
         style="fill:#231f20;fill-opacity:1;fill-rule:nonzero;stroke:none"
         id="path10034" />
    </g>
    <g
       id="g10036"
       transform="matrix(3.8009445,0,0,-3.8009445,591.92213,453.68147)">
      <path
         d="m 0,0 c 0.504,-0.27 1.119,-0.55 1.119,-1.38 0,-0.95 -0.665,-1.45 -1.784,-1.45 -0.625,0 -1.119,0.14 -1.311,0.2 l 0,0.63 c 0.122,-0.04 0.696,-0.25 1.24,-0.25 0.665,0 1.17,0.22 1.17,0.77 0,0.5 -0.585,0.71 -0.867,0.87 l -0.434,0.23 c -0.443,0.25 -1.089,0.52 -1.089,1.3 0,0.78 0.575,1.27 1.644,1.27 0.514,0 0.907,-0.11 1.128,-0.16 l 0,-0.63 C 0.655,1.46 0.181,1.62 -0.302,1.62 -0.887,1.62 -1.27,1.34 -1.27,0.99 c 0,-0.39 0.484,-0.55 0.867,-0.75"
         style="fill:#231f20;fill-opacity:1;fill-rule:nonzero;stroke:none"
         id="path10038" />
    </g>
    <g
       id="g10040"
       transform="matrix(3.8009445,0,0,-3.8009445,608.85534,464.2481)">
      <path
         d="m 0,0 c -0.202,-0.03 -0.403,-0.05 -0.605,-0.05 -0.967,0 -1.33,0.39 -1.33,1.24 l 0,3.1 -0.787,0 0,0.57 0.787,0 0,1.12 0.685,0.43 0,-1.55 1.291,0 0,-0.57 -1.291,0 0,-2.96 c 0,-0.31 0.081,-0.8 0.786,-0.8 0.222,0 0.313,0.04 0.464,0.09"
         style="fill:#231f20;fill-opacity:1;fill-rule:nonzero;stroke:none"
         id="path10042" />
    </g>
  </g>
</svg>
