<svg id="Layer_1" data-name="Layer 1" xmlns="http://www.w3.org/2000/svg" viewBox="0 0 295.29 184.57"><title>logo_16</title><path d="M10,148.85h4.87l5.3,17.46,5.36-17.46h4.79l-7.73,25.4H17.75Z" fill="#008348"/><path d="M30.89,159.11a9,9,0,0,1,3.22-2.43,9.74,9.74,0,0,1,4-.84,9.11,9.11,0,0,1,3.92.8,5.41,5.41,0,0,1,2.13,2,6.24,6.24,0,0,1,.9,3.48v8.43a11.36,11.36,0,0,0,.2,1.93,11.91,11.91,0,0,0,.43,1.79h-4a13.33,13.33,0,0,1-.43-1.86A9.24,9.24,0,0,1,38.74,174a7.06,7.06,0,0,1-2.73.55,5.68,5.68,0,0,1-4-1.49,4.67,4.67,0,0,1-1.59-3.53,5.37,5.37,0,0,1,.73-2.71,6.77,6.77,0,0,1,2.14-2.23A11.88,11.88,0,0,1,36.84,163a30.23,30.23,0,0,1,4.33-.73,5,5,0,0,0-.2-1.66,2.4,2.4,0,0,0-1-1.25,3.52,3.52,0,0,0-2-.41,5.36,5.36,0,0,0-4.43,2.41Zm10.24,10.36v-4.53q-4,.75-5.44,2a2.87,2.87,0,0,0-1.15,2.21,2.21,2.21,0,0,0,.66,1.64,2.28,2.28,0,0,0,1.67.65A4.59,4.59,0,0,0,38.8,171a12.45,12.45,0,0,0,2.34-1.53Z" fill="#008348"/><path d="M50.17,156.16H54.8v12.42a2.09,2.09,0,0,0,.53,1.5,1.78,1.78,0,0,0,1.34.56,3.58,3.58,0,0,0,1.73-.48,9.49,9.49,0,0,0,2.14-1.83V156.16h4.6v18.1h-4.6v-2.72a10.65,10.65,0,0,1-3.18,2.3,7.14,7.14,0,0,1-2.83.72,4.43,4.43,0,0,1-2.1-.52,4,4,0,0,1-1.63-1.69,5.85,5.85,0,0,1-.64-2.86Z" fill="#008348"/><path d="M81.49,148.47h4.58v25.78H81.49v-2.09A8.14,8.14,0,0,1,79.12,174a6,6,0,0,1-2.61.6,5.8,5.8,0,0,1-4.58-2.21,10.66,10.66,0,0,1-2.26-7.09,12.42,12.42,0,0,1,.64-4.11,9.47,9.47,0,0,1,1.54-2.93,7,7,0,0,1,2.09-1.74,5.43,5.43,0,0,1,2.61-.64,5.92,5.92,0,0,1,2.62.6,7.53,7.53,0,0,1,2.31,1.81Zm0,20.59v-7.6a6.53,6.53,0,0,0-1.62-1.32,3.32,3.32,0,0,0-1.6-.44,3.08,3.08,0,0,0-2.5,1.3q-1,1.28-1,4.38a6.54,6.54,0,0,0,1.05,4.12,3.14,3.14,0,0,0,2.52,1.31,3.33,3.33,0,0,0,1.62-.43A5.87,5.87,0,0,0,81.49,169Z" fill="#008348"/><path d="M96.35,160.49a12.09,12.09,0,0,1,2.91-3.58,5.45,5.45,0,0,1,3-1.07v4.65h-.42a5.49,5.49,0,0,0-3.19,1,6.43,6.43,0,0,0-2.27,3v9.76H91.74v-18.1h4.62Z" fill="#008348"/><path d="M121.07,169.9a10.77,10.77,0,0,1-1.16,1.81,7.86,7.86,0,0,1-1.84,1.61,8,8,0,0,1-2.09.93,8.42,8.42,0,0,1-2.26.3,8.7,8.7,0,0,1-4.36-1.17A7.69,7.69,0,0,1,106.2,170a11.17,11.17,0,0,1-1.1-5,9.26,9.26,0,0,1,2.37-6.66,8,8,0,0,1,6.05-2.48,7.64,7.64,0,0,1,5.78,2.27,8.78,8.78,0,0,1,2.17,6.33V166H109.93a5.67,5.67,0,0,0,1.15,3.65,3.65,3.65,0,0,0,4.76.56,5.22,5.22,0,0,0,1.49-1.88Zm-3.74-6.64a4.78,4.78,0,0,0-1.16-3.19,3.47,3.47,0,0,0-2.61-1.11,3.3,3.3,0,0,0-2.5,1.09,5,5,0,0,0-1.15,3.21Z" fill="#008348"/><path d="M125.29,156.16h4.63v12.42a2.08,2.08,0,0,0,.53,1.5,1.78,1.78,0,0,0,1.34.56,3.58,3.58,0,0,0,1.73-.48,9.52,9.52,0,0,0,2.14-1.83V156.16h4.6v18.1h-4.6v-2.72a10.67,10.67,0,0,1-3.18,2.3,7.15,7.15,0,0,1-2.83.72,4.43,4.43,0,0,1-2.1-.52,4,4,0,0,1-1.63-1.69,5.85,5.85,0,0,1-.64-2.86Z" fill="#008348"/><path d="M146.34,148.47h4.55V153h-4.55Zm0,7.69h4.55v18.1h-4.55Z" fill="#008348"/><path d="M157.5,148.47h4.58v25.78H157.5Z" fill="#008348"/><path d="M167.24,163H176v4.23h-8.78Z" fill="#008348"/><path d="M180.89,148.85h9.23a10.94,10.94,0,0,1,5.88,1.6,10.22,10.22,0,0,1,3.94,4.53,15,15,0,0,1,1.35,6.35,15.42,15.42,0,0,1-1.17,6.13,11.46,11.46,0,0,1-3,4.29,10.08,10.08,0,0,1-3.4,1.8,14,14,0,0,1-4.42.69h-8.42Zm5.06,4.28V169.8h3.45a5.65,5.65,0,0,0,3.28-1,6.57,6.57,0,0,0,2.22-2.6,11.16,11.16,0,0,0,1.13-5,8.07,8.07,0,0,0-2.14-5.88,7.34,7.34,0,0,0-5.5-2.2Z" fill="#008348"/><path d="M212.33,155.84a8.34,8.34,0,0,1,6.33,2.41q2.3,2.41,2.3,6.84a9.87,9.87,0,0,1-2.32,7,7.6,7.6,0,0,1-5.81,2.51,8.09,8.09,0,0,1-5.8-2.37q-2.47-2.37-2.46-7.07,0-4.45,2.21-6.86A7.21,7.21,0,0,1,212.33,155.84Zm.46,3a2.89,2.89,0,0,0-2.46,1.21q-1.2,1.61-1.2,5.15,0,3.24,1.06,4.62a3.14,3.14,0,0,0,2.56,1.38,3,3,0,0,0,1.91-.67,3.74,3.74,0,0,0,1.25-1.92,13.1,13.1,0,0,0,.55-3.93,10,10,0,0,0-.46-3.06,4.2,4.2,0,0,0-1.32-2.09,3,3,0,0,0-1.89-.67Z" fill="#008348"/><path d="M229.94,160.49a12.08,12.08,0,0,1,2.91-3.58,5.44,5.44,0,0,1,3-1.07v4.65h-.41a5.49,5.49,0,0,0-3.19,1,6.43,6.43,0,0,0-2.28,3v9.76h-4.62v-18.1H230Z" fill="#008348"/><path d="M240.24,148.47h4.55V153h-4.55Zm0,7.69h4.55v18.1h-4.55Z" fill="#008348"/><path d="M257.32,155.84a8.34,8.34,0,0,1,6.33,2.41q2.3,2.41,2.3,6.84a9.87,9.87,0,0,1-2.32,7,7.6,7.6,0,0,1-5.81,2.51,8.09,8.09,0,0,1-5.8-2.37q-2.47-2.37-2.47-7.07,0-4.45,2.21-6.86A7.21,7.21,0,0,1,257.32,155.84Zm.46,3a2.89,2.89,0,0,0-2.46,1.21q-1.2,1.61-1.2,5.15,0,3.24,1.06,4.62a3.15,3.15,0,0,0,2.56,1.38,3,3,0,0,0,1.91-.67,3.74,3.74,0,0,0,1.25-1.92,13.1,13.1,0,0,0,.55-3.93,10,10,0,0,0-.46-3.06,4.2,4.2,0,0,0-1.32-2.09,3,3,0,0,0-1.89-.67Z" fill="#008348"/><path d="M274.87,158.63a11.25,11.25,0,0,1,2.94-2.08,7.71,7.71,0,0,1,3.34-.71,3.81,3.81,0,0,1,3,1,5.24,5.24,0,0,1,1.2,3.64v13.78H280.8V161.63a2.33,2.33,0,0,0-.43-1.58,1.58,1.58,0,0,0-1.23-.47,4,4,0,0,0-1.79.47,11.63,11.63,0,0,0-2.42,1.83v12.37h-4.58v-18.1h4.58Z" fill="#008348"/><path d="M28.16,10H137.32a8.39,8.39,0,0,1,8.36,8.37V127.63a8.39,8.39,0,0,1-8.36,8.37H28.16a8.39,8.39,0,0,1-8.36-8.37V18.37A8.39,8.39,0,0,1,28.16,10Z" fill="#008348"/><path d="M73.58,122.14V99l9.07-9.08L91.73,99V121.3c0,6.31,2.5,9.66,9.18,9.67H136c2.45-.1,4.05-1.3,4.15-3.77V18.42c.14-2.22-.84-3.08-3.27-3.36H27.82c-2,.09-3,.83-3,3.54v109a3.32,3.32,0,0,0,3.36,3.28h36.5c5.33-.07,8.87-3,8.87-8.81Z" fill="#fff"/><path d="M94.12,101.5v20.31c.17,3.29,1.4,6.13,5.54,6.13H132.1c3.37-.13,5-1.13,5.13-5V23.12A5.25,5.25,0,0,0,132.39,18H31.32c-3.31.12-4.06,1.86-4,4.85l.13,100.1c-.11,3.53.63,4.76,4.69,5h32c4.84,0,6.56-2.11,6.52-6.58V101.51l-3.12,3.13C56.16,114.51,40,98.94,51.21,87.51l2.68-2.71h-4.4c-16.17,0-14-23.7-.13-23.7h4.53l-2.83-2.85C39.26,44,58,31.82,67.67,41.83l3,3V40.41c0-15.73,23.13-14.57,23.42-.29v4.41l3.12-3.12c10.22-9.87,28.39,5,16.32,16.85L110.83,61h4.26c15.17.15,15.74,23.69,0,23.69h-4.26L114,87.85c10.78,12-6.25,26.54-16.9,16.68l-2.93-3Z" fill="#007cc2"/><path d="M52.91,43.43C49.6,47.19,49,51.5,52.75,56L74.93,78.39c5,4.79,10.59,3.91,15.17-.12l22.88-23c3-3.46,2.59-7.48-1.16-11.8-5.39-4.32-8.69-3.3-12-.57L82.37,60.42l-16.7-16.9C61.62,40,57.47,39.26,52.91,43.43Z" fill="#009463"/><path d="M73.32,40.22c.72-12.05,17.8-11.22,18,.24v6.82l-9,9.11-9-9.1Z" fill="#008348"/><path d="M49.65,82.29c-12-.72-11.21-17.82.24-18.06H56.7l9.1,9-9.09,9Z" fill="#008348"/><path d="M115.36,64c12,.72,11.21,17.82-.24,18.06h-6.8l-9.1-9,9.09-9Z" fill="#008348"/><path d="M82.29,86.07,65.6,102.78c-7.41,7.17-21.48-3.33-12.93-12.64l15-15.06L72.53,80c6.64,5.77,13.58,5.5,19.73,0l4.81-4.89,14.55,14.61c8.57,10.28-5.17,19.8-12.62,13.07Z" fill="#008348"/><path d="M126.7,73v.11m-13-31.34-.08-.08" fill="none" stroke="#231f20" stroke-miterlimit="2.61" stroke-width="0.22"/><path d="M280.68,10V97.74s0,37.32-35.13,38.22H163.69V55c0-.31,1.15-36.77,36-45h45V37h-45c-2,.12-2.11.15-4.35,1.92-3.28,2.59-7.17,7.43-6.9,13.83V109h54c.7.38,14.17-2.12,13.5-11.25V10Z" fill="#007cc2"/><path d="M244.68,50.5H205.33s-5.62,2.94-5.62,8.83V97.58h34s11,2.11,11-8.83V50.5Z" fill="#008348"/><polygon points="230.63 50.5 230.63 65.21 244.68 65.21 244.68 68.15 227.82 68.15 227.82 50.5 230.63 50.5 230.63 50.5" fill="#fff"/><polygon points="244.68 85.81 210.95 85.81 210.95 50.5 213.76 50.5 213.76 82.87 244.68 82.87 244.68 85.81 244.68 85.81" fill="#fff"/><polygon points="242.55 50.5 244.68 50.5 244.66 52.71 201.79 97.58 199.71 97.58 199.69 95.38 242.55 50.5 242.55 50.5" fill="#fff"/><path d="M163.69,129.24H266.35a32.79,32.79,0,0,1-3.38,2.25H163.69Z" fill="#fff"/><path d="M163.69,122.49H272.83c-.83,1.14-.83,1.11-1.75,2.25H163.69Z" fill="#fff"/><path d="M163.69,113.49H277.55q-.44,1.14-.91,2.25h-113v-2.25Z" fill="#fff"/><polygon points="163.69 97.75 188.44 97.74 188.44 99.99 163.69 99.99 163.69 97.75 163.69 97.75" fill="#fff"/><path d="M253.68,97.74h27c0,.84,0,1.5-.12,2.25H253.68C254,98.91,253.53,99.1,253.68,97.74Z" fill="#fff"/></svg>