<svg id="Layer_1" data-name="Layer 1" xmlns="http://www.w3.org/2000/svg" viewBox="0 0 1713.19 624.69"><title>logo_18</title><path d="M311.44,0C279.16,0,243.28,5,204.8,14.79a729.23,729.23,0,0,0-95.46,32c-56,22.92-94.83,45.6-96.45,46.55L0,100.92l2.72,14.69L69.78,477.68l1.82,9.85,8.75,4.87L307.2,618.86l10.45,5.83,10.42-5.9L551.44,492.34l8.59-4.87,1.84-9.71L630.53,115.7l2.67-14.07-12-7.78c-1.44-.93-35.81-23.06-90.26-45.71a671.58,671.58,0,0,0-96-31.91C394.91,6.31,355.59.87,318,.07c-2.17,0-4.39-.07-6.59-.07Z" fill="#fff"/><path d="M311.44,21.31c2,0,4.1,0,6.13.06,157.77,3.36,292,90.36,292,90.36L540.94,473.8,317.57,600.25,90.73,473.8,23.67,111.73S177.72,21.31,311.44,21.31m0-21.31C279.16,0,243.28,5,204.8,14.79a729.23,729.23,0,0,0-95.46,32c-56,22.92-94.83,45.6-96.45,46.55L0,100.92l2.72,14.69L69.78,477.68l1.82,9.85,8.75,4.87L307.2,618.86l10.45,5.83,10.42-5.9L551.44,492.34l8.59-4.87,1.84-9.71L630.53,115.7l2.67-14.07-12-7.78c-1.44-.93-35.81-23.06-90.26-45.71a671.58,671.58,0,0,0-96-31.91C394.91,6.31,355.59.87,318,.07c-2.17,0-4.39-.07-6.59-.07Z" fill="#e9e8e7"/><path d="M320.31,144.47l22.49,5-2.06-9.1L364.36,122l-5.85-2.8,4.66-15.94-14.58,2-1.73-7.25-11.11,11.63a1.83,1.83,0,0,1-2.53.27,2,2,0,0,1-.74-2.18l5.33-26.06L331,86.14c-.73.47-1.66,1-2.39.41a2.1,2.1,0,0,1-.67-1.24l-7.72-17-8.32,15.94a2.64,2.64,0,0,1-2.19,1.43,2.82,2.82,0,0,1-1.67-.27l-7.05-3.9L305,107.13c.06.89.2,2.05-.8,2.39-.8.35-1.53-.27-2-.88L292,97.49l-2.53,7.18-14.18-2.87,3.86,15.39-5.72,2.8,22.36,19.29-2.53,8.89,22.84-3.83.07,66.73-102.83-45L199.6,148.69l19.74-11.6-7.25-5.54,6.52-29.68-6.32,1.77-6.52-15.25L196,99.68l-5.92-4.38-1.13,16.21c-.07,1-.8,1.91-1.67,1.85a1.78,1.78,0,0,1-2-1L173,88.87l-2.53,7.93c-.19.82-.59,1.85-1.53,1.92a2.5,2.5,0,0,1-1.33-.55l-16.5-7.73,3.66,17.79a3.18,3.18,0,0,1-2.13,3.35l-7.92,1.78,19.23,16.75c.6.55,1.53,1.3,1,2.33-.4.82-1.4.75-2.13.61l-14.84-1.71,2.66,7.18L138,145.77l12.58,9.17-2.53,6,29.15-.35,3.73,8.49,15.69-17.88,15.06,18.61,104.43,46.51.07,40.15h4.45l-.13-40.29,106.42-46.57,14.83-18.84,15.58,17.83,3.73-8.48,29.15.27-2.6-5.95,12.65-9.17L487.62,138l2.73-7.18-14.84,1.71c-.8.14-1.73.21-2.13-.61-.53-1,.33-1.78,1-2.33l19.17-16.75-7.86-1.78a2.35,2.35,0,0,1-1.39-1,2.46,2.46,0,0,1-.74-2.39L487.16,90l-16.51,7.72a2.3,2.3,0,0,1-1.26.55c-.93-.07-1.33-1.09-1.53-1.91l-2.53-7.94L453,111.85a1.78,1.78,0,0,1-2,1,1.85,1.85,0,0,1-1.73-1.85l-1.07-16.21L442.3,99.2l-9.85-11.29-6.52,15.19-6.26-1.71,6.52,29.68-7.25,5.54,19.81,11.63L426.07,165,320.31,211.07v-66.6Z" fill="#269a69" fill-rule="evenodd"/><path d="M369.86,469.88l9.65,17.28,8.65-1.71v13.23l11.78.07V485.57l9.75,1.9-1-3.41,8,1.51-1.84-3.65,11.59,1.39-11.59-20.93h2.82l-9.75-17.32h1.65l-15.51-27-15.64,26.41h1.9l-10.24,18.15h3.19l-3.4,7.24Z" fill="#269a69" fill-rule="evenodd"/><path d="M248.78,487.18l9.69-17-3.54-7.54h3.19l-10.24-18.15h1.9l-15.64-26.41-15.52,27h1.66l-9.75,17.32h2.76l-11.53,20.93,11.53-1.39-1.78,3.65,8-1.51-1,3.41,9.75-1.9v13.18l11.78-.07V485.45l8.75,1.73Z" fill="#269a69" fill-rule="evenodd"/><path d="M349.7,460.81l6.5,1.83-18.7-32.9,3.49.13-27.1-46.95-27,46.95,3.5-.13-18.7,32.9,6.5-1.83-21.41,38.44,20.79-3.78-4,7.12L288,499.06l-1.9,6.37,17.72-2.71v24.89h20.24L324,502.72l17.79,2.71-1.9-6.37,14.41,3.53-4-7.12,20.79,3.78-21.4-38.44Z" fill="#269a69" fill-rule="evenodd"/><polygon points="23.67 111.73 90.73 473.8 316.34 315.76 23.67 111.73" fill="#0276a4"/><polygon points="155.34 389.43 157.1 388.22 158.64 386.68 160.19 384.89 161.51 382.79 162.63 380.38 163.4 377.6 164.05 374.63 164.27 371.2 166.49 372.07 168.15 372.53 170.13 372.75 171.24 372.63 172.45 372.32 173.66 371.86 174.89 371.3 176.21 370.43 177.42 369.32 178.75 367.87 180.08 366.23 176.99 366.33 173.99 365.89 171.24 365 170.01 364.35 168.8 363.58 167.69 362.59 166.7 361.48 165.81 360.27 165.16 358.82 164.48 357.28 164.17 355.61 163.83 353.63 163.71 351.65 191.23 351.65 191.23 340.69 174.55 340.69 174.43 338.93 174.55 333.52 175.1 330.99 175.76 328.76 176.65 326.88 177.76 325.22 178.87 323.79 180.17 322.59 181.5 321.57 182.83 320.8 185.6 319.59 188.14 318.94 190.24 318.7 191.78 318.6 193.23 318.6 195.09 318.94 197.43 319.59 198.52 320.15 199.75 320.92 200.84 321.81 201.95 323.02 202.84 324.44 203.71 326.23 204.38 328.21 204.94 330.65 205.28 333.3 205.37 336.39 207.81 335.16 210.13 333.74 212.01 332.19 213.77 330.65 215.32 329.1 216.53 327.44 217.63 325.77 218.53 324.01 219.18 322.25 219.64 320.49 219.86 318.7 219.95 316.94 219.86 315.17 219.64 313.41 219.3 311.65 218.63 309.89 217.97 308.25 217.08 306.58 215.1 303.49 212.57 300.71 211.12 299.51 209.57 298.3 208.03 297.19 206.36 296.3 204.6 295.43 202.72 294.75 200.84 294.1 198.98 293.64 196.97 293.42 194.99 293.33 191.13 293.54 187.58 294.2 184.37 295.43 181.5 297.07 178.87 299.17 176.53 301.7 174.43 304.58 172.67 307.79 171.12 311.21 169.79 314.96 168.68 318.82 167.91 323.02 167.26 327.32 166.82 331.76 166.49 336.27 166.49 340.81 160.74 340.81 160.4 340.04 160.07 337.26 159.97 334.94 160.07 331.98 160.19 327.99 160.74 323.24 161.3 319.04 161.95 315.3 162.94 311.99 164.05 308.78 167.04 301.82 171.03 293.08 173.22 287.34 174.67 281.93 175.54 277.08 175.76 274.64 175.76 272.42 175.54 268.22 174.89 264.26 173.78 260.62 172.33 257.28 170.69 254.1 168.68 251.1 166.58 248.35 164.39 245.7 159.75 240.72 155.34 235.97 150.92 240.72 146.28 245.7 144.09 248.35 141.99 251.1 139.98 254.1 138.22 257.28 136.77 260.62 135.78 264.26 135.01 268.22 134.91 270.32 134.79 272.42 135.13 277.08 136 281.93 137.45 287.34 139.67 293.08 143.63 301.82 146.62 308.78 147.73 311.99 148.6 315.3 149.37 319.04 149.93 323.24 150.39 327.99 150.6 331.98 150.6 334.94 150.6 337.26 150.15 340.04 149.93 340.81 144.18 340.81 144.09 336.27 143.85 331.76 143.41 327.32 142.76 323.02 141.87 318.82 140.88 314.96 139.55 311.21 138 307.79 136.12 304.58 134.14 301.7 131.82 299.17 129.17 297.07 126.3 295.43 124.63 294.75 122.97 294.2 121.33 293.76 119.44 293.54 117.56 293.33 115.68 293.33 113.58 293.42 111.69 293.64 109.71 294.1 107.83 294.75 104.31 296.3 100.98 298.3 98.1 300.71 96.78 302.04 95.57 303.49 94.46 305.04 93.47 306.58 92.7 308.25 91.92 309.89 91.37 311.65 91.03 313.41 90.72 315.17 90.72 316.94 90.72 318.7 91.03 320.49 91.49 322.25 92.14 324.01 93.03 325.77 94.03 327.44 95.35 329.1 96.9 330.65 98.56 332.19 100.54 333.74 102.76 335.16 105.3 336.39 105.39 333.3 105.64 330.65 106.19 328.21 106.96 326.23 107.73 324.44 108.72 323.02 109.83 321.81 110.92 320.92 112.03 320.15 113.24 319.59 115.58 318.94 117.44 318.6 118.89 318.6 120.31 318.7 122.53 318.94 125.07 319.59 127.84 320.8 129.17 321.57 130.5 322.59 131.82 323.79 132.91 325.22 134.02 326.88 134.91 328.76 135.57 330.99 136 333.52 136.24 336.73 136.24 338.93 136.12 340.69 119.44 340.69 119.44 351.65 146.84 351.65 146.84 353.63 146.5 355.61 146.07 357.28 145.51 358.82 144.74 360.27 143.85 361.48 142.98 362.59 141.87 363.58 140.66 364.35 139.33 365 138 365.56 136.56 365.89 133.68 366.33 130.59 366.23 131.92 367.87 133.13 369.32 134.46 370.43 135.78 371.3 137.01 371.86 138.22 372.32 139.33 372.63 140.44 372.75 142.54 372.53 144.18 372.07 146.28 371.2 146.62 374.63 147.18 377.6 148.04 380.38 149.16 382.79 150.48 384.89 151.93 386.68 153.57 388.22 155.34 389.43 155.34 389.43" fill="#a29272" fill-rule="evenodd"/><polygon points="609.6 111.73 540.94 473.8 316.34 315.76 609.6 111.73" fill="#a42738"/><path d="M498.88,280.21c-2.67,1-4.95,1.71-7.67,2.48A73.47,73.47,0,0,1,482,283c-6.84-1.1-3-.83-9.56-2.7-1.49-.43-10.87-1.77-12-1.75-1.73,0-7.83,1.25-10.19,3-1.69,1.26-3.5,3.61-3.45,5.82a5.56,5.56,0,0,0,.58-.41,19.35,19.35,0,0,0,1.85-2.3,23.22,23.22,0,0,1,3.82-2.53,22.24,22.24,0,0,1,18.42,1c1.13.62,2.28,1.44,3.25,1.83.3.13.59.21.89.32.68.26,5.53,4,8.41,5.89a21.92,21.92,0,0,0,11.73,4.06l-.16-2.81a6.65,6.65,0,0,1,4.71.16,2.46,2.46,0,0,0,1.14.11,1.83,1.83,0,0,0,.77-.52c0-.06,0-.12,0-.54l-.12-2.22a44.49,44.49,0,0,0,4.1-2.38,6.15,6.15,0,0,0,1.91-2.56c.35-1.67-4.78.22-5.86.41a18.12,18.12,0,0,1-4.17.16c-.65-.18-.83-.75-.51-1.57l1.26-3.29ZM395,298.29a36.35,36.35,0,0,0,3.4,11.27c.28.55,2.58,4.72,3.23,4.65a.67.67,0,0,0,.38-.32c.25-.38.15-.66-.32-1.43-.68-1.12-1.51-2.2-2.1-3.24-1.25-2.17-3.51-11-2.93-13.91.08-.41.26-.75.38-1.16s.2-3.55.38-5.34c.15-1.49.79-3.61.89-4.85.23-2.68-.91-6.93-2.67-8.68-.7-.69-1.94-1.12-2.55-.08-.27.47-.83,2.9-1,3.11a1.67,1.67,0,0,1-1.12.24c-.36-.08-.76-.38-1.07-.48-1.24-.39-1.8,1.68-1.63,3,.11.87.54,2.28.51,2.66a.92.92,0,0,1-.47.58c-.39.09-1-.07-1.58,0-1.19.13-1.45,1.63-1.27,2.9.44,3,1,3.33,2.23,5.85a5.38,5.38,0,0,1,.58,1.79c0,.58-.5,3.23-.51,4.37a22.74,22.74,0,0,0,1.78,6.66c.8,1.7,1.52,3.1,2.43,4.71a16.69,16.69,0,0,0-2.43,1.05c-1.43,1.18,3.57,5.08,4.79,6.23.28.26.31.3.32.38.05.56-.7,1.66-.78,1.93a2.37,2.37,0,0,0,.32,1.54c1,2.06,1.58,2.13,3,3,2.89,1.78,2.13,1.68,3.28,4.64.86,2.23,8.69,5.8,10.13,6.53,2,1,2.68,1,3.68-1.23a9.57,9.57,0,0,1,.64,1,7.44,7.44,0,0,1,.41,1.16c.22.59.71,1.31.88,1.78.42,1.19-1.13.09-2.26.19-.33,0-1.55.91-2.37,1.27a4.12,4.12,0,0,1-1.42.28c-5.57.36-7.49-2.91-13.45-7.52-2.41-1.86-7.56-5.37-11.09-4.38-1.88.52-2.85,2-1.67,4.09a13.81,13.81,0,0,1,1.11,2c0,.21-.66.79-1,1.55a3.46,3.46,0,0,0-.4,2.4c.17.27,3.2,1.78,3.39,2.06.38.57,0,1.56-.25,2.54s-.13,1.51.25,1.84c1.24,1.06,4.82.58,5.61.39,2-.59,3.71-1.17,5.69-1.95,4.3,7.27,11,10.64,18.14,9.12,1.4-.37,2.83-1.05,4-1.43a1.62,1.62,0,0,1,1.12,0c.19.19.4,1.14.7,1.75.44.86,1.13.53,1.91-.16s3-3.67,3.34-3.82a.3.3,0,0,1,.34,0c.49.32.75,1.81,1.1,2.31s1.28.07,2.3-.48,11.26-7.77,11.61-11.72c0-.44-.13-.76-.33-.78s-1.62,1.47-2,2.05a17.4,17.4,0,0,1-1.46,2c-.48.44-1.06.63-1.53,1.11-1.05,1.11-1,1.82-1.76,2.15-.46.21-.48,0-.38-.53a1.1,1.1,0,0,1,.3-.61l4.26-5.64c.23-.31.26-.37.27-.52,0-.38,0-.39-.2-.34s-.18.06-.47.41l-2.72,3.24c-.2.24-.56.57-.83.33-.08-.07,0-.33.15-.59.61-1.09,2.1-3,2.19-3.37.14-.6.07-1.43.73-1.71a.94.94,0,0,1,.53,0c21.66,1.78,17.48,1.07,40.26-8.32.49-.2,2.84-.73,2.79.25,0,.41-.48,1.25-.64,2-.72,3.32,2.87,5.11,4.78,7.8,4,5.58-.9,13.62-6.11,12.9-1.2-.17-2.23-1.27-5.65-1.26a5,5,0,0,1-1.56-.25,6.16,6.16,0,0,0-1.6-.56c-.48,0-.36.2-.23.6.55,1.66-2.42.31-2.75.25-.73-.14-2.61-.18-2.95.77a5.69,5.69,0,0,1-.25.84,1.46,1.46,0,0,1-1,0c-.3-.29-.53-1.07-.72-1.18s-.83.22-1.38.21-1-.42-.83-.9c.41-1.11,2-.77,2.8-.82l3.32-.24c-1-.19-1.9-.33-2.93-.48a8.24,8.24,0,0,0-7.65,2.15C456,351,454,353.57,454,355.52c-.1,5.5,4.1.76,4.87.56,1-.26,1.17,1,2.14,2,1.82,1.86,3.13-.4,4.59-1.75s1.32.53,2.93,2.07c1,.92,2.26-.55,3.19-1.51,1.42-1.49,2.16-.17,4,1,2,1.34,5.82,1.12,8,.32,1.39-.51,2.89-1.44,3.93-1.88a1.2,1.2,0,0,1,.83-.11c.3.11,1.13,1.15,1.74,1.59a1.73,1.73,0,0,0,1.91.08c.88-.43,2.23-1.48,2.55-1.51s1.58.47,2,.41a4.89,4.89,0,0,0,2.13-1.76c.55-.85,1.47-3.3,1.78-3.67s.68-.14,1.51.18c1.3.5,1.25-1.4,1.11-2.32a16.08,16.08,0,0,0-1.92-5.9,27.92,27.92,0,0,0-3.5-3.42,22.76,22.76,0,0,1-2.81-2.15c-1.08-1.08-3.27-4.21-3.63-5.73s-.58-4.44-.76-4.78a.44.44,0,0,0-.14-.16c-.4-.19-.67.73-.73,1.19a8.27,8.27,0,0,0,.5,4.52l3,5.72c.19.36.21.41.19.49s-.08.26-.26.16a8,8,0,0,1-2.29-2.36c-.2-.43-.31-.9-.51-1.28s-.42-.61-.63-1c-.78-1.25-1-4.15-1-5.26,0-.43,0-.48-.23-.54l-.5-.12c0,.48,0,.88-.05,1.36,0,2.49.51,2.66,1.37,4.88a5,5,0,0,1,.32,2.22c-.16.24-.47-.11-.7-.47a11.18,11.18,0,0,1-1.72-4.65c-.07-1.21,0-3.58-.13-4.06-.29-1.08-.7-1.25,0-1.88,3.55-3.19,11.06.33,14,2.87,1.52,1.29,4.57,4.89,6.17,6.27a17.86,17.86,0,0,0,12.06,3.91c1.39-.17,7.24-2.09,8.34-2.19a44.61,44.61,0,0,1,5,.05v-.16c2.35.61,4.32,1.2,6.63,2a8.48,8.48,0,0,1,5,6.18,21,21,0,0,1,0,3.72,4.7,4.7,0,0,1-1.78,3c-2.8,2.32-4.94,1.4-8.61,1.51a10.46,10.46,0,0,0-6.31,2.47c-1,1-2.68,3.89-1.85,5.65a2.11,2.11,0,0,0,2.24,1.12c.61-.16,1.81-1.05,2.23-1.12s1,.52,1.72,1.2c1.17,1.08,1.75.75,3.06-.08,1.14-.73,2.85-1.47,3.48-1.12.38.22,1.35,1.57,1.7,1.76,2.46,1.3,5.77-2.09,7-4.21,1.4-2.34,1.51-3.55,2.94-3.67.88-.08,1,0,1.53-.64,1.39-1.79.64-4.23.07-7.31a2.94,2.94,0,0,1-.07-1c.21-1.1,1-.8,2-1.24.51-.21.29-.71-.08-1.66s-.68-2-1.08-2.82c-1.08-2.32-3.11-3.84-5.34-5.69-.29-.24-.33-.28-.4-.43a1.87,1.87,0,0,1-.11-1.06c.15-.53,1-1.75,1-2a.69.69,0,0,0-.24-.5c-2.07-2.41-9.29-5.43-13.14-3.64-3.45,1.61-11.12.4-13.89-1.91-.31-.25-.59-.53-.9-.79-.87-.73-2-1.29-3.06-2.07a39.93,39.93,0,0,1-3.88-4.54c-6.07-10.19-14.3-11.52-24-9.12-3,.73-6.8,2.28-8.76,2.69-3,.62-7.33.86-8.86,1.27-5.09,1.37-18.93-1-25.46-3.71-.41-.16-.68-.5-1.06-.57a20.34,20.34,0,0,0-2.81.63s-.42-5.09-.31-5.49,1.08-1.4,1.27-1.88c.4-1-.27-3.67-.89-5.23-1.06-2.68-3.11-5.66-1-7.17.41-.29.86-.27,1.21-.55a4.9,4.9,0,0,0,1-3.4c-.33-1.23-1.92-3.27-3.17-3-.61.15-2,1.11-2.31,1.11-.63,0-.61-1.06-.71-2.07a1.84,1.84,0,0,0-.53-1,19.56,19.56,0,0,0-2.89.63,16.93,16.93,0,0,0-.84-2.23c-.1-.12-.49,0-1,0s-.93-.12-1-.76a8.55,8.55,0,0,0-.27-1.94,5.19,5.19,0,0,0-2.11,0c-2.2.49-3.07,1.35-4.73,2.92a19.91,19.91,0,0,0-.78-2.29c-.31-.6-.93-.4-1.47.24s-1.06,1.64-1.4,1.91a5.75,5.75,0,0,1-1,.62,35.68,35.68,0,0,0-2.28-2.85c-1.86-1.34-5,.55-4.21,3.64.18.68,1.65,3.56,1.65,3.56-1,1-1.82,1.88-2.8,2.91a56.21,56.21,0,0,0-4.27,5.9,4.8,4.8,0,0,0-.44,1.94c.17,1.19,1.41,1.07,1.79,1.56a3.7,3.7,0,0,1-.2,1.5,16.11,16.11,0,0,1-1.71,2.39,27.81,27.81,0,0,0-2.11,4.23c-.27,1-.47,1.93-.67,3a10.81,10.81,0,0,1,1.56,1.3,2.86,2.86,0,0,1,.1,1.76c-.11.54-1,2.15-1.44,3.25a11.78,11.78,0,0,0-.68,6.37c.19.83.29,1,0,1.27-.53.51-.81.35-1.21-.39-.6-1.13-1.08-3.07-.66-3.53s.62-.67.47-1.3-3.17-4.72-4.4-7c-.16-.3-3.84-10.28-2.1-10.82Zm28.63-11.78c-.1-.31-.89-.95-1.1-1.37-.07-.16-.08-.31,0-.39a.56.56,0,0,1,.51,0c.93.37,1.31,1.86,1.15,2.82a5.59,5.59,0,0,1-3.15,3.71c-1.67.49-4-1.27-4.5-4a1.14,1.14,0,0,1,0-.52.79.79,0,0,1,.94-.72c.68.13,2.5,1.23,3.33,1.43a2.86,2.86,0,0,0,2.38-.4c.23-.15.5-.43.46-.55Zm5.08,2.54c.38-1.7.79-.93,1.1-.05.78,2.2,2.43,1.87,4.06,1.88a5.22,5.22,0,0,1,1.92.48c.6.49.21,1.33-.44,2-3,3-7.73.58-6.64-4.29Zm-18.8,1.76c.08-.46,1.18-2.42,1.71-2.55.19-.05.28.05.47.36.39.64,1.75,4.3-1.13,3.78a1.31,1.31,0,0,1-1.05-1.59Zm14.81-.4c.56-1,1.3-1.93,1.83-1a3.57,3.57,0,0,1,.4,2.5c0,.43-.07.45-.37.27a9,9,0,0,1-1.75-1.18s-.2-.38-.11-.55Zm-7.85,23.12a11.75,11.75,0,0,1-.46-1.42c-.3-1.43,1.14-1.25,2.42-1.64,3.59-1.1,2.66-1.56,1.6-4.86-.32-1-.56-3.36-.77-3.82a9.8,9.8,0,0,1-.7-1.43c0-.08,1.83-3.42,2.46-3.33.38,0,.2.34.54,1.1a2.24,2.24,0,0,0,.89.79c.85.5,3.19,1.16,3.63.72.24-.24.49-.72.72-.87.73-.49.91,1.46,1.13,2.22a4.78,4.78,0,0,1,.47,1.75c0,.2,0,.25-.33.5a9.27,9.27,0,0,0-1.54,1.58c-.26.47-.29,1-.51,1.43a2.13,2.13,0,0,1-.6.66c-1.66,1.25-2.81,1.55-2.78,3.24,0,.75,1.34,2.63,2.16,3.5a8.7,8.7,0,0,1,1,1.14.91.91,0,0,1,0,.69,1,1,0,0,1-.83-.08c-.25-.23-.43-.66-.7-.95-.94-1-2.26,0-3.51.24a2.41,2.41,0,0,1-1.21-.48,27.86,27.86,0,0,1-1.87-2.16l-1.24,1.48Zm22.36-11a5.85,5.85,0,0,1,0-.84c.05-.61.22-1,.53-.85s.46,1.19.43,1.55a8.58,8.58,0,0,0,.15,1.45,19.33,19.33,0,0,1-.37,6.21c-.18.92-.26,1-.54.62-.1-.11-.11-.17-.11-.6l-.12-7.54Zm-45.94.22c.09,0,.12,0,.29.36a4.37,4.37,0,0,1,.25.8c.29,1.13.63,2.43.87,3.43a1,1,0,0,1,.05.5c-.1.25-.35.18-.51,0-1.18-1.3-1.2-4.2-1.15-5.09Zm13.63,12.41a.75.75,0,0,1-.42.5,4,4,0,0,1-.67-1.4c-.27-1.8.68-7.7,1.47-9.76a2.79,2.79,0,0,1,.65-1.12.35.35,0,0,1,.43.16c.29.9-.6,3.65-.82,4.94-.3,1.71-.4,5-.64,6.68Zm30.52-9.33c.06-.52.12-.93.44-1,.52-.15.66,1.39.58,1.84s-.31.81-.38,1.23c-.11.69.34,2.05-.43,2.34-.13,0-.19,0-.27-.16a2.75,2.75,0,0,1,.08-2.16,5.14,5.14,0,0,0,.07-1.77.87.87,0,0,1-.09-.31Zm-29.06,10h-.3c-.1,0-.13-.07-.14-.16-.72-4.13-.29-4.56,1.05-10.05,0-.24.22-.9.48-.3.6,1.45-.37,3.64-.7,5.81-.21,1.65-.32,3-.39,4.7Zm-13-6.17a.44.44,0,0,1,.12-.17c.25-.2.45.32.61.69s1,2.09.64,2.47-.53-.27-.71-.64a3.92,3.92,0,0,1-.66-2.35Zm42.41,9.14c.3-.84.55-.24,1.27.14,1,.52,1.47-.15,1.66.84a.84.84,0,0,1-.82,1c-.59.07-2.22-1.67-2.11-2ZM405.11,322a.52.52,0,0,1-.43-.18.92.92,0,0,1-.08-1.09c.26-.37.53-.25.82.2a2,2,0,0,1,.14,1.07ZM423,337.48a8.22,8.22,0,0,0-.83-1.38c-.29-.26-.65-.2-.86-.39a.87.87,0,0,1-.25-.45,1.8,1.8,0,0,1,1.36-2.11c.67-.19.57.33,1.41,1.2s1.47-.52,2.25-1.63c.3-.43.73-.61,1,0,.89,1.88,1.28,1.77,2.46-.28l1.46-3c.43-1,1.11-2.3,1.61-2.21.26,0,1.47,1.28,1.78,1.36s.53,0,.65.11a2.66,2.66,0,0,1-.25,2c-.68.74-1.14-.37-2-.72-.69-.26-1,.71-1,1.82s.15,1.7-.32,2.16c-.21.21-1.8.47-2.1.72s-.86,1.6-1.28,2.07-1.18.57-1.86-.1c-.3-.29-.49-.66-.66-.68a21.34,21.34,0,0,0-2.51,1.52Zm-14.52-9.9c.34,0,.65.88.69,1.21.07.67-.13.79-.33.7a2.76,2.76,0,0,1-.82-1.06,3,3,0,0,1,0-.85Zm-3,.48a.34.34,0,0,1,.26-.16.58.58,0,0,1,.48.76.33.33,0,0,1-.41.2.73.73,0,0,1-.33-.8Zm4.46,4h.85a1.63,1.63,0,0,0,1.19-.4c.71-.57,1.23-1.24,1.85-.24.36.59.69,2.65.14,2.87-.26.1-.28-.23-.45-.76-.49-1.49-1.39-.73-2.29-.3s-1.39,0-1.29-1.17Zm45.82,1.83a2,2,0,0,1,.77-.16c.63-.07,2.09-.82,2.87-1a.56.56,0,0,1,.76.41c.16.49-.72,1-1.13,1.25a3.35,3.35,0,0,1-3.2.17s-.36-.42-.07-.64Zm53.89.28,0-.08c.12-.14,3.2.95,5.19,1.52.61.17,3.1,0,4.45.11.54,0,1.21.26,1.11.73-.16.71-1.07,1-1.7,1-1.66.18-6.46-.37-8-1.38-.27-.17-1.36-1.13-1.11-1.92Zm-64.4.38a.41.41,0,0,1,.13-.18c.48-.48.81-.19,1.26,0s1.43,0,1.71.11a.75.75,0,0,1,.28,1.18,7.72,7.72,0,0,1-2.52.25c-.42-.21-1-.68-.86-1.33Zm5.27.85c-.27,0-.31,0-.34-.06l-.05-.15c-.12-.57.37-.67.82-.54a.46.46,0,0,1,.2.69c-.05.09-.5.06-.63.06Zm90.63,2.93c-.28-.26-.31-.29-.3-.35a.28.28,0,0,1,0-.13c.26-.66,2,.67,2.25.9a6.44,6.44,0,0,1,.65.52c3.38,3.05,4.15,8.94,1.71,13.17-.33.57-1,1.48-1.54,1s.36-1.55.71-2.06c1.29-1.93,1.83-6.67.26-8.69-.22-.28-.51-.52-.7-.8a8.59,8.59,0,0,1-.51-1.11,23.94,23.94,0,0,0-2.56-2.49Zm6.7,6c.74-.09,1,1.11,1,2.1a19.7,19.7,0,0,0,0,2.44c.13.8-.31.8-1,.71V344.3Zm-133.15,4.3a4,4,0,0,0-.68.89.28.28,0,0,0,.06.3c.48.57,1.53-.31,3.48-.15a1.33,1.33,0,0,1,.54.15c.22.13.16.34-.13.64-2.45,2.56-11.47.45-13.38-2.93a17.58,17.58,0,0,0,4.78,1.68c.79.07.54-.16.4-.9s1.29-.67,1.78-.54l3.15.86Z" fill="#a29272" fill-rule="evenodd"/><path d="M748.55,408.12a25.8,25.8,0,0,1-7.82-1l-1.29-.42-.94,5.08.78.4c3.72,1.91,9.91,3,17,3,6.8,0,24-1.28,37-13.11,12.59-11.36,18.81-29.23,17.08-49-.81-9.25-3.91-18.17-8.29-23.87-6-7.67-13.47-14.56-39.52-14.56-5.58,0-12.39.24-18.4.44-5,.18-9.69.34-12.88.34-5.5,0-13.75-.28-20.38-.51-4.41-.15-7.89-.27-9.46-.27h-.74L698.06,320l13.8,1.19c4.36.69,4.85,1.68,4.49,5.25-.63,7.39-4.1,25.4-13.27,68.82-8.64,41.65-12.58,58.54-16.12,72.3-1.42,5.43-3.41,7.52-7.57,8l-11,.86-.88,5.43h1.39c1.29,0,4.09-.09,8-.22,6.93-.22,17.41-.56,25.93-.56,10.2,0,18.6.27,25.36.49,4.9.16,9.13.29,12.84.29h.8l2.2-5.33-16.34-1.74c-1.75-.19-2.72-.52-3.15-1.06-.65-.83-.55-2.72-.17-5.7.68-5.2,2.47-19,10.77-61.83,7.88-40.86,15.18-72,17.48-80.66,1-3.89,2.27-4.84,6.7-4.84,7.51,0,10,3.56,11.91,7.2l.05.08c2.17,3.47,3.43,7.87,3.95,13.84,1.68,19.16-3,46.55-13.79,59.2C757.09,405.9,751.85,408.12,748.55,408.12Z" fill="#231f20"/><path d="M847.18,469.8c1.12-8.68,5.33-34.9,13.27-72,.91-4.36,1.88-9.05,2.88-13.86,4.41-21.26,9.41-45.37,12-54.51,1.95-7.2,3.15-8.1,7.06-8.54l9.06-1.14,1.42-5.14h-1.56c-1.67,0-4.22.1-7.45.22-6.18.24-14.63.56-25.14.56-6.05,0-12.13-.21-18-.42-5.2-.19-10.11-.36-14.44-.36h-.83l-1.87,5.1,12.57,1.18c1.6.19,2.52.54,3,1.13.67.88.72,2.73.16,6.39-1.5,9.66-6.31,34.11-13.18,67.07-9.5,45.67-13.27,62.49-16.13,72-2.19,6.88-3.7,7.38-6.6,7.8L793,476.39l-1.33,5.41h1.52c1.32,0,3.55-.08,6.64-.2,6.1-.23,15.31-.58,25.94-.58,8.59,0,17.39.29,24.45.52,4.53.15,8.1.26,10.36.26h.79l2.21-5.34-12.1-1.2C847.75,474.8,846.7,474.46,847.18,469.8Z" fill="#231f20"/><path d="M1033.67,321.7c3-.51,6.69-1.14,10.45-1.59l.7-.08,2.23-5.42h-1.77c-2.83,0-6.84.17-11.09.35-4.93.21-10,.43-14.18.43-3.48,0-7-.21-10.37-.41-4.18-.26-8.5-.52-12.73-.37l-.65,0-3,5.23,14.7,2.07c5.26.75,5.93,1.8,5.84,5.59v.05c.17,9.54-4.19,33.93-12.87,82.53q-1.85,10.29-3.95,22.12c-6.73-18.14-15-39.83-23.1-60.85s-15.65-40.85-21.23-56l-.31-.86-.91.08a187.22,187.22,0,0,1-20.72.78c-6.47,0-12-.25-16.92-.46-3.8-.18-7.08-.32-10-.32h-1l-.87,5.33,12.28,1.73a9.41,9.41,0,0,1,6.16,4,11.06,11.06,0,0,1,1.89,8.2c-9.94,54.76-22.57,119.18-26.39,130.72-2.07,6.61-3.77,8.77-7.62,9.64l-.09,0A51.3,51.3,0,0,1,877,476l-.83.05-1.72,5.8,1.67-.08c5.12-.24,18.12-.78,23.38-.78,5.57,0,13.49.3,20.49.56l5.92.22.89,0,1.74-5.29-1.35-.23c-2.27-.39-4.9-.79-7.45-1.18s-5.14-.78-7.35-1.16c-3.89-.81-4.9-2.45-4.12-11.78,1.53-14.85,8.89-60.72,18.85-117.52,3.88,10.68,8.22,22.53,12.78,35,14.18,38.74,30.27,82.64,37.15,104.19l.4,1.25,1.21-.52A53.91,53.91,0,0,1,995.9,481h1l.14-1c9.16-66,24.22-139,29.2-151.73,1.53-3.7,3.48-5.72,6.06-6.33Z" fill="#231f20"/><path d="M1160.18,314.12l-4-1.94-7.72,12c-6.71-7.89-19.43-12.73-33.73-12.73-20.65,0-36.17,6.15-50.32,19.94-11.48,11.36-20.63,27.22-26.46,45.87-5.27,16.82-7.41,34.63-6.06,50.15,1.56,17.76,6.57,31.63,14.91,41.23,9.38,10.8,23,16.28,40.58,16.28,26.08,0,46.59-11.92,57.73-33.56l.16-.3-1.09-12.4h-4.06l-.25.85c-7.16,24-20.32,35.2-41.42,35.2-7.39,0-14.53-3.14-18.64-8.19s-8.72-15.4-10-30.17c-3.07-35.07,4.84-72,21.16-98.79,7.53-12.08,17.93-19.29,27.81-19.29,8.75,0,14.31,3.63,18.61,12.16,4.55,8.74,6.3,20.24,5.35,35.16l-.08,1.26h5.17l.15-1c2.13-14.43,6.15-31.51,12-50.77Z" fill="#231f20"/><path d="M1237.66,311.47h-.26c-17.19,0-31.69,5.31-44.32,16.24-11.82,10.51-21.9,27.38-28.39,47.5-6,18.72-8.64,39.37-7.12,56.66,3,34.72,21.91,53.07,54.57,53.07,15.87,0,39.07-2.95,57.3-28.46,15.24-21.6,24.78-60.34,22.17-90.11C1288.52,331,1269.36,311.47,1237.66,311.47Zm-18.78,20.36c6.29-10.27,12.32-14.85,19.58-14.85h.26c11.62,0,15.16,12.62,16.09,23.21,3.33,38.08-6.25,90.69-22.27,122.36-6.18,11.49-12.72,16.62-21.22,16.62-9.74,0-15.83-8.34-17.16-23.47C1191,419.28,1202.77,360.22,1218.88,331.83Z" fill="#231f20"/><path d="M1452.25,320.11l.83-.09,1.33-5.41h-1.52c-3.75,0-7.58.18-11.64.38s-8.23.4-12.32.4c-3.31,0-7.76-.2-12.06-.4s-8.29-.38-11.25-.38h-.94l-1.3,5.32,14.56,2c3.71.39,5.75,1.8,5.23,7.85-2.22,23-9.41,63.09-18.76,104.58-9.48,40.36-25.77,40.36-38.85,40.36a26,26,0,0,1-17.29-7c-3.91-4-8.11-12.25-5.92-28.52,4.4-30.13,17.49-96.39,22.54-111.53,1.83-4.75,3.33-5.42,5.61-6.06l10.3-1.7.88-5.35h-1.4c-3.72,0-7.59.15-12.07.32-5.53.22-11.8.46-19.21.46-8.07,0-15-.24-21.08-.46-4.77-.17-8.9-.32-12.68-.32h-.86l-1.76,5.34,13.35,1.47a2.69,2.69,0,0,1,2,1c.69.93.83,2.53.39,4.66-.87,5.2-3.92,20-7.45,37.21-4.91,23.87-10.48,50.93-12.86,64.92-2.95,17.37-.58,31.43,6.87,40.67,8.08,9.56,22.78,15.05,40.32,15.05,14.36,0,25.21-2.55,33.18-7.78,14.93-10.11,20.5-24.21,24.29-42.29,5.44-28.48,15.58-81.5,21.47-103.62C1436.38,323.07,1437.78,321.65,1452.25,320.11Z" fill="#231f20"/><path d="M1563.28,476.55c-3,0-5.26-.87-6.77-2.67-4-4.76-2.13-15.2-1.24-20.21,3-16,3.25-25.18.84-32.61-1.81-13.24-12.4-21-35.16-25.53,18.84-1.91,33.14-8,41.51-17.79,7-8.11,9.91-18.71,8.79-31.49-.88-10.12-4.71-18.6-10.52-23.29-7-5.42-14.59-8.35-34.87-8.35-7.09,0-14,.16-20.18.3-4.88.11-9.48.22-13.2.22-5.09,0-13.31-.29-19.91-.52-4.22-.15-7.55-.26-8.9-.26h-.76l-2.52,5.57,12.93,1.49c4.5.67,5.15,1.55,4.62,6.21-1.4,8.64-5,28.83-13.18,67.07-8.85,41.48-14.34,66-16.32,72.75-2.13,6.36-2.94,7.09-8.69,7.81l-8.29.87-1.69,5.68h1.59c1.88,0,5.61-.12,10.32-.27,7.09-.23,15.91-.51,22.52-.51,8.24,0,18.1.31,25.31.54,4.24.14,7.59.24,9.24.24h.89l1.67-5.63L1488.6,475c-1.68-.24-2.7-.68-3.21-1.39s-.66-2.1-.29-4.07c1.19-8.63,3.33-19.78,9.06-49.57,1.16-6,2.46-12.78,3.93-20.46a26.25,26.25,0,0,1,8.72,0h.09c7.66.42,11.69,1.66,13.93,4.28s3,7.44,2.19,15.29c-.43,3.62-1.59,9.92-2.82,16.59-.85,4.65-1.74,9.47-2.38,13.39-1.84,10.74-.26,19.17,4.71,25.08,5.31,6.29,14.32,9.48,26.79,9.48,8.67,0,15.51-.59,18.77-1.62l.49-.16,3.1-6.41-2.47.63A24.06,24.06,0,0,1,1563.28,476.55Zm-39.93-92.37a25.06,25.06,0,0,1-19.13,8.53c-1.55,0-3.14,0-4.6-.12,2.8-13.44,5-24.23,6.84-32.94,4.63-22.34,6.36-30.69,7.45-34.88.85-2.71,2.49-3.87,5.51-3.87h1.82c5.3,0,7.77,1.58,10.24,4.31l.08.08c2.1,1.93,3.66,6.62,4.18,12.55C1537.05,352.75,1533.72,372.86,1523.35,384.18Z" fill="#231f20"/><path d="M1710.7,312.07c-8.64,3.32-21.18,3.32-48.64,3.32h-17c-20.54,0-36.84-.24-44.25-3.3l-1.25-.52-1.55,5.81c-3.54,13.27-9.46,35.49-11.76,40.5l-.38.83,4.4,3.63L1591,361a215.33,215.33,0,0,1,16.13-26.78c5.67-8.84,10.13-12.84,28-13-2.14,13.43-5.09,27.31-8.48,43.29-1.68,7.93-3.42,16.14-5.27,25.26q-2.46,11.13-4.68,21.44c-4.81,22.24-9,41.45-13.66,58.11-1.44,4.32-3.09,5.22-7.33,5.73-4.79.6-7.94.9-10.24,1.12l-1.89.18-1,.1-.43,5.4h1.29c3.51,0,8.4-.14,14.07-.31,7.5-.22,16-.47,24-.47,9.24,0,19.58.31,27.13.53,4.73.14,8.46.25,10.55.25h.79l2.23-5.41-1.66-.1a143.18,143.18,0,0,1-15.18-1.55h-.09c-1.74-.13-2.34-.61-2.64-1-.67-.81-.85-2.45-.57-5,2.46-19.38,6.67-43.34,13.24-75.4,1.52-7.45,3-15.07,4.58-23.15,3.22-16.48,6.54-33.52,10.22-49.06,17.33-.39,21.35,2.33,23,7.85,1.7,4.89,3.5,14.18,2.39,30.61l-.12,1.88,5.67-2.26.09-.68c2.35-16.37,9.27-40.06,11.13-44.93l1-2.49Z" fill="#231f20"/><path d="M746,248.3H735.25l12-57H730l2-9.29h45.24l-2,9.29H758.1Z" fill="#231f20"/><path d="M839.79,206.5A55.92,55.92,0,0,1,835.48,229q-4.31,9.89-11.85,15a30.39,30.39,0,0,1-17.53,5.14q-11.73,0-18.18-6.77t-6.43-18.75a53.67,53.67,0,0,1,4.46-22.1q4.47-10,12.22-15.3A30.39,30.39,0,0,1,815.76,181q11.38,0,17.7,6.76T839.79,206.5ZM814.9,190.27a17,17,0,0,0-11.34,4.35,28.75,28.75,0,0,0-7.95,12.08,48.07,48.07,0,0,0-2.88,16.89q0,7.84,3.69,12.1c2.47,2.85,5.91,4.26,10.32,4.26A16.79,16.79,0,0,0,818,235.63a28.25,28.25,0,0,0,7.8-12,49.57,49.57,0,0,0,2.79-17q0-7.71-3.58-12T814.9,190.27Z" fill="#231f20"/><path d="M908,248.3H896.27l-1.68-38.18-.27-8.38.18-4.81h-.27a109.53,109.53,0,0,1-5.31,13.19L871.47,248.3H859.86L857.46,182h10.38l.87,38.53q0,6.16-.59,15.69h.27q3.76-10,6.44-16.1L892.37,182h10.2l1.41,38,.13,7.66-.13,8.53h.36q1.26-4,3.17-9t2.77-6.91L926.51,182h11.15Z" fill="#231f20"/><path d="M988.93,248.3H977.14l-18.59-52.73h-.27l-.45,3.13c-.73,4.5-1.26,7.72-1.61,9.63s-3.12,15.24-8.32,40H938L952,182h12.15l18.09,52.09h.31c.19-1.64.65-4.54,1.41-8.73s1.36-7.26,1.81-9.23L993,182h9.92Z" fill="#231f20"/><path d="M1102.16,206.5a55.75,55.75,0,0,1-4.31,22.53q-4.3,9.89-11.85,15a30.34,30.34,0,0,1-17.52,5.14q-11.74,0-18.18-6.77t-6.44-18.75a53.52,53.52,0,0,1,4.47-22.1,35.43,35.43,0,0,1,12.21-15.3,30.42,30.42,0,0,1,17.59-5.31q11.38,0,17.71,6.76T1102.16,206.5Zm-24.89-16.23a17,17,0,0,0-11.33,4.35,28.67,28.67,0,0,0-8,12.08,48.07,48.07,0,0,0-2.88,16.89q0,7.84,3.7,12.1c2.46,2.85,5.9,4.26,10.31,4.26a16.82,16.82,0,0,0,11.27-4.32,28.25,28.25,0,0,0,7.8-12,49.81,49.81,0,0,0,2.78-17q0-7.71-3.58-12C1085,191.7,1081.63,190.27,1077.27,190.27Z" fill="#231f20"/><path d="M1124.55,248.3h-10.74l14-66.28h35.08l-1.94,9.29h-24.35l-4.35,20.58H1155l-2,9.21h-22.67Z" fill="#231f20"/></svg>