<svg id="Layer_1" data-name="Layer 1" xmlns="http://www.w3.org/2000/svg" viewBox="0 0 125 115"><title>logo_10</title><path d="M112.5,50c-.1,27.5-22.4,50.2-49.3,50-28.6-.1-50.8-22.1-50.7-49.9C12.6,22.6,35.6-.1,63.2,0,90.4.1,112.6,22.6,112.5,50Z"/><path d="M16.1,44.2a44.51,44.51,0,0,0,4.4,26.2,3.88,3.88,0,0,0,3,1.7c2-.1,4-.9,5.9-1.3.7-.1,1.7-.4,2.2-.1a12.49,12.49,0,0,0,13.4.5,3.09,3.09,0,0,1,2.8.2c4.2,2.9,8.4,2.8,12.7.2a4.69,4.69,0,0,1,3.5-.1c5.1,2.2,10.1,3.6,14.3-1.4,4,2.7,7.9,4.6,12.4,2.4,2.6-1.3,4.6-1.8,7.3.2s5.1,1.2,6.4-2a104.1,104.1,0,0,0,4-12.3c.9-3.3-.2-5.2-3.1-7l-2.7-1.5c-5.8-3-11.5-6.2-15.1-11.9a3.36,3.36,0,0,0-2-1.3c-3.7-.5-6.9.7-10.1,3.4,3.7,2.1,8.5,1.6,10.4,6.3-2,.2-4,.4-6.3.6,2.6,3.9,3.1,7.6,0,12-2.1-2.7-4-5.2-6-7.6a14.41,14.41,0,0,0-2.7-2.2c-.5.9-.9,1.8-1.4,2.7s-.6,2.1-1.3,2.6c-2.3,1.5-4.7,2.7-7.3,4.2-.2-1.2-.3-2.1-.5-3.4a13.69,13.69,0,0,1-1.8,2.1C53.3,62,46.6,63.7,42,57a51.3,51.3,0,0,1-3.5-5.5c-1-2.2-2.5-2.9-4.9-2.9a31.47,31.47,0,0,1-8.1-.9C22.2,47,19.3,45.5,16.1,44.2Z" fill="#fff"/><path d="M57.2,38.1c-1-1.3-3.1-2.7-4.7-1.6-3.9,2.5-8.9,2.7-11.8,7.7-2.1,3.6-1.7,6-.1,8.9a23.8,23.8,0,0,0,3.1,4c1.6,2.1,3.7,2.7,6.3,2.3,3.1-.4,6.3-.8,7.8-3.8s2.3-6.7,3.2-9.3c-2.2-1.6-4-2.4-5-3.8C55.4,41.8,56.6,40,57.2,38.1Z" fill="#f50516"/><path d="M65.2,3.4A46,46,0,0,0,30.3,16.5c-5.9,5.6-10.7,13.2-10.6,16.4C23.1,31,26.6,29,30.2,27c2.2-1.2,4.4-2.1,6.1-.9,1.6-1,2.7-2,4-2.3.5-.2,2,1,2,1.5a35.85,35.85,0,0,1-1.4,4.5,28.45,28.45,0,0,0,2.7-.9c3-1.5,6.1-3,9-4.6a6.8,6.8,0,0,1,6.2-.4c9.1,3.4,18.3,6.7,27.5,10.2a7.77,7.77,0,0,1,3.2,2.1c4.7,5.3,11.1,7.6,17.4,10.1a5.42,5.42,0,0,0,1.8,0C110.7,26.5,88.3,4.4,65.2,3.4ZM80.8,81.7c-5.5,3.9-10.8,2.5-16.2-.4a3.28,3.28,0,0,0-2.9,0c-5.2,3.4-10.5,3.3-15.7.2-1.3-.8-2.2-.5-3.6.1a29.45,29.45,0,0,1-7.7,2.2c-1.7.2-3.4-.6-5.2-1,15,16.9,46.8,19.9,65,1.2-3.9-.8-8-1.7-12.1-2.6A2.22,2.22,0,0,0,80.8,81.7Zm.4-7.3c-.7-.4-2-.7-2.5-.3-4.6,3.7-9.4,2.6-14.1.4a4.1,4.1,0,0,0-4.4.2c-3.9,2.3-8,3-12,.5a4.67,4.67,0,0,0-5.3-.1c-3.3,1.9-6.8,2.2-10.2.1-3.1-1.9-6.1-1.3-8.8,2,1.1.3,2.2,1,2.8.7,1.6-.8,2.5-.1,3.8.6,3.9,2.4,8.1,2.6,12,.1,2-1.3,3.3-1.1,5.2.1,4.2,2.5,8.6,2.8,12.7-.3,1.6-1.2,2.6-1.1,4.2,0,4.6,3,9.4,3.7,14.1,0A11.57,11.57,0,0,1,81.1,77a18,18,0,0,0,2.3,1.8,11.25,11.25,0,0,0,10.5,1.3c1.9-.7,3.8-1.7,6.2-2.8-1.5-1.2-3-2.4-4.6-3.7C90.8,77.6,86.1,76.9,81.2,74.4Z" fill="#2386bc"/><path d="M47.4,37.4c4.4-4.2,8.3-3.8,12.1.5a1.46,1.46,0,0,0,1.2.5c1.9-.2,3.9-.5,5.8-.7-.2-.9-.5-1.8-.8-2.9,3.2-.4,5.1,1.2,7,2.9.6.5,1.8,1.1,2.3.8,2.1-1,4.1-2.4,6.6-3.9-7.1-2.8-13.8-5.2-20.3-8.1-4.1-1.9-7.4-1.4-10.9,1.1C47.3,29.9,46,33.2,47.4,37.4Z" fill="#fff"/><path d="M62.7,55.9c1.9-2,5.8-1.9,5.9-5.9.1-2.2,1.8-2.7,3.6-1.4a14.75,14.75,0,0,1,2.5,3c1.1,1.4,2.1,2.8,3.2,4.2.2-.1.5-.3.7-.4-.8-4.7-1.6-9.3-4.6-13.6C68.3,45.3,64.3,49.5,62.7,55.9Zm-5-13a13,13,0,0,0,4.4.6l4.3.3a19.53,19.53,0,0,1-2.8,3.5c-2.6,2.3-2.7,2.3-1.9,5.2,2.7-3.3,5.8-7,9.1-10.9C66.2,41.1,61.9,40.7,57.7,42.9Zm25.6,2.2c-2.6-.8-4.6-1.4-7.1-2.3,1.3,4.3,2.5,8.1,3.6,11.9a12,12,0,0,0-.1-5,20.24,20.24,0,0,0-1.4-3.4c1.2-.2,2.4-.5,3.6-.7A5.52,5.52,0,0,0,83.3,45.1ZM72.5,40.2c.1-.2.1-.4.2-.6-1.3-.8-2.6-1.6-3.9-2.3v.9l-6.5,1.5c0,.2.1.3.1.5Z" fill="#489a12"/><path d="M32,42.6c1.5-2.4,2.8-5,4.3-7.7a29.06,29.06,0,0,0-3.2.3c-1.7.3-3.1.6-3.8,2.7-.9,2.6-2.3,4.9-3.5,7.5C28.4,46.3,30,45.8,32,42.6Zm-2.1,3.5c5,.3,8.6-3.5,11-11C34.1,35.9,34.4,43,29.9,46.1Zm-2.3-8.6c-4.2-.3-4,4.6-7.1,5.8,2.1,1.8,3.7,1.1,5-.2C27,41.6,28.6,40.1,27.6,37.5Zm6.4-4c-2.8-3.3-5.6-3.6-9.9-1.1C32.1,34.6,32.1,34.6,34,33.5Zm5.4,0c-2.6-4.5-7.2-6.2-9.8-4.3,2.9,1.8,6.1,3.5,9.3,5.2C39.1,34.1,39.2,33.8,39.4,33.5ZM27.3,35.4c-2.5-2.4-4.5-2.2-6.1.8C23.4,36.9,25.5,37.7,27.3,35.4Zm15,1.1c-1.9,3-3.8,6-5.7,8.9C39.7,44.7,42.7,40.4,42.3,36.5ZM18.4,40.7l4.9-2.6C19.9,36.4,19.2,38.7,18.4,40.7Z" fill="#489a12"/><path d="M1,68.4l7.4-5.3.7,2L5.9,67.2a24.68,24.68,0,0,1-2.7,1.7h0c1.1-.1,2.1-.2,3.1-.2l3.9-.1.6,2-9.1-.1Zm11,4.8L4.1,76.7l-.8-1.8,7.9-3.5Zm.7,1.5,1,1.7L7.6,79.8l1.7,3-1.4.8L5.3,78.9Zm3.2,5.7L17,82l-5.7,4.1,2,2.8-1.3,1L8.8,85.5Zm3.7,12.3-2.2-2.3-1.5,1.4,2.4,2.6-1.2,1.1-3.7-4.1,6.4-5.9,3.6,3.9-1.2,1.1L19.9,88l-1.3,1.2,2.2,2.3Zm6.6-.4a15.39,15.39,0,0,1,2.2,1.4,5.89,5.89,0,0,1,2.3,2.9,3.94,3.94,0,0,1-.8,3.5,4.28,4.28,0,0,1-3.3,1.9,6.21,6.21,0,0,1-3.9-1.5c-.8-.6-1.3-1.1-1.7-1.4Zm-2.6,6.8a2.15,2.15,0,0,0,.5.4c1.4,1.1,2.9,1,4.2-.7a2.47,2.47,0,0,0-.5-3.8,2.5,2.5,0,0,0-.8-.5Zm12-.7a14.81,14.81,0,0,1-3.1,2.2l-1.1-.5a14.73,14.73,0,0,0,2.5-2.5Zm5.8,7.6c-1.2,2.6-3.5,3.4-5.8,2.4a4.11,4.11,0,0,1-1.9-5.7,4.22,4.22,0,0,1,5.7-2.4A4.05,4.05,0,0,1,41.4,106Zm-5.7-2.5c-.7,1.5-.5,3,.7,3.5s2.4-.3,3.1-1.8.5-2.9-.7-3.5S36.4,102,35.7,103.5Zm9.5.9-2.2-.7.5-1.6,6.4,1.9-.5,1.6-2.3-.7-2,6.7-1.9-.6Zm7.2,1.8-2.3-.4.3-1.6,6.6,1.1-.3,1.6-2.3-.4-1.1,6.9-1.9-.3Zm10.4,4.3-3.2-.1-.1,2.1,3.6.1-.1,1.6-5.5-.2.3-8.6,5.3.2-.1,1.6-3.4-.1-.1,1.8,3.2.1Zm1.8-4.9a13,13,0,0,1,2.6-.4,4.48,4.48,0,0,1,2.8.4,2.46,2.46,0,0,1,1,1.7,2.42,2.42,0,0,1-1.3,2.3h0a2.22,2.22,0,0,1,1.3,1.5c.4.9.7,2,.9,2.4l-2,.2a9.41,9.41,0,0,1-.8-2c-.3-1.1-.7-1.3-1.5-1.3l-.6.1.3,3.4-1.9.2Zm2.3,3.6.8-.1c1-.1,1.5-.6,1.4-1.4s-.6-1.1-1.5-1.1a7.7,7.7,0,0,0-.9.1Zm5.2-4.4a18.36,18.36,0,0,1,2.4-.7,4.68,4.68,0,0,1,2.6-.1,2,2,0,0,1,1.4,1.4,1.81,1.81,0,0,1-1,2.1h0a2.23,2.23,0,0,1,2.2,1.7,2.08,2.08,0,0,1-.5,2,5.9,5.9,0,0,1-3.1,1.5c-.9.2-1.7.3-2.1.4Zm2.7,2.8.6-.1c1-.2,1.4-.8,1.3-1.4s-.7-.9-1.6-.7a4.5,4.5,0,0,1-.8.2Zm.8,3.8c.2,0,.4-.1.7-.1.9-.2,1.6-.7,1.3-1.6s-1-1-2-.8l-.7.2Zm5.8-9.2,1.8,4.6c.5,1.4,1.3,1.9,2.3,1.5s1.2-1.3.7-2.7L84.4,101l1.8-.7,1.8,4.5c1,2.5.2,4.2-1.9,5s-3.7.1-4.7-2.4l-1.8-4.5Zm6.2-2.5c.5-.4,1.3-.9,2.2-1.5a4.82,4.82,0,0,1,2.8-.8,2.32,2.32,0,0,1,1.6,1.2,2.21,2.21,0,0,1-.3,2.6h0a2.12,2.12,0,0,1,1.8.8c.7.7,1.5,1.6,1.8,1.8l-1.7,1a13.28,13.28,0,0,1-1.5-1.4c-.7-.8-1.2-.9-1.9-.5l-.5.3,1.7,3-1.7,1Zm3.5,2.3.7-.4c.8-.5,1.1-1.2.7-1.9a1.13,1.13,0,0,0-1.8-.3,2.45,2.45,0,0,0-.7.5Zm8.3.6-5.3-6.8,1.8-1.4,3.4,1.4a16,16,0,0,1,2.9,1.5h0a32.71,32.71,0,0,1-2.4-2.7l-1.6-2,1.4-1.1,5.3,6.8-1.6,1.3-3.5-1.5a21.85,21.85,0,0,1-3.1-1.5h0c.7.9,1.5,1.8,2.4,2.9l1.6,2Zm3.3-14.1a14.49,14.49,0,0,1,1.6-2.1,3.82,3.82,0,0,1,2.3-1.5,2.75,2.75,0,0,1,3.1,2.5,4.09,4.09,0,0,1-1.2,2.7c-.2.2-.3.4-.5.5l2.3,2L109,94.1Zm4.3,1.1a2.24,2.24,0,0,0,.5-.5,1.41,1.41,0,0,0,0-2.2c-.6-.5-1.3-.4-2,.3a2.3,2.3,0,0,0-.5.7Zm6.4-4.3,1.5,1.7-1.1,1.7-5.7-7,1.4-2.1,8.7,2.6L117,84l-2.2-.7Zm0-2.6-1.8-.6c-.5-.2-1.1-.4-1.6-.6h0c.4.4.8.9,1.2,1.3l1.2,1.4Zm-1.9-6.2a13.84,13.84,0,0,1,1-2.4c.6-1.2,1.1-1.9,1.8-2.2a2,2,0,0,1,2,.1,2.47,2.47,0,0,1,1.3,2.3h0a2.19,2.19,0,0,1,2-.3,20.11,20.11,0,0,0,2.5.4l-.9,1.8a16.37,16.37,0,0,1-2.1-.3c-1.1-.3-1.5,0-1.9.7l-.3.5,3.1,1.5-.8,1.8Zm4.2-.2.3-.7c.4-.9.2-1.6-.5-1.9s-1.3,0-1.7.8a2.7,2.7,0,0,0-.3.8Zm-1.1-6.7.6-1.8,3.6,1.2h0c-.3-.3-.5-.6-.7-.8L116,65.5l.7-2.3,2.6,3.8,5.6-1.4-.7,2.2-4.2.9.6,1,2.7.9-.6,1.8Z"/></svg>