<?xml version="1.0" encoding="utf-8"?>
<!-- Generator: Adobe Illustrator 18.1.1, SVG Export Plug-In . SVG Version: 6.00 Build 0)  -->
<svg version="1.1" id="Calque_1" xmlns="http://www.w3.org/2000/svg" xmlns:xlink="http://www.w3.org/1999/xlink" x="0px" y="0px"
	 width="97.4px" height="96px" viewBox="0 0 97.4 96" enable-background="new 0 0 97.4 96" xml:space="preserve">
<g>
	<g>
		<path fill="#FFFFFF" d="M48.8,5C28.9,4.5,5.5,18.3,5.5,18.3l9.9,53.4l33.4,18.6l32.9-18.6l10.1-53.4C91.9,18.3,72.1,5.5,48.8,5z"
			/>
		<path fill="#EAE9E8" d="M47.9,5c0.3,0,0.6,0,0.9,0c23.3,0.5,43.1,13.3,43.1,13.3L81.8,71.7L48.8,90.3L15.4,71.7L5.5,18.3
			C5.5,18.3,28.2,5,47.9,5 M47.9,0C43,0,37.6,0.8,31.8,2.2C27.2,3.4,22.4,5,17.5,7C9.1,10.5,3.2,13.9,3,14l-3,1.8l0.6,3.4l9.9,53.4
			l0.4,2.3l2,1.1l33.4,18.6l2.4,1.4l2.4-1.4L84.2,76l2-1.1l0.4-2.3l10.1-53.4l0.6-3.3l-2.8-1.8C94.4,14,89.2,10.6,81,7.2
			c-4.8-2-9.6-3.6-14.4-4.8c-6-1.5-12-2.3-17.6-2.4C48.6,0,48.3,0,47.9,0L47.9,0z"/>
	</g>
	<path fill-rule="evenodd" clip-rule="evenodd" fill="#279B69" d="M49.2,23.1l3.3,0.7l-0.3-1.3l3.5-2.7l-0.9-0.4l0.7-2.3l-2.1,0.3
		l-0.3-1.1L51.5,18c-0.1,0.1-0.3,0.1-0.4,0C51,18,51,17.8,51,17.7l0.8-3.8l-1,0.6c-0.1,0.1-0.2,0.2-0.4,0.1c-0.1,0-0.1-0.1-0.1-0.2
		l-1.1-2.5L48,14.2c-0.1,0.1-0.2,0.2-0.3,0.2c-0.1,0-0.2,0-0.2,0l-1-0.6l0.6,3.8c0,0.1,0,0.3-0.1,0.4c-0.1,0.1-0.2,0-0.3-0.1
		l-1.5-1.6l-0.4,1.1l-2.1-0.4l0.6,2.3l-0.8,0.4l3.3,2.8l-0.4,1.3l3.4-0.6l0,9.8l-15.2-6.6l-2-2.6l2.9-1.7l-1.1-0.8l1-4.4l-0.9,0.3
		l-1-2.2l-1.4,1.7L30,15.9l-0.2,2.4c0,0.2-0.1,0.3-0.2,0.3c-0.1,0-0.2,0-0.3-0.2l-1.8-3.5l-0.4,1.2c0,0.1-0.1,0.3-0.2,0.3
		c-0.1,0-0.1,0-0.2-0.1l-2.4-1.1l0.5,2.6c0,0.1,0,0.2-0.1,0.4c-0.1,0.1-0.1,0.1-0.2,0.1l-1.2,0.3l2.8,2.5c0.1,0.1,0.2,0.2,0.1,0.3
		c-0.1,0.1-0.2,0.1-0.3,0.1l-2.2-0.3l0.4,1.1l-1.9,1.1l1.9,1.4l-0.4,0.9l4.3-0.1l0.5,1.3l2.3-2.6l2.2,2.7l15.4,6.9l0,5.9h0.7l0-5.9
		L65,26.8l2.2-2.8l2.3,2.6l0.5-1.3l4.3,0l-0.4-0.9l1.9-1.4l-1.9-1.1l0.4-1.1l-2.2,0.3c-0.1,0-0.3,0-0.3-0.1c-0.1-0.2,0-0.3,0.1-0.3
		l2.8-2.5l-1.2-0.3c-0.1,0-0.1-0.1-0.2-0.1c-0.1-0.1-0.1-0.2-0.1-0.4l0.5-2.6l-2.4,1.1c-0.1,0-0.1,0.1-0.2,0.1
		c-0.1,0-0.2-0.2-0.2-0.3l-0.4-1.2l-1.8,3.5c-0.1,0.1-0.2,0.2-0.3,0.2c-0.1,0-0.2-0.1-0.3-0.3l-0.2-2.4l-0.9,0.6l-1.5-1.7l-1,2.2
		l-0.9-0.3l1,4.4L63.8,22l2.9,1.7l-1.9,2.5l-15.6,6.8V23.1L49.2,23.1z"/>
	<g>
		<path fill-rule="evenodd" clip-rule="evenodd" fill="#279B69" d="M56.5,71.1l1.4,2.5l1.3-0.3v2l1.7,0v-1.9l1.4,0.3l-0.1-0.5
			l1.2,0.2l-0.3-0.5l1.7,0.2L63.2,70h0.4l-1.4-2.6h0.2l-2.3-4l-2.3,3.9h0.3L56.6,70H57L56.5,71.1L56.5,71.1z"/>
		<path fill-rule="evenodd" clip-rule="evenodd" fill="#279B69" d="M38.7,73.6l1.4-2.5L39.6,70h0.5l-1.5-2.7h0.3l-2.3-3.9l-2.3,4
			h0.2L33.1,70h0.4l-1.7,3.1l1.7-0.2l-0.3,0.5l1.2-0.2l-0.1,0.5l1.4-0.3v1.9l1.7,0v-2L38.7,73.6L38.7,73.6z"/>
		<path fill-rule="evenodd" clip-rule="evenodd" fill="#279B69" d="M53.6,69.8l1,0.3l-2.8-4.8l0.5,0l-4-6.9l-4,6.9l0.5,0L42.1,70
			l1-0.3l-3.2,5.7l3.1-0.6l-0.6,1l2.1-0.5l-0.3,0.9l2.6-0.4v3.7h3l0-3.7l2.6,0.4l-0.3-0.9l2.1,0.5l-0.6-1l3.1,0.6L53.6,69.8
			L53.6,69.8z"/>
	</g>
	<polygon fill="#0076A5" points="5.5,18.3 15.4,71.7 48.7,48.4 	"/>
	<polygon fill-rule="evenodd" clip-rule="evenodd" fill="#A39372" points="24.9,59.2 25.2,59.1 25.4,58.8 25.6,58.6 25.8,58.3
		26,57.9 26.1,57.5 26.2,57 26.2,56.5 26.6,56.7 26.8,56.7 27.1,56.8 27.3,56.8 27.4,56.7 27.6,56.6 27.8,56.6 28,56.4 28.2,56.3
		28.4,56.1 28.6,55.8 28.1,55.8 27.7,55.8 27.3,55.6 27.1,55.5 26.9,55.4 26.7,55.3 26.6,55.1 26.5,54.9 26.4,54.7 26.3,54.5
		26.2,54.2 26.2,54 26.2,53.7 30.2,53.7 30.2,52 27.8,52 27.7,51.8 27.8,51 27.8,50.6 27.9,50.3 28.1,50 28.2,49.8 28.4,49.6
		28.6,49.4 28.8,49.2 29,49.1 29.4,48.9 29.8,48.8 30.1,48.8 30.3,48.8 30.5,48.8 30.8,48.8 31.1,48.9 31.3,49 31.5,49.1 31.6,49.3
		31.8,49.4 31.9,49.7 32.1,49.9 32.2,50.2 32.2,50.6 32.3,51 32.3,51.4 32.7,51.2 33,51 33.3,50.8 33.5,50.6 33.8,50.3 33.9,50.1
		34.1,49.8 34.2,49.6 34.3,49.3 34.4,49.1 34.4,48.8 34.4,48.5 34.4,48.3 34.4,48 34.4,47.8 34.3,47.5 34.2,47.3 34,47 33.7,46.6
		33.4,46.2 33.1,46 32.9,45.8 32.7,45.6 32.4,45.5 32.2,45.4 31.9,45.3 31.6,45.2 31.4,45.1 31.1,45.1 30.8,45.1 30.2,45.1
		29.7,45.2 29.2,45.4 28.8,45.6 28.4,45.9 28,46.3 27.7,46.7 27.5,47.2 27.2,47.7 27.1,48.3 26.9,48.8 26.8,49.4 26.7,50.1
		26.6,50.7 26.6,51.4 26.6,52.1 25.7,52.1 25.7,51.9 25.6,51.5 25.6,51.2 25.6,50.8 25.6,50.2 25.7,49.5 25.8,48.9 25.9,48.3
		26,47.8 26.2,47.3 26.6,46.3 27.2,45 27.6,44.2 27.8,43.4 27.9,42.7 27.9,42.3 27.9,42 27.9,41.4 27.8,40.8 27.6,40.2 27.4,39.7
		27.2,39.3 26.9,38.8 26.6,38.4 26.3,38 25.6,37.3 24.9,36.6 24.3,37.3 23.6,38 23.3,38.4 23,38.8 22.7,39.3 22.4,39.7 22.2,40.2
		22,40.8 21.9,41.4 21.9,41.7 21.9,42 21.9,42.7 22.1,43.4 22.3,44.2 22.6,45 23.2,46.3 23.6,47.3 23.8,47.8 23.9,48.3 24,48.9
		24.1,49.5 24.2,50.2 24.2,50.8 24.2,51.2 24.2,51.5 24.2,51.9 24.1,52.1 23.3,52.1 23.3,51.4 23.2,50.7 23.2,50.1 23.1,49.4
		22.9,48.8 22.8,48.3 22.6,47.7 22.4,47.2 22.1,46.7 21.8,46.3 21.5,45.9 21.1,45.6 20.6,45.4 20.4,45.3 20.1,45.2 19.9,45.1
		19.6,45.1 19.4,45.1 19.1,45.1 18.8,45.1 18.5,45.1 18.2,45.2 17.9,45.3 17.4,45.5 16.9,45.8 16.5,46.2 16.3,46.3 16.1,46.6
		15.9,46.8 15.8,47 15.7,47.3 15.6,47.5 15.5,47.8 15.4,48 15.4,48.3 15.4,48.5 15.4,48.8 15.4,49.1 15.5,49.3 15.6,49.6 15.7,49.8
		15.9,50.1 16.1,50.3 16.3,50.6 16.6,50.8 16.8,51 17.2,51.2 17.5,51.4 17.6,51 17.6,50.6 17.7,50.2 17.8,49.9 17.9,49.7 18,49.4
		18.2,49.3 18.4,49.1 18.5,49 18.7,48.9 19.1,48.8 19.3,48.8 19.5,48.8 19.8,48.8 20.1,48.8 20.5,48.9 20.9,49.1 21.1,49.2
		21.3,49.4 21.5,49.6 21.6,49.8 21.8,50 21.9,50.3 22,50.6 22.1,51 22.1,51.5 22.1,51.8 22.1,52 19.6,52 19.6,53.7 23.7,53.7
		23.7,54 23.6,54.2 23.6,54.5 23.5,54.7 23.4,54.9 23.2,55.1 23.1,55.3 22.9,55.4 22.8,55.5 22.6,55.6 22.4,55.7 22.2,55.8
		21.7,55.8 21.3,55.8 21.5,56.1 21.6,56.3 21.8,56.4 22,56.6 22.2,56.6 22.4,56.7 22.6,56.8 22.7,56.8 23,56.7 23.3,56.7 23.6,56.5
		23.6,57 23.7,57.5 23.8,57.9 24,58.3 24.2,58.6 24.4,58.8 24.7,59.1 24.9,59.2 	"/>
	<polygon fill="#A52837" points="91.9,18.3 81.8,71.7 48.7,48.4 	"/>
	<path fill-rule="evenodd" clip-rule="evenodd" fill="#A39372" d="M75.6,43.1c-0.4,0.1-0.7,0.3-1.1,0.4c-0.1,0-1.2,0.1-1.4,0
		c-1-0.2-0.4-0.1-1.4-0.4c-0.2-0.1-1.6-0.3-1.8-0.3c-0.3,0-1.2,0.2-1.5,0.4c-0.2,0.2-0.5,0.5-0.5,0.9c0,0,0.1,0,0.1-0.1
		c0.1,0,0.2-0.2,0.3-0.3c0-0.1,0.5-0.3,0.6-0.4c0.9-0.3,1.8-0.3,2.7,0.1c0.2,0.1,0.3,0.2,0.5,0.3c0,0,0.1,0,0.1,0
		c0.1,0,0.8,0.6,1.2,0.9c0.6,0.4,1.1,0.6,1.7,0.6l0-0.4c0.2-0.1,0.5-0.1,0.7,0c0.1,0,0.1,0,0.2,0c0,0,0.1,0,0.1-0.1c0,0,0,0,0-0.1
		l0-0.3c0.2-0.1,0.4-0.2,0.6-0.4c0.1-0.1,0.3-0.3,0.3-0.4c0.1-0.2-0.7,0-0.9,0.1c-0.2,0-0.5,0-0.6,0c-0.1,0-0.1-0.1-0.1-0.2
		L75.6,43.1L75.6,43.1z M60.3,45.8c0.1,0.6,0.2,1.1,0.5,1.7c0,0.1,0.4,0.7,0.5,0.7c0,0,0,0,0.1,0c0-0.1,0-0.1,0-0.2
		c-0.1-0.2-0.2-0.3-0.3-0.5c-0.2-0.3-0.5-1.6-0.4-2.1c0-0.1,0-0.1,0.1-0.2c0-0.1,0-0.5,0.1-0.8c0-0.2,0.1-0.5,0.1-0.7
		c0-0.4-0.1-1-0.4-1.3c-0.1-0.1-0.3-0.2-0.4,0c0,0.1-0.1,0.4-0.2,0.5c0,0-0.1,0-0.2,0c-0.1,0-0.1-0.1-0.2-0.1
		c-0.2-0.1-0.3,0.2-0.2,0.4c0,0.1,0.1,0.3,0.1,0.4c0,0,0,0.1-0.1,0.1c-0.1,0-0.1,0-0.2,0c-0.2,0-0.2,0.2-0.2,0.4
		c0.1,0.4,0.1,0.5,0.3,0.9c0,0.1,0.1,0.2,0.1,0.3c0,0.1-0.1,0.5-0.1,0.6c0,0.2,0.2,0.7,0.3,1c0.1,0.3,0.2,0.5,0.4,0.7
		c0,0-0.3,0.1-0.4,0.2c-0.2,0.2,0.5,0.7,0.7,0.9c0,0,0,0,0,0.1c0,0.1-0.1,0.2-0.1,0.3c0,0.1,0,0.2,0,0.2c0.1,0.3,0.2,0.3,0.4,0.4
		c0.4,0.3,0.3,0.2,0.5,0.7c0.1,0.3,1.3,0.9,1.5,1c0.3,0.2,0.4,0.1,0.5-0.2c0,0,0.1,0.1,0.1,0.1c0,0.1,0,0.1,0.1,0.2
		c0,0.1,0.1,0.2,0.1,0.3c0.1,0.2-0.2,0-0.3,0c0,0-0.2,0.1-0.4,0.2c-0.1,0-0.1,0-0.2,0c-0.8,0.1-1.1-0.4-2-1.1
		c-0.4-0.3-1.1-0.8-1.6-0.6c-0.3,0.1-0.4,0.3-0.2,0.6c0.1,0.1,0.2,0.3,0.2,0.3c0,0-0.1,0.1-0.2,0.2c-0.1,0.1-0.1,0.3-0.1,0.4
		c0,0,0.5,0.3,0.5,0.3c0.1,0.1,0,0.2,0,0.4c0,0.1,0,0.2,0,0.3c0.2,0.2,0.7,0.1,0.8,0.1c0.3-0.1,0.5-0.2,0.8-0.3
		c0.6,1.1,1.6,1.6,2.7,1.3c0.2-0.1,0.4-0.2,0.6-0.2c0.1,0,0.1,0,0.2,0c0,0,0.1,0.2,0.1,0.3c0.1,0.1,0.2,0.1,0.3,0
		c0.1-0.1,0.4-0.5,0.5-0.6c0,0,0,0,0.1,0c0.1,0,0.1,0.3,0.2,0.3c0.1,0.1,0.2,0,0.3-0.1c0.1-0.1,1.7-1.1,1.7-1.7c0-0.1,0-0.1,0-0.1
		c0,0-0.2,0.2-0.3,0.3c-0.1,0.1-0.2,0.2-0.2,0.3c-0.1,0.1-0.2,0.1-0.2,0.2c-0.2,0.2-0.2,0.3-0.3,0.3c-0.1,0-0.1,0-0.1-0.1
		c0,0,0,0,0-0.1l0.6-0.8c0,0,0-0.1,0-0.1c0-0.1,0-0.1,0-0.1c0,0,0,0-0.1,0.1l-0.4,0.5c0,0-0.1,0.1-0.1,0c0,0,0,0,0-0.1
		c0.1-0.2,0.3-0.4,0.3-0.5c0-0.1,0-0.2,0.1-0.3c0,0,0,0,0.1,0c3.2,0.3,2.6,0.2,5.9-1.2c0.1,0,0.4-0.1,0.4,0c0,0.1-0.1,0.2-0.1,0.3
		c-0.1,0.5,0.4,0.8,0.7,1.2c0.6,0.8-0.1,2-0.9,1.9c-0.2,0-0.3-0.2-0.8-0.2c-0.1,0-0.1,0-0.2,0c-0.1,0-0.2-0.1-0.2-0.1
		c-0.1,0-0.1,0,0,0.1c0.1,0.2-0.4,0-0.4,0c-0.1,0-0.4,0-0.4,0.1c0,0,0,0.1,0,0.1c0,0-0.1,0-0.1,0c0,0-0.1-0.2-0.1-0.2
		c0,0-0.1,0-0.2,0c-0.1,0-0.1-0.1-0.1-0.1c0.1-0.2,0.3-0.1,0.4-0.1l0.5,0c-0.2,0-0.3,0-0.4-0.1c-0.4-0.1-0.8,0-1.1,0.3
		c-0.2,0.2-0.5,0.6-0.5,0.8c0,0.8,0.6,0.1,0.7,0.1c0.1,0,0.2,0.1,0.3,0.3c0.3,0.3,0.5-0.1,0.7-0.3c0.2-0.2,0.2,0.1,0.4,0.3
		c0.1,0.1,0.3-0.1,0.5-0.2c0.2-0.2,0.3,0,0.6,0.2c0.3,0.2,0.9,0.2,1.2,0c0.2-0.1,0.4-0.2,0.6-0.3c0,0,0.1,0,0.1,0
		c0,0,0.2,0.2,0.3,0.2c0.1,0.1,0.2,0.1,0.3,0c0.1-0.1,0.3-0.2,0.4-0.2c0.1,0,0.2,0.1,0.3,0.1c0.1,0,0.2-0.2,0.3-0.3
		c0.1-0.1,0.2-0.5,0.3-0.5c0.1-0.1,0.1,0,0.2,0c0.2,0.1,0.2-0.2,0.2-0.3c0-0.3-0.1-0.6-0.3-0.9c0-0.1-0.4-0.4-0.5-0.5
		c-0.2-0.1-0.3-0.2-0.4-0.3c-0.2-0.2-0.5-0.6-0.5-0.8c-0.1-0.2-0.1-0.7-0.1-0.7c0,0,0,0,0,0c-0.1,0-0.1,0.1-0.1,0.2
		c0,0.2,0,0.5,0.1,0.7l0.4,0.8c0,0.1,0,0.1,0,0.1c0,0,0,0,0,0c-0.1-0.1-0.3-0.2-0.3-0.3c0-0.1,0-0.1-0.1-0.2c0-0.1-0.1-0.1-0.1-0.1
		c-0.1-0.2-0.2-0.6-0.1-0.8c0-0.1,0-0.1,0-0.1l-0.1,0c0,0.1,0,0.1,0,0.2c0,0.4,0.1,0.4,0.2,0.7c0,0.1,0.1,0.3,0,0.3
		c0,0-0.1,0-0.1-0.1c-0.1-0.2-0.2-0.5-0.3-0.7c0-0.2,0-0.5,0-0.6c0-0.2-0.1-0.2,0-0.3c0.5-0.5,1.6,0,2.1,0.4
		c0.2,0.2,0.7,0.7,0.9,0.9c0.6,0.4,1.1,0.6,1.8,0.6c0.2,0,1.1-0.3,1.2-0.3c0.3,0,0.5,0,0.7,0v0c0.3,0.1,0.6,0.2,1,0.3
		c0.4,0.1,0.6,0.5,0.7,0.9c0,0.1,0,0.5,0,0.5c0,0.2-0.1,0.3-0.3,0.4c-0.4,0.3-0.7,0.2-1.3,0.2c-0.3,0-0.6,0.1-0.9,0.4
		c-0.2,0.1-0.4,0.6-0.3,0.8c0.1,0.1,0.2,0.2,0.3,0.2c0.1,0,0.3-0.2,0.3-0.2c0.1,0,0.1,0.1,0.3,0.2c0.2,0.2,0.3,0.1,0.5,0
		c0.2-0.1,0.4-0.2,0.5-0.2c0.1,0,0.2,0.2,0.3,0.3c0.4,0.2,0.9-0.3,1-0.6c0.2-0.3,0.2-0.5,0.4-0.5c0.1,0,0.2,0,0.2-0.1
		c0.2-0.3,0.1-0.6,0-1.1c0-0.1,0-0.1,0-0.1c0-0.2,0.1-0.1,0.3-0.2c0.1,0,0-0.1,0-0.2c-0.1-0.1-0.1-0.3-0.2-0.4
		c-0.2-0.3-0.5-0.6-0.8-0.8c0,0,0,0-0.1-0.1c0-0.1,0-0.1,0-0.2c0-0.1,0.1-0.3,0.2-0.3c0,0,0,0,0-0.1c-0.3-0.4-1.4-0.8-1.9-0.5
		c-0.5,0.2-1.6,0.1-2-0.3c0,0-0.1-0.1-0.1-0.1c-0.1-0.1-0.3-0.2-0.5-0.3c-0.1-0.1-0.5-0.6-0.6-0.7c-0.9-1.5-2.1-1.7-3.5-1.3
		c-0.4,0.1-1,0.3-1.3,0.4c-0.4,0.1-1.1,0.1-1.3,0.2c-0.8,0.2-2.8-0.2-3.8-0.5c-0.1,0-0.1-0.1-0.2-0.1c-0.1,0-0.4,0.1-0.4,0.1
		s-0.1-0.8,0-0.8c0,0,0.2-0.2,0.2-0.3c0.1-0.2,0-0.5-0.1-0.8c-0.2-0.4-0.5-0.8-0.2-1.1c0.1,0,0.1,0,0.2-0.1c0.1-0.1,0.2-0.4,0.1-0.5
		c0-0.2-0.3-0.5-0.5-0.4c-0.1,0-0.3,0.2-0.3,0.2c-0.1,0-0.1-0.2-0.1-0.3c0,0-0.1-0.1-0.1-0.1c0,0-0.4,0.1-0.4,0.1s-0.1-0.3-0.1-0.3
		c0,0-0.1,0-0.2,0c-0.1,0-0.1,0-0.1-0.1c0-0.1,0-0.3,0-0.3c0,0-0.2,0-0.3,0c-0.3,0.1-0.5,0.2-0.7,0.4c0-0.1-0.1-0.2-0.1-0.3
		c0-0.1-0.1-0.1-0.2,0c-0.1,0.1-0.2,0.2-0.2,0.3c-0.1,0-0.1,0.1-0.2,0.1c0,0-0.3-0.4-0.3-0.4c-0.3-0.2-0.7,0.1-0.6,0.5
		c0,0.1,0.2,0.5,0.2,0.5c-0.1,0.1-0.3,0.3-0.4,0.4C62.5,44.2,62,44.9,62,45c0,0.1-0.1,0.2-0.1,0.3c0,0.2,0.2,0.2,0.3,0.2
		c0,0,0,0.2,0,0.2c-0.1,0.1-0.2,0.2-0.3,0.4c-0.1,0.1-0.3,0.5-0.3,0.6c0,0.2-0.1,0.3-0.1,0.4c0,0,0.2,0.1,0.2,0.2c0,0.1,0,0.2,0,0.3
		c0,0.1-0.1,0.3-0.2,0.5c-0.1,0.3-0.2,0.6-0.1,0.9c0,0.1,0,0.2,0,0.2c-0.1,0.1-0.1,0.1-0.2-0.1c-0.1-0.2-0.2-0.5-0.1-0.5
		c0.1-0.1,0.1-0.1,0.1-0.2c0-0.1-0.5-0.7-0.6-1C60.5,47.3,60,45.9,60.3,45.8L60.3,45.8z M64.5,44.1c0,0-0.1-0.1-0.2-0.2
		c0,0,0,0,0-0.1c0,0,0,0,0.1,0c0.1,0.1,0.2,0.3,0.2,0.4c0,0.3-0.3,0.5-0.5,0.5c-0.2,0.1-0.6-0.2-0.7-0.6c0,0,0-0.1,0-0.1
		c0-0.1,0.1-0.1,0.1-0.1c0.1,0,0.4,0.2,0.5,0.2C64.2,44.2,64.3,44.2,64.5,44.1C64.4,44.1,64.5,44.1,64.5,44.1L64.5,44.1z M65.2,44.4
		c0.1-0.3,0.1-0.1,0.2,0c0.1,0.3,0.4,0.3,0.6,0.3c0.1,0,0.2,0,0.3,0.1c0.1,0.1,0,0.2-0.1,0.3C65.8,45.5,65.1,45.1,65.2,44.4
		L65.2,44.4z M62.4,44.7c0-0.1,0.2-0.4,0.3-0.4c0,0,0,0,0.1,0.1c0.1,0.1,0.3,0.6-0.2,0.6C62.5,44.9,62.4,44.8,62.4,44.7L62.4,44.7z
		 M64.6,44.6c0.1-0.2,0.2-0.3,0.3-0.2c0.1,0.1,0.1,0.2,0.1,0.4c0,0.1,0,0.1-0.1,0C64.8,44.8,64.7,44.8,64.6,44.6
		C64.6,44.7,64.6,44.7,64.6,44.6L64.6,44.6z M63.5,48c0-0.1,0-0.1-0.1-0.2c0-0.2,0.2-0.2,0.4-0.2c0.5-0.2,0.4-0.2,0.2-0.7
		c0-0.1-0.1-0.5-0.1-0.6c0-0.1-0.1-0.2-0.1-0.2c0,0,0.3-0.5,0.4-0.5c0.1,0,0,0.1,0.1,0.2c0,0.1,0.1,0.1,0.1,0.1
		c0.1,0.1,0.5,0.2,0.5,0.1c0,0,0.1-0.1,0.1-0.1c0.1-0.1,0.1,0.2,0.2,0.3c0,0.1,0.1,0.2,0.1,0.3c0,0,0,0,0,0.1
		c-0.1,0.1-0.2,0.2-0.2,0.2c0,0.1,0,0.2-0.1,0.2c0,0-0.1,0.1-0.1,0.1c-0.2,0.2-0.4,0.2-0.4,0.5c0,0.1,0.2,0.4,0.3,0.5
		c0.1,0.1,0.1,0.1,0.2,0.2c0,0,0,0.1,0,0.1c0,0-0.1,0-0.1,0c0,0-0.1-0.1-0.1-0.1c-0.1-0.1-0.3,0-0.5,0c0,0-0.1,0-0.2-0.1
		c-0.1-0.1-0.2-0.2-0.3-0.3L63.5,48L63.5,48z M66.8,46.4c0,0,0-0.1,0-0.1c0-0.1,0-0.1,0.1-0.1c0.1,0,0.1,0.2,0.1,0.2
		c0,0.1,0,0.1,0,0.2c0,0.3,0,0.6-0.1,0.9c0,0.1,0,0.1-0.1,0.1c0,0,0,0,0-0.1L66.8,46.4L66.8,46.4z M60,46.5C60,46.5,60,46.5,60,46.5
		c0.1,0.1,0.1,0.1,0.1,0.2c0,0.2,0.1,0.4,0.1,0.5c0,0,0,0.1,0,0.1c0,0-0.1,0-0.1,0C60,47,60,46.6,60,46.5L60,46.5L60,46.5z M62,48.3
		C62,48.3,62,48.3,62,48.3c-0.1,0.1-0.2-0.1-0.2-0.1c0-0.3,0.1-1.1,0.2-1.4c0-0.1,0.1-0.1,0.1-0.2c0,0,0.1,0,0.1,0
		c0,0.1-0.1,0.5-0.1,0.7C62.1,47.5,62,48,62,48.3L62,48.3z M66.5,46.9c0-0.1,0-0.1,0.1-0.2c0.1,0,0.1,0.2,0.1,0.3
		c0,0.1,0,0.1-0.1,0.2c0,0.1,0.1,0.3-0.1,0.3c0,0,0,0,0,0c-0.1-0.1,0-0.2,0-0.3C66.5,47.2,66.5,47,66.5,46.9
		C66.5,46.9,66.5,46.9,66.5,46.9L66.5,46.9z M62.2,48.4C62.2,48.4,62.2,48.4,62.2,48.4C62.2,48.4,62.2,48.4,62.2,48.4
		c-0.2-0.6-0.1-0.7,0.1-1.5c0,0,0-0.1,0.1,0c0.1,0.2-0.1,0.5-0.1,0.9C62.3,47.9,62.2,48.1,62.2,48.4L62.2,48.4z M60.3,47.5
		C60.3,47.5,60.3,47.4,60.3,47.5c0.1-0.1,0.1,0,0.1,0.1c0,0,0.1,0.3,0.1,0.4c0,0-0.1,0-0.1-0.1C60.4,47.7,60.3,47.6,60.3,47.5
		L60.3,47.5z M66.6,48.8c0-0.1,0.1,0,0.2,0c0.1,0.1,0.2,0,0.2,0.1c0,0.1-0.1,0.1-0.1,0.1C66.8,49.1,66.5,48.9,66.6,48.8L66.6,48.8z
		 M61.7,49.3C61.7,49.3,61.7,49.3,61.7,49.3c-0.1-0.1-0.1-0.1-0.1-0.2c0-0.1,0.1,0,0.1,0C61.8,49.2,61.8,49.2,61.7,49.3L61.7,49.3
		L61.7,49.3z M64.4,51.6c0,0-0.1-0.2-0.1-0.2c0,0-0.1,0-0.1-0.1c0,0,0,0,0-0.1c0-0.2,0.1-0.3,0.2-0.3c0.1,0,0.1,0,0.2,0.2
		c0.1,0.1,0.2-0.1,0.3-0.2c0-0.1,0.1-0.1,0.1,0c0.1,0.3,0.2,0.3,0.4,0l0.2-0.4c0.1-0.2,0.2-0.3,0.2-0.3c0,0,0.2,0.2,0.3,0.2
		c0,0,0.1,0,0.1,0c0,0,0,0.2,0,0.3c-0.1,0.1-0.2-0.1-0.3-0.1c-0.1,0-0.1,0.1-0.2,0.3c0,0.1,0,0.3,0,0.3c0,0-0.3,0.1-0.3,0.1
		c0,0-0.1,0.2-0.2,0.3c-0.1,0.1-0.2,0.1-0.3,0c0,0-0.1-0.1-0.1-0.1C64.7,51.3,64.4,51.6,64.4,51.6L64.4,51.6z M62.2,50.1
		c0.1,0,0.1,0.1,0.1,0.2c0,0.1,0,0.1,0,0.1c0,0-0.1-0.1-0.1-0.2C62.2,50.2,62.2,50.2,62.2,50.1L62.2,50.1L62.2,50.1z M61.8,50.2
		C61.8,50.2,61.8,50.2,61.8,50.2c0.1,0,0.1,0,0.1,0.1c0,0,0,0-0.1,0C61.8,50.3,61.8,50.2,61.8,50.2L61.8,50.2z M62.4,50.8h0.1
		c0.1,0,0.1,0,0.2-0.1c0.1-0.1,0.2-0.2,0.3,0c0.1,0.1,0.1,0.4,0,0.4c0,0,0,0-0.1-0.1c-0.1-0.2-0.2-0.1-0.3,0
		C62.5,51,62.4,50.9,62.4,50.8L62.4,50.8z M69.2,51c0,0,0.1,0,0.1,0c0.1,0,0.3-0.1,0.4-0.2c0,0,0.1,0,0.1,0.1c0,0.1-0.1,0.1-0.2,0.2
		C69.5,51.2,69.3,51.2,69.2,51C69.2,51.1,69.2,51.1,69.2,51L69.2,51z M77.1,51.1C77.1,51.1,77.2,51.1,77.1,51.1c0,0,0.5,0.1,0.8,0.2
		c0.1,0,0.5,0,0.7,0c0.1,0,0.2,0,0.2,0.1c0,0.1-0.2,0.1-0.3,0.2c-0.2,0-1-0.1-1.2-0.2C77.3,51.3,77.1,51.2,77.1,51.1L77.1,51.1z
		 M67.7,51.1C67.7,51.1,67.7,51.1,67.7,51.1c0.1-0.1,0.1-0.1,0.2,0c0.1,0,0.2,0,0.3,0c0.1,0,0.1,0.1,0,0.2c0,0-0.3,0.1-0.4,0
		C67.7,51.3,67.6,51.2,67.7,51.1L67.7,51.1z M68.4,51.3C68.4,51.3,68.4,51.3,68.4,51.3C68.4,51.2,68.4,51.2,68.4,51.3
		c-0.1-0.1,0-0.1,0.1-0.1C68.5,51.2,68.5,51.2,68.4,51.3C68.5,51.3,68.5,51.3,68.4,51.3L68.4,51.3z M81.8,51.7
		C81.8,51.7,81.7,51.7,81.8,51.7C81.7,51.6,81.8,51.6,81.8,51.7c0-0.2,0.2,0,0.3,0.1c0,0,0.1,0,0.1,0.1c0.5,0.4,0.6,1.3,0.3,1.9
		c0,0.1-0.2,0.2-0.2,0.2c-0.1-0.1,0.1-0.2,0.1-0.3c0.2-0.3,0.3-1,0-1.3c0,0-0.1-0.1-0.1-0.1c0,0,0-0.1-0.1-0.2
		C82.1,52,81.9,51.8,81.8,51.7L81.8,51.7z M82.8,52.6c0.1,0,0.1,0.2,0.1,0.3c0,0.1,0,0.3,0,0.4c0,0.1,0,0.1-0.1,0.1V52.6L82.8,52.6z
		 M63.2,53.2c0,0-0.1,0.1-0.1,0.1c0,0,0,0,0,0c0.1,0.1,0.2,0,0.5,0c0,0,0.1,0,0.1,0c0,0,0,0,0,0.1c-0.4,0.4-1.7,0.1-2-0.4
		c0.2,0.1,0.4,0.2,0.7,0.2c0.1,0,0.1,0,0.1-0.1c0-0.1,0.2-0.1,0.3-0.1L63.2,53.2L63.2,53.2z"/>
</g>
</svg>
