<?xml version="1.0" encoding="UTF-8" standalone="no"?>
<!-- Created with Inkscape (http://www.inkscape.org/) -->

<svg
   xmlns:dc="http://purl.org/dc/elements/1.1/"
   xmlns:cc="http://creativecommons.org/ns#"
   xmlns:rdf="http://www.w3.org/1999/02/22-rdf-syntax-ns#"
   xmlns:svg="http://www.w3.org/2000/svg"
   xmlns="http://www.w3.org/2000/svg"
   xmlns:sodipodi="http://sodipodi.sourceforge.net/DTD/sodipodi-0.dtd"
   xmlns:inkscape="http://www.inkscape.org/namespaces/inkscape"
   width="400"
   height="184.79205"
   id="svg13115"
   version="1.1"
   inkscape:version="0.47 r22583"
   sodipodi:docname="Nouveau document 28">
  <defs
     id="defs13117">
    <inkscape:perspective
       sodipodi:type="inkscape:persp3d"
       inkscape:vp_x="0 : 526.18109 : 1"
       inkscape:vp_y="0 : 1000 : 0"
       inkscape:vp_z="744.09448 : 526.18109 : 1"
       inkscape:persp3d-origin="372.04724 : 350.78739 : 1"
       id="perspective13123" />
    <inkscape:perspective
       id="perspective13020"
       inkscape:persp3d-origin="0.5 : 0.33333333 : 1"
       inkscape:vp_z="1 : 0.5 : 1"
       inkscape:vp_y="0 : 1000 : 0"
       inkscape:vp_x="0 : 0.5 : 1"
       sodipodi:type="inkscape:persp3d" />
    <clipPath
       clipPathUnits="userSpaceOnUse"
       id="clipPath12566">
      <path
         d="m 355.824,899.28 90.459,0 0,41.643 -90.459,0 0,-41.643 z"
         id="path12568" />
    </clipPath>
  </defs>
  <sodipodi:namedview
     id="base"
     pagecolor="#ffffff"
     bordercolor="#666666"
     borderopacity="1.0"
     inkscape:pageopacity="0.0"
     inkscape:pageshadow="2"
     inkscape:zoom="0.35"
     inkscape:cx="53.064397"
     inkscape:cy="24.514699"
     inkscape:document-units="px"
     inkscape:current-layer="layer1"
     showgrid="false"
     inkscape:window-width="1280"
     inkscape:window-height="738"
     inkscape:window-x="-8"
     inkscape:window-y="-8"
     inkscape:window-maximized="1" />
  <metadata
     id="metadata13120">
    <rdf:RDF>
      <cc:Work
         rdf:about="">
        <dc:format>image/svg+xml</dc:format>
        <dc:type
           rdf:resource="http://purl.org/dc/dcmitype/StillImage" />
        <dc:title></dc:title>
      </cc:Work>
    </rdf:RDF>
  </metadata>
  <g
     inkscape:label="Calque 1"
     inkscape:groupmode="layer"
     id="layer1"
     transform="translate(-321.9356,-372.08483)">
    <g
       transform="matrix(4.7112587,0,0,-4.7112587,-1354.4631,4805.0099)"
       id="g12562">
      <g
         id="g12564"
         clip-path="url(#clipPath12566)">
        <g
           id="g12570"
           transform="translate(375.871,927.3525)">
          <path
             d="m 0,0 c -0.216,-0.09 -0.595,-0.306 -1.364,-0.306 -1.554,0 -1.971,1.497 -1.971,2.747 0,1.326 0.462,2.554 1.935,2.554 1.028,0 1.594,-0.647 1.594,-1.481 l -0.655,0 c 0,0.572 -0.336,0.996 -0.939,0.996 -1.087,0 -1.303,-1.115 -1.303,-2.098 0,-0.856 0.216,-2.234 1.482,-2.234 0.647,0 1.066,0.306 1.221,0.425 L 0,0"
             style="fill:#000000;fill-opacity:1;fill-rule:nonzero;stroke:none"
             id="path12572" />
        </g>
        <g
           id="g12574"
           transform="translate(377.9029,927.4716)">
          <path
             d="M 0,0 C 0.582,0 0.879,0.535 0.879,1.43 0.879,2.315 0.582,2.858 0,2.858 -0.573,2.858 -0.863,2.315 -0.863,1.43 -0.863,0.535 -0.573,0 0,0 m -0.269,4.815 0.552,0 0.656,-0.996 -0.454,0 -0.469,0.619 -0.485,-0.619 -0.454,0 0.654,0.996 z M -1.444,1.422 c 0,1.034 0.403,1.86 1.444,1.86 1.051,0 1.46,-0.826 1.46,-1.86 0,-1.034 -0.409,-1.847 -1.46,-1.847 -1.041,0 -1.444,0.813 -1.444,1.847"
             style="fill:#000000;fill-opacity:1;fill-rule:nonzero;stroke:none"
             id="path12576" />
        </g>
        <g
           id="g12578"
           transform="translate(381.9307,927.084)">
          <path
             d="m 0,0 c -0.149,-0.022 -0.297,-0.038 -0.446,-0.038 -0.714,0 -0.982,0.284 -0.982,0.917 l 0,2.286 -0.582,0 0,0.423 0.582,0 0,0.827 0.505,0.321 0,-1.148 0.953,0 0,-0.423 -0.953,0 0,-2.181 c 0,-0.232 0.061,-0.596 0.581,-0.596 0.163,0 0.232,0.029 0.342,0.066 L 0,0"
             style="fill:#000000;fill-opacity:1;fill-rule:nonzero;stroke:none"
             id="path12580" />
        </g>
        <g
           id="g12582"
           transform="translate(384.4998,929.6608)">
          <path
             d="M 0,0 C 0,0.238 -0.163,0.669 -0.678,0.669 -1.207,0.669 -1.378,0.238 -1.422,0 L 0,0 z m 0.498,-2.509 c -0.215,-0.068 -0.483,-0.105 -0.811,-0.105 -1.095,0 -1.727,0.662 -1.727,1.973 0,1.057 0.439,1.734 1.385,1.734 0.833,0 1.236,-0.572 1.236,-1.347 l 0,-0.171 -2.041,0 0,-0.209 c 0,-0.536 0.238,-1.555 1.258,-1.555 0.395,0 0.536,0.059 0.7,0.097 l 0,-0.417"
             style="fill:#000000;fill-opacity:1;fill-rule:nonzero;stroke:none"
             id="path12584" />
        </g>
        <path
           d="m 385.757,928.729 2.264,0 0,0.507 -2.264,0 0,-0.507 z"
           style="fill:#000000;fill-opacity:1;fill-rule:nonzero;stroke:none"
           id="path12586" />
        <g
           id="g12588"
           transform="translate(390.0166,927.4716)">
          <path
             d="m 0,0 c 0.581,0 0.833,0.805 0.833,1.415 0,0.788 -0.282,1.443 -0.818,1.443 -0.602,0 -0.753,-0.804 -0.753,-1.555 C -0.738,0.848 -0.67,0 0,0 m 0.833,0.26 -0.016,0 C 0.743,0.007 0.462,-0.425 -0.104,-0.425 c -0.856,0 -1.214,0.7 -1.214,1.823 0,0.955 0.335,1.884 1.206,1.884 0.618,0 0.841,-0.409 0.929,-0.661 l 0.016,0 0,2.174 0.507,0 0,-5.137 -0.507,0 0,0.602"
             style="fill:#000000;fill-opacity:1;fill-rule:nonzero;stroke:none"
             id="path12590" />
        </g>
        <g
           id="g12592"
           transform="translate(394.3043,929.6608)">
          <path
             d="M 0,0 C 0,0.238 -0.163,0.669 -0.677,0.669 -1.206,0.669 -1.376,0.238 -1.422,0 L 0,0 z m 0.498,-2.509 c -0.214,-0.068 -0.483,-0.105 -0.81,-0.105 -1.095,0 -1.727,0.662 -1.727,1.973 0,1.057 0.439,1.734 1.384,1.734 0.835,0 1.237,-0.572 1.237,-1.347 l 0,-0.171 -2.041,0 0,-0.209 c 0,-0.536 0.238,-1.555 1.259,-1.555 0.394,0 0.535,0.059 0.698,0.097 l 0,-0.417"
             style="fill:#000000;fill-opacity:1;fill-rule:nonzero;stroke:none"
             id="path12594" />
        </g>
        <g
           id="g12596"
           transform="translate(396.9111,929.132)">
          <path
             d="m 0,0 c 0.37,-0.195 0.826,-0.403 0.826,-1.013 0,-0.708 -0.49,-1.073 -1.318,-1.073 -0.462,0 -0.826,0.105 -0.967,0.15 l 0,0.461 c 0.088,-0.029 0.511,-0.185 0.915,-0.185 0.49,0 0.864,0.164 0.864,0.572 0,0.366 -0.432,0.522 -0.642,0.641 l -0.319,0.171 c -0.327,0.186 -0.804,0.38 -0.804,0.961 0,0.572 0.424,0.937 1.213,0.937 0.381,0 0.671,-0.082 0.835,-0.119 l 0,-0.468 c -0.121,0.044 -0.47,0.163 -0.827,0.163 -0.433,0 -0.715,-0.209 -0.715,-0.462 0,-0.29 0.357,-0.408 0.64,-0.557 L 0,0"
             style="fill:#000000;fill-opacity:1;fill-rule:nonzero;stroke:none"
             id="path12598" />
        </g>
        <path
           d="m 398.282,928.729 2.262,0 0,0.507 -2.262,0 0,-0.507 z"
           style="fill:#000000;fill-opacity:1;fill-rule:nonzero;stroke:none"
           id="path12600" />
        <g
           id="g12602"
           transform="translate(401.5186,932.2664)">
          <path
             d="m 0,0 0.744,0 2.115,-4.341 0.016,0 0,4.341 0.551,0 0,-5.137 -0.745,0 -2.114,4.326 -0.016,0 0,-4.326 L 0,-5.137 0,0 z"
             style="fill:#000000;fill-opacity:1;fill-rule:nonzero;stroke:none"
             id="path12604" />
        </g>
        <g
           id="g12606"
           transform="translate(407.9369,929.6608)">
          <path
             d="M 0,0 C 0,0.238 -0.164,0.669 -0.678,0.669 -1.207,0.669 -1.378,0.238 -1.422,0 L 0,0 z m 0.498,-2.509 c -0.216,-0.068 -0.483,-0.105 -0.811,-0.105 -1.095,0 -1.728,0.662 -1.728,1.973 0,1.057 0.44,1.734 1.384,1.734 0.834,0 1.238,-0.572 1.238,-1.347 l 0,-0.171 -2.041,0 0,-0.209 c 0,-0.536 0.24,-1.555 1.258,-1.555 0.394,0 0.537,0.059 0.7,0.097 l 0,-0.417"
             style="fill:#000000;fill-opacity:1;fill-rule:nonzero;stroke:none"
             id="path12608" />
        </g>
        <path
           d="m 409.449,930.672 0.505,0 0,-3.543 -0.505,0 0,3.543 z m -0.083,1.594 0.668,0 0,-0.672 -0.668,0 0,0.672 z"
           style="fill:#000000;fill-opacity:1;fill-rule:nonzero;stroke:none"
           id="path12610" />
        <g
           id="g12612"
           transform="translate(412.2019,927.5529)">
          <path
             d="m 0,0 c 0.611,0 0.847,0.819 0.847,1.415 0,0.55 -0.228,1.362 -0.832,1.362 -0.536,0 -0.737,-0.7 -0.737,-1.46 C -0.722,0.774 -0.603,0 0,0 m 1.355,-0.433 c 0,-1.004 -0.483,-1.54 -1.503,-1.54 -0.552,0 -0.841,0.096 -0.961,0.119 l 0,0.514 c 0.053,-0.022 0.401,-0.208 0.886,-0.208 0.915,0 1.07,0.543 1.07,1.176 l 0,0.625 -0.013,0 C 0.76,0.016 0.506,-0.424 -0.103,-0.424 c -0.932,0 -1.199,0.871 -1.199,1.749 0,0.946 0.335,1.876 1.213,1.876 0.603,0 0.864,-0.439 0.923,-0.661 l 0.013,0 0,0.579 0.508,0 0,-3.552"
             style="fill:#000000;fill-opacity:1;fill-rule:nonzero;stroke:none"
             id="path12614" />
        </g>
        <g
           id="g12616"
           transform="translate(416.503,929.6608)">
          <path
             d="M 0,0 C 0,0.238 -0.161,0.669 -0.675,0.669 -1.204,0.669 -1.376,0.238 -1.419,0 L 0,0 z M 0.502,-2.509 C 0.284,-2.577 0.018,-2.614 -0.31,-2.614 c -1.095,0 -1.728,0.662 -1.728,1.973 0,1.057 0.438,1.734 1.386,1.734 0.833,0 1.235,-0.572 1.235,-1.347 l 0,-0.171 -2.04,0 0,-0.209 c 0,-0.536 0.237,-1.555 1.26,-1.555 0.394,0 0.534,0.059 0.699,0.097 l 0,-0.417"
             style="fill:#000000;fill-opacity:1;fill-rule:nonzero;stroke:none"
             id="path12618" />
        </g>
        <g
           id="g12620"
           transform="translate(419.1111,929.132)">
          <path
             d="m 0,0 c 0.371,-0.195 0.826,-0.403 0.826,-1.013 0,-0.708 -0.491,-1.073 -1.317,-1.073 -0.46,0 -0.828,0.105 -0.967,0.15 l 0,0.461 c 0.087,-0.029 0.513,-0.185 0.914,-0.185 0.493,0 0.864,0.164 0.864,0.572 0,0.366 -0.432,0.522 -0.64,0.641 l -0.32,0.171 c -0.327,0.186 -0.804,0.38 -0.804,0.961 0,0.572 0.424,0.937 1.212,0.937 0.381,0 0.67,-0.082 0.835,-0.119 l 0,-0.468 c -0.12,0.044 -0.469,0.163 -0.827,0.163 -0.431,0 -0.715,-0.209 -0.715,-0.462 0,-0.29 0.358,-0.408 0.642,-0.557 L 0,0"
             style="fill:#000000;fill-opacity:1;fill-rule:nonzero;stroke:none"
             id="path12622" />
        </g>
        <g
           id="g12624"
           transform="translate(355.8282,924.8201)">
          <path
             d="m 0,0 0.745,0 2.114,-4.34 0.016,0 0,4.34 0.55,0 0,-5.135 -0.744,0 -2.114,4.324 -0.015,0 0,-4.324 L 0,-5.135 0,0 z"
             style="fill:#000000;fill-opacity:1;fill-rule:nonzero;stroke:none"
             id="path12626" />
        </g>
        <g
           id="g12628"
           transform="translate(361.6358,920.0261)">
          <path
             d="M 0,0 C 0.581,0 0.878,0.536 0.878,1.429 0.878,2.315 0.581,2.858 0,2.858 -0.574,2.858 -0.863,2.315 -0.863,1.429 -0.863,0.536 -0.574,0 0,0 m -1.445,1.421 c 0,1.036 0.403,1.862 1.445,1.862 1.05,0 1.46,-0.826 1.46,-1.862 0,-1.033 -0.41,-1.845 -1.46,-1.845 -1.042,0 -1.445,0.812 -1.445,1.845"
             style="fill:#000000;fill-opacity:1;fill-rule:nonzero;stroke:none"
             id="path12630" />
        </g>
        <g
           id="g12632"
           transform="translate(365.6636,919.6386)">
          <path
             d="m 0,0 c -0.149,-0.022 -0.298,-0.036 -0.447,-0.036 -0.714,0 -0.982,0.281 -0.982,0.915 l 0,2.285 -0.581,0 0,0.424 0.581,0 0,0.826 0.506,0.322 0,-1.148 0.953,0 0,-0.424 -0.953,0 0,-2.18 c 0,-0.232 0.06,-0.596 0.581,-0.596 0.163,0 0.231,0.03 0.342,0.067 L 0,0"
             style="fill:#000000;fill-opacity:1;fill-rule:nonzero;stroke:none"
             id="path12634" />
        </g>
        <g
           id="g12636"
           transform="translate(366.4305,923.2271)">
          <path
             d="m 0,0 0.506,0 0,-0.684 0.015,0 c 0.104,0.238 0.373,0.766 1.184,0.766 l 0,-0.543 c -0.803,0 -1.199,-0.663 -1.199,-1.617 l 0,-1.465 L 0,-3.543 0,0"
             style="fill:#000000;fill-opacity:1;fill-rule:nonzero;stroke:none"
             id="path12638" />
        </g>
        <g
           id="g12640"
           transform="translate(370.5392,922.2154)">
          <path
             d="M 0,0 C 0,0.238 -0.164,0.669 -0.677,0.669 -1.205,0.669 -1.377,0.238 -1.421,0 L 0,0 z m 0.499,-2.509 c -0.216,-0.068 -0.483,-0.104 -0.811,-0.104 -1.095,0 -1.727,0.661 -1.727,1.972 0,1.057 0.439,1.735 1.384,1.735 0.835,0 1.237,-0.573 1.237,-1.349 l 0,-0.17 -2.041,0 0,-0.209 c 0,-0.536 0.239,-1.555 1.258,-1.555 0.396,0 0.538,0.059 0.7,0.097 l 0,-0.417"
             style="fill:#000000;fill-opacity:1;fill-rule:nonzero;stroke:none"
             id="path12642" />
        </g>
        <path
           d="m 371.797,921.284 2.264,0 0,0.506 -2.264,0 0,-0.506 z"
           style="fill:#000000;fill-opacity:1;fill-rule:nonzero;stroke:none"
           id="path12644" />
        <g
           id="g12646"
           transform="translate(375.6181,920.1675)">
          <path
             d="m 0,0 0.394,0 c 0.997,0 1.653,0.297 1.653,2.092 0,1.854 -0.715,2.077 -1.72,2.077 L 0,4.169 0,0 z m -0.581,4.653 1.152,0 c 1.542,0 2.108,-0.922 2.108,-2.553 0,-2.278 -1.08,-2.583 -2.293,-2.583 l -0.967,0 0,5.136"
             style="fill:#000000;fill-opacity:1;fill-rule:nonzero;stroke:none"
             id="path12648" />
        </g>
        <g
           id="g12650"
           transform="translate(380.6949,921.2916)">
          <path
             d="m 0,0 c -0.372,0 -1.161,-0.149 -1.161,-0.751 0,-0.335 0.238,-0.514 0.499,-0.514 0.319,0 0.677,0.208 0.827,0.55 C 0.253,-0.506 0.298,-0.424 0.298,0 L 0,0 z m 0.313,-1.139 -0.015,0 c -0.091,-0.171 -0.44,-0.55 -1.086,-0.55 -0.582,0 -0.955,0.357 -0.955,0.989 0,0.827 1.072,1.102 1.691,1.102 0.128,0 0.231,0 0.35,0.023 0,0.171 0,0.557 -0.022,0.677 -0.083,0.395 -0.38,0.491 -0.648,0.491 -0.573,0 -0.685,-0.29 -0.723,-0.565 l -0.566,0 c 0.009,0.447 0.307,0.99 1.274,0.99 1.102,0 1.19,-0.692 1.19,-1.139 l 0,-2.486 -0.49,0 0,0.468"
             style="fill:#000000;fill-opacity:1;fill-rule:nonzero;stroke:none"
             id="path12652" />
        </g>
        <g
           id="g12654"
           transform="translate(382.6386,923.2271)">
          <path
             d="m 0,0 0.507,0 0,-0.819 0.014,0 c 0.082,0.292 0.283,0.901 0.991,0.901 0.595,0 0.855,-0.342 0.891,-0.811 l 0.016,0 c 0.09,0.268 0.373,0.811 1.007,0.811 0.601,0 0.906,-0.507 0.906,-1.094 l 0,-2.531 -0.506,0 0,1.965 c 0,0.619 0,1.153 -0.521,1.153 -0.595,0 -0.886,-1.026 -0.886,-1.659 l 0,-1.459 -0.507,0 0,1.965 c 0,0.611 0,1.153 -0.52,1.153 -0.588,0 -0.885,-1.019 -0.885,-1.659 l 0,-1.459 L 0,-3.543 0,0"
             style="fill:#000000;fill-opacity:1;fill-rule:nonzero;stroke:none"
             id="path12656" />
        </g>
        <g
           id="g12658"
           transform="translate(389.928,922.2154)">
          <path
             d="M 0,0 C 0,0.238 -0.164,0.669 -0.678,0.669 -1.207,0.669 -1.378,0.238 -1.423,0 L 0,0 z m 0.498,-2.509 c -0.217,-0.068 -0.482,-0.104 -0.811,-0.104 -1.095,0 -1.729,0.661 -1.729,1.972 0,1.057 0.441,1.735 1.386,1.735 0.834,0 1.236,-0.573 1.236,-1.349 l 0,-0.17 -2.04,0 0,-0.209 c 0,-0.536 0.238,-1.555 1.257,-1.555 0.396,0 0.537,0.059 0.701,0.097 l 0,-0.417"
             style="fill:#000000;fill-opacity:1;fill-rule:nonzero;stroke:none"
             id="path12660" />
        </g>
        <path
           d="m 391.184,921.284 2.264,0 0,0.506 -2.264,0 0,-0.506 z"
           style="fill:#000000;fill-opacity:1;fill-rule:nonzero;stroke:none"
           id="path12662" />
        <g
           id="g12664"
           transform="translate(395.4442,920.0261)">
          <path
             d="m 0,0 c 0.58,0 0.834,0.803 0.834,1.414 0,0.789 -0.285,1.444 -0.82,1.444 -0.604,0 -0.751,-0.803 -0.751,-1.556 C -0.737,0.849 -0.671,0 0,0 m 0.834,0.259 -0.016,0 C 0.744,0.007 0.46,-0.424 -0.104,-0.424 c -0.856,0 -1.214,0.699 -1.214,1.824 0,0.952 0.334,1.883 1.206,1.883 0.618,0 0.84,-0.41 0.93,-0.663 l 0.016,0 0,2.174 0.505,0 0,-5.136 -0.505,0 0,0.601"
             style="fill:#000000;fill-opacity:1;fill-rule:nonzero;stroke:none"
             id="path12666" />
        </g>
        <g
           id="g12668"
           transform="translate(399.7317,922.2154)">
          <path
             d="M 0,0 C 0,0.238 -0.164,0.669 -0.677,0.669 -1.206,0.669 -1.376,0.238 -1.421,0 L 0,0 z m 0.499,-2.509 c -0.217,-0.068 -0.484,-0.104 -0.811,-0.104 -1.095,0 -1.728,0.661 -1.728,1.972 0,1.057 0.439,1.735 1.385,1.735 0.834,0 1.237,-0.573 1.237,-1.349 l 0,-0.17 -2.041,0 0,-0.209 c 0,-0.536 0.238,-1.555 1.259,-1.555 0.395,0 0.535,0.059 0.699,0.097 l 0,-0.417"
             style="fill:#000000;fill-opacity:1;fill-rule:nonzero;stroke:none"
             id="path12670" />
        </g>
        <path
           d="m 400.99,921.284 2.263,0 0,0.506 -2.263,0 0,-0.506 z"
           style="fill:#000000;fill-opacity:1;fill-rule:nonzero;stroke:none"
           id="path12672" />
        <g
           id="g12674"
           transform="translate(407.5114,920.0935)">
          <path
             d="m 0,0 c -0.127,-0.112 -0.677,-0.491 -1.481,-0.491 -1.623,0 -2.055,1.332 -2.055,2.821 0,1.311 0.508,2.479 1.913,2.479 1.02,0 1.652,-0.625 1.652,-1.481 l -0.653,0 c 0,0.462 -0.254,0.997 -0.991,0.997 -1.042,0 -1.288,-1.064 -1.288,-1.995 0,-0.997 0.172,-2.338 1.377,-2.338 0.521,0 0.856,0.2 0.946,0.283 l 0,1.734 -1.176,0 0,0.484 L 0,2.493 0,0"
             style="fill:#000000;fill-opacity:1;fill-rule:nonzero;stroke:none"
             id="path12676" />
        </g>
        <g
           id="g12678"
           transform="translate(408.5681,923.2271)">
          <path
             d="m 0,0 0.507,0 0,-0.684 0.014,0 c 0.106,0.238 0.375,0.766 1.186,0.766 l 0,-0.543 c -0.804,0 -1.2,-0.663 -1.2,-1.617 l 0,-1.465 L 0,-3.543 0,0"
             style="fill:#000000;fill-opacity:1;fill-rule:nonzero;stroke:none"
             id="path12680" />
        </g>
        <g
           id="g12682"
           transform="translate(412.3374,921.2916)">
          <path
             d="m 0,0 c -0.372,0 -1.162,-0.149 -1.162,-0.751 0,-0.335 0.238,-0.514 0.499,-0.514 0.32,0 0.677,0.208 0.826,0.55 C 0.251,-0.506 0.296,-0.424 0.296,0 L 0,0 z m -0.604,3.552 0.551,0 0.656,-0.999 -0.455,0 -0.469,0.619 -0.483,-0.619 -0.455,0 0.655,0.999 z m 0.914,-4.691 -0.014,0 c -0.089,-0.171 -0.44,-0.55 -1.086,-0.55 -0.581,0 -0.953,0.357 -0.953,0.989 0,0.827 1.072,1.102 1.69,1.102 0.127,0 0.231,0 0.349,0.023 0,0.171 0,0.557 -0.023,0.677 -0.081,0.395 -0.378,0.491 -0.645,0.491 -0.575,0 -0.685,-0.29 -0.723,-0.565 l -0.566,0 c 0.008,0.447 0.305,0.99 1.272,0.99 1.101,0 1.191,-0.692 1.191,-1.139 l 0,-2.486 -0.492,0 0,0.468"
             style="fill:#000000;fill-opacity:1;fill-rule:nonzero;stroke:none"
             id="path12684" />
        </g>
        <g
           id="g12686"
           transform="translate(416.595,919.6985)">
          <path
             d="m 0,0 c -0.223,-0.067 -0.409,-0.096 -0.737,-0.096 -1.133,0 -1.823,0.654 -1.823,1.935 0,1.065 0.423,1.771 1.443,1.771 0.946,0 1.214,-0.595 1.214,-1.16 l -0.601,0 c 0,0.379 -0.158,0.736 -0.635,0.736 -0.64,0 -0.842,-0.699 -0.842,-1.235 0,-0.677 0.231,-1.623 1.408,-1.623 0.126,0 0.379,0.006 0.573,0.074 L 0,0"
             style="fill:#000000;fill-opacity:1;fill-rule:nonzero;stroke:none"
             id="path12688" />
        </g>
        <g
           id="g12690"
           transform="translate(419.2227,922.2154)">
          <path
             d="M 0,0 C 0,0.238 -0.163,0.669 -0.678,0.669 -1.206,0.669 -1.378,0.238 -1.422,0 L 0,0 z m 0.499,-2.509 c -0.217,-0.068 -0.484,-0.104 -0.813,-0.104 -1.093,0 -1.726,0.661 -1.726,1.972 0,1.057 0.439,1.735 1.385,1.735 0.834,0 1.237,-0.573 1.237,-1.349 l 0,-0.17 -2.04,0 0,-0.209 c 0,-0.536 0.237,-1.555 1.258,-1.555 0.395,0 0.537,0.059 0.699,0.097 l 0,-0.417"
             style="fill:#000000;fill-opacity:1;fill-rule:nonzero;stroke:none"
             id="path12692" />
        </g>
        <g
           id="g12694"
           transform="translate(355.9361,916.7539)">
          <path
             d="m 0,0 2.767,0 3.595,-9.776 0.037,0 3.613,9.776 2.673,0 0,-12.025 -1.863,0 0,10.388 -0.038,0 -3.802,-10.388 -1.581,0 -3.801,10.388 -0.038,0 0,-10.388 -1.562,0 L 0,0 z"
             style="fill:#000000;fill-opacity:1;fill-rule:nonzero;stroke:none"
             id="path12696" />
        </g>
        <g
           id="g12698"
           transform="translate(373.9717,905.269)">
          <path
             d="M 0,0 C 1.693,0 1.901,2.092 1.901,3.609 1.901,5.124 1.693,7.217 0,7.217 -1.674,7.217 -1.882,5.124 -1.882,3.609 -1.882,2.092 -1.674,0 0,0 m -3.952,3.609 c 0,2.804 1.317,4.337 3.952,4.337 2.635,0 3.971,-1.533 3.971,-4.337 0,-2.806 -1.336,-4.34 -3.971,-4.34 -2.635,0 -3.952,1.534 -3.952,4.34"
             style="fill:#000000;fill-opacity:1;fill-rule:nonzero;stroke:none"
             id="path12700" />
        </g>
        <g
           id="g12702"
           transform="translate(379.4159,913.0249)">
          <path
             d="m 0,0 1.901,0 0,-1.97 0.037,0 c 0.302,0.61 1.169,2.16 3.143,2.16 1.582,0 2.259,-1.219 2.259,-2.42 l 0,-6.066 -1.901,0 0,5.195 c 0,1.044 -0.17,1.985 -1.129,1.985 -1.882,0 -2.409,-2.718 -2.409,-3.745 l 0,-3.435 L 0,-8.296 0,0"
             style="fill:#000000;fill-opacity:1;fill-rule:nonzero;stroke:none"
             id="path12704" />
        </g>
        <g
           id="g12706"
           transform="translate(393.5739,904.6606)">
          <path
             d="m 0,0 c -0.375,-0.087 -0.884,-0.123 -1.317,-0.123 -1.789,0 -2.823,0.506 -2.823,2.109 l 0,5.472 -1.43,0 0,0.906 1.43,0 0,1.952 1.9,1.062 0,-3.014 2.447,0 0,-0.906 -2.447,0 0,-4.775 c 0,-1.22 0.133,-1.812 1.356,-1.812 0.302,0 0.62,0.036 0.884,0.139 L 0,0"
             style="fill:#000000;fill-opacity:1;fill-rule:nonzero;stroke:none"
             id="path12708" />
        </g>
        <g
           id="g12710"
           transform="translate(395.0044,913.0249)">
          <path
             d="m 0,0 1.901,0 0,-2.109 0.038,0 C 2.541,-0.994 3.2,0.07 4.838,0.19 l 0,-1.828 C 3.012,-1.692 1.901,-2.267 1.901,-4.496 l 0,-3.8 L 0,-8.296 0,0"
             style="fill:#000000;fill-opacity:1;fill-rule:nonzero;stroke:none"
             id="path12712" />
        </g>
        <g
           id="g12714"
           transform="translate(404.5405,916.7449)">
          <path
             d="m 0,0 1.995,0 -1.838,-2.274 -1.412,0 L 0,0 z m 1.362,-6.124 c 0,0.644 -0.245,1.865 -1.658,1.865 -1.468,0 -1.749,-1.395 -1.786,-1.865 l 3.444,0 z m 1.693,-5.612 c -0.79,-0.296 -1.487,-0.471 -2.615,-0.471 -2.485,0 -4.48,1.36 -4.48,4.706 0,2.299 0.997,3.972 3.82,3.972 2.899,0 3.445,-1.795 3.445,-3.397 l -5.363,0 c 0,-1.64 0.789,-4.356 3.48,-4.356 0.584,0 1.148,0.104 1.713,0.347 l 0,-0.801"
             style="fill:#000000;fill-opacity:1;fill-rule:nonzero;stroke:none"
             id="path12716" />
        </g>
        <g
           id="g12718"
           transform="translate(413.8252,908.6169)">
          <path
             d="m 0,0 c -0.789,-0.052 -2.937,-0.21 -2.937,-1.743 0,-0.75 0.471,-1.238 1.094,-1.238 0.657,0 1.843,0.593 1.843,2.005 L 0,0 z m 0,-2.737 -0.039,0 c -0.3,-0.488 -1.09,-1.342 -2.521,-1.342 -1.41,0 -2.446,0.925 -2.446,2.073 0,2.562 3.82,2.684 5.006,2.737 l 0,0.732 c 0,0.906 0,2.406 -1.26,2.406 -1.168,0 -1.375,-0.838 -1.45,-1.814 l -1.994,0 c 0.092,1.237 0.619,2.544 3.444,2.544 2.917,0 3.16,-1.515 3.16,-3.136 l 0,-5.351 -1.9,0 0,1.151"
             style="fill:#000000;fill-opacity:1;fill-rule:nonzero;stroke:none"
             id="path12720" />
        </g>
        <path
           d="m 417.694,904.729 1.898,0 0,12.025 -1.898,0 0,-12.025 z"
           style="fill:#000000;fill-opacity:1;fill-rule:nonzero;stroke:none"
           id="path12722" />
        <g
           id="g12724"
           transform="translate(432.7932,903.2631)">
          <path
             d="m 0,0 c -0.379,0.377 -0.604,0.884 -0.604,1.425 l 0,4.661 c 0,0.578 0.53,0.893 0.891,0.893 l 4.68,0 C 5.934,6.981 6.978,6.221 6.978,4.981 6.98,3.874 6.086,2.972 4.984,2.971 4.278,2.971 3.804,3.299 3.529,3.575 L 3.295,3.809 C 3.333,3.914 3.373,4.05 3.373,4.237 l 0,0 C 3.373,4.906 2.823,5.45 2.147,5.451 1.821,5.453 1.532,5.336 1.307,5.112 1.077,4.883 0.939,4.554 0.939,4.234 0.939,3.922 1.081,3.588 1.309,3.358 1.532,3.136 1.825,3.019 2.159,3.019 2.34,3.019 2.493,3.069 2.574,3.098 2.615,3.057 2.814,2.863 2.814,2.863 2.959,2.726 3.429,2.221 3.43,1.421 l 0,-0.002 C 3.43,0.181 2.39,-0.587 1.424,-0.59 0.887,-0.591 0.381,-0.381 0,0 m -8.574,3.529 c -0.382,0.38 -0.598,0.902 -0.6,1.429 -0.002,0.536 0.209,1.042 0.588,1.423 0.378,0.381 0.885,0.598 1.426,0.598 l 4.663,0 c 0.577,0 0.902,-0.523 0.902,-0.883 l 0,-4.68 c 10e-4,-0.532 -0.22,-1.054 -0.601,-1.436 -0.263,-0.263 -0.719,-0.575 -1.41,-0.577 -1.106,-0.001 -2.006,0.894 -2.009,1.993 l 0,0.003 c 0,0.706 0.329,1.18 0.606,1.454 0,0 0.175,0.176 0.233,0.234 0.107,-0.039 0.24,-0.078 0.429,-0.078 0.668,0 1.211,0.55 1.215,1.226 0,0.325 -0.116,0.614 -0.34,0.84 -0.23,0.231 -0.556,0.368 -0.88,0.368 -0.309,0 -0.644,-0.139 -0.875,-0.368 -0.221,-0.224 -0.34,-0.516 -0.34,-0.848 l 0,-0.001 c 0,-0.184 0.051,-0.337 0.082,-0.417 C -5.529,3.767 -5.723,3.567 -5.723,3.567 -5.857,3.423 -6.367,2.953 -7.162,2.952 -7.698,2.951 -8.198,3.156 -8.574,3.529 m 7.97,10.009 c -0.004,0.532 0.206,1.054 0.587,1.436 0.261,0.263 0.72,0.576 1.408,0.576 0.534,0 1.057,-0.216 1.431,-0.592 0.375,-0.372 0.579,-0.869 0.579,-1.4 l 0,-0.003 c 0,-0.706 -0.328,-1.18 -0.604,-1.451 C 2.795,12.102 2.621,11.925 2.562,11.868 2.459,11.906 2.323,11.945 2.136,11.945 1.469,11.946 0.925,11.394 0.922,10.719 0.92,10.393 1.038,10.103 1.262,9.879 1.491,9.649 1.816,9.509 2.14,9.509 c 0.312,0 0.646,0.142 0.874,0.37 0.223,0.221 0.34,0.517 0.34,0.848 l 0,0.002 c 0,0.182 -0.05,0.335 -0.079,0.416 0.041,0.042 0.235,0.24 0.235,0.24 0.136,0.147 0.642,0.614 1.44,0.616 1.24,0.003 2.008,-1.04 2.012,-2.007 C 6.964,9.46 6.754,8.954 6.374,8.572 5.994,8.193 5.489,7.978 4.947,7.978 l -4.66,0 c -0.576,0 -0.891,0.519 -0.891,0.881 l 0,4.679 z m -4.392,-1.442 0,0 c -0.144,0.137 -0.613,0.643 -0.616,1.442 l 0,0.004 c 0,1.238 1.04,2.006 2.006,2.008 0.538,0 1.041,-0.208 1.423,-0.588 0.381,-0.378 0.588,-0.886 0.588,-1.426 l 0,-4.664 c 0,-0.574 -0.512,-0.894 -0.873,-0.894 l -4.683,0 c -0.528,-0.002 -1.051,0.213 -1.433,0.594 -0.261,0.261 -0.575,0.719 -0.575,1.408 -0.002,0.532 0.214,1.053 0.592,1.431 0.37,0.372 0.868,0.578 1.398,0.578 0.708,0.002 1.183,-0.328 1.456,-0.605 0,0 0.179,-0.176 0.238,-0.234 -0.042,-0.102 -0.081,-0.238 -0.081,-0.426 0,-0.669 0.548,-1.213 1.225,-1.217 0.326,-10e-4 0.618,0.117 0.843,0.343 0.232,0.228 0.368,0.556 0.368,0.877 0.003,0.311 -0.142,0.646 -0.368,0.875 -0.225,0.223 -0.518,0.341 -0.851,0.341 -0.183,-10e-4 -0.334,-0.053 -0.416,-0.08 -0.041,0.04 -0.241,0.233 -0.241,0.233 m 3.905,3.013 c -0.582,0.866 -1.533,1.405 -2.504,1.405 -1.664,0 -2.969,-1.322 -2.969,-3.009 0,-0.162 0.034,-0.388 0.098,-0.671 -0.152,0.033 -0.438,0.087 -0.675,0.087 -1.686,0 -3.007,-1.297 -3.007,-2.956 0,-0.974 0.543,-1.927 1.417,-2.508 -0.883,-0.591 -1.411,-1.511 -1.411,-2.477 0,-1.638 1.349,-2.969 3.009,-2.969 0.202,0 0.45,0.048 0.662,0.096 -0.059,-0.271 -0.093,-0.5 -0.093,-0.663 0,-1.689 1.305,-3.009 2.969,-3.009 0.985,0 1.904,0.514 2.481,1.376 0.556,-0.825 1.551,-1.376 2.505,-1.376 1.659,0 2.955,1.32 2.955,3.009 0,0.218 -0.047,0.483 -0.087,0.663 0.285,-0.061 0.51,-0.096 0.671,-0.096 1.657,0 3.008,1.331 3.008,2.969 0,0.975 -0.526,1.924 -1.375,2.495 0.849,0.57 1.375,1.515 1.375,2.494 0,1.627 -1.356,2.953 -3.021,2.953 -0.209,0 -0.46,-0.053 -0.659,-0.095 0.034,0.153 0.088,0.444 0.088,0.678 0,1.687 -1.296,3.009 -2.955,3.009 -0.962,0 -1.905,-0.539 -2.482,-1.405"
             style="fill:#e02f2e;fill-opacity:1;fill-rule:nonzero;stroke:none"
             id="path12726" />
        </g>
        <g
           id="g12728"
           transform="translate(367.5338,937.0726)">
          <path
             d="m 0,0 c -0.145,0.869 -0.781,2.188 -2.4,2.339 l 0,1.232 c 0,0.154 -0.125,0.278 -0.279,0.278 -0.153,0 -0.278,-0.124 -0.278,-0.278 l 0,-1.239 C -4.525,2.146 -5.143,0.854 -5.287,0.004 -5.87,-0.191 -6.724,-0.81 -6.895,-2.179 -6.897,-2.193 -6.898,-2.206 -6.898,-2.22 l 0,-4.683 c 0.194,0.212 0.407,0.421 0.643,0.624 l 0,4.032 c 0.19,1.462 1.265,1.67 1.311,1.679 0.144,0.025 0.255,0.145 0.267,0.29 0.007,0.079 0.181,1.928 2.003,1.987 1.877,-0.009 2.056,-1.905 2.063,-1.987 0.012,-0.144 0.122,-0.265 0.266,-0.29 0.036,-0.007 0.833,-0.165 1.185,-1.151 0.116,0.025 0.237,0.04 0.362,0.04 0.105,0 0.208,-0.011 0.309,-0.029 C 1.189,-0.554 0.4,-0.14 0,0"
             style="fill:#e0940f;fill-opacity:1;fill-rule:nonzero;stroke:none"
             id="path12730" />
        </g>
        <g
           id="g12732"
           transform="translate(368.653,931.5897)">
          <path
             d="m 0,0 c -4.891,-0.733 -4.481,-5.309 -4.476,-5.355 0.018,-0.176 0.176,-0.304 0.352,-0.286 0.166,0.016 0.289,0.157 0.289,0.319 0,0.011 0,0.021 -10e-4,0.032 -0.003,0.025 -0.012,0.131 -0.012,0.297 0,0.941 0.304,3.785 3.897,4.348 0.692,-0.108 1.305,-0.307 1.819,-0.594 0.155,-0.086 0.35,-0.031 0.437,0.124 0.086,0.154 0.031,0.35 -0.124,0.437 C 1.586,-0.347 0.885,-0.118 0.095,0 0.064,0.005 0.032,0.005 0,0"
             style="fill:#809955;fill-opacity:1;fill-rule:nonzero;stroke:none"
             id="path12734" />
        </g>
        <g
           id="g12736"
           transform="translate(368.7356,932.9905)">
          <path
             d="M 0,0 C -0.546,0 -0.99,0.395 -0.99,0.879 -0.99,1.365 -0.546,1.76 0,1.76 0.546,1.76 0.991,1.365 0.991,0.879 0.991,0.395 0.546,0 0,0 M 0.309,2.374 C 0.209,2.392 0.105,2.403 0,2.403 -0.125,2.403 -0.246,2.388 -0.362,2.363 -1.089,2.209 -1.633,1.603 -1.633,0.879 -1.633,0.04 -0.9,-0.643 0,-0.643 c 0.901,0 1.634,0.683 1.634,1.522 0,0.742 -0.572,1.36 -1.325,1.495"
             style="fill:#809955;fill-opacity:1;fill-rule:nonzero;stroke:none"
             id="path12738" />
        </g>
        <g
           id="g12740"
           transform="translate(366.325,932.5587)">
          <path
             d="m 0,0 c -0.028,0.176 -0.193,0.295 -0.369,0.266 -2.125,-0.344 -3.622,-1.125 -4.677,-2.031 -0.236,-0.203 -0.449,-0.412 -0.643,-0.624 -1.664,-1.819 -1.85,-3.844 -1.852,-3.877 -0.014,-0.178 0.119,-0.331 0.295,-0.345 0.177,-0.014 0.332,0.118 0.345,0.295 0.016,0.202 0.466,4.95 6.635,5.948 C -0.091,-0.34 0.028,-0.175 0,0"
             style="fill:#3e621e;fill-opacity:1;fill-rule:nonzero;stroke:none"
             id="path12742" />
        </g>
      </g>
    </g>
  </g>
</svg>
