<svg id="Layer_1" data-name="Layer 1" xmlns="http://www.w3.org/2000/svg" viewBox="0 0 386.55 143.01"><title>logo-sherbrooke</title><g id="logo"><g id="ville_de" data-name="ville de"><path id="v_ville" data-name="v ville" d="M185.29,34.88a16.14,16.14,0,0,0-2,.23c-4-10.77-8.23-21.2-12.68-31.7,1.38.1,2.8.25,4.17.25s2.79-.15,4.16-.25c2.31,7.68,5.52,15.21,8.36,22.88,3.22-7.57,6.28-15.2,8.85-22.88a15.67,15.67,0,0,0,2.16.14,15.71,15.71,0,0,0,2.17-.14c-4.58,10.5-9.21,20.85-13.18,31.7a16.68,16.68,0,0,0-2-.23" fill="#0e2b55"/><path id="i_ville" data-name="i ville" d="M206.33.61a3.89,3.89,0,0,1,4,3.64,3.9,3.9,0,0,1-4,3.65,3.85,3.85,0,0,1-3.94-3.65A3.84,3.84,0,0,1,206.33.61M202.9,12.7c1.16.1,2.32.24,3.48.24s2.31-.14,3.47-.24V35.11c-1.16-.08-2.32-.23-3.47-.23s-2.32.15-3.48.23Z" fill="#0e2b55"/><path id="l1_ville" data-name="l1 ville" d="M222.85,35.11c-1.16-.08-2.32-.23-3.46-.23s-2.33.15-3.49.23V0c1.16.1,2.32.23,3.49.23s2.3-.13,3.46-.23V35.11" fill="#0e2b55"/><path id="l2_ville" data-name="l2 ville" d="M235.86,35.11c-1.17-.08-2.32-.23-3.48-.23s-2.31.15-3.47.23V0c1.16.1,2.31.23,3.47.23S234.69.1,235.86,0V35.11" fill="#0e2b55"/><path id="e_ville" data-name="e ville" d="M262,23.94c.55-6.61-2.44-11.65-10.35-11.65-7.31,0-11.53,4.62-11.53,11.09,0,7.52,4.27,12.15,12.66,12.15a14.12,14.12,0,0,0,7.2-2.08l1.1-2.59-.6-.41a10.27,10.27,0,0,1-5.92,2.07c-5.32,0-7.15-3.83-7-8.58H262M247.6,21.71c.1-2.45.46-7.34,4.13-7.34,3,0,3.34,4.89,3.34,7.34Z" fill="#0e2b55"/><path id="d_de" data-name="d de" d="M290.66,9.93c-.83.06-1.67.16-2.5.16s-1.67-.1-2.5-.16V21.18c-1.05-1.73-2.78-2.39-5-2.39-4.8,0-7,4.16-7,8.39s1.77,8.36,7.18,8.36a5.1,5.1,0,0,0,5-3.23v2.93c.8-.06,1.58-.16,2.42-.16s1.58.1,2.39.16V9.93m-8.09,11c2.9,0,3.23,4,3.23,6,0,2.11-.4,6.47-3.53,6.47-2.95,0-3.2-4.17-3.2-6.11S279.44,21,282.57,21Z" fill="#0e2b55"/><path id="e_de" data-name="e de" d="M309.09,27.18c.4-4.76-1.75-8.39-7.45-8.39-5.27,0-8.32,3.32-8.32,8,0,5.43,3.08,8.76,9.12,8.76a10,10,0,0,0,5.19-1.5l.8-1.87-.44-.3a7.33,7.33,0,0,1-4.23,1.51c-3.87,0-5.18-2.78-5.07-6.2h10.4m-10.4-1.6c.08-1.76.34-5.3,3-5.3,2.19,0,2.42,3.54,2.42,5.3Z" fill="#0e2b55"/></g><g id="sherbrooke"><path id="s1" d="M17.37,83.55c-6.51-.39-10.74-4.88-12.65-12.79H2.85A113.28,113.28,0,0,1,0,85.26a25.26,25.26,0,0,0,2.59,1.66c4.13-1,14.78-3.37,14.78-3.37" fill="#617122"/><path id="s2" d="M29.81,71.45c0,6.25-3.4,10-6.91,11.06,4.76-.84,8.72-1.41,14.12-2.17A25.16,25.16,0,0,0,41.89,65C41.89,38.92,12,41.77,12,26.37c0-6.5,3-11.19,10.83-11.19,5.58,0,9.32,3.87,11.3,9.91h1.45c1-3.86,2-7.62,3.19-11.27-2.18-2.4-8.49-5.47-15.55-5.47C8.26,8.35.49,19.2.49,32.3c0,27.51,29.32,20.9,29.32,39.15" fill="#617122"/><path id="h" d="M58.68,78V66.69c0-6-.4-16.79,7.1-16.79,5.7,0,6.68,6.34,6.69,15V77.37c3.71-.08,7.47-.07,11.22,0V58.21c0-4.57-.4-8.49-3.42-11.85a12.18,12.18,0,0,0-9.52-4.29c-4.41,0-9.22,3.63-12.07,7.29V17a56.05,56.05,0,0,1-5.62.48c-1.85,0-3.73-.29-5.61-.48l0,62c3.64-.4,7.4-.75,11.21-1" fill="#617122"/><path id="e1" d="M108.18,46.26c4.9,0,5.39,9.9,5.39,14.82h-12c.17-4.92.74-14.82,6.66-14.82m-3.73,32.5c-2.22-3.18-3.06-7.9-2.92-13.19h23.29c.87-13.32-3.91-23.5-16.71-23.5-11.8,0-18.65,9.32-18.65,22.37a33.72,33.72,0,0,0,2.41,13.34C96.22,78.06,100.41,78.37,104.45,78.76Z" fill="#617122"/><path id="r1" d="M141.49,84V71.23c0-3-.25-8.09.48-10.79,1-4,3.89-6.17,7.49-6.17a7.28,7.28,0,0,1,4.15,1.22l.75-.74a84.15,84.15,0,0,1,.39-12.68c-8,0-11.56,5.59-13.28,12.4V42.92a55.54,55.54,0,0,1-5.62.47c-1.86,0-3.73-.28-5.63-.47l0,39.08c4,.63,7.73,1.3,11.25,2" fill="#617122"/><path id="b1" d="M181.36,46.08c-3.58,4.21-9.86,7.34-10.66,7.62V31.45a45.76,45.76,0,0,1-5.53.47,49.84,49.84,0,0,1-5.68-.47l0,48.69h1.22c.11-6.89,2.46-12.76,9.83-18.5,7.58-5.89,11.25-9.91,11-14.83a2.56,2.56,0,0,0-.1-.74" fill="#617122"/><path id="bcentre" d="M179,65.87v4.64c-.5,1.76-3.34,12.4-14.24,17.86s-12.73,8-14,13.56l-.67-.17s-.67-10.47,8.72-15.58S175.41,77.26,179,65.87" fill="#0e2b55"/><path id="b2" d="M187.41,54.63c-.24.21-.46.4-.66.59,1.86,4.33,6.65,15.91.74,25-4.87,7.53-12.65,9.67-18,10.49v.6c2.18.5,4.59,1.06,6.89,1.64,6.87-.52,14.18-2.94,17.91-12.22,4.43-11-3.54-22.42-6.85-26.12" fill="#617122"/><path id="r2" d="M201.42,42.92a55.93,55.93,0,0,0,5.64.47,55.59,55.59,0,0,0,5.61-.47V54.47c1.72-6.81,5.29-12.4,13.27-12.4a83,83,0,0,0-.41,12.68l-.73.75a7.22,7.22,0,0,0-4.16-1.23c-3.56,0-6.5,2.16-7.46,6.17-.73,2.7-.5,7.82-.5,10.79V88.12H201.44l0-45.2" fill="#617122"/><path id="o1" d="M248.16,88.94c12.79,0,20.1-10.34,20.1-24.5,0-13.8-7.74-22.37-20-22.37-12.48,0-19.88,9.79-19.88,24.41,0,13.8,7.75,22.46,19.8,22.46m.56-42.68c5.45,0,7.47,7.64,7.47,16.69,0,10.25-1.76,21.63-8,21.79-7.09,0-7.75-12.56-7.75-18.55C240.41,55.22,242.12,46.26,248.72,46.26Z" fill="#617122"/><path id="o2" d="M291.7,88.94c12.76,0,20.07-10.34,20.07-24.5,0-13.8-7.74-22.37-20-22.37-12.46,0-19.86,9.79-19.85,24.41,0,13.8,7.73,22.46,19.82,22.46m.53-42.68c5.47,0,7.48,7.64,7.48,16.69,0,10.25-1.77,21.63-8,21.79-7.11,0-7.77-12.56-7.77-18.55C283.93,55.22,285.66,46.26,292.23,46.26Z" fill="#617122"/><path id="k1" d="M316.16,31.62c1.87.17,3.74.46,5.63.46s3.75-.29,5.61-.46V62.86c.25.28.4.2.71.09,5.39-6.22,10.28-12.94,15.65-20a20.55,20.55,0,0,0,3.48.47,21.65,21.65,0,0,0,3.45-.47v.65c-4.16,6-9.37,10.7-13.6,16.41l6.5,11.92c2.71,4.93,5.35,10,8,15.47v.75H339.2c-2.58-5.68-6.19-13-9.51-18.65a8.18,8.18,0,0,0-2.29-3.07V88.12H316.16V31.62" fill="#617122"/><path id="e2" d="M362.85,65.57c-.25,9.59,2.71,17.31,11.32,17.31a14.67,14.67,0,0,0,9.52-4.17l1,.83-1.81,5.2a19.24,19.24,0,0,1-11.64,4.2c-13.51,0-20.44-9.31-20.44-24.5,0-13,6.84-22.37,18.66-22.37,12.76,0,17.57,10.18,16.68,23.5H362.85m12.07-4.49c0-4.92-.5-14.82-5.39-14.82-5.95,0-6.53,9.9-6.68,14.82Z" fill="#617122"/></g><g id="bas"><path id="bas1" d="M308.9,108.46a.63.63,0,0,0-.69-.45c-.42.09-41.08,7.81-79.2,4.41a444.67,444.67,0,0,1-71.3-12.49l-2.92-.76A354.21,354.21,0,0,0,82,87.93C43,86.05,1.22,98.16.81,98.27A.62.62,0,0,0,.4,99a.61.61,0,0,0,.71.43c.39-.1,40.89-8.44,79-5A461,461,0,0,1,152,106.8l.79.21,1.37.37a370.43,370.43,0,0,0,73.08,12.18c39,2.31,80.81-10.26,81.23-10.38a.61.61,0,0,0,.42-.72" fill="#0e2b55"/><path id="bas2" d="M385.94,112.2H360l-.14,0L330.49,120c-1.95.52-48.53,12.71-93.91,10.22a405.36,405.36,0,0,1-74.94-11.33l-16.38-3.64-2-.45a362.86,362.86,0,0,0-60.25-10c-33.93-2.63-81.7,7.33-82.17,7.43a.6.6,0,0,0-.47.59v29.61A.6.6,0,0,0,1,143H386a.6.6,0,0,0,.6-.59V112.81a.61.61,0,0,0-.61-.61" fill="#0e2b55"/></g></g></svg>
