<svg id="Layer_1" data-name="Layer 1" xmlns="http://www.w3.org/2000/svg" viewBox="0 0 200 47.46"><title>logo-color</title><g id="line"><path d="M67.54,44.17c-8.83-3-20.85-4.71-33.72-4.71S8.83,41.22,0,44.21c9.54-2.41,21.45-3.15,33.84-3.15s24.17.71,33.71,3.12" fill="#0db04a"/></g><g id="text"><path d="M90,43.62a4.94,4.94,0,0,1-1.45,2.74,4.27,4.27,0,0,1-2.95,1.09c-1.74,0-2.84-.83-2.74-2.11a12.28,12.28,0,0,1,.47-2l1.26-4.51h1.22l-1.35,4.74a6.85,6.85,0,0,0-.34,1.54c-.07.9.58,1.52,1.63,1.52a2.69,2.69,0,0,0,2.32-1.12A5.68,5.68,0,0,0,89,43.56l1.35-4.75h1.13" fill="#231f20"/><path d="M97.68,43.3l-1.17,4H95.4l1.08-3.73a3.8,3.8,0,0,0,.22-.94c0-.45-.3-.73-.84-.73a2.89,2.89,0,0,0-1.87.86,5.3,5.3,0,0,0-1.44,2.34l-.63,2.19H90.84l1.72-6.07h1.13l-.46,1.54c1.15-1.23,2-1.69,3.11-1.69s1.61.5,1.55,1.29a3.13,3.13,0,0,1-.21.92" fill="#231f20"/><path d="M102.69,41.82a2.71,2.71,0,0,0-1.67.71A3.22,3.22,0,0,0,99.94,44h.58c1.6,0,2.87-.64,2.93-1.47a.69.69,0,0,0-.77-.74m-2.48,2.85h-.49l0,.33c-.08,1.13.43,1.73,1.5,1.73a4,4,0,0,0,1.85-.49l.33.59a5.36,5.36,0,0,1-2.58.62,2.49,2.49,0,0,1-1.73-.52,2.07,2.07,0,0,1-.57-1.72A4.32,4.32,0,0,1,100,42.4a4.64,4.64,0,0,1,3.07-1.31c1,0,1.64.55,1.59,1.36C104.56,43.75,102.72,44.67,100.21,44.67Z" fill="#231f20"/><path d="M113.28,43.3l-1.17,4H111l1.08-3.73a3.5,3.5,0,0,0,.22-.92c0-.46-.29-.74-.84-.74a2.89,2.89,0,0,0-1.87.86,5.3,5.3,0,0,0-1.44,2.34l-.63,2.19h-1.08L109,38.4h1.1l-1.25,4.38c1.15-1.23,2-1.7,3.12-1.7s1.61.51,1.55,1.3a3.15,3.15,0,0,1-.21.92" fill="#231f20"/><path d="M116.53,40a.5.5,0,0,1-.54-.56.93.93,0,0,1,.92-.83.51.51,0,0,1,.56.54.93.93,0,0,1-.94.84M115,47.31H113.9l1.74-6.07h1.11Z" fill="#231f20"/><path d="M121.3,42.22a2,2,0,0,0-1.18-.45.94.94,0,0,0-1,.75c0,.34.05.44,1,1.46.71.73,1,1.22.92,1.73-.07,1-1.23,1.75-2.61,1.75a3.61,3.61,0,0,1-1.92-.56l.55-.72a2.29,2.29,0,0,0,1.49.55c.75,0,1.28-.38,1.32-.95,0-.39,0-.51-.94-1.43s-1.08-1.22-1-1.74c.06-.85,1.07-1.52,2.28-1.52a2.88,2.88,0,0,1,1.7.52" fill="#231f20"/><path d="M126.49,41.87h-1.66l-1,3.38a4.61,4.61,0,0,0-.24.92c0,.36.17.56.57.56a3.72,3.72,0,0,0,1-.17l.09.61a4.84,4.84,0,0,1-1.45.29c-.93,0-1.43-.41-1.38-1.14a6,6,0,0,1,.28-1.12l.94-3.33h-.85l.19-.63h.85l.43-1.47,1.21-.36L125,41.24h1.66" fill="#231f20"/><path d="M130.14,41.83a3,3,0,0,0-2.55,2.9c-.09,1.25.47,2,1.51,2a2.13,2.13,0,0,0,1.33-.5,3.51,3.51,0,0,0,1.17-2.44c.09-1.31-.39-1.94-1.46-1.94M129,47.46a2.42,2.42,0,0,1-2.59-2.72,4,4,0,0,1,4-3.64,2.32,2.32,0,0,1,2.41,2.66A3.94,3.94,0,0,1,129,47.46Z" fill="#231f20"/><path d="M135.93,40a.5.5,0,0,1-.54-.56.93.93,0,0,1,.92-.83.51.51,0,0,1,.56.54.94.94,0,0,1-.94.84m-1.51,7.32h-1.11L135,41.24h1.11Z" fill="#231f20"/><path d="M141.11,42.21a1.92,1.92,0,0,0-.67-.12,1.68,1.68,0,0,0-1.33.72,5,5,0,0,0-.81,1.69l-.83,2.82h-1.09l1.72-6.07h1.13l-.32,1,.57-.56a1.69,1.69,0,0,1,1.24-.63,1.36,1.36,0,0,1,1,.44" fill="#231f20"/><path d="M145.1,41.82a2.71,2.71,0,0,0-1.67.71A3.21,3.21,0,0,0,142.35,44h.58c1.6,0,2.87-.64,2.93-1.47a.69.69,0,0,0-.77-.74m-2.48,2.85h-.49l0,.33c-.08,1.13.43,1.73,1.5,1.73a4,4,0,0,0,1.85-.49l.33.59a5.37,5.37,0,0,1-2.58.62,2.48,2.48,0,0,1-1.73-.52,2.07,2.07,0,0,1-.57-1.72,4.31,4.31,0,0,1,1.49-2.81,4.65,4.65,0,0,1,3.07-1.31c1,0,1.64.55,1.59,1.36C147,43.75,145.13,44.67,142.62,44.67Z" fill="#231f20"/><path d="M154.49,41.82c-1.5,0-2.72,1.44-2.86,3.33-.07,1,.32,1.51,1.07,1.51a2.89,2.89,0,0,0,2.14-1.28,5,5,0,0,0,1-2.42c0-.68-.52-1.14-1.35-1.14m1.26,5.49h-1.1l.35-1.25a3.53,3.53,0,0,1-2.66,1.4c-1.27,0-2-.9-1.89-2.33a4.45,4.45,0,0,1,4.13-4,1.7,1.7,0,0,1,1.6.85l1-3.55h1.13Z" fill="#231f20"/><path d="M162.05,41.82a2.71,2.71,0,0,0-1.67.71A3.21,3.21,0,0,0,159.3,44h.59c1.6,0,2.87-.64,2.93-1.47a.69.69,0,0,0-.77-.74m-2.48,2.85h-.49l0,.33c-.09,1.13.43,1.73,1.5,1.73a4,4,0,0,0,1.84-.49l.33.59a5.38,5.38,0,0,1-2.58.62,2.49,2.49,0,0,1-1.73-.52,2.07,2.07,0,0,1-.57-1.72,4.32,4.32,0,0,1,1.49-2.81,4.64,4.64,0,0,1,3.07-1.31c1,0,1.64.55,1.59,1.36C163.92,43.75,162.08,44.67,159.57,44.67Z" fill="#231f20"/><path d="M169.49,47.31h-.6l-1-6,1.21-.17c.29,2.21.5,3.84.61,4.83,2-2.89,2.34-3.4,3.48-4.83l.92.34" fill="#231f20"/><path d="M176,40a.5.5,0,0,1-.54-.56.93.93,0,0,1,.92-.83.51.51,0,0,1,.56.54A.94.94,0,0,1,176,40m-1.51,7.32h-1.11l1.74-6.07h1.11Z" fill="#231f20"/><path d="M180.78,41.82a2.71,2.71,0,0,0-1.67.71A3.22,3.22,0,0,0,178,44h.59c1.6,0,2.87-.64,2.93-1.47a.69.69,0,0,0-.77-.74m-2.48,2.85h-.49l0,.33c-.08,1.13.43,1.73,1.5,1.73a4,4,0,0,0,1.85-.49l.33.59a5.36,5.36,0,0,1-2.58.62,2.49,2.49,0,0,1-1.73-.52,2.07,2.07,0,0,1-.57-1.72,4.32,4.32,0,0,1,1.49-2.81,4.64,4.64,0,0,1,3.07-1.31c1,0,1.64.55,1.59,1.36C182.64,43.75,180.81,44.67,178.3,44.67Z" fill="#231f20"/><path d="M90,43.62a4.94,4.94,0,0,1-1.45,2.74,4.27,4.27,0,0,1-2.95,1.09c-1.74,0-2.84-.83-2.74-2.11a12.28,12.28,0,0,1,.47-2l1.26-4.51h1.22l-1.35,4.74a6.85,6.85,0,0,0-.34,1.54c-.07.9.58,1.52,1.63,1.52a2.69,2.69,0,0,0,2.32-1.12A5.68,5.68,0,0,0,89,43.56l1.35-4.75h1.13" fill="#231f20"/><path d="M97.68,43.3l-1.17,4H95.4l1.08-3.73a3.8,3.8,0,0,0,.22-.94c0-.45-.3-.73-.84-.73a2.89,2.89,0,0,0-1.87.86,5.3,5.3,0,0,0-1.44,2.34l-.63,2.19H90.84l1.72-6.07h1.13l-.46,1.54c1.15-1.23,2-1.69,3.11-1.69s1.61.5,1.55,1.29a3.13,3.13,0,0,1-.21.92" fill="#231f20"/><path d="M102.69,41.82a2.71,2.71,0,0,0-1.67.71A3.22,3.22,0,0,0,99.94,44h.58c1.6,0,2.87-.64,2.93-1.47a.69.69,0,0,0-.77-.74m-2.48,2.85h-.49l0,.33c-.08,1.13.43,1.73,1.5,1.73a4,4,0,0,0,1.85-.49l.33.59a5.36,5.36,0,0,1-2.58.62,2.49,2.49,0,0,1-1.73-.52,2.07,2.07,0,0,1-.57-1.72A4.32,4.32,0,0,1,100,42.4a4.64,4.64,0,0,1,3.07-1.31c1,0,1.64.55,1.59,1.36C104.56,43.75,102.72,44.67,100.21,44.67Z" fill="#231f20"/><path d="M113.28,43.3l-1.17,4H111l1.08-3.73a3.5,3.5,0,0,0,.22-.92c0-.46-.29-.74-.84-.74a2.89,2.89,0,0,0-1.87.86,5.3,5.3,0,0,0-1.44,2.34l-.63,2.19h-1.08L109,38.4h1.1l-1.25,4.38c1.15-1.23,2-1.7,3.12-1.7s1.61.51,1.55,1.3a3.15,3.15,0,0,1-.21.92" fill="#231f20"/><path d="M116.53,40a.5.5,0,0,1-.54-.56.93.93,0,0,1,.92-.83.51.51,0,0,1,.56.54.93.93,0,0,1-.94.84M115,47.31H113.9l1.74-6.07h1.11Z" fill="#231f20"/><path d="M121.3,42.22a2,2,0,0,0-1.18-.45.94.94,0,0,0-1,.75c0,.34.05.44,1,1.46.71.73,1,1.22.92,1.73-.07,1-1.23,1.75-2.61,1.75a3.61,3.61,0,0,1-1.92-.56l.55-.72a2.29,2.29,0,0,0,1.49.55c.75,0,1.28-.38,1.32-.95,0-.39,0-.51-.94-1.43s-1.08-1.22-1-1.74c.06-.85,1.07-1.52,2.28-1.52a2.88,2.88,0,0,1,1.7.52" fill="#231f20"/><path d="M126.49,41.87h-1.66l-1,3.38a4.61,4.61,0,0,0-.24.92c0,.36.17.56.57.56a3.72,3.72,0,0,0,1-.17l.09.61a4.84,4.84,0,0,1-1.45.29c-.93,0-1.43-.41-1.38-1.14a6,6,0,0,1,.28-1.12l.94-3.33h-.85l.19-.63h.85l.43-1.47,1.21-.36L125,41.24h1.66" fill="#231f20"/><path d="M130.14,41.83a3,3,0,0,0-2.55,2.9c-.09,1.25.47,2,1.51,2a2.13,2.13,0,0,0,1.33-.5,3.51,3.51,0,0,0,1.17-2.44c.09-1.31-.39-1.94-1.46-1.94M129,47.46a2.42,2.42,0,0,1-2.59-2.72,4,4,0,0,1,4-3.64,2.32,2.32,0,0,1,2.41,2.66A3.94,3.94,0,0,1,129,47.46Z" fill="#231f20"/><path d="M135.93,40a.5.5,0,0,1-.54-.56.93.93,0,0,1,.92-.83.51.51,0,0,1,.56.54.94.94,0,0,1-.94.84m-1.51,7.32h-1.11L135,41.24h1.11Z" fill="#231f20"/><path d="M141.11,42.21a1.92,1.92,0,0,0-.67-.12,1.68,1.68,0,0,0-1.33.72,5,5,0,0,0-.81,1.69l-.83,2.82h-1.09l1.72-6.07h1.13l-.32,1,.57-.56a1.69,1.69,0,0,1,1.24-.63,1.36,1.36,0,0,1,1,.44" fill="#231f20"/><path d="M145.1,41.82a2.71,2.71,0,0,0-1.67.71A3.21,3.21,0,0,0,142.35,44h.58c1.6,0,2.87-.64,2.93-1.47a.69.69,0,0,0-.77-.74m-2.48,2.85h-.49l0,.33c-.08,1.13.43,1.73,1.5,1.73a4,4,0,0,0,1.85-.49l.33.59a5.37,5.37,0,0,1-2.58.62,2.48,2.48,0,0,1-1.73-.52,2.07,2.07,0,0,1-.57-1.72,4.31,4.31,0,0,1,1.49-2.81,4.65,4.65,0,0,1,3.07-1.31c1,0,1.64.55,1.59,1.36C147,43.75,145.13,44.67,142.62,44.67Z" fill="#231f20"/><path d="M154.49,41.82c-1.5,0-2.72,1.44-2.86,3.33-.07,1,.32,1.51,1.07,1.51a2.89,2.89,0,0,0,2.14-1.28,5,5,0,0,0,1-2.42c0-.68-.52-1.14-1.35-1.14m1.26,5.49h-1.1l.35-1.25a3.53,3.53,0,0,1-2.66,1.4c-1.27,0-2-.9-1.89-2.33a4.45,4.45,0,0,1,4.13-4,1.7,1.7,0,0,1,1.6.85l1-3.55h1.13Z" fill="#231f20"/><path d="M162.05,41.82a2.71,2.71,0,0,0-1.67.71A3.21,3.21,0,0,0,159.3,44h.59c1.6,0,2.87-.64,2.93-1.47a.69.69,0,0,0-.77-.74m-2.48,2.85h-.49l0,.33c-.09,1.13.43,1.73,1.5,1.73a4,4,0,0,0,1.84-.49l.33.59a5.38,5.38,0,0,1-2.58.62,2.49,2.49,0,0,1-1.73-.52,2.07,2.07,0,0,1-.57-1.72,4.32,4.32,0,0,1,1.49-2.81,4.64,4.64,0,0,1,3.07-1.31c1,0,1.64.55,1.59,1.36C163.92,43.75,162.08,44.67,159.57,44.67Z" fill="#231f20"/><path d="M169.49,47.31h-.6l-1-6,1.21-.17c.29,2.21.5,3.84.61,4.83,2-2.89,2.34-3.4,3.48-4.83l.92.34" fill="#231f20"/><path d="M176,40a.5.5,0,0,1-.54-.56.93.93,0,0,1,.92-.83.51.51,0,0,1,.56.54A.94.94,0,0,1,176,40m-1.51,7.32h-1.11l1.74-6.07h1.11Z" fill="#231f20"/><path d="M180.78,41.82a2.71,2.71,0,0,0-1.67.71A3.22,3.22,0,0,0,178,44h.59c1.6,0,2.87-.64,2.93-1.47a.69.69,0,0,0-.77-.74m-2.48,2.85h-.49l0,.33c-.08,1.13.43,1.73,1.5,1.73a4,4,0,0,0,1.85-.49l.33.59a5.36,5.36,0,0,1-2.58.62,2.49,2.49,0,0,1-1.73-.52,2.07,2.07,0,0,1-.57-1.72,4.32,4.32,0,0,1,1.49-2.81,4.64,4.64,0,0,1,3.07-1.31c1,0,1.64.55,1.59,1.36C182.64,43.75,180.81,44.67,178.3,44.67Z" fill="#231f20"/></g><g id="text2"><path d="M61.2,33.3C62,32.18,62,30.49,62,29V14.08h-5a4.41,4.41,0,0,0-2.64.72l.74-2.35H73.9c-.63,1.4-2.91,1.63-4.43,1.63h-4.1V29c0,1.47,0,3.17.82,4.28" fill="#231f20"/><path d="M75.8,22.91c1.82,0,2.79,0,2.79-1.24a2.61,2.61,0,0,0-2.83-2.48c-2.35,0-3.35,2-3.8,3.73m-.22,1a14,14,0,0,0-.15,1.83c0,3,1.57,5.95,5.44,5.95a6.81,6.81,0,0,0,4.51-1.54v.36c0,1.73-3.13,3.33-5.89,3.33-4.88,0-7.19-3.85-7.19-7.81,0-4.25,2.68-7.81,7.78-7.81,3.57,0,5.7,2.06,5.7,4.18,0,1.5-1.23,1.5-3.54,1.5Z" fill="#231f20"/><path d="M84.92,24c0-2.32,0-4.57-1-5.26,1.38,0,2.68-.16,3.13-.16.67,0,.26,1.64.67,1.64.19,0,1.41-2,3.61-2,1.3,0,2.05.46,2.05,1.24,0,.62-.37,1.08-1.3,1.08-.71,0-1.45-.1-2.35-.1-1.86,0-2.09,1.14-2.09,2.58v6.73a6.32,6.32,0,0,0,.67,3.56h-4.1a6.33,6.33,0,0,0,.67-3.56" fill="#231f20"/><path d="M95.91,24c0-2.32,0-4.57-1-5.26,1.38,0,2.68-.16,3.13-.16.67,0,.26,1.64.67,1.64.19,0,1.41-2,3.61-2,1.3,0,2,.46,2,1.24,0,.62-.37,1.08-1.3,1.08-.71,0-1.45-.1-2.35-.1-1.86,0-2.09,1.14-2.09,2.58v6.73a6.32,6.32,0,0,0,.67,3.56h-4.1a6.33,6.33,0,0,0,.67-3.56" fill="#231f20"/><path d="M112.15,22.91c1.82,0,2.79,0,2.79-1.24a2.61,2.61,0,0,0-2.83-2.48c-2.35,0-3.35,2-3.8,3.73m-.22,1a14,14,0,0,0-.15,1.83c0,3,1.57,5.95,5.44,5.95a6.81,6.81,0,0,0,4.51-1.54v.36c0,1.73-3.13,3.33-5.88,3.33-4.88,0-7.19-3.85-7.19-7.81,0-4.25,2.68-7.81,7.78-7.81,3.57,0,5.7,2.06,5.7,4.18,0,1.5-1.23,1.5-3.54,1.5Z" fill="#231f20"/><path d="M127.38,20.23c-2.61,0-4.1,2-4.1,5.07v2.52c0,2.61.34,4.84,3.8,4.84,3.8,0,4.62-3.59,4.62-6.31s-1.19-6.11-4.32-6.11m-6.85-6c0-1.34-.26-2.61-1.23-3.27l4-.52V20.62c0,.07,0,.16.19.16.33,0,2.16-2.58,5.21-2.58,4.47,0,6,4.15,6,7.51,0,4.38-2.38,8.1-7.86,8.1-2.42,0-3.76-.52-6.44-.52.11-2.71.15-5.46.15-8.2V14.21Z" fill="#231f20"/><path d="M144.29,32.64c3.5,0,4.43-3,4.43-5.75,0-3.82-1.34-7.51-5.29-7.51-3.5,0-4.43,3-4.43,5.75,0,3.82,1.34,7.51,5.29,7.51m-1.23,1.18c-5.14,0-7.19-3.69-7.19-7.25,0-5.06,3.2-8.36,8.79-8.36,5.14,0,7.19,3.69,7.19,7.25C151.85,30.52,148.64,33.82,143.06,33.82Z" fill="#231f20"/><path d="M157.21,18.53v1.14c0,.26,0,.52.22.52s2-2,4.88-2,4.54,1.21,4.54,4.25v7.32a6.8,6.8,0,0,0,.6,3.53H164.1v-9c0-2.09-.34-4.38-3.32-4.38s-3.5,2.32-3.5,4.54v5.26A6.16,6.16,0,0,0,158,33.3h-4.1a6.14,6.14,0,0,0,.67-3.53V22c0-1.34,0-2.61-.78-3.26" fill="#231f20"/><path d="M173.71,18.53v1.14c0,.26,0,.52.22.52s2-2,4.88-2,4.54,1.21,4.54,4.25v7.32a6.8,6.8,0,0,0,.6,3.53H180.6v-9c0-2.09-.34-4.38-3.32-4.38s-3.5,2.32-3.5,4.54v5.26a6.14,6.14,0,0,0,.67,3.53h-4.1a6.16,6.16,0,0,0,.67-3.53V22c0-1.34,0-2.61-.78-3.26" fill="#231f20"/><path d="M193.85,22.91c1.82,0,2.79,0,2.79-1.24a2.61,2.61,0,0,0-2.83-2.48c-2.34,0-3.35,2-3.8,3.73m-.22,1a14,14,0,0,0-.15,1.83c0,3,1.56,5.95,5.44,5.95a6.81,6.81,0,0,0,4.51-1.54v.36c0,1.73-3.13,3.33-5.88,3.33-4.88,0-7.19-3.85-7.19-7.81,0-4.25,2.68-7.81,7.78-7.81,3.57,0,5.7,2.06,5.7,4.18,0,1.5-1.23,1.5-3.54,1.5Z" fill="#231f20"/></g><g id="shield-right"><path d="M47.57,25.53l.38.23c-1.58,5-8.33,1.3-12.52-1.14v2l.16.09c5.82,3.48,8.5,3.2,8.5,3.2A6.31,6.31,0,0,0,48.8,28l0-13.09H46.88a5.46,5.46,0,0,1-5.14,2.94,4.75,4.75,0,0,1-.52,0l0-.35a5.08,5.08,0,0,0,4.67-2.56H35.41V23c4.68,2.65,10.3,7.21,12.16,2.51" fill="#fcb833"/><path d="M48.81,33.57S44.62,36,35.44,36l0-2.51V31.08c4.5,2.36,8.89,3.43,11.52,1.34l-.24-.29C44.11,34,40.12,32,35.44,29.51V28.07c5.23,2.93,8.65,2.62,8.65,2.62a6.52,6.52,0,0,0,4.72-2v3.63" fill="#fcb833"/></g><g id="shield-left"><path d="M33,34.79V29.27a1.72,1.72,0,0,0-.38-.27c-5.45-3.26-7.63-.9-7.63-.9l-.18-.35S26.72,25,33,27.9V26.24c-3.8-1.79-6.36-1.2-6.36-1.2-2.73.52-4.63,2.54-4.31,4.44a2.81,2.81,0,0,0,4.11,2.1l.14.33a3.16,3.16,0,0,1-4.78-2.46c-.37-2.25,1.66-4.61,4.64-5.18,0,0,2.53-.67,6.55.82V23a12.23,12.23,0,0,0-5.31-.72l-.12-.41A9.37,9.37,0,0,1,33,21.72V14.91H19.59V33.55S23.8,36.06,33,36.06" fill="#f7931e"/></g><g id="shield-top"><path d="M29.9,10.49c1-.28-.27-2.33-1.35-2.31,0,0,.1,2.64,1.35,2.31" fill="#0071bb"/><path d="M38.52,10.41C39.78,10.67,39.73,8,39.73,8c-1.08,0-2.25,2.16-1.21,2.38" fill="#0071bb"/><path d="M41.25,7.66a5.74,5.74,0,0,0-1,.13h0V7.9c.18,1.58-.49,3-1.45,3.1a1.33,1.33,0,0,1-1-.34l0,0c-.53-.54-.23-1.67.67-2.51a3.06,3.06,0,0,1,1.17-.73l0,0v0a5.85,5.85,0,0,0-11.11.18,3.27,3.27,0,0,1,1.24.68c.95.79,1.31,1.9.81,2.47l0,0a1.3,1.3,0,0,1-1,.4c-1,0-1.69-1.36-1.6-3h0a4.89,4.89,0,0,0-2.7.24,3.8,3.8,0,0,0-2.64,4.07H46.38a5.16,5.16,0,0,0-5.12-4.79" fill="#0071bb"/><path d="M48.78,0H19.56V12.45h2.51a4.4,4.4,0,0,1,3.08-4.67,5.76,5.76,0,0,1,2.8-.32h0a6,6,0,0,1,6.15-5,5.88,5.88,0,0,1,6.07,4.8l0,0a5.38,5.38,0,0,1,1.49-.2,5.64,5.64,0,0,1,5.61,5.37h1.52" fill="#0071bb"/></g></svg>