<svg id="Layer_1" data-name="Layer 1" xmlns="http://www.w3.org/2000/svg" viewBox="0 0 415 255.1"><title>logo_13</title><path d="M54.6,95.8c0,8.5-1.9,14.8-5.6,18.9s-9.6,6-17.6,6H23v28.6H10V71.7c1.6-.2,3.2-.3,4.7-.5s3.1-.3,4.6-.4,3.2-.2,4.9-.2,3.5-.1,5.5-.1a37.8,37.8,0,0,1,10.6,1.4,18.7,18.7,0,0,1,7.8,4.4,19.13,19.13,0,0,1,4.8,7.8,36.15,36.15,0,0,1,1.7,11.7m-13.3-.2a42.66,42.66,0,0,0-.5-6.7,11.43,11.43,0,0,0-1.7-4.5,7.19,7.19,0,0,0-3.2-2.5,14.14,14.14,0,0,0-5-.8c-1.2,0-2.4.1-3.7.2s-2.7.2-4.1.4v28.5h7.5a16.84,16.84,0,0,0,5.5-.8,7,7,0,0,0,3.3-2.5,10,10,0,0,0,1.6-4.5,66.61,66.61,0,0,0,.3-6.8" fill="#003a5d"/><path d="M109.5,117.5a53.64,53.64,0,0,1-1.6,13.9,31.54,31.54,0,0,1-4.6,10.5,20,20,0,0,1-7.6,6.6,25.81,25.81,0,0,1-21.3,0,20,20,0,0,1-7.6-6.6,30.66,30.66,0,0,1-4.6-10.5,59.23,59.23,0,0,1-1.6-14,54.44,54.44,0,0,1,1.6-14A30.12,30.12,0,0,1,66.8,93a20.66,20.66,0,0,1,7.6-6.5A23.64,23.64,0,0,1,85,84.2a24.08,24.08,0,0,1,10.7,2.3,20.66,20.66,0,0,1,7.6,6.5,30.12,30.12,0,0,1,4.6,10.4,55.78,55.78,0,0,1,1.6,14.1m-13.1,0c0-2.7-.1-5.4-.3-8.2a26.21,26.21,0,0,0-1.5-7.3,13.12,13.12,0,0,0-3.4-5.3,8.49,8.49,0,0,0-6.1-2,9,9,0,0,0-6.1,2,13.12,13.12,0,0,0-3.4,5.3,27,27,0,0,0-1.5,7.3c-.2,2.7-.3,5.5-.3,8.2a89,89,0,0,0,.5,9.4,23.71,23.71,0,0,0,1.8,7.2,10.89,10.89,0,0,0,3.4,4.6,10.25,10.25,0,0,0,11,0,11.06,11.06,0,0,0,3.5-4.6,23.71,23.71,0,0,0,1.8-7.2,67.55,67.55,0,0,0,.6-9.4" fill="#003a5d"/><path d="M133.6,69.3a6.86,6.86,0,0,1-2.1,5.2,7.91,7.91,0,0,1-5.5,2,8.25,8.25,0,0,1-5.9-2,7.49,7.49,0,0,1,0-10.4,8.25,8.25,0,0,1,5.9-2,8,8,0,0,1,5.6,2,7,7,0,0,1,2,5.2M119.4,85.6h12.8v63.8H119.4Z" fill="#003a5d"/><path d="M175.2,149.3V106.1a19.6,19.6,0,0,0-.8-5.7,6.75,6.75,0,0,0-7.4-5.2,10.15,10.15,0,0,0-4.9,1.1,7.72,7.72,0,0,0-3,3.2,16.89,16.89,0,0,0-1.5,4.8,40.39,40.39,0,0,0-.4,6.2v38.7H144.4V85.6h11.5l.9,6.2h.2a14.27,14.27,0,0,1,5.9-5.8,19.51,19.51,0,0,1,8.3-1.7,17.57,17.57,0,0,1,8.5,1.8,13.27,13.27,0,0,1,5.2,5.3,24.88,24.88,0,0,1,2.5,8.7,102.68,102.68,0,0,1,.7,11.8v37.3H175.2Z" fill="#003a5d"/><path d="M219.1,149.7c-1.5.1-2.9.1-4.4.1a21,21,0,0,1-7.4-1.1,8.16,8.16,0,0,1-4.1-3.4,15.22,15.22,0,0,1-1.8-5.9,70.22,70.22,0,0,1-.4-8.5v-34h-6.7V86.4h7.2V69.1h12.3V86.4h9.4V96.9h-9.4v35.8a27.69,27.69,0,0,0,.2,3.3,5.28,5.28,0,0,0,.9,2,3.79,3.79,0,0,0,2,1,15.48,15.48,0,0,0,3.3.3h2.9v10.1l-4,.3" fill="#003a5d"/><path d="M274,117.2a14.8,14.8,0,0,1-.1,2c-.1.8-.1,1.5-.2,2.3H240.4c0,6.3,1,11.1,3,14.3s5.1,4.8,9.3,4.8a23.3,23.3,0,0,0,7-1.1,24.59,24.59,0,0,0,6.9-3.7l3.4,9.7a34.79,34.79,0,0,1-8.6,4,30.31,30.31,0,0,1-9.3,1.3c-8.1,0-14.3-2.9-18.5-8.7s-6.4-14-6.4-24.6a53.75,53.75,0,0,1,1.8-14.7,29.92,29.92,0,0,1,4.9-10.3,20.17,20.17,0,0,1,7.6-6.1,23.22,23.22,0,0,1,10-2,23.52,23.52,0,0,1,9.4,1.8,16.73,16.73,0,0,1,7,5.7,28.29,28.29,0,0,1,4.4,10.2,55.11,55.11,0,0,1,1.7,15.1m-12.6-11.6a24.07,24.07,0,0,0-1.4-6,9.74,9.74,0,0,0-3-4.1,8.24,8.24,0,0,0-5.2-1.5,9.45,9.45,0,0,0-8.5,4.7c-2,3.1-2.9,7.8-2.9,14.1H262q-.3-3.75-.6-7.2" fill="#003a5d"/><path d="M209,238.5a35.41,35.41,0,0,1-4.9,3.4,22,22,0,0,1-5.9,2.3,24.83,24.83,0,0,1-6.8.9c-5.2,0-9.6-1.1-13.1-3.4a25.37,25.37,0,0,1-8.5-9,41.92,41.92,0,0,1-4.6-12.9,83.41,83.41,0,0,1-1.4-15.2,79.13,79.13,0,0,1,1.4-14.5,40.44,40.44,0,0,1,4.7-12.9,27.69,27.69,0,0,1,8.7-9.3,23.37,23.37,0,0,1,13.3-3.6,21.76,21.76,0,0,1,10.9,2.7,39.61,39.61,0,0,1,9.2,7.7l-8,9.1a35.52,35.52,0,0,0-2.7-3.5,17,17,0,0,0-2.8-2.6,13.45,13.45,0,0,0-3.1-1.7,11,11,0,0,0-3.7-.6,10.47,10.47,0,0,0-6.7,2.3,17.45,17.45,0,0,0-4.5,6.2,37.21,37.21,0,0,0-2.5,9.2,80.49,80.49,0,0,0-.8,11.4c0,1.9.1,4,.2,6.2a46.18,46.18,0,0,0,.8,6.5,43.38,43.38,0,0,0,1.6,6.2,20.3,20.3,0,0,0,2.7,5.3,12.83,12.83,0,0,0,4,3.7,11,11,0,0,0,5.5,1.4,12.91,12.91,0,0,0,7.6-2.3,27.13,27.13,0,0,0,6.2-6.4l6.8,9.4a16.74,16.74,0,0,1-3.6,4" fill="#003a5d"/><path d="M235.8,244.3c-1.5.1-2.7.2-3.8.2a18.46,18.46,0,0,1-5.7-.7,7.83,7.83,0,0,1-3.8-2.3,9.15,9.15,0,0,1-2.1-4.3,31.31,31.31,0,0,1-.6-6.7V159h12.8v68.3a24.05,24.05,0,0,0,.2,3.1,3.08,3.08,0,0,0,.9,1.8,3,3,0,0,0,1.7.8,18.7,18.7,0,0,0,2.7.2h1.7v10.5a22.5,22.5,0,0,1-4,.6" fill="#003a5d"/><path d="M283.8,244.5a9.65,9.65,0,0,1-4.4-2.3,8.94,8.94,0,0,1-2.1-4.8h-.2a23.37,23.37,0,0,1-6.9,5.7,19.09,19.09,0,0,1-9.1,2.1,16.8,16.8,0,0,1-7-1.4,15,15,0,0,1-5-4,18.31,18.31,0,0,1-3-6.1,26.37,26.37,0,0,1-1-7.6,22.1,22.1,0,0,1,2.6-11,21,21,0,0,1,6.9-7.3,30.83,30.83,0,0,1,10-4,56.64,56.64,0,0,1,11.7-1.2V201c0-1.7,0-3.3-.1-4.8a13.55,13.55,0,0,0-.7-3.8,5.24,5.24,0,0,0-2-2.6,7.56,7.56,0,0,0-4.1-.9,30.79,30.79,0,0,0-9.7,1.5,55.92,55.92,0,0,0-8.7,3.8l-2.9-9.9a52.58,52.58,0,0,1,10.4-3.9,40,40,0,0,1,11-1.4,25,25,0,0,1,9.9,1.6,14.25,14.25,0,0,1,6,4.4,16.72,16.72,0,0,1,2.9,6.8,48.24,48.24,0,0,1,.8,8.9v33.1a6.87,6.87,0,0,0,.3,2.2,3.77,3.77,0,0,0,.9,1.5,7.47,7.47,0,0,0,1.6,1.3Zm-7.5-33.7c-12.4,0-18.7,4.9-18.7,14.6a18.72,18.72,0,0,0,.4,4.2,15,15,0,0,0,1.2,3.4,5.66,5.66,0,0,0,2.3,2.3,7.54,7.54,0,0,0,3.5.8,14,14,0,0,0,5.7-1.4,15.7,15.7,0,0,0,5.6-4.9Z" fill="#003a5d"/><path d="M316.2,163.7a6.86,6.86,0,0,1-2.1,5.2,7.91,7.91,0,0,1-5.5,2c-2.6,0-4.5-.6-5.9-2a7.49,7.49,0,0,1,0-10.4,8.25,8.25,0,0,1,5.9-2,8,8,0,0,1,5.6,2,7,7,0,0,1,2,5.2M302,180h12.8v63.8H302Z" fill="#003a5d"/><path d="M351.8,190.9c-3.9,0-6.9,1-8.9,3s-3.1,5.6-3.1,10.6v39.2H327V180h11.9l.6,7.3h.1a18.14,18.14,0,0,1,5.2-6.6,12.85,12.85,0,0,1,7.6-2h2.8v12.2Z" fill="#003a5d"/><path d="M405,211.6a14.8,14.8,0,0,1-.1,2c-.1.8-.1,1.5-.2,2.3H371.4c0,6.3,1,11.1,3,14.3s5.1,4.8,9.3,4.8a23.3,23.3,0,0,0,7-1.1,24.59,24.59,0,0,0,6.9-3.7l3.4,9.7a34.79,34.79,0,0,1-8.6,4,30.31,30.31,0,0,1-9.3,1.3c-8.1,0-14.3-2.9-18.5-8.7s-6.4-14-6.4-24.6a53.75,53.75,0,0,1,1.8-14.7,29.92,29.92,0,0,1,4.9-10.3,20.17,20.17,0,0,1,7.6-6.1,23.22,23.22,0,0,1,10-2,23.52,23.52,0,0,1,9.4,1.8,16.73,16.73,0,0,1,7,5.7,28.29,28.29,0,0,1,4.4,10.2,55.11,55.11,0,0,1,1.7,15.1M392.4,200a24.07,24.07,0,0,0-1.4-6,9.74,9.74,0,0,0-3-4.1,8.24,8.24,0,0,0-5.2-1.5,9.45,9.45,0,0,0-8.5,4.7c-2,3.1-2.9,7.8-2.9,14.1H393q-.3-3.75-.6-7.2" fill="#003a5d"/><path d="M389.9,123.6a50.79,50.79,0,0,0-5.7-4.7h0a46.28,46.28,0,0,0-8.1-4.7,50.67,50.67,0,0,0-21.3-4.7H309a27.86,27.86,0,0,1-17.7-6.6,27.33,27.33,0,0,1-4.8-5.4,54.15,54.15,0,0,0,.9,8.2c.3.2.5.5.8.7s.7.6,1.1.9l2.3,1.7c.3.2.5.3.8.5a42.32,42.32,0,0,0,4.2,2.2,31.36,31.36,0,0,0,12.5,2.5H341a50.67,50.67,0,0,1,21.3,4.7h0a55,55,0,0,1,8.1,4.7,51.34,51.34,0,0,1,14.2,15.5,61.84,61.84,0,0,0,9.6-10.8c-1.4-1.7-2.8-3.2-4.3-4.7" fill="#0082ca"/><path d="M354.2,123.6a54.3,54.3,0,0,0-13.5-4.1,44.93,44.93,0,0,0-7.3-.6H309.2a36.69,36.69,0,0,1-19.9-5.8c.8,2.3,1.7,4.6,2.7,6.8a41.27,41.27,0,0,0,17,3.7h10.9a36,36,0,0,1,5.6.4,50.46,50.46,0,0,1,38.6,26.8,58.39,58.39,0,0,0,12.9-6,50.88,50.88,0,0,0-22.8-21.2" fill="#003a5d"/><polygon points="333.1 60.2 334.1 61.2 338.1 55.2 337.2 54.2 333.1 60.2" fill="#0082ca"/><path d="M345.8,10h-.6a58.9,58.9,0,0,0-58.8,58.8V82h0a19.83,19.83,0,0,0,.3,3.5,22.74,22.74,0,0,0,22.1,19.2h24L334,64.3a47.76,47.76,0,0,1,5.7-1.2L362.8,90l5.2-7L350.1,62.2h1.8a70.66,70.66,0,0,1,17.8,2.1l1.2,40.7A42,42,0,0,1,399,120.1a57.84,57.84,0,0,0,5.7-25.2v-26A58.94,58.94,0,0,0,345.8,10m25.3,51.8c-.1.1-.2.2-.3.2h-.1l-1-.2a72.69,72.69,0,0,0-11.8-1.9c-.3,0-.7-.1-1-.1h-.8c-.7,0-1.2-.1-1.8-.1h-5a7.08,7.08,0,0,0-1.4.1l-4.5-5.3-1.5,2-2.6-2.9-1.1,1.7,2.6,2.9-1.9,2.6-3,.6c-.4.1-.9.2-1.2.3l.2.2-18,27.3L311,84.1l18.4-27.8,2.5,2.5,4.1-6.1-3.5-3.9-2.2,3-18.6-22,5.1-7,18.5,22-1.7,2.4L337,51l4.4-6.5-1.2-1.2,17.9-27,5.6,5.7L345.8,48.9l-3-3-4.4,6.6.9,1,3.4-5.1h0l.3-.4,3,3,8.4-12.6,16.7,22.9a.45.45,0,0,1,0,.5" fill="#0082ca"/></svg>