<svg id="Layer_1" data-name="Layer 1" xmlns="http://www.w3.org/2000/svg" viewBox="0 0 468.09 122"><title>logo_9</title><path d="M147.5,35.45h1.85l2.41,0a18.25,18.25,0,0,1,2.17.24,6.11,6.11,0,0,1-.07-.66c0-.22,0-.42.07-.66h-8.55V49.32h8.69a6.1,6.1,0,0,1-.07-.66c0-.22,0-.42.07-.66a18.83,18.83,0,0,1-2.21.2c-1.44,0-2.89.13-4.36.09V41.9h3.73c.72,0,1.42.09,2.14.11,0-.24-.07-.44-.07-.61a4.15,4.15,0,0,1,.07-.57c-.72,0-1.42.11-2.14.11H147.5Zm-39.3,0H110l2.41,0a18.25,18.25,0,0,1,2.17.24,6.11,6.11,0,0,1-.07-.66c0-.22,0-.42.07-.66h-8.55V49.32h8.69a6.1,6.1,0,0,1-.07-.66c0-.22,0-.42.07-.66a18.84,18.84,0,0,1-2.21.2c-1.44,0-2.89.13-4.36.09V41.9h3.73c.72,0,1.42.09,2.14.11,0-.24-.07-.44-.07-.61a4.15,4.15,0,0,1,.07-.57c-.72,0-1.42.11-2.14.11H108.2Zm-12.38-1c-.39,0-.72.07-1.06.07s-.72,0-1.06-.07V49.32h8.76a6,6,0,0,1-.07-.66c0-.22,0-.42.07-.66-.77.09-1.52.18-2.29.2-1.44,0-2.89.13-4.36.09Zm-12.38,0c-.39,0-.72.07-1.06.07s-.72,0-1.06-.07V49.32h8.76a6.1,6.1,0,0,1-.07-.66c0-.22,0-.42.07-.66-.77.09-1.52.18-2.29.2-1.44,0-2.89.13-4.36.09Zm-9,15c.34,0,.7-.07,1.06-.07s.67,0,1.06.07v-15c-.39,0-.72.07-1.06.07s-.72,0-1.06-.07Zm-8.77-5c-.39.9-.89,1.75-1.35,2.65h-.22l-3-6.63-1.61-3.83c-.29-.72-.58-1.44-.89-2.12-.43,0-.79.07-1.18.07s-.79,0-1.16-.07c1.06,1.86,4.57,9.83,7.32,15a4,4,0,0,1,.51-.07,4.24,4.24,0,0,1,.48.07c.87-2.43,6.19-13.64,7-15-.31,0-.6.07-.87.07s-.6,0-.89-.07l-.17.35-1.44,3.66Zm64.24-9c1,0,2-.09,3-.09,5.31,0,7.37,1.68,7.37,6.31,0,2.66-.85,5.09-3.41,6.27-1.92.9-4.86.63-6.95.52Zm-2.09,14h4.62c2.51,0,5.14,0,7.16-1.66a7.75,7.75,0,0,0,3-6.44,6.66,6.66,0,0,0-2.54-5.46c-2-1.53-4.39-1.31-6.85-1.31h-5.38Zm19.66,9.14V72.34c1.47,0,2.91,0,4.36-.09.77,0,1.52-.11,2.29-.2,0,.24-.07.44-.07.66a6.12,6.12,0,0,0,.07.66h-8.76V58.47c.34,0,.7.07,1.06.07S147.14,58.49,147.53,58.47Zm-10.46,8.14L134.4,61l-2.62,5.6Zm-1.81-8.47,7.22,15.3c-.46,0-.84-.07-1.25-.07s-.87,0-1.28.07c-.7-1.82-1.56-3.92-2.53-5.91h-6.11c-.84,1.93-1.71,3.85-2.38,5.91-.34,0-.6-.07-.89-.07s-.58,0-.84.07l7.51-15.3ZM122,66.72v6.72c-.39,0-.72-.07-1.06-.07s-.72,0-1.06.07v-6.3L114,58.47c.43,0,.89.07,1.35.07s.84,0,1.32-.07c.94,1.69,3.8,6.28,4.57,7.33.82-.88,3.9-6.17,4.6-7.33.29,0,.63.07.94.07s.6,0,.94-.07c-.6.7-1.18,1.44-1.71,2.19l-2.65,3.87A17.61,17.61,0,0,0,122,66.72Zm-16.92,7c-5.32,0-8.86-3.06-8.86-7.75s3.92-7.81,8.91-7.81c4.53,0,9.12,2.23,9.12,7.48C114.28,70.5,110.47,73.7,105.11,73.7Zm6.81-7.9A6.78,6.78,0,0,0,110.4,61a6.65,6.65,0,0,0-5-2.12c-4.24,0-6.79,2.91-6.79,7.35s3,6.76,6.57,6.76C110.26,73,112.09,68.2,111.92,65.8Zm-29.6,7.64v-15h5.1c3.71,0,5.34,1.12,5.34,3.33,0,2.54-2.5,3.76-4.93,4.16l5,5.71,1.16,1.23.46.55c-.51,0-.94-.07-1.4-.07s-.94,0-1.37.07c-.53-.68-1-1.29-1.52-1.9l-2.84-3.35-1.93-2.06h-.92v7.31c-.39,0-.72-.07-1.06-.07S82.65,73.41,82.32,73.43Zm2.12-14.16v6a14.7,14.7,0,0,0,3.11-.11c1.76-.33,3.08-1.42,3.08-3.13,0-1.51-.84-2.5-2.65-2.76A23.78,23.78,0,0,0,84.43,59.27ZM72.8,69.21V67.85h6v1.36Zm-4.61-9.69v14c-.39,0-.72-.07-1.06-.07s-.72,0-1.06.07v-14a49.44,49.44,0,0,0-5.27.26,6.09,6.09,0,0,0,.07-.66c0-.22,0-.42-.07-.66H73.22c0,.24-.07.44-.07.66a6.12,6.12,0,0,0,.07.66A46.13,46.13,0,0,0,68.19,59.52ZM57.57,58.47v15h-.72c-.26-.31-.75-.83-1.25-1.33L45.2,61.64H45v11.8c-.24,0-.46-.07-.67-.07a6.31,6.31,0,0,0-.67.07v-15h.94L56,69.74h.24V58.47a6.32,6.32,0,0,0,.67.07C57.11,58.53,57.33,58.49,57.57,58.47ZM30.62,73.7c-5.32,0-8.86-3.06-8.86-7.75s3.92-7.81,8.91-7.81c4.53,0,9.12,2.23,9.12,7.48C39.79,70.5,36,73.7,30.62,73.7Zm6.81-7.9A6.78,6.78,0,0,0,35.92,61a6.65,6.65,0,0,0-5-2.12c-4.24,0-6.79,2.91-6.79,7.35s3,6.76,6.57,6.76C35.77,73,37.6,68.2,37.43,65.8ZM16.68,58.47h.51c.63,5.41,1.3,10.79,1.95,15-.43,0-.77-.07-1.13-.07s-.77,0-1.13.07c-.41-4.4-.89-9.13-1.23-11.29A126.09,126.09,0,0,0,9.34,73.19H9.08L7.75,70.72C6.21,67.83,4.53,65,2.89,62.14c-.53,4.27-1.18,8.6-1.18,11.29-.31,0-.58-.07-.84-.07s-.58,0-.87.07c.63-3.52,2.07-12.67,2.31-15h.63c1.93,3.48,4.24,7.59,6.81,11.47C12,66.19,14.25,62.38,16.68,58.47Z" fill="#002c77" fill-rule="evenodd"/><path d="M399,49.41c.34,0,.7-.07,1.06-.07s.67,0,1.06.07V41.92h3.73c.72,0,1.42.09,2.14.11,0-.24-.07-.44-.07-.61a4.07,4.07,0,0,1,.07-.57c-.72,0-1.42.11-2.14.11H401.1V35.47H403l2.41,0a18.17,18.17,0,0,1,2.17.24,6,6,0,0,1-.07-.66c0-.22,0-.42.07-.66H399Zm-12.65.26c5.37,0,9.17-3.2,9.17-8.08,0-5.25-4.6-7.48-9.12-7.48-5,0-8.91,3-8.91,7.81S381,49.67,386.33,49.67Zm6.81-7.9c.17,2.41-1.66,7.18-6.74,7.18-3.59,0-6.57-2.32-6.57-6.76s2.55-7.35,6.79-7.35a6.64,6.64,0,0,1,5,2.12A6.78,6.78,0,0,1,393.14,41.77Zm-26.27-7.33c-.24,0-.46.07-.67.07a6.45,6.45,0,0,1-.67-.07V45.71h-.24L353.85,34.44h-.94v15a6.3,6.3,0,0,1,.67-.07c.22,0,.43,0,.67.07V37.61h.24l10.4,10.46c.51.5,1,1,1.25,1.33h.72ZM330.66,46.52c.34.94.63,1.88,1,2.89.26,0,.53-.07.82-.07s.51,0,.79.07l4.67-12.28h.19c1.52,4.29,4.07,11.42,4.36,12.28.26,0,.53-.07.79-.07s.51,0,.79.07l4.6-12.17c.36-1,.77-1.9,1.2-2.8-.31,0-.58.07-.84.07s-.58,0-.84-.07l-.58,1.79-2.82,8.25c-.29.83-.6,1.66-1,2.49h-.22c-2.17-6-4.12-11-4.57-12.54-.24,0-.46.07-.67.07a6.94,6.94,0,0,1-.7-.07C337.06,36.3,334.51,43,333,47h-.22l-2-5.78-1.42-4.44c-.24-.79-.46-1.58-.72-2.32-.41,0-.77.07-1.11.07s-.77,0-1.13-.07Zm-15.11,3.15c5.37,0,9.17-3.2,9.17-8.08,0-5.25-4.6-7.48-9.12-7.48-5,0-8.91,3-8.91,7.81S310.24,49.67,315.56,49.67Zm6.81-7.9c.17,2.41-1.66,7.18-6.74,7.18-3.59,0-6.57-2.32-6.57-6.76s2.55-7.35,6.79-7.35a6.64,6.64,0,0,1,5,2.12A6.78,6.78,0,0,1,322.37,41.77Zm-21.56-6.28a46.1,46.1,0,0,1,5,.26,6.11,6.11,0,0,1-.07-.66c0-.22,0-.42.07-.66H293.42c0,.24.07.44.07.66a6,6,0,0,1-.07.66,49.43,49.43,0,0,1,5.27-.26v14c.34,0,.7-.07,1.06-.07s.67,0,1.06.07Zm160.64,23c-.39,0-.72.07-1.06.07s-.72,0-1.06-.07v14.9h8.76a6.12,6.12,0,0,1-.07-.66c0-.22,0-.42.07-.66-.77.09-1.52.18-2.29.2-1.44,0-2.89.13-4.36.09Zm-10.36,8.14h-5.3l2.62-5.6Zm-1.81-8.47h-.55l-7.51,15.3c.26,0,.53-.07.84-.07s.55,0,.89.07c.67-2.06,1.54-4,2.38-5.91h6.11c1,2,1.83,4.09,2.53,5.91.41,0,.82-.07,1.28-.07s.79,0,1.25.07Zm-13.15,8.58a17.61,17.61,0,0,1,1.35-2.19l2.65-3.87c.53-.74,1.11-1.49,1.71-2.19-.34,0-.65.07-.94.07s-.65,0-.94-.07c-.7,1.16-3.78,6.46-4.6,7.33-.77-1.05-3.63-5.65-4.57-7.33-.48,0-.91.07-1.32.07s-.91,0-1.35-.07l5.9,8.67v6.3c.34,0,.7-.07,1.06-.07s.67,0,1.06.07Zm-17.55,7c5.37,0,9.17-3.2,9.17-8.08,0-5.25-4.6-7.48-9.12-7.48-5,0-8.91,3-8.91,7.81S413.26,73.7,418.58,73.7Zm6.81-7.9c.17,2.41-1.66,7.18-6.74,7.18-3.59,0-6.57-2.32-6.57-6.76s2.55-7.35,6.79-7.35a6.64,6.64,0,0,1,5,2.12A6.78,6.78,0,0,1,425.39,65.8Zm-29.51,7.64c.34,0,.7-.07,1.06-.07s.67,0,1.06.07V66.12h.92l1.93,2.06,2.84,3.35c.51.61,1,1.23,1.52,1.9.43,0,.91-.07,1.37-.07s.89,0,1.4.07l-.46-.55-1.16-1.23-5-5.71c2.43-.39,4.93-1.62,4.93-4.16,0-2.21-1.64-3.33-5.34-3.33h-5.1ZM398,59.28a23.73,23.73,0,0,1,3.54,0c1.81.26,2.65,1.25,2.65,2.76,0,1.71-1.32,2.8-3.08,3.13a14.7,14.7,0,0,1-3.11.11Zm-17,.24a46.14,46.14,0,0,1,5,.26,6.12,6.12,0,0,1-.07-.66c0-.22,0-.42.07-.66H373.63c0,.24.07.44.07.66a6.12,6.12,0,0,1-.07.66,49.45,49.45,0,0,1,5.27-.26v14c.34,0,.7-.07,1.06-.07s.67,0,1.06.07Zm-10.55-1.05c-.24,0-.46.07-.67.07a6.32,6.32,0,0,1-.67-.07V69.74h-.24L357.45,58.47h-.94v15a6.31,6.31,0,0,1,.67-.07c.22,0,.43,0,.67.07V61.64h.24L368.5,72.1c.51.5,1,1,1.25,1.33h.72Zm-31,0c-.38,0-.72.07-1.06.07s-.72,0-1.06-.07v8.75c0,1.75.22,3.7,1.73,4.95a7.72,7.72,0,0,0,5.22,1.53c4.24,0,7-2.19,7-6.52V58.47c-.24,0-.46.07-.67.07a6.31,6.31,0,0,1-.67-.07v8.16c0,3.55-1.37,6.06-5.2,6.06-4.12,0-5.32-2-5.32-5.84ZM324.55,73.7c5.37,0,9.17-3.2,9.17-8.08,0-5.25-4.6-7.48-9.12-7.48-5,0-8.91,3-8.91,7.81S319.23,73.7,324.55,73.7Zm6.81-7.9c.17,2.41-1.66,7.18-6.74,7.18-3.59,0-6.57-2.32-6.57-6.76s2.55-7.35,6.79-7.35a6.64,6.64,0,0,1,5,2.12A6.78,6.78,0,0,1,331.36,65.8Zm-20.68-7.33c-2.43,3.92-4.65,7.73-6.93,11.47-2.58-3.87-4.89-8-6.81-11.47h-.63c-.24,2.3-1.69,11.45-2.31,15,.29,0,.55-.07.87-.07s.53,0,.84.07c0-2.69.65-7,1.18-11.29,1.64,2.84,3.32,5.69,4.86,8.58l1.32,2.47h.27a126,126,0,0,1,6.31-11.05c.34,2.17.82,6.89,1.23,11.29.36,0,.75-.07,1.13-.07s.7,0,1.13.07c-.65-4.18-1.32-9.56-1.95-15Z" fill="#002c77" fill-rule="evenodd"/><path d="M185.93,78.42V34.13h76.59V78.45c-.12,4.05-2.59,11-15.2,11-2.45,0-4.73-.08-6.88-.08a38.39,38.39,0,0,0-6.24.4,16.73,16.73,0,0,0-10.08,5.39,16.45,16.45,0,0,0-9.9-5.4,37,37,0,0,0-6.15-.4c-2.13,0-4.43.08-6.92.08C188.49,89.45,186,82.47,185.93,78.42Zm15.2,12.13c-13.29,0-16.18-7.51-16.3-12.1V0h78.79V78.45c-.12,4.59-3,12.1-16.3,12.1-9.79,0-17-1.28-23.2,6.29C217.87,89.26,211.12,90.55,201.14,90.55Z" fill="#002c77" fill-rule="evenodd"/><path d="M233.62,27.41l1.11,1.09,1.11-1.09-1.11-1.09Zm-5.34,0,1.11,1.09,1.11-1.09-1.11-1.09Zm-5.38,0L224,28.5l1.1-1.09L224,26.31Zm-5.3,0,1.11,1.09,1.1-1.09-1.11-1.09Zm-5.34,0,1.11,1.09,1.11-1.09-1.11-1.09Zm-1.48-1.71h26.46v3.43H210.77Zm11.36-13.08c-2,2.87-5.24,5.17-3.38,11.76-.21-.4-1-.37-1.33.18a1.64,1.64,0,0,1,.26-.74c.1-.21.1-.67-.49-1.39-.59.72-.59,1.18-.49,1.39a8.11,8.11,0,0,1,.35.74c-.41-.62-1.38-.58-1.43,0-1.62-5.08-.51-8.07.82-9.65-2.51,1.69-4.45,4.5-3.1,9.44a.83.83,0,0,0-1.34.26,1.88,1.88,0,0,1,.29-.79c.1-.21.1-.67-.49-1.39-.59.72-.59,1.18-.49,1.39a6.36,6.36,0,0,1,.36.79c-.39-.68-1.45-.64-1.45,0-4.46-6.17.85-9.28,6.87-11.94A37,37,0,0,0,224,7.93,37,37,0,0,0,231,12.67c6,2.66,11.33,5.77,6.87,11.94,0-.64-1.06-.68-1.41,0a2.89,2.89,0,0,1,.32-.79c.1-.21.1-.67-.49-1.39-.59.72-.59,1.18-.49,1.39a6.36,6.36,0,0,1,.36.79c-.37-.57-1.17-.63-1.41-.26,1.35-4.94-.59-7.75-3.1-9.44,1.33,1.58,2.45,4.57.88,9.65-.11-.58-1.08-.62-1.44,0a2.53,2.53,0,0,1,.3-.74c.1-.21.1-.67-.49-1.39-.59.72-.59,1.18-.49,1.39a8,8,0,0,1,.35.74c-.41-.55-1.21-.58-1.42-.18,1.86-6.6-1.36-8.89-3.38-11.77a16,16,0,0,1-.86-1.39c.89,3.39,2.07,9.16.73,13.37-.15-.64-1.21-.68-1.55,0a2.89,2.89,0,0,1,.32-.79c.1-.21.1-.67-.49-1.39-.59.72-.59,1.18-.49,1.39a6.33,6.33,0,0,1,.36.79c-.43-.68-1.48-.64-1.48,0h-.23c-1.33-4.21-.16-10,.73-13.37A16,16,0,0,1,222.13,12.62Zm1.95-8.78c.77.74.47,1.27.46,1.32l-.19.46a.86.86,0,0,1,1.28,0,.58.58,0,0,1-.3.83c0-.57-.62-.6-.58.11l0,.18h-.25c0,.27.24.38.36.34,0,.13-.26.21-.47.15a.41.41,0,0,1-.31.43.39.39,0,0,1-.26-.43c-.21.06-.48,0-.49-.15a.34.34,0,0,0,.37-.34h-.25V6.55c0-.61-.56-.76-.6-.1a.58.58,0,0,1-.3-.84.85.85,0,0,1,1.3,0l-.2-.47S223.29,4.59,224.08,3.83Z" fill="#d9a800"/><path d="M276.89,102.63l-6.25,6.25,6.22,6.22H264.35v-9.85l-2.63-2.63Zm-13.73,2.7-2.94-2.95v3ZM243,109.91c1.08,0,1.52,1.2,1.52,2.25,0,1.35-.5,2.6-1.61,2.6s-1.51-1.12-1.51-2.18C241.38,110.76,242,109.91,243,109.91Zm-6.59.13h.71c1,0,1.66.6,1.66,2.13,0,1.9-.76,2.46-1.76,2.46h-.62Zm27-3.91,0,12.28H234.16v-9.65l-2.63-2.63Zm-12,6.75a4.24,4.24,0,0,0,.12,1,1.94,1.94,0,0,0,2.09,1.37,2.15,2.15,0,0,0,1.37-.43c.75-.59.75-1.43.77-2.36v-2.89l-.29,0-.29,0V112a7.18,7.18,0,0,1-.13,1.68,1.22,1.22,0,0,1-1.29,1,1.08,1.08,0,0,1-.82-.35,1.56,1.56,0,0,1-.38-.93,12,12,0,0,1-.05-1.54v-2.31c-.18,0-.36,0-.54,0s-.36,0-.54,0Zm-5.27,2.24.29,0,.29,0v-3.93l.79.93c.82,1,1.6,2,2.44,3h.61v-5.58l-.29,0-.29,0v3.8c-1-1.31-2.1-2.54-3.13-3.8h-.72Zm-.46-2.81a2.62,2.62,0,0,0-2.68-2.89,2.75,2.75,0,0,0-2.85,2.93,2.59,2.59,0,0,0,2.68,2.9A2.79,2.79,0,0,0,245.71,112.31Zm-10.4-2.75v5.54h2a2.65,2.65,0,0,0,2.63-2.93,2.31,2.31,0,0,0-2.19-2.61Zm24,3.82c-.57-1.28-1.14-2.54-1.66-3.82a1.91,1.91,0,0,1-.3,0,1.82,1.82,0,0,1-.3,0c-.25,2.06-.48,3.94-.74,5.58a2.35,2.35,0,0,1,.33,0,2.45,2.45,0,0,1,.34,0c0-1.14.14-2.27.3-3.7.55,1.28,1.12,2.54,1.58,3.66a.62.62,0,0,1,.27,0c.51-1.26,1.06-2.5,1.61-3.75.11,1.25.25,2.5.31,3.79.2,0,.38,0,.59,0s.4,0,.6,0c-.25-1.62-.41-3.39-.64-5.58a2,2,0,0,1-.31,0,1.9,1.9,0,0,1-.3,0C260.41,111,259.79,112.23,259.27,113.39ZM233,108.83,230,105.88v3ZM215.44,122v-12.3h17.64V122Zm-43.83-19.37,6.25,6.25-6.22,6.22h12.51v-9.85l2.63-2.63Zm13.73,2.7,2.94-2.95v3Zm1.88,4.68c.44,0,1-.06,1.1.61a2.28,2.28,0,0,1,0,.41c0,.84-.38,1.24-1.14,1.16Zm-2.15-3.87H217l-2.63,2.63v9.65H185.1Zm17,6.75a4.24,4.24,0,0,0,.12,1,1.94,1.94,0,0,0,2.09,1.37,2.15,2.15,0,0,0,1.37-.43c.75-.59.75-1.43.77-2.36v-2.89l-.29,0-.29,0V112a7.16,7.16,0,0,1-.13,1.68,1.22,1.22,0,0,1-1.29,1,1.08,1.08,0,0,1-.82-.35,1.56,1.56,0,0,1-.38-.93,11.92,11.92,0,0,1-.05-1.54v-2.31c-.18,0-.36,0-.54,0s-.36,0-.54,0Zm-2.31,2.26c.18,0,.36,0,.54,0s.36,0,.54,0v-5.58c-.18,0-.36,0-.54,0s-.36,0-.54,0Zm-1.11-2.51c-.18,0-.36,0-.54,0s-.36,0-.54,0v1.9a1.43,1.43,0,0,1-.8.23c-1.1,0-1.74-.85-1.74-2.26s.59-2.59,1.8-2.59a1.64,1.64,0,0,1,1.43.83c.13-.28.2-.56.3-.82a3.13,3.13,0,0,0-1.74-.5,2.82,2.82,0,0,0-3,3.06,2.65,2.65,0,0,0,2.89,2.77,6.58,6.58,0,0,0,1.93-.37Zm-8.11-3.06v5.54h2.76a1.71,1.71,0,0,1,0-.7,11.92,11.92,0,0,1-1.67.11v-2.06h.75a5.89,5.89,0,0,1,.89.07,1.71,1.71,0,0,1,0-.7,5.89,5.89,0,0,1-.89.07h-.75v-1.75a9.13,9.13,0,0,1,1.67.11,1.71,1.71,0,0,1,0-.7Zm-4.38,5.58c.18,0,.36,0,.54,0s.36,0,.54,0l.05-2.61c.16.31.36.68.47.9l.86,1.71c.22,0,.43,0,.65,0s.44,0,.66,0l-.28-.5c-.43-.76-.88-1.5-1.28-2.28a1.41,1.41,0,0,0,1.13-1.46,1.24,1.24,0,0,0-.63-1.16,2.6,2.6,0,0,0-1.17-.16h-1.54Zm24.09-1.76c-.57-1.28-1.14-2.54-1.66-3.82a1.92,1.92,0,0,1-.3,0,1.82,1.82,0,0,1-.3,0c-.25,2.06-.48,3.94-.74,5.58a2.34,2.34,0,0,1,.33,0,2.44,2.44,0,0,1,.34,0c0-1.14.14-2.27.3-3.7.55,1.28,1.12,2.54,1.58,3.66a.62.62,0,0,1,.27,0c.51-1.26,1.06-2.5,1.61-3.75.11,1.25.25,2.5.31,3.79.2,0,.38,0,.59,0s.4,0,.6,0c-.25-1.62-.41-3.39-.64-5.58a2,2,0,0,1-.31,0,1.9,1.9,0,0,1-.3,0C211.35,111,210.74,112.23,210.22,113.39Zm5.3-4.56,2.94-2.95v3Z" fill="#002c77" fill-rule="evenodd"/><path d="M242.51,46.95c2.44,1.81,3.84,2.17,5.44.82a2.44,2.44,0,0,1-2.53,1.92C243.26,49.6,242.51,46.95,242.51,46.95Zm4.41.4c1.06-1.72,1.42-1.51,1.43-3.59a1.33,1.33,0,0,1,1.37,1.7C249.32,48.38,246.92,47.35,246.92,47.35ZM247,45c-.43-2.25-1.09-2.72-3.3-2.61-.05,0,1.85-1.89,3.12-.89S247,45,247,45Zm-1,1.46c-.59.57.52,1.3.52,1.3-.67.18-1.38-.51-1.95-1.12a1.24,1.24,0,0,1,.07-1.78,1.07,1.07,0,0,1,1.51,0A1.25,1.25,0,0,1,245.94,46.48Zm-2.3.66s-2.74-1-1.94-2.82,3.46-.87,3.4-.86C243.6,43.78,242.42,44.49,243.64,47.14Zm4.6-6.3c-1.51-1.18-5.33-.06-6.15,1.67,0,.07-1-2.64,2.54-3.69A2.8,2.8,0,0,1,248.24,40.84Zm-6.38,1c-1.59,1-1.85,5.1-.53,6.48a1.09,1.09,0,0,1-.49,0c1,1.61,4.23,2.7,5.74,1.87.06,0-.71,2.73-4.19,1.46a2.77,2.77,0,0,1-1.87-3.43c-.8-.3-1.89-1.17-1.75-3.56A2.79,2.79,0,0,1,241.87,41.79Zm4.44,9.14c1.89,0,4.34-3.15,4-5,0-.07,2.33,1.54.08,4.52A2.75,2.75,0,0,1,246.31,50.94Zm4.91-4c.63-1.82-1.66-5-3.52-5.24-.07,0,2.15-1.78,4.23,1.34A2.6,2.6,0,0,1,251.22,47Zm-45.59.37s-.75,2.65-2.91,2.74a2.44,2.44,0,0,1-2.53-1.92C201.79,49.52,203.19,49.16,205.63,47.35Zm-4.41.4s-2.4,1-2.8-1.89a1.33,1.33,0,0,1,1.37-1.7C199.8,46.25,200.16,46,201.22,47.75Zm-.06-2.34s-1.13-2.47.17-3.5,3.17.89,3.12.89C202.25,42.69,201.59,43.17,201.16,45.42Zm1,1.46a1.25,1.25,0,0,1-.14-1.55,1.07,1.07,0,0,1,1.51,0,1.24,1.24,0,0,1,.07,1.78c-.57.62-1.28,1.3-1.95,1.12C201.68,48.18,202.79,47.45,202.2,46.88Zm2.3.66c1.22-2.65,0-3.36-1.45-3.68-.06,0,2.61-.91,3.4.86S204.5,47.54,204.5,47.54Zm-4.6-6.3a2.8,2.8,0,0,1,3.61-2c3.54,1.05,2.57,3.76,2.54,3.69C205.23,41.19,201.4,40.07,199.9,41.25Zm6.38,1A2.79,2.79,0,0,1,209.35,45c.14,2.39-1,3.26-1.75,3.56A2.77,2.77,0,0,1,205.73,52c-3.48,1.28-4.25-1.49-4.19-1.46,1.51.83,4.77-.27,5.74-1.87a1.09,1.09,0,0,1-.49,0C208.12,47.3,207.86,43.24,206.27,42.2Zm-4.44,9.14a2.75,2.75,0,0,1-4.08-.52c-2.25-3,.09-4.59.08-4.52C197.49,48.19,199.94,51.39,201.83,51.34Zm-4.91-4a2.6,2.6,0,0,1-.71-3.91c2.09-3.12,4.31-1.35,4.23-1.34C198.58,42.41,196.3,45.56,196.92,47.39Z" fill="#ed081b" fill-rule="evenodd"/><path d="M224.08,55.25c8.06,0,33.08,15.08,38.44,18.37v4.83c-.12,4.05-2.59,11-15.2,11-2.45,0-4.73-.08-6.88-.08a38.39,38.39,0,0,0-6.24.4,16.73,16.73,0,0,0-10.08,5.39,16.45,16.45,0,0,0-9.9-5.4,37,37,0,0,0-6.15-.4c-2.13,0-4.43.08-6.92.08-12.65,0-15.1-7-15.2-11v-5C191.88,69.79,216.16,55.25,224.08,55.25ZM206.83,41.43c-.09-.45-.28-.43,0-.73.52-.69,1.35-.81,1.55-1-.2.24-.15,1.1-.79,1.7C207.29,41.6,207.24,41.45,206.83,41.43Zm-7.56-.49c-.45-.05-.48.14-.69-.18-.48-.72-.33-1.56-.49-1.82.16.27,1,.48,1.34,1.29C199.58,40.55,199.42,40.54,199.27,40.94Zm-3,6.75c-.19.42,0,.51-.38.62-.82.24-1.56-.16-1.85-.09.3-.07.75-.8,1.62-.91C196,47.27,195.95,47.42,196.27,47.69ZM202,52c.33.31.47.18.46.56,0,.87-.63,1.46-.66,1.77,0-.31-.51-1-.34-1.85C201.54,52.18,201.66,52.28,202,52Zm6.38-3.28c.39-.22.31-.4.66-.27.8.29,1.17,1.06,1.44,1.18-.28-.12-1.07.19-1.83-.24C208.37,49.26,208.5,49.17,208.39,48.77Zm-4.54,9s-2.14.72-3.4-.06c-.53-.33-.43-1.16-.51-1.27l-.13-.19c.17.06.1,0,.21,0s.57-.74,1.19-.65c1.46.21,2.66,2.16,2.66,2.16Zm-3.91-4.45c0-.11.49-.18.47-.07a13.68,13.68,0,0,1-3.38,5.9,22.76,22.76,0,0,1-5.74,3.64s-.4-.67-.3-.71A17.85,17.85,0,0,0,196.17,59,13.25,13.25,0,0,0,199.94,53.34ZM202,60.29s-2.14.72-3.4-.06c-.53-.33-.43-1.17-.51-1.27l-.13-.19c.17.06.1,0,.21,0s.57-.74,1.19-.65c1.46.21,2.66,2.16,2.66,2.16Zm-8.78-5.38s2.28.05,3.19,1.23c.39.5,0,1.25,0,1.37s-.05.07.09.19c-.21-.13-.12,0-.23,0s-.79.49-1.33.19C193.69,57.15,193.23,54.9,193.23,54.9Zm59.69-2.79s-.46,2.25-1.75,3c-.55.3-1.2-.21-1.33-.19l-.23,0c.14-.12.05-.09.09-.19s-.34-.87,0-1.37c.91-1.18,3.16-1.26,3.16-1.26ZM241.31,41c-.42,0-.46.17-.71-.06-.64-.61-.59-1.46-.79-1.7.2.23,1,.35,1.55,1C241.59,40.6,241.4,40.58,241.31,41Zm7.56-.49c-.15-.4-.31-.39-.16-.71.37-.81,1.18-1,1.34-1.29-.16.26,0,1.1-.49,1.82C249.35,40.67,249.31,40.48,248.87,40.54Zm3,6.75c.32-.26.27-.42.61-.37.87.11,1.32.83,1.62.91-.29-.07-1,.33-1.85.09C251.89,47.8,252.06,47.7,251.87,47.28Zm-5.74,4.35c.35.23.47.13.54.48.17.87-.36,1.54-.34,1.85,0-.3-.63-.9-.66-1.77C245.66,51.82,245.8,51.95,246.13,51.64Zm-6.38-3.28c-.11.41,0,.5-.28.67-.76.43-1.55.12-1.83.24.28-.12.64-.88,1.44-1.18C239.44,48,239.36,48.14,239.75,48.36Zm4.54,9s1.18-2,2.64-2.19c.62-.09,1.06.62,1.19.65s0,.08.21,0c-.21.12-.07.1-.13.19s0,.94-.51,1.27C246.43,58.11,244.29,57.39,244.29,57.39Zm3.91-4.45A13.25,13.25,0,0,0,252,58.61a17.85,17.85,0,0,0,5.18,3.08c.1,0-.35.75-.3.71a22.77,22.77,0,0,1-5.74-3.64,13.68,13.68,0,0,1-3.38-5.9C247.71,52.76,248.23,52.83,248.2,52.94Zm-2.07,6.94s1.18-2,2.64-2.19c.62-.09,1.06.62,1.19.65s0,.08.21,0c-.21.12-.07.1-.13.19s0,.94-.51,1.27C248.27,60.6,246.13,59.88,246.13,59.88Zm8.78-5.38s-.46,2.25-1.75,3c-.55.3-1.2-.21-1.33-.19l-.23,0c.14-.12.05-.09.09-.19s-.34-.87,0-1.37c.91-1.18,3.16-1.26,3.16-1.26Zm-59.69-2s2.28.05,3.19,1.23c.39.5,0,1.25,0,1.37s-.05.08.09.19c-.21-.13-.12,0-.23,0s-.79.49-1.33.19C195.68,54.77,195.22,52.51,195.22,52.51Z" fill="#006733" fill-rule="evenodd"/></svg>