<svg xmlns="http://www.w3.org/2000/svg"><symbol viewBox="0 0 77 35.8" id="logo"><title>logo</title> <g> <path d="M37.8,0L4.1,7.7c-0.2,0-0.4,0.2-0.5,0.4l-3.5,7.1C-0.1,15.5,0,15.8,0.2,16c0.1,0.1,0.3,0.2,0.5,0.2c0.1,0,0.2,0,0.3,0
		L6.5,14l3.2,5.8c0,0.1,0.1,0.2,0.2,0.2c0.1,0.1,0.3,0.1,0.4,0.1c0.1,0,0.2,0,0.4-0.1l4.7-2.8l2.8,5.3c0.1,0.2,0.3,0.3,0.5,0.4
		c0,0,0.1,0,0.1,0c0.2,0,0.4-0.1,0.5-0.2L38.4,1.1c0.3-0.3,0.2-0.7-0.1-1C38.2,0,38,0,37.8,0z M2.1,14.2l2.2-4.4l1.6,2.9L2.1,14.2z
		 M10.1,17.6L5.3,8.9l26.6-6.3L12.3,9.9c-0.2,0.1-0.4,0.3-0.4,0.5L10.1,17.6z M11.4,18l1.4-5.6l1.9,3.6L11.4,18z M18.9,21l-5.4-10.2
		l22-8.5L18.9,21z"/> <path d="M61,25.8c-1.2,0-2.4,0.6-3.1,1.5c-0.8-1-1.9-1.5-3.1-1.5c-0.9,0-1.8,0.3-2.5,0.9v-0.4c0-0.1-0.1-0.2-0.2-0.2h-1.2
		c-0.1,0-0.2,0.1-0.2,0.2v9.1c0,0.1,0.1,0.2,0.2,0.2l0,0c0,0,0,0,0.1,0h1.4c0.1,0,0.2-0.1,0.2-0.2v-5.6c0-1.3,1-2.3,2.3-2.3
		c1.3,0,2.3,1,2.3,2.3l0,5.7c0,0.1,0.1,0.2,0.2,0.2h1.4c0.1,0,0.2-0.1,0.2-0.2v-5.6c0-1.3,1-2.3,2.3-2.3c1.3,0,2.3,1,2.3,2.3v5.6
		c0,0.1,0.1,0.2,0.2,0.2h1.4c0.1,0,0.2-0.1,0.2-0.2v-5.6C64.9,27.6,63.2,25.8,61,25.8z"/> <path d="M32.6,25.8c-1.2,0-2.4,0.6-3.1,1.5c-0.8-1-1.9-1.5-3.1-1.5c-0.9,0-1.7,0.3-2.4,0.8v-0.3c0-0.1-0.1-0.2-0.2-0.2h-1.2
		c-0.1,0-0.2,0.1-0.2,0.2v3.5v5.6c0,0.1,0.1,0.2,0.2,0.2h1.4c0.1,0,0.2-0.1,0.2-0.2v-5.6c0-1.3,1-2.3,2.3-2.3c1.3,0,2.3,1,2.3,2.3
		c0,0,0,0,0,0v5.6c0,0.1,0.1,0.2,0.2,0.2h1.4c0.1,0,0.2-0.1,0.2-0.2v-5.6c0-1.3,1-2.3,2.3-2.3c1.3,0,2.3,1,2.3,2.3v5.6
		c0,0.1,0.1,0.2,0.2,0.2h1.4c0.1,0,0.2-0.1,0.2-0.2v-5.6C36.6,27.6,34.8,25.8,32.6,25.8z"/> <path d="M72,25.8c-3.3,0-5,2.6-5,5c0,2.4,1.8,5,5,5c3.3,0,5-2.6,5-5C77,28.4,75.2,25.8,72,25.8z M72,34.1c-1.8,0-3.2-1.4-3.2-3.3v0
		c0-1.9,1.4-3.3,3.2-3.3c1.8,0,3.2,1.4,3.2,3.3C75.2,32.7,73.8,34.1,72,34.1z"/> <path d="M47.2,27.1c-0.9-0.9-2.2-1.4-3.5-1.4c-2.8,0-5,2.2-5,5.1c0,2.5,1.9,5,5,5c1,0,1.9-0.3,2.7-0.8c0.4-0.3,0.9-0.7,1.2-1.1l0,0
		c0.1-0.2,0-0.3-0.1-0.4l-1-0.5c-0.1-0.1-0.3-0.1-0.4,0.1c0,0,0,0,0,0c-0.6,0.8-1.4,1.2-2.5,1.2c-1.5,0-3.1-1-3.2-2.9h8
		c0.1,0,0.2-0.1,0.2-0.1C48.7,29.6,48.2,28.2,47.2,27.1C47.2,27.1,47.2,27.1,47.2,27.1z M40.5,29.9c0.1-1.3,1.3-2.6,3.2-2.6
		c0,0,0,0,0,0c1.8,0,3,1.4,3.1,2.6H40.5z"/> </g> </symbol></svg>