<svg xmlns="http://www.w3.org/2000/svg"><symbol viewBox="-269.1 504.3 12 12" id="arrow-down"><title>arrow-down</title> <g> <path d="M-263.1,513.9c-0.3,0-0.6-0.1-0.8-0.3l-4.9-4.9c-0.5-0.5-0.5-1.2,0-1.6c0.5-0.5,1.2-0.5,1.6,0l4.1,4.1l4-4
		c0.5-0.5,1.2-0.5,1.6,0c0.5,0.5,0.5,1.2,0,1.6l-4.8,4.8C-262.5,513.8-262.8,513.9-263.1,513.9z"/> </g> </symbol><symbol viewBox="0 0 16 16" id="icon-art"><title>icon-art</title> <path d="M4.8,3.7L4.8,3.7c-1,0-1.8,0.8-2.1,2c0,0.1,0,0.2,0.1,0.2C2.9,6,3,6,3.1,5.9c1.2-0.7,2.4-0.7,3.5,0h0.1h0.1
	c0.1-0.1,0.1-0.1,0.1-0.2C6.6,4.5,5.8,3.7,4.8,3.7"/> <path d="M11.1,3.7L11.1,3.7c-1,0-1.8,0.8-2.1,2c0,0.1,0,0.2,0.1,0.2C9.2,6,9.3,6,9.4,5.9c1.2-0.7,2.4-0.7,3.5,0H13h0.1
	c0.1-0.1,0.1-0.1,0.1-0.2C12.9,4.5,12.1,3.8,11.1,3.7"/> <path d="M8,12.8L8,12.8c-2.4,0-4.4-1.9-5-4.7c0-0.2,0-0.5,0.2-0.6c0.2-0.1,0.4-0.1,0.6,0c2.7,1.6,5.6,1.7,8.3,0.1
	c0.2-0.1,0.5-0.1,0.6,0C13,7.7,13.1,7.9,13,8.2C12.3,11,10.4,12.8,8,12.8 M4.5,9.1c0.7,1.6,2,2.5,3.4,2.5s2.7-0.9,3.4-2.5
	C9.2,10.1,6.8,10.1,4.5,9.1"/> <path d="M7.9,16c-1.4,0-2.8-0.4-3.9-1.2c-4.1-2.9-4-6.7-4-10.4v-1c0-0.1,0-0.2,0.1-0.3c1.5-2,4.6-3.1,8-3.1s6.4,1.2,7.8,3.2
	C16,3.3,16,3.4,16,3.5v1c0,3.7,0,7.5-4.2,10.3C10.7,15.6,9.3,16,7.9,16 M1.2,3.6v0.8C1.1,8.1,1,11.3,4.7,13.8c1.9,1.3,4.6,1.3,6.5,0
	c3.7-2.5,3.7-5.7,3.7-9.4V3.6C13.6,2.2,11,1.2,8.1,1.2C5.1,1.2,2.5,2.1,1.2,3.6"/> </symbol><symbol viewBox="0 0 16 16" id="icon-ball"><title>icon-ball</title> <path d="M15.1,0.8C14.2-0.1,11.6-0.3,9,0.4c-0.2,0-0.4,0.1-0.7,0.1c-1.9,0.6-3.7,1.6-5,2.9c-1.2,1.3-2.2,3-2.8,5
	C0.4,8.6,0.4,8.9,0.3,9.1c-0.6,2.6-0.4,5.2,0.4,6.1C1.3,15.7,2.4,16,3.8,16c0.9,0,2-0.1,3-0.4c0.2-0.1,0.5-0.1,0.7-0.2
	c1.9-0.6,3.7-1.6,5-2.9s2.3-3,2.9-5c0.1-0.2,0.1-0.5,0.2-0.7C16.2,4.3,16,1.7,15.1,0.8 M12,1.1c1.2,0,2.1,0.2,2.3,0.5
	c0.4,0.4,0.8,2.4,0.1,5L9.3,1.5C10.3,1.2,11.2,1.1,12,1.1 M6.6,14.5c-2.6,0.6-4.6,0.3-5-0.1C1.2,14,0.8,12,1.5,9.4L6.6,14.5z
	 M11.7,11.7c-1,1-2.4,1.8-3.9,2.4l-6-6c0.5-1.5,1.3-2.8,2.4-3.9c1-1,2.4-1.8,3.9-2.4l6,6C13.5,9.4,12.7,10.7,11.7,11.7"/> <path d="M9.6,7.2l0.6-0.6c0.2-0.2,0.2-0.6,0-0.8s-0.6-0.2-0.8,0L8.8,6.3L7.9,5.5c-0.2-0.2-0.6-0.2-0.8,0c-0.2,0.2-0.2,0.6,0,0.8
	l0.8,0.8L7.1,8L6.3,7.1c-0.2-0.2-0.6-0.2-0.8,0C5.2,7.4,5.2,7.7,5.4,8l0.8,0.8L5.6,9.4c-0.2,0.2-0.2,0.6,0,0.8
	c0.1,0.1,0.3,0.2,0.4,0.2c0.1,0,0.3-0.1,0.4-0.2l0.7-0.6l0.8,0.8c0.1,0.1,0.3,0.2,0.4,0.2c0.1,0,0.3-0.1,0.4-0.2
	c0.2-0.2,0.2-0.6,0-0.8L7.9,8.8L8.8,8l0.8,0.8C9.7,8.9,9.9,9,10,9s0.3-0.1,0.4-0.2c0.2-0.2,0.2-0.6,0-0.8L9.6,7.2z"/> </symbol><symbol viewBox="0 0 16 16.1" id="icon-bike"><title>icon-bike</title> <path d="M11.8,4.7c-0.6,0-1.1-0.2-1.6-0.7C9.8,3.6,9.6,3,9.6,2.4c0-0.6,0.2-1.2,0.7-1.7c0.4-0.4,1-0.6,1.5-0.7C13,0.1,14,1.1,14,2.4
	S13,4.7,11.8,4.7 M10.8,2.4c0,0.3,0.1,0.6,0.3,0.8c0.2,0.2,0.5,0.3,0.7,0.3c0.6,0,1-0.5,1-1.2c0-0.6-0.5-1.1-1-1.1
	c-0.3,0-0.5,0.1-0.7,0.3C10.9,1.8,10.8,2.1,10.8,2.4"/> <path d="M12.7,16.1c-0.9,0-1.7-0.4-2.3-1c-0.6-0.6-1-1.5-1-2.4s0.4-1.8,1-2.5c0.6-0.6,1.4-1,2.3-1c1.8,0,3.3,1.5,3.3,3.4
	S14.5,16.1,12.7,16.1 M10.6,12.7c0,0.6,0.2,1.2,0.6,1.6c0.4,0.4,0.9,0.7,1.5,0.6c1.2,0,2.1-1,2.1-2.3c0-1.2-1-2.3-2.1-2.3
	c-0.5,0-1.1,0.2-1.5,0.6C10.8,11.4,10.6,12,10.6,12.7"/> <path d="M3.3,16.1c-0.9,0-1.7-0.4-2.3-1s-1-1.5-1-2.4s0.3-1.8,1-2.5c0.6-0.6,1.4-1,2.3-1c1.8,0,3.3,1.5,3.3,3.4S5.1,16.1,3.3,16.1
	 M3.3,10.4L3.3,10.4c-0.6,0-1.1,0.2-1.5,0.6c-0.4,0.4-0.7,1-0.7,1.7c0,0.6,0.2,1.2,0.6,1.6c0.4,0.4,1,0.7,1.5,0.6
	c1.2,0,2.1-1,2.1-2.3C5.4,11.4,4.5,10.4,3.3,10.4"/> <path d="M8,13.4c-0.3,0-0.6-0.3-0.6-0.6V9.7L5.6,7.5C5.4,7.3,5.5,6.9,5.7,6.7l2.7-2.4c0.1-0.1,0.3-0.2,0.5-0.1
	c0.2,0,0.3,0.1,0.4,0.3l1.1,2h1.8c0.3,0,0.6,0.3,0.6,0.6c0,0.3-0.3,0.6-0.6,0.6H10c-0.2,0-0.4-0.1-0.5-0.3L8.6,5.6L6.9,7.2l1.6,1.9
	c0.1,0.1,0.1,0.2,0.1,0.4v3.3C8.6,13.2,8.3,13.4,8,13.4"/> </symbol><symbol viewBox="0 0 16 16" id="icon-car"><title>icon-car</title> <path d="M14.6,5.2l-0.2-0.6h1.1C15.7,4.6,16,4.4,16,4c0-0.3-0.3-0.6-0.6-0.6h-1.5l-0.7-2.1C13.1,0.6,12.5,0,11.8,0H4.3
	C3.5,0,2.9,0.6,2.8,1.4L2.1,3.5H0.6C0.3,3.5,0,3.7,0,4s0.3,0.6,0.6,0.6h1.1L1.4,5.2C0.6,5.2,0,5.9,0,6.7v4.4c0,0.8,0.7,1.5,1.5,1.5
	h0.4v1.9c0,0.8,0.7,1.5,1.5,1.5h1C5.3,16,6,15.3,6,14.5v-1.9h3.9v1.9c0,0.8,0.7,1.5,1.5,1.5h1c0.8,0,1.5-0.7,1.5-1.5v-1.9h0.6
	c0.8,0,1.5-0.7,1.5-1.5V6.7C16,5.9,15.4,5.2,14.6,5.2 M4,1.7V1.5c0-0.2,0.1-0.3,0.3-0.3h7.5c0.2,0,0.3,0.2,0.3,0.3v0.2L13,4.2
	c0,0.1,0,0.1,0.1,0.2l0.3,0.8H2.7L4,1.7z M4.8,14.5c0,0.2-0.2,0.3-0.3,0.3h-1c-0.2,0-0.3-0.2-0.3-0.3v-1.9h1.7v1.9H4.8z M12.7,14.5
	c0,0.2-0.2,0.3-0.3,0.3h-1c-0.2,0-0.3-0.2-0.3-0.3v-1.9h1.7v1.9H12.7z M14.8,11.1c0,0.2-0.2,0.3-0.3,0.3h-13c-0.2,0-0.3-0.2-0.3-0.3
	V6.7c0-0.2,0.2-0.3,0.3-0.3h13c0.2,0,0.3,0.2,0.3,0.3V11.1z"/> <path d="M4.2,7.6c0.7,0,1.2,0.6,1.2,1.3s-0.5,1.3-1.2,1.3S3,9.6,3,8.9S3.5,7.6,4.2,7.6"/> <path d="M11.8,7.6c0.7,0,1.2,0.6,1.2,1.3s-0.5,1.3-1.2,1.3c-0.7,0-1.2-0.6-1.2-1.3S11.1,7.6,11.8,7.6"/> </symbol><symbol viewBox="0 0 16 16" id="icon-cone"><title>icon-cone</title> <path d="M15.4,14.8h-1.2L9.2,1C9,0.6,8.6,0,8,0S7,0.6,6.8,1l-5,13.8H0.6c-0.3,0-0.6,0.3-0.6,0.6
	C0,15.7,0.3,16,0.6,16h14.8c0.3,0,0.6-0.3,0.6-0.6C16,15.1,15.7,14.8,15.4,14.8 M11.4,10.5H4.6l1.3-3.6V7H10L11.4,10.5z M7.9,1.4
	c0,0,0-0.1,0.1-0.2c0,0.1,0.1,0.1,0.1,0.2l1.6,4.3H6.3L7.9,1.4z M4.2,11.6h7.6l1.2,3.2H3L4.2,11.6z"/> </symbol><symbol viewBox="0 0 16.1 16" id="icon-date"><title>icon-date</title> <path d="M12.6,1.8h-1.2V0.6c0-0.3-0.3-0.6-0.6-0.6s-0.6,0.3-0.6,0.6v1.3H5.7V0.6C5.7,0.3,5.5,0,5.2,0C4.9,0,4.6,0.3,4.6,0.6v1.3H3.4
	C1.5,1.8,0,3.4,0,5.2v7.4C0,14.5,1.5,16,3.4,16h9.3c1.9,0,3.4-1.5,3.4-3.4V5.2C16,3.4,14.5,1.8,12.6,1.8 M3.4,3h1.2v1.9
	c0,0.3,0.3,0.6,0.6,0.6c0.3,0,0.6-0.3,0.6-0.6V3h4.5v1.9c0,0.3,0.3,0.6,0.6,0.6c0.3,0,0.6-0.3,0.6-0.6V3h1.2c1.2,0,2.2,1,2.2,2.2
	v1.9H1.2V5.2C1.2,4,2.1,3,3.4,3 M12.6,14.8H3.4c-1.2,0-2.2-1-2.2-2.2V8.2h13.7v4.4C14.8,13.9,13.9,14.8,12.6,14.8"/> </symbol><symbol viewBox="0 0 60 60" id="icon-email"><title>icon-email</title> <g> <path d="M5.1,48.5h49.8L37,30.6l-7,5.3l-7-5.4L5.1,48.5z M40.4,28L55,42.6V16.7L40.4,28z M5,42.6l14.6-14.6L5,16.7
		V42.6z M5.2,11.5L30,30.6l24.9-19.1H5.2z"/> </g> </symbol><symbol viewBox="0 0 16.1 16" id="icon-garbage"><title>icon-garbage</title> <path d="M5.2,13.4c0.3,0,0.6-0.3,0.6-0.6V8.7c0-0.3-0.3-0.6-0.6-0.6c-0.3,0-0.6,0.3-0.6,0.6v4.1C4.6,13.2,4.9,13.4,5.2,13.4"/> <path d="M8,13.4c0.3,0,0.6-0.3,0.6-0.6V8.7c0-0.3-0.3-0.6-0.6-0.6c-0.3,0-0.6,0.3-0.6,0.6v4.1C7.4,13.2,7.7,13.4,8,13.4"/> <path d="M10.8,13.4c0.3,0,0.6-0.3,0.6-0.6V8.7c0-0.3-0.3-0.6-0.6-0.6c-0.3,0-0.6,0.3-0.6,0.6v4.1C10.2,13.2,10.5,13.4,10.8,13.4"/> <path d="M15.4,2.5h-4.1V0.6C11.3,0.3,11,0,10.7,0H5.2C4.9,0,4.6,0.3,4.6,0.6v1.9h-4C0.3,2.5,0,2.7,0,3.1v3.2c0,0.3,0.3,0.6,0.6,0.6
	h0.8l0.9,8.6c0,0.3,0.3,0.5,0.6,0.5h10.3c0.3,0,0.5-0.2,0.6-0.5l0.9-8.6h0.8c0.3,0,0.6-0.3,0.6-0.6V3.1C16,2.7,15.7,2.5,15.4,2.5
	 M5.8,1.2h4.4v1.3H5.8V1.2z M12.6,14.8H3.4l-0.8-8h11L12.6,14.8z M14.8,5.7H1.2V3.6h13.7L14.8,5.7L14.8,5.7z"/> </symbol><symbol viewBox="0 0 12.6 16" id="icon-leaf"><title>icon-leaf</title> <path d="M9,8.5c0.3-0.1,0.3-0.4,0.1-0.7C8.9,7.6,8.6,7.6,8.4,7.7L6.8,9V6.5C6.8,6.2,6.5,6,6.2,6C5.9,6,5.7,6.2,5.7,6.5v3.9L4.3,9.1
	C4,9,3.7,9,3.5,9.2C3.3,9.4,3.3,9.7,3.6,9.9l2.1,1.7v3.9c0,0.3,0.2,0.5,0.5,0.5c0.3,0,0.5-0.2,0.5-0.5v-5.1L9,8.5z"/> <path d="M12,7.2c-2.3-4.6-5.3-7-5.4-7.1C6.4,0,6.2,0,6,0.1C5.8,0.2,2.9,2.6,0.6,7.2c-0.7,1.4-0.8,2.6-0.2,3.7
	c1.1,1.9,4.1,2.4,4.2,2.4h0.1c0.3,0,0.5-0.2,0.5-0.4c0-0.3-0.2-0.5-0.4-0.6c0,0-2.6-0.4-3.4-1.9C1,9.7,1,8.7,1.6,7.6
	c1.7-3.4,3.9-5.7,4.7-6.4c0.8,0.8,3,3,4.8,6.5c0.6,1.1,0.6,2,0.2,2.8c-0.8,1.5-3.4,1.9-3.4,1.9c-0.3,0-0.5,0.3-0.4,0.6
	c0,0.3,0.3,0.5,0.6,0.4c0.1,0,3.1-0.5,4.2-2.4C12.8,9.9,12.8,8.6,12,7.2"/> </symbol><symbol viewBox="0 0 15.9 15.9" id="icon-p"><title>icon-p</title> <path d="M8,15.9c-2,0-4.1-0.8-5.7-2.3c-3.1-3.1-3.1-8.2,0-11.3s8.2-3.1,11.3,0s3.1,8.2,0,11.3C12.1,15.1,10,15.9,8,15.9 M8,1.1
	c-1.8,0-3.5,0.7-4.8,2c-2.7,2.7-2.7,7,0,9.7s7,2.7,9.7,0s2.7-7,0-9.7C11.5,1.7,9.8,1.1,8,1.1"/> <path d="M6.5,12.3c-0.3,0-0.6-0.3-0.6-0.6V8.9V4.4c0-0.3,0.3-0.6,0.6-0.6H8c1.6,0,2.8,1.3,2.8,2.8c0,1.6-1.3,2.8-2.8,2.8H7v2.2
	C7.1,12.1,6.8,12.3,6.5,12.3 M7.1,5v3.4H8c0.9,0,1.7-0.8,1.7-1.7C9.7,5.8,8.9,5,8,5H7.1z"/> </symbol><symbol viewBox="0 0 16 16" id="icon-place"><title>icon-place</title> <path d="M15.4,14.8h-0.8v-5c0.3,0,0.6-0.3,0.6-0.6c0-2.7-2.5-4.4-6.7-4.6V4.5V3.2h2.7c0.3,0,0.6-0.3,0.6-0.6v-2
	c0-0.3-0.3-0.6-0.6-0.6H8C7.7,0,7.4,0.3,7.4,0.6v4v0.1C3.3,4.8,0.7,6.6,0.7,9.3c0,0.3,0.3,0.6,0.6,0.6v5H0.6c-0.3,0-0.6,0.3-0.6,0.6
	S0.3,16,0.6,16h14.8c0.3,0,0.6-0.3,0.6-0.6C16,15.1,15.7,14.8,15.4,14.8 M8.6,1.2h2.1V2H8.6V1.2z M13.4,14.8h-2.9v-5h2.9V14.8z
	 M9.4,14.9H6.6v-5h2.8V14.9z M8,5.9c2.7,0,5.6,0.8,6,2.8H2C2.4,6.6,5.3,5.9,8,5.9 M2.6,9.9h2.9v5H2.6V9.9z"/> </symbol><symbol viewBox="0 0 16 16" id="icon-skate"><title>icon-skate</title> <path d="M15.8,13.5c-0.3-0.2-0.6-0.1-0.8,0.1c-0.9,1.3-2.5,1.3-2.6,1.3h-1.6v-0.1v-2.6c0.8,0,2.3-0.1,3.2-0.8l0.1-0.1
	c0.4-0.4,0.7-1.4,0.7-2.4c0-0.3,0-0.8-0.9-1.2h-0.1c-6-1.3-6.3-3.3-6.3-3.3c-0.3-3.9-0.4-4-0.6-4.2C6.6,0,6.5-0.2,4.1,0.7L1.6,0.5
	C1.2,0.5,1,0.7,0.9,1L0,9.9C0,10-0.1,11,0.7,11.6c0.1,0,0.1,0.1,0.2,0.1c0.4,0.1,1.2,0.1,2.4-0.1v3.1v0.1H0.6
	c-0.3,0-0.6,0.3-0.6,0.6C0,15.7,0.3,16,0.6,16h11.8c0.3,0,2.2-0.1,3.5-1.7C16.1,14,16,13.7,15.8,13.5 M1.3,10.6
	C1.1,10.4,1.2,10,1.2,10L2,1.7l2.1,0.2h0.3C4.9,1.6,5.6,1.4,6,1.3C6.1,2,6.1,3.2,6.2,4.4c0,0.4,0.3,2.9,7.1,4.4
	c0.1,0.1,0.2,0.1,0.2,0.1c0,0.8-0.2,1.5-0.3,1.6C12.5,11,11,11,10.4,11c-4.3-1-6.4-0.7-6.6-0.6C2.2,10.7,1.6,10.6,1.3,10.6
	 M4.4,14.7v-3.3c0.7-0.1,2.5,0,5.2,0.6v2.7v0.1H4.4V14.7z"/> </symbol><symbol viewBox="0 0 16.1 16" id="icon-snow"><title>icon-snow</title> <path d="M11.7,6.6l3.6,0.9h0.1c0.2,0,0.5-0.2,0.5-0.4c0.1-0.3-0.1-0.6-0.4-0.7L13,5.8l2-1.1c0.3-0.1,0.4-0.5,0.2-0.8
	c-0.1-0.3-0.5-0.4-0.8-0.2l-2.1,1.2L13,2.6c0.2-0.3,0-0.6-0.3-0.7C12.4,1.8,12.1,2,12,2.3l-1,3.4L8.5,7.1V4.3l2.6-2.5
	c0.2-0.2,0.2-0.6,0-0.8c-0.2-0.2-0.6-0.2-0.8,0L8.5,2.8V0.6C8.5,0.2,8.3,0,8,0C7.7,0,7.4,0.2,7.4,0.6v2.3L5.5,1.1
	C5.3,0.9,5,0.9,4.8,1.1c-0.2,0.2-0.2,0.6,0,0.8l2.6,2.5v2.7L4.8,5.7l-1-3.4c0-0.3-0.3-0.5-0.6-0.4S2.7,2.3,2.8,2.6l0.7,2.3L1.4,3.8
	C1.1,3.6,0.8,3.7,0.6,4c-0.1,0.3,0,0.6,0.2,0.8l2,1.1L0.4,6.5C0.1,6.6-0.1,6.9,0,7.2c0.1,0.3,0.3,0.4,0.5,0.4h0.1l3.6-0.9L6.8,8
	L4.1,9.5L0.8,8.6C0.5,8.5,0.2,8.7,0.1,9C0,9.3,0.2,9.6,0.5,9.7l2.1,0.5l-1.8,1c-0.3,0.1-0.4,0.5-0.2,0.8c0.1,0.2,0.3,0.3,0.5,0.3
	c0.1,0,0.2,0,0.3-0.1l1.9-1l-0.6,2c-0.1,0.3,0.1,0.6,0.4,0.7h0.2c0.2,0,0.5-0.2,0.5-0.4l0.9-3.1l2.8-1.5v2.9L5,14.1
	c-0.2,0.2-0.2,0.6,0,0.8c0.1,0.1,0.3,0.2,0.4,0.2c0.1,0,0.3,0,0.4-0.2l1.6-1.5v2.1C7.4,15.8,7.7,16,8,16c0.3,0,0.6-0.2,0.6-0.6v-2
	l1.6,1.5c0.1,0.1,0.2,0.2,0.4,0.2c0.1,0,0.3-0.1,0.4-0.2c0.2-0.2,0.2-0.6,0-0.8l-2.4-2.3V8.9l2.8,1.5l0.9,3.1
	c0.1,0.2,0.3,0.4,0.5,0.4H13c0.3-0.1,0.5-0.4,0.4-0.7l-0.6-2l1.9,1c0.1,0,0.2,0.1,0.3,0.1c0.2,0,0.4-0.1,0.5-0.3
	c0.1-0.3,0-0.6-0.2-0.8l-1.8-1l2.1-0.5C15.9,9.6,16.1,9.3,16,9c-0.1-0.3-0.4-0.5-0.7-0.4L12,9.4L9.1,8L11.7,6.6z"/> </symbol><symbol viewBox="0 0 60 60" id="icon-text"><title>icon-text</title> <g> <path d="M31.8,47.1H10.9V19.6h5.6c-0.8-2.2-1.1-4.6-0.9-7H9.6c-1.6,0-2.9,1.3-2.9,2.9c0,0,0,36.2,0,37.7
		c0,6.2,9.2,6.7,14.7,6.7c5.5,0,14.8-0.5,14.8-6.7V32.6c-1.4,0-2.9-0.2-4.3-0.5V47.1z"/> <path d="M36.7,0C27.8,0,20,5.9,20,14.1c0,2.9,1,5.7,2.8,7.9c0.1,2.6-1.4,6.3-2.8,9c3.6-0.7,8.8-2.1,11.1-3.6
		c12.9,3.2,22.2-4.8,22.2-13.3C53.4,5.9,45.4,0,36.7,0"/> </g> </symbol><symbol viewBox="0 0 60 60" id="icon-voice"><title>icon-voice</title> <g> <path d="M33.2,21.1c1.7,0.5,3.2,1.7,4.1,3.3c0.9,1.7,1.1,3.6,0.5,5.3l-6.7-2L33.2,21.1z M34.1,18
		c2.5,0.7,4.7,2.4,6,4.9c1.3,2.5,1.5,5.2,0.8,7.7l4.1,1.2c1.1-3.5,0.8-7.5-1.1-11c-1.9-3.5-5-5.9-8.6-7L34.1,18z M36.3,10.9
		c4.3,1.3,8.2,4.2,10.5,8.5c2.3,4.3,2.7,9.1,1.4,13.4l4.2,1.3c1.6-5.4,1.2-11.4-1.7-16.7c-2.9-5.3-7.7-9-13.1-10.6L36.3,10.9z
		 M38.4,56.1c-3.5,1.6-11.6,6.4-24.7-19.7C0.7,10.6,9.4,6.6,12.6,4.9c0.1,0,4.7-2.4,4.7-2.4L25,17.9l-4.6,2.3
		c-4.9,2.7,5.3,22.8,10.2,20.4c0.2-0.1,4.6-2.3,4.6-2.3L43,53.8C43,53.8,38.6,56,38.4,56.1"/> </g> </symbol><symbol viewBox="0 0 15.9 16" id="icon-warning"><title>icon-warning</title> <path d="M8,11.1c-0.4,0-0.7-0.3-0.7-0.7V6.6c0-0.4,0.3-0.7,0.7-0.7c0.4,0,0.7,0.3,0.7,0.7v3.8C8.7,10.8,8.4,11.1,8,11.1"/> <path d="M15.4,16H0.6c-0.2,0-0.4-0.1-0.5-0.3s-0.1-0.4,0-0.6L7.5,0.3c0.2-0.4,0.8-0.4,1,0l7.4,14.9c0.1,0.2,0.1,0.4,0,0.6
	C15.8,15.9,15.6,16,15.4,16 M1.5,14.8h13L8,1.9L1.5,14.8z"/> <path d="M8,12.1c0.5,0,0.9,0.4,0.9,0.9S8.5,13.9,8,13.9c-0.5,0-0.9-0.4-0.9-0.9S7.5,12.1,8,12.1"/> </symbol><symbol viewBox="0 0 158.3 72.3" id="locomotive"><title>locomotive</title> <path d="M158.3,3.1V0.2h-8.6v5.5h-6.1l0.3-5.5h-3.6l-0.2,5.5h-3.6l-0.2-5.5h-3.6l0.3,5.5h-6.7V0.2h-3.4v5.5h-8.3V3.1
	h3.4V0.2h-10.3v2.9h3.4v2.6h-8.5V4.3c-0.1-1.2-0.6-2.2-1.6-3.1c-1-0.8-2.2-1.3-3.6-1.3c-1.4,0-2.7,0.5-3.7,1.3c-1,0.8-1.5,1.8-1.5,3
	v1.4h-8L84,0.2h-2.6l-0.5,5.5h-9.3l-0.5-5.5h-2.6l-0.1,5.5h-8.2V4.3c-0.1-1.2-0.6-2.2-1.6-3.1c-1-0.8-2.2-1.3-3.6-1.3
	c-1.4,0-2.7,0.5-3.7,1.3c-1,0.8-1.5,1.8-1.5,3v1.4h-6.5V4.3c-0.1-1.2-0.6-2.2-1.6-3.1c-1-0.8-2.2-1.3-3.6-1.3
	c-1.4,0-2.7,0.5-3.7,1.3c-1,0.8-1.5,1.8-1.5,3v1.4h-7.7V4.3c-0.1-1.2-0.6-2.2-1.6-3.1c-1-0.8-2.2-1.3-3.6-1.3
	c-1.4,0-2.7,0.5-3.7,1.3c-1,0.8-1.5,1.8-1.5,3v1.4H5.9V0.2H2.4v5.5H0v2.9h2.4v54.9H0v2.9h2.4v5.8H11v-2.9H5.9v-2.9h9.2V68
	c0.1,1.2,0.6,2.2,1.6,3.1c1,0.8,2.2,1.3,3.6,1.3c1.4,0,2.7-0.5,3.7-1.3c1-0.8,1.5-1.8,1.5-3v-1.7h7.7V68c0.1,1.2,0.6,2.2,1.6,3.1
	c1,0.8,2.2,1.3,3.6,1.3c1.4,0,2.6-0.5,3.7-1.3c1-0.8,1.5-1.8,1.5-3v-1.7H40V68c0,0.4-0.2,0.7-0.5,1c-0.3,0.3-0.7,0.4-1.2,0.4
	c-0.5,0-0.9-0.1-1.2-0.4c-0.3-0.3-0.5-0.6-0.5-1v-1.7h13.4V68c0.1,1.2,0.6,2.2,1.6,3.1c1,0.8,2.2,1.3,3.6,1.3c1.4,0,2.7-0.5,3.7-1.3
	c1-0.8,1.5-1.8,1.5-3v-1.7h7.5l-0.1,5.8h3.4L71,66.3h3.4l0.7,6h2.3l0.6-6h3.4l0,5.8h3.4l-0.1-5.8h7.3V68c0.1,1.2,0.6,2.2,1.6,3.1
	c1,0.8,2.2,1.3,3.6,1.3c1.4,0,2.6-0.5,3.7-1.3c1-0.8,1.5-1.8,1.5-3v-1.7h8.5v5.8h3.4v-5.8h8.3v5.8h3.4v-5.8h9.9l0.3,5.8h3.8l0.3-5.8
	h9.3v5.8h8.6v-2.9h-5.2v-2.9h3.4v-2.9h-3.4V37.6h3.4v-2.9h-3.4V8.6h3.4V5.7h-3.4V3.1H158.3z M139.9,8.6l-1.6,40.6l-1.7-40.6H139.9z
	 M95.5,4.3c0-0.4,0.2-0.7,0.5-1c0.3-0.3,0.7-0.4,1.2-0.4c0.5,0,0.9,0.1,1.2,0.4c0.3,0.3,0.5,0.6,0.5,1v1.4h-3.4V4.3z M99,63.5h-3.4
	V8.6H99V63.5z M80.7,8.6l-4.4,47.8L71.9,8.6H80.7z M53.4,4.3c0-0.4,0.2-0.7,0.5-1c0.3-0.3,0.7-0.4,1.2-0.4c0.5,0,0.9,0.1,1.2,0.4
	c0.3,0.3,0.5,0.6,0.5,1v1.4h-3.4V4.3z M56.8,63.5h-3.4V8.6h3.4V63.5z M36.5,4.3c0-0.4,0.2-0.7,0.5-1c0.3-0.3,0.7-0.4,1.2-0.4
	c0.5,0,0.9,0.1,1.2,0.4c0.3,0.3,0.5,0.6,0.5,1v1.4h-3.4V4.3z M18.5,4.3c0-0.4,0.2-0.7,0.5-1c0.3-0.3,0.7-0.4,1.2-0.4
	c0.5,0,0.9,0.1,1.2,0.4c0.3,0.3,0.5,0.6,0.5,1v1.4h-3.4V4.3z M22,63.5h-3.4V8.6H22V63.5z M5.9,8.6h9.2v54.9H5.9V8.6z M22,68
	c0,0.4-0.2,0.7-0.5,1c-0.3,0.3-0.7,0.4-1.2,0.4c-0.5,0-0.9-0.1-1.2-0.4c-0.3-0.3-0.5-0.6-0.5-1v-1.7H22V68z M25.4,8.6h7.7v54.9h-7.7
	V8.6z M36.5,8.6h13.4v54.9H36.5V8.6z M56.8,68c0,0.4-0.2,0.7-0.5,1c-0.3,0.3-0.7,0.4-1.2,0.4c-0.5,0-0.9-0.1-1.2-0.4
	c-0.3-0.3-0.5-0.6-0.5-1v-1.7h3.4V68z M60.3,63.5V8.6h8.2l-0.7,54.9H60.3z M71,63.5l-0.5-32l3.6,32H71z M78.3,63.5l3.4-32l-0.3,32
	H78.3z M84.8,63.5L84.1,8.6h8v54.9H84.8z M99,68c0,0.4-0.2,0.7-0.5,1c-0.3,0.3-0.7,0.4-1.2,0.4c-0.5,0-0.9-0.1-1.2-0.4
	c-0.3-0.3-0.5-0.6-0.5-1v-1.7H99V68z M102.4,8.6h8.5v54.9h-8.5V8.6z M114.4,8.6h8.3v54.9h-8.3V8.6z M126.2,63.5V8.6h6.9l2.9,54.9
	H126.2z M149.7,63.5h-9.1l2.8-54.9h6.3V63.5z"/> </symbol><symbol viewBox="0 0 161.2 56.6" id="logo"><title>logo</title> <style type="text/css"> .st0{fill:#010202;} </style> <g> <path class="st0" d="M75.4,0L8.1,15.4c-0.4,0.1-0.8,0.3-1,0.7l-7,14.2c-0.3,0.5-0.2,1.1,0.2,1.5c0.3,0.3,0.6,0.4,1,0.4
		c0.2,0,0.3,0,0.5-0.1L13,27.8l6.4,11.6c0.1,0.2,0.2,0.3,0.4,0.4c0.2,0.2,0.5,0.3,0.8,0.3c0.2,0,0.5-0.1,0.7-0.2l9.3-5.5l5.6,10.5
		c0.2,0.4,0.6,0.7,1.1,0.7c0.1,0,0.1,0,0.2,0c0.4,0,0.8-0.2,1-0.5L76.6,2.3c0.5-0.6,0.5-1.4-0.1-1.9C76.2,0.1,75.8,0,75.4,0z
		 M4.2,28.4l4.3-8.7l3.2,5.8L4.2,28.4z M20.1,35l-9.6-17.4l53-12.6l-39,14.6c-0.4,0.2-0.7,0.5-0.8,1L20.1,35z M22.7,35.9l2.8-11.2
		l3.9,7.3L22.7,35.9z M37.7,41.9L27,21.7l43.8-17L37.7,41.9z"/> <g> <path class="st0" d="M132,38.3c-2.2,0-4.3,1-5.7,2.8c-1.4-1.8-3.5-2.8-5.7-2.8c-1.7,0-3.3,0.6-4.5,1.6v-0.7c0-0.2-0.1-0.3-0.3-0.3
			h-2.3c-0.2,0-0.3,0.1-0.3,0.3v16.5c0,0.2,0.1,0.3,0.3,0.3l0,0c0,0,0.1,0,0.1,0h2.5c0.2,0,0.3-0.1,0.3-0.3V45.5
			c0-2.3,1.9-4.2,4.2-4.2c2.3,0,4.2,1.9,4.2,4.2l0,10.3c0,0.2,0.1,0.3,0.3,0.3h2.5c0.2,0,0.3-0.1,0.3-0.3V45.5
			c0-2.3,1.9-4.2,4.2-4.2c2.3,0,4.2,1.9,4.2,4.2v10.3c0,0.2,0.1,0.3,0.3,0.3h2.5c0.2,0,0.3-0.1,0.3-0.3V45.5
			C139.2,41.5,136,38.3,132,38.3z"/> <path class="st0" d="M80.3,38.3c-2.2,0-4.3,1-5.7,2.8c-1.4-1.8-3.5-2.8-5.7-2.8c-1.6,0-3.2,0.6-4.4,1.5v-0.5
			c0-0.2-0.1-0.3-0.3-0.3H62c-0.2,0-0.3,0.1-0.3,0.3v6.3v10.3c0,0.2,0.1,0.3,0.3,0.3h2.5c0.2,0,0.3-0.1,0.3-0.3V45.5
			c0-2.3,1.9-4.2,4.2-4.2c2.3,0,4.2,1.9,4.2,4.1c0,0,0,0.1,0,0.1v10.2c0,0.2,0.1,0.3,0.3,0.3h2.5c0.2,0,0.3-0.1,0.3-0.3V45.5
			c0-2.3,1.9-4.2,4.2-4.2c2.3,0,4.2,1.9,4.2,4.2v10.3c0,0.2,0.1,0.3,0.3,0.3h2.5c0.2,0,0.3-0.1,0.3-0.3V45.5
			C87.5,41.5,84.3,38.3,80.3,38.3z"/> <path class="st0" d="M152.1,38.3c-5.9,0-9.1,4.7-9.1,9.1c0,4.4,3.2,9,9.1,9c5.9,0,9.1-4.7,9.1-9C161.2,43,158,38.3,152.1,38.3z
			 M152.1,53.4c-3.3,0-5.8-2.6-5.8-5.9v0c0-3.4,2.5-6,5.8-6c3.3,0,5.8,2.6,5.8,6C157.9,50.8,155.4,53.4,152.1,53.4z"/> <path class="st0" d="M106.8,40.8c-1.7-1.6-4-2.5-6.4-2.5c-5.1,0-9.2,4.1-9.2,9.2c0,4.5,3.4,9.2,9.2,9.2c1.8,0,3.5-0.5,4.9-1.5
			c0.8-0.5,1.6-1.2,2.2-2l0,0c0.2-0.3,0.1-0.6-0.2-0.8l-1.7-0.9c-0.2-0.1-0.5-0.1-0.7,0.1c0,0,0,0.1,0,0.1c-1.1,1.4-2.6,2.2-4.5,2.2
			c-2.7,0-5.7-1.9-5.8-5.3h14.6c0.2,0,0.3-0.1,0.3-0.3C109.7,45.3,108.8,42.7,106.8,40.8C106.8,40.8,106.8,40.8,106.8,40.8z
			 M94.7,45.9c0.2-2.4,2.4-4.8,5.7-4.8c0,0,0,0,0.1,0c3.2,0,5.5,2.5,5.7,4.8H94.7z"/> </g> </g> </symbol></svg>