<?xml version="1.0" encoding="utf-8"?>
<!-- Generator: Adobe Illustrator 18.1.1, SVG Export Plug-In . SVG Version: 6.00 Build 0)  -->
<svg version="1.1" id="Layer_1" xmlns="http://www.w3.org/2000/svg" xmlns:xlink="http://www.w3.org/1999/xlink" x="0px" y="0px"
	 width="16px" height="16px" viewBox="0 0 16 16" enable-background="new 0 0 16 16" xml:space="preserve">
<path d="M15.4,14.8h-0.8v-5c0.3,0,0.6-0.3,0.6-0.6c0-2.7-2.5-4.4-6.7-4.6V4.5V3.2h2.7c0.3,0,0.6-0.3,0.6-0.6v-2
	c0-0.3-0.3-0.6-0.6-0.6H8C7.7,0,7.4,0.3,7.4,0.6v4v0.1C3.3,4.8,0.7,6.6,0.7,9.3c0,0.3,0.3,0.6,0.6,0.6v5H0.6c-0.3,0-0.6,0.3-0.6,0.6
	S0.3,16,0.6,16h14.8c0.3,0,0.6-0.3,0.6-0.6C16,15.1,15.7,14.8,15.4,14.8 M8.6,1.2h2.1V2H8.6V1.2z M13.4,14.8h-2.9v-5h2.9V14.8z
	 M9.4,14.9H6.6v-5h2.8V14.9z M8,5.9c2.7,0,5.6,0.8,6,2.8H2C2.4,6.6,5.3,5.9,8,5.9 M2.6,9.9h2.9v5H2.6V9.9z"/>
</svg>
