<?xml version="1.0" encoding="utf-8"?>
<!-- Generator: Adobe Illustrator 18.1.1, SVG Export Plug-In . SVG Version: 6.00 Build 0)  -->
<svg version="1.1" id="Layer_1" xmlns="http://www.w3.org/2000/svg" xmlns:xlink="http://www.w3.org/1999/xlink" x="0px" y="0px"
	 width="15.9px" height="16px" viewBox="0 0 15.9 16" enable-background="new 0 0 15.9 16" xml:space="preserve">
<path d="M8,11.1c-0.4,0-0.7-0.3-0.7-0.7V6.6c0-0.4,0.3-0.7,0.7-0.7c0.4,0,0.7,0.3,0.7,0.7v3.8C8.7,10.8,8.4,11.1,8,11.1"/>
<path d="M15.4,16H0.6c-0.2,0-0.4-0.1-0.5-0.3s-0.1-0.4,0-0.6L7.5,0.3c0.2-0.4,0.8-0.4,1,0l7.4,14.9c0.1,0.2,0.1,0.4,0,0.6
	C15.8,15.9,15.6,16,15.4,16 M1.5,14.8h13L8,1.9L1.5,14.8z"/>
<path d="M8,12.1c0.5,0,0.9,0.4,0.9,0.9S8.5,13.9,8,13.9c-0.5,0-0.9-0.4-0.9-0.9S7.5,12.1,8,12.1"/>
</svg>
