<?xml version="1.0" encoding="utf-8"?>
<!-- Generator: Adobe Illustrator 19.1.0, SVG Export Plug-In . SVG Version: 6.00 Build 0)  -->
<svg version="1.1" id="Calque_1" xmlns="http://www.w3.org/2000/svg" xmlns:xlink="http://www.w3.org/1999/xlink" x="0px" y="0px"
	 width="161.2px" height="56.6px" viewBox="0 0 161.2 56.6" style="enable-background:new 0 0 161.2 56.6;" xml:space="preserve">
<style type="text/css">
	.st0{fill:#010202;}
</style>
<g>
	<path class="st0" d="M75.4,0L8.1,15.4c-0.4,0.1-0.8,0.3-1,0.7l-7,14.2c-0.3,0.5-0.2,1.1,0.2,1.5c0.3,0.3,0.6,0.4,1,0.4
		c0.2,0,0.3,0,0.5-0.1L13,27.8l6.4,11.6c0.1,0.2,0.2,0.3,0.4,0.4c0.2,0.2,0.5,0.3,0.8,0.3c0.2,0,0.5-0.1,0.7-0.2l9.3-5.5l5.6,10.5
		c0.2,0.4,0.6,0.7,1.1,0.7c0.1,0,0.1,0,0.2,0c0.4,0,0.8-0.2,1-0.5L76.6,2.3c0.5-0.6,0.5-1.4-0.1-1.9C76.2,0.1,75.8,0,75.4,0z
		 M4.2,28.4l4.3-8.7l3.2,5.8L4.2,28.4z M20.1,35l-9.6-17.4l53-12.6l-39,14.6c-0.4,0.2-0.7,0.5-0.8,1L20.1,35z M22.7,35.9l2.8-11.2
		l3.9,7.3L22.7,35.9z M37.7,41.9L27,21.7l43.8-17L37.7,41.9z"/>
	<g>
		<path class="st0" d="M132,38.3c-2.2,0-4.3,1-5.7,2.8c-1.4-1.8-3.5-2.8-5.7-2.8c-1.7,0-3.3,0.6-4.5,1.6v-0.7c0-0.2-0.1-0.3-0.3-0.3
			h-2.3c-0.2,0-0.3,0.1-0.3,0.3v16.5c0,0.2,0.1,0.3,0.3,0.3l0,0c0,0,0.1,0,0.1,0h2.5c0.2,0,0.3-0.1,0.3-0.3V45.5
			c0-2.3,1.9-4.2,4.2-4.2c2.3,0,4.2,1.9,4.2,4.2l0,10.3c0,0.2,0.1,0.3,0.3,0.3h2.5c0.2,0,0.3-0.1,0.3-0.3V45.5
			c0-2.3,1.9-4.2,4.2-4.2c2.3,0,4.2,1.9,4.2,4.2v10.3c0,0.2,0.1,0.3,0.3,0.3h2.5c0.2,0,0.3-0.1,0.3-0.3V45.5
			C139.2,41.5,136,38.3,132,38.3z"/>
		<path class="st0" d="M80.3,38.3c-2.2,0-4.3,1-5.7,2.8c-1.4-1.8-3.5-2.8-5.7-2.8c-1.6,0-3.2,0.6-4.4,1.5v-0.5
			c0-0.2-0.1-0.3-0.3-0.3H62c-0.2,0-0.3,0.1-0.3,0.3v6.3v10.3c0,0.2,0.1,0.3,0.3,0.3h2.5c0.2,0,0.3-0.1,0.3-0.3V45.5
			c0-2.3,1.9-4.2,4.2-4.2c2.3,0,4.2,1.9,4.2,4.1c0,0,0,0.1,0,0.1v10.2c0,0.2,0.1,0.3,0.3,0.3h2.5c0.2,0,0.3-0.1,0.3-0.3V45.5
			c0-2.3,1.9-4.2,4.2-4.2c2.3,0,4.2,1.9,4.2,4.2v10.3c0,0.2,0.1,0.3,0.3,0.3h2.5c0.2,0,0.3-0.1,0.3-0.3V45.5
			C87.5,41.5,84.3,38.3,80.3,38.3z"/>
		<path class="st0" d="M152.1,38.3c-5.9,0-9.1,4.7-9.1,9.1c0,4.4,3.2,9,9.1,9c5.9,0,9.1-4.7,9.1-9C161.2,43,158,38.3,152.1,38.3z
			 M152.1,53.4c-3.3,0-5.8-2.6-5.8-5.9v0c0-3.4,2.5-6,5.8-6c3.3,0,5.8,2.6,5.8,6C157.9,50.8,155.4,53.4,152.1,53.4z"/>
		<path class="st0" d="M106.8,40.8c-1.7-1.6-4-2.5-6.4-2.5c-5.1,0-9.2,4.1-9.2,9.2c0,4.5,3.4,9.2,9.2,9.2c1.8,0,3.5-0.5,4.9-1.5
			c0.8-0.5,1.6-1.2,2.2-2l0,0c0.2-0.3,0.1-0.6-0.2-0.8l-1.7-0.9c-0.2-0.1-0.5-0.1-0.7,0.1c0,0,0,0.1,0,0.1c-1.1,1.4-2.6,2.2-4.5,2.2
			c-2.7,0-5.7-1.9-5.8-5.3h14.6c0.2,0,0.3-0.1,0.3-0.3C109.7,45.3,108.8,42.7,106.8,40.8C106.8,40.8,106.8,40.8,106.8,40.8z
			 M94.7,45.9c0.2-2.4,2.4-4.8,5.7-4.8c0,0,0,0,0.1,0c3.2,0,5.5,2.5,5.7,4.8H94.7z"/>
	</g>
</g>
</svg>
